# FlatmatesRh OBJ export
# @layer: GEO
# @craft: Group06
# @cell: 0_0
o Group06_GEO_0_0
v 0 0 0
v 0 2 0
v 2 0 0
v 2 2 0
v 1 0 0
v 2 1 0
v 1 2 0
v 0 1 0
v 0 0 1
v 0 2 1
v 2 0 1
v 1 0 1
v 2 1 1
v 2 2 1
v 1 2 1
v 0 1 1
v 0 0 0
v 2 0 0
v 2 0 1
v 1 0 0
v 0 0 1
v 1 0 1
v 2 0 0
v 2 2 0
v 2 2 1
v 2 0 1
v 2 1 0
v 2 1 1
v 2 2 0
v 0 2 0
v 0 2 1
v 2 2 1
v 1 2 0
v 1 2 1
v 0 2 0
v 0 0 0
v 0 0 1
v 0 2 1
v 0 1 0
v 0 1 1
f 8 5 1
f 8 2 7
f 6 5 8
f 8 7 6
f 6 7 4
f 3 5 6
f 12 15 16
f 16 15 10
f 12 16 9
f 13 12 11
f 13 14 15
f 12 13 15
f 21 17 20 22
f 18 19 22 20
f 26 23 27 28
f 24 25 28 27
f 32 29 33 34
f 30 31 34 33
f 38 35 39 40
f 36 37 40 39
