# FlatmatesRh OBJ export
# @layer: GEO
# @craft: Group06
# @cell: 0_1
o Group06_GEO_0_1
v 0 2 1.2564496110201162E-09
v 0 4 1.2564496110201162E-09
v 2 2 1.2564496110201162E-09
v 2 4 1.2564496110201162E-09
v 1 2 1.2564496110201162E-09
v 2 3 1.2564496110201162E-09
v 1 4 1.2564496110201162E-09
v 0 3 1.2564496110201162E-09
v 0 4 1
v 2 4 1
v 0 2 1
v 1 2 1
v 2 2 1
v 2 3 1
v 1 4 1
v 0 3 1
v 0 2 1.2564496110201162E-09
v 0 2 1
v 2 2 1.2564496110201162E-09
v 1 2 1.2564496110201162E-09
v 2 2 1
v 1 2 1
v 2 2 1.2564496110201162E-09
v 2 2 1
v 2 4 1.2564496110201162E-09
v 2 3 1.2564496110201162E-09
v 2 4 1
v 2 3 1
v 2 4 1.2564496110201162E-09
v 2 4 1
v 0 4 1.2564496110201162E-09
v 1 4 1.2564496110201162E-09
v 0 4 1
v 1 4 1
v 0 4 1.2564496110201162E-09
v 0 4 1
v 0 2 1.2564496110201162E-09
v 0 2 1
v 0 3 1.2564496110201162E-09
v 0 3 1
f 8 5 1
f 8 2 7
f 6 5 8
f 8 7 6
f 6 7 4
f 3 5 6
f 16 11 12
f 16 15 9
f 15 16 12
f 12 14 15
f 14 10 15
f 13 14 12
f 18 17 20 22
f 19 21 22 20
f 24 23 26 28
f 25 27 28 26
f 30 29 32 34
f 31 33 34 32
f 36 35 39 40
f 37 38 40 39
