# FlatmatesRh OBJ export
# @layer: GEO
# @craft: Group06
# @cell: 0_2
o Group06_GEO_0_2
v 0 4 2.5128992220402324E-09
v 0 6 2.5128992220402324E-09
v 2 4 2.5128992220402324E-09
v 2 6 2.5128992220402324E-09
v 1 4 2.5128992220402324E-09
v 2 5 2.5128992220402324E-09
v 1 6 2.5128992220402324E-09
v 0 5 2.5128992220402324E-09
v 0 4 1
v 0 6 1
v 2 4 1
v 1 4 1
v 2 5 1
v 2 6 1
v 1 6 1
v 0 5 1
v 0 4 2.5128992220402324E-09
v 2 4 2.5128992220402324E-09
v 2 4 1
v 1 4 2.5128992220402324E-09
v 0 4 1
v 1 4 1
v 2 4 2.5128992220402324E-09
v 2 6 2.5128992220402324E-09
v 2 6 1
v 2 4 1
v 2 5 2.5128992220402324E-09
v 2 5 1
v 2 6 2.5128992220402324E-09
v 0 6 2.5128992220402324E-09
v 0 6 1
v 2 6 1
v 1 6 2.5128992220402324E-09
v 1 6 1
v 0 6 2.5128992220402324E-09
v 0 6 1
v 0 4 2.5128992220402324E-09
v 0 4 1
v 0 5 2.5128992220402324E-09
v 0 5 1
f 8 5 1
f 8 2 7
f 6 5 8
f 8 7 6
f 6 7 4
f 3 5 6
f 16 13 14 15
f 16 15 10
f 12 16 9
f 13 12 11
f 12 13 16
f 17 20 22 21
f 19 22 20 18
f 26 23 27 28
f 24 25 28 27
f 32 29 33 34
f 30 31 34 33
f 36 35 39 40
f 37 38 40 39
