# FlatmatesRh OBJ export
# @layer: GEO
# @craft: Group06
# @cell: 0_3
o Group06_GEO_0_3
v 0 8 3.7693488330603486E-09
v 2 6 3.7693488330603486E-09
v 2 8 3.7693488330603486E-09
v 0 6 3.7693488330603486E-09
v 1 6 3.7693488330603486E-09
v 2 7 3.7693488330603486E-09
v 1 8 3.7693488330603486E-09
v 0 7 3.7693488330603486E-09
v 0 8 1
v 2 6 1
v 2 8 1
v 0 6 1
v 1 6 1
v 2 7 1
v 1 8 1
v 0 7 1
v 0 6 3.7693488330603486E-09
v 2 6 3.7693488330603486E-09
v 2 6 1
v 1 6 3.7693488330603486E-09
v 0 6 1
v 1 6 1
v 2 6 3.7693488330603486E-09
v 2 8 3.7693488330603486E-09
v 2 8 1
v 2 6 1
v 2 7 3.7693488330603486E-09
v 2 7 1
v 2 8 3.7693488330603486E-09
v 0 8 3.7693488330603486E-09
v 0 8 1
v 2 8 1
v 1 8 3.7693488330603486E-09
v 1 8 1
v 0 8 3.7693488330603486E-09
v 0 8 1
v 0 6 3.7693488330603486E-09
v 0 6 1
v 0 7 3.7693488330603486E-09
v 0 7 1
f 8 5 4
f 8 1 7
f 7 5 8
f 5 7 6
f 6 7 3
f 2 5 6
f 13 15 16
f 16 15 9
f 13 16 12
f 14 13 10
f 14 11 15
f 13 14 15
f 21 17 20 22
f 18 19 22 20
f 26 23 27 28
f 24 25 28 27
f 32 29 33 34
f 30 31 34 33
f 36 35 39 40
f 37 38 40 39
