# FlatmatesRh OBJ export
# @layer: GEO
# @craft: Group06
# @cell: 1_0
o Group06_GEO_1_0
v 2 0 0
v 2 2 0
v 4 0 0
v 4 2 0
v 3 0 0
v 4 1 0
v 3 2 0
v 2 1 0
v 4 0 1
v 4 2 1
v 2 0 1
v 3 0 1
v 4 1 1
v 3 2 1
v 2 2 1
v 2 1 1
v 4 0 0
v 4 2 0
v 4 2 1
v 4 0 1
v 4 1 0
v 4 1 1
v 4 2 0
v 2 2 0
v 2 2 1
v 4 2 1
v 3 2 0
v 3 2 1
v 2 2 0
v 2 0 0
v 2 0 1
v 2 2 1
v 2 1 0
v 2 1 1
v 2 0 0
v 2 0 1
v 4 0 0
v 4 0 1
v 3 0 0
v 3 0 1
f 8 5 1
f 8 2 7
f 6 5 8
f 8 7 6
f 6 7 4
f 3 5 6
f 16 11 12
f 16 14 15
f 13 16 12
f 16 13 14
f 13 10 14
f 9 13 12
f 20 17 21 22
f 18 19 22 21
f 26 23 27 28
f 24 25 28 27
f 32 29 33 34
f 30 31 34 33
f 36 35 39 40
f 37 38 40 39
