# FlatmatesRh OBJ export
# @layer: GEO
# @craft: Group06
# @cell: 1_2
o Group06_GEO_1_2
v 2 4 2.5128992220402324E-09
v 4 4 2.5128992220402324E-09
v 4 4 1
v 3 4 2.5128992220402324E-09
v 2 4 1
v 3 4 1
v 4 4 2.5128992220402324E-09
v 4 6 2.5128992220402324E-09
v 4 6 1
v 4 4 1
v 4 5 2.5128992220402324E-09
v 4 5 1
v 4 6 2.5128992220402324E-09
v 2 6 2.5128992220402324E-09
v 2 6 1
v 4 6 1
v 3 6 2.5128992220402324E-09
v 3 6 1
v 2 6 2.5128992220402324E-09
v 2 4 2.5128992220402324E-09
v 2 4 1
v 2 6 1
v 2 5 2.5128992220402324E-09
v 2 5 1
v 2 4 2.5128992220402324E-09
v 2 6 2.5128992220402324E-09
v 4 4 2.5128992220402324E-09
v 4 6 2.5128992220402324E-09
v 3 4 2.5128992220402324E-09
v 4 5 2.5128992220402324E-09
v 3 6 2.5128992220402324E-09
v 2 5 2.5128992220402324E-09
v 2 6 1
v 4 4 1
v 4 6 1
v 2 4 1
v 3 4 1
v 4 5 1
v 3 6 1
v 2 5 1
f 5 1 4 6
f 2 3 6 4
f 10 7 11 12
f 8 9 12 11
f 16 13 17 18
f 14 15 18 17
f 22 19 23 24
f 20 21 24 23
f 32 29 25
f 32 26 31
f 30 29 32
f 32 31 30
f 30 31 28
f 27 29 30
f 40 36 37
f 40 39 33
f 38 40 37
f 40 38 39
f 38 35 39
f 34 38 37
