# FlatmatesRh OBJ export
# @layer: GEO
# @craft: Group06
# @cell: 1_3
o Group06_GEO_1_3
v 2 6 3.7693488330603486E-09
v 4 6 3.7693488330603486E-09
v 4 6 1
v 3 6 3.7693488330603486E-09
v 2 6 1
v 3 6 1
v 4 6 3.7693488330603486E-09
v 4 8 3.7693488330603486E-09
v 4 8 1
v 4 6 1
v 4 7 3.7693488330603486E-09
v 4 7 1
v 4 8 3.7693488330603486E-09
v 2 8 3.7693488330603486E-09
v 2 8 1
v 4 8 1
v 3 8 3.7693488330603486E-09
v 3 8 1
v 2 8 3.7693488330603486E-09
v 2 6 3.7693488330603486E-09
v 2 6 1
v 2 8 1
v 2 7 3.7693488330603486E-09
v 2 7 1
v 2 6 3.7693488330603486E-09
v 2 8 3.7693488330603486E-09
v 4 6 3.7693488330603486E-09
v 4 8 3.7693488330603486E-09
v 3 6 3.7693488330603486E-09
v 4 7 3.7693488330603486E-09
v 3 8 3.7693488330603486E-09
v 2 7 3.7693488330603486E-09
v 2 6 1
v 2 8 1
v 4 8 1
v 3 6 1
v 4 6 1
v 4 7 1
v 3 8 1
v 2 7 1
f 6 5 1 4
f 4 2 3 6
f 10 7 11 12
f 8 9 12 11
f 16 13 17 18
f 14 15 18 17
f 22 19 23 24
f 20 21 24 23
f 32 29 25
f 32 26 31
f 31 29 32
f 29 31 30
f 30 31 28
f 27 29 30
f 40 33 36
f 40 39 34
f 39 40 36
f 36 38 39
f 38 35 39
f 37 38 36
