# FlatmatesRh OBJ export
# @layer: GEO
# @craft: Group06
# @cell: 1_4
o Group06_GEO_1_4
v 2 8 5.0257984440804648E-09
v 2 10 5.0257984440804648E-09
v 4 8 5.0257984440804648E-09
v 4 10 5.0257984440804648E-09
v 3 8 5.0257984440804648E-09
v 4 9 5.0257984440804648E-09
v 3 10 5.0257984440804648E-09
v 2 9 5.0257984440804648E-09
v 2 8 1
v 4 8 1
v 4 10 1
v 3 8 1
v 4 9 1
v 3 10 1
v 2 10 1
v 2 9 1
v 2 8 5.0257984440804648E-09
v 2 8 1
v 4 8 5.0257984440804648E-09
v 3 8 5.0257984440804648E-09
v 4 8 1
v 3 8 1
v 4 8 5.0257984440804648E-09
v 4 8 1
v 4 10 5.0257984440804648E-09
v 4 9 5.0257984440804648E-09
v 4 10 1
v 4 9 1
v 2 10 5.0257984440804648E-09
v 2 10 1
v 2 8 5.0257984440804648E-09
v 2 9 5.0257984440804648E-09
v 2 8 1
v 2 9 1
v 4 10 5.0257984440804648E-09
v 4 10 1
v 2 10 5.0257984440804648E-09
v 2 10 1
v 3 10 5.0257984440804648E-09
v 3 10 1
f 8 5 1
f 8 2 7
f 6 5 8
f 8 7 6
f 6 7 4
f 3 5 6
f 16 9 12
f 16 14 15
f 14 16 12
f 12 13 14
f 13 11 14
f 10 13 12
f 18 17 20 22
f 19 21 22 20
f 24 23 26 28
f 25 27 28 26
f 30 29 32 34
f 31 33 34 32
f 36 35 39 40
f 37 38 40 39
