# FlatmatesRh OBJ export
# @layer: GEO
# @craft: Group06
# @cell: 2_0
o Group06_GEO_2_0
v 4 0 0
v 4 2 0
v 6 0 0
v 5 0 0
v 6 1 0
v 6 2 0
v 5 2 0
v 4 1 0
v 4 0 1
v 4 2 1
v 6 0 1
v 5 0 1
v 6 1 1
v 6 2 1
v 5 2 1
v 4 1 1
v 6 0 0
v 6 2 0
v 6 2 1
v 6 0 1
v 6 1 0
v 6 1 1
v 6 2 0
v 4 2 0
v 4 2 1
v 6 2 1
v 5 2 0
v 5 2 1
v 4 2 0
v 4 0 0
v 4 0 1
v 4 2 1
v 4 1 0
v 4 1 1
v 4 0 0
v 4 0 1
v 6 0 0
v 6 0 1
v 5 0 0
v 5 0 1
f 8 4 1
f 8 2 7
f 7 4 8
f 4 7 5
f 5 7 6
f 3 4 5
f 16 9 12
f 16 15 10
f 15 16 12
f 15 12 13 14
f 11 13 12
f 20 17 21 22
f 18 19 22 21
f 26 23 27 28
f 24 25 28 27
f 32 29 33 34
f 30 31 34 33
f 36 35 39 40
f 37 38 40 39
