# FlatmatesRh OBJ export
# @layer: GEO
# @craft: Group06
# @cell: 2_1
o Group06_GEO_2_1
v 4 2 1.2564496110201162E-09
v 4 2 1
v 6 2 1.2564496110201162E-09
v 5 2 1.2564496110201162E-09
v 6 2 1
v 5 2 1
v 6 2 1.2564496110201162E-09
v 6 2 1
v 6 4 1.2564496110201162E-09
v 6 3 1.2564496110201162E-09
v 6 4 1
v 6 3 1
v 6 4 1.2564496110201162E-09
v 6 4 1
v 4 4 1.2564496110201162E-09
v 5 4 1.2564496110201162E-09
v 4 4 1
v 5 4 1
v 4 4 1.2564496110201162E-09
v 4 4 1
v 4 2 1.2564496110201162E-09
v 4 3 1.2564496110201162E-09
v 4 2 1
v 4 3 1
v 4 2 1.2564496110201162E-09
v 4 4 1.2564496110201162E-09
v 6 2 1.2564496110201162E-09
v 6 4 1.2564496110201162E-09
v 5 2 1.2564496110201162E-09
v 6 3 1.2564496110201162E-09
v 5 4 1.2564496110201162E-09
v 4 3 1.2564496110201162E-09
v 4 4 1
v 4 2 1
v 5 2 1
v 6 2 1
v 6 3 1
v 6 4 1
v 5 4 1
v 4 3 1
f 2 1 4 6
f 3 5 6 4
f 8 7 10 12
f 9 11 12 10
f 14 13 16 18
f 15 17 18 16
f 20 19 22 24
f 21 23 24 22
f 32 29 25
f 32 26 31
f 31 29 32
f 29 31 30
f 30 31 28
f 27 29 30
f 40 34 35
f 40 39 33
f 39 40 35
f 39 35 37 38
f 36 37 35
