# FlatmatesRh OBJ export
# @layer: GEO
# @craft: Group06
# @cell: 2_4
o Group06_GEO_2_4
v 4 8 5.0257984440804648E-09
v 4 10 5.0257984440804648E-09
v 6 8 5.0257984440804648E-09
v 6 10 5.0257984440804648E-09
v 5 8 5.0257984440804648E-09
v 6 9 5.0257984440804648E-09
v 5 10 5.0257984440804648E-09
v 4 9 5.0257984440804648E-09
v 4 10 1
v 6 8 1
v 6 10 1
v 4 8 1
v 5 8 1
v 6 9 1
v 5 10 1
v 4 9 1
v 4 8 5.0257984440804648E-09
v 4 8 1
v 6 8 5.0257984440804648E-09
v 5 8 5.0257984440804648E-09
v 6 8 1
v 5 8 1
v 6 8 5.0257984440804648E-09
v 6 8 1
v 6 10 5.0257984440804648E-09
v 6 9 5.0257984440804648E-09
v 6 10 1
v 6 9 1
v 4 10 5.0257984440804648E-09
v 4 10 1
v 4 8 5.0257984440804648E-09
v 4 9 5.0257984440804648E-09
v 4 8 1
v 4 9 1
v 6 10 5.0257984440804648E-09
v 6 10 1
v 4 10 5.0257984440804648E-09
v 4 10 1
v 5 10 5.0257984440804648E-09
v 5 10 1
f 8 5 1
f 8 2 7
f 7 5 8
f 5 7 6
f 6 7 4
f 3 5 6
f 16 12 13
f 16 15 9
f 14 16 13
f 16 14 15
f 14 11 15
f 10 14 13
f 18 17 20 22
f 19 21 22 20
f 24 23 26 28
f 25 27 28 26
f 30 29 32 34
f 31 33 34 32
f 36 35 39 40
f 37 38 40 39
