# FlatmatesRh OBJ export
# @layer: GEO
# @craft: Group06
# @cell: 3_0
o Group06_GEO_3_0
v 6 2 0
v 8 0 0
v 8 2 0
v 6 0 0
v 7 0 0
v 8 1 0
v 7 2 0
v 6 1 0
v 6 2 1
v 8 0 1
v 8 2 1
v 6 0 1
v 7 0 1
v 8 1 1
v 7 2 1
v 6 1 1
v 8 0 0
v 8 2 0
v 8 2 1
v 8 0 1
v 8 1 0
v 8 1 1
v 8 2 0
v 6 2 0
v 6 2 1
v 8 2 1
v 7 2 0
v 7 2 1
v 6 2 0
v 6 0 0
v 6 0 1
v 6 2 1
v 6 1 0
v 6 1 1
v 6 0 0
v 6 0 1
v 8 0 0
v 8 0 1
v 7 0 0
v 7 0 1
f 8 5 4
f 8 1 7
f 6 5 8
f 8 7 6
f 6 7 3
f 2 5 6
f 16 12 13
f 16 15 9
f 14 16 13
f 16 14 15
f 14 11 15
f 10 14 13
f 20 17 21 22
f 18 19 22 21
f 26 23 27 28
f 24 25 28 27
f 32 29 33 34
f 30 31 34 33
f 36 35 39 40
f 37 38 40 39
