# FlatmatesRh OBJ export
# @layer: GEO
# @craft: Group06
# @cell: 3_1
o Group06_GEO_3_1
v 6 2 1.2564496110201162E-09
v 6 2 1
v 8 2 1.2564496110201162E-09
v 7 2 1.2564496110201162E-09
v 8 2 1
v 7 2 1
v 8 2 1.2564496110201162E-09
v 8 2 1
v 8 4 1.2564496110201162E-09
v 8 3 1.2564496110201162E-09
v 8 4 1
v 8 3 1
v 8 4 1.2564496110201162E-09
v 8 4 1
v 6 4 1.2564496110201162E-09
v 7 4 1.2564496110201162E-09
v 6 4 1
v 7 4 1
v 6 4 1.2564496110201162E-09
v 6 4 1
v 6 2 1.2564496110201162E-09
v 6 3 1.2564496110201162E-09
v 6 2 1
v 6 3 1
v 6 2 1.2564496110201162E-09
v 6 4 1.2564496110201162E-09
v 8 2 1.2564496110201162E-09
v 8 4 1.2564496110201162E-09
v 7 2 1.2564496110201162E-09
v 8 3 1.2564496110201162E-09
v 7 4 1.2564496110201162E-09
v 6 3 1.2564496110201162E-09
v 6 2 1
v 8 2 1
v 8 4 1
v 7 2 1
v 8 3 1
v 7 4 1
v 6 4 1
v 6 3 1
f 2 1 4 6
f 3 5 6 4
f 8 7 10 12
f 9 11 12 10
f 14 13 16 18
f 15 17 18 16
f 20 19 22 24
f 21 23 24 22
f 32 29 25
f 32 26 31
f 30 29 32
f 32 31 30
f 30 31 28
f 27 29 30
f 40 33 36
f 40 38 39
f 37 40 36
f 40 37 38
f 37 35 38
f 34 37 36
