# FlatmatesRh OBJ export
# @layer: GEO
# @craft: Group06
# @cell: 3_2
o Group06_GEO_3_2
v 6 4 2.5128992220402324E-09
v 8 4 2.5128992220402324E-09
v 8 4 1
v 7 4 2.5128992220402324E-09
v 6 4 1
v 7 4 1
v 8 4 2.5128992220402324E-09
v 8 6 2.5128992220402324E-09
v 8 6 1
v 8 4 1
v 8 5 2.5128992220402324E-09
v 8 5 1
v 8 6 2.5128992220402324E-09
v 6 6 2.5128992220402324E-09
v 6 6 1
v 8 6 1
v 7 6 2.5128992220402324E-09
v 7 6 1
v 6 6 2.5128992220402324E-09
v 6 4 2.5128992220402324E-09
v 6 4 1
v 6 6 1
v 6 5 2.5128992220402324E-09
v 6 5 1
v 6 4 2.5128992220402324E-09
v 6 6 2.5128992220402324E-09
v 8 4 2.5128992220402324E-09
v 8 6 2.5128992220402324E-09
v 7 4 2.5128992220402324E-09
v 8 5 2.5128992220402324E-09
v 7 6 2.5128992220402324E-09
v 6 5 2.5128992220402324E-09
v 6 4 1
v 6 6 1
v 8 4 1
v 7 4 1
v 8 5 1
v 8 6 1
v 7 6 1
v 6 5 1
f 5 1 4 6
f 2 3 6 4
f 10 7 11 12
f 8 9 12 11
f 16 13 17 18
f 14 15 18 17
f 22 19 23 24
f 20 21 24 23
f 32 29 25
f 32 26 31
f 30 29 32
f 32 31 30
f 30 31 28
f 27 29 30
f 40 33 36
f 40 39 34
f 37 40 36
f 40 37 39
f 37 38 39
f 35 37 36
