# FlatmatesRh OBJ export
# @layer: GEO
# @craft: Group06
# @cell: 3_3
o Group06_GEO_3_3
v 6 6 3.7693488330603486E-09
v 8 6 3.7693488330603486E-09
v 8 6 1
v 7 6 3.7693488330603486E-09
v 6 6 1
v 7 6 1
v 8 6 3.7693488330603486E-09
v 8 8 3.7693488330603486E-09
v 8 8 1
v 8 6 1
v 8 7 3.7693488330603486E-09
v 8 7 1
v 8 8 3.7693488330603486E-09
v 6 8 3.7693488330603486E-09
v 6 8 1
v 8 8 1
v 7 8 3.7693488330603486E-09
v 7 8 1
v 6 8 3.7693488330603486E-09
v 6 6 3.7693488330603486E-09
v 6 6 1
v 6 8 1
v 6 7 3.7693488330603486E-09
v 6 7 1
v 6 6 3.7693488330603486E-09
v 6 8 3.7693488330603486E-09
v 8 6 3.7693488330603486E-09
v 8 8 3.7693488330603486E-09
v 7 6 3.7693488330603486E-09
v 8 7 3.7693488330603486E-09
v 7 8 3.7693488330603486E-09
v 6 7 3.7693488330603486E-09
v 6 6 1
v 6 8 1
v 8 6 1
v 8 8 1
v 7 6 1
v 8 7 1
v 7 8 1
v 6 7 1
f 5 1 4 6
f 2 3 6 4
f 10 7 11 12
f 8 9 12 11
f 16 13 17 18
f 14 15 18 17
f 22 19 23 24
f 20 21 24 23
f 32 29 25
f 32 26 31
f 30 29 32
f 32 31 30
f 30 31 28
f 27 29 30
f 40 33 37
f 40 39 34
f 38 40 37
f 40 38 39
f 38 36 39
f 35 38 37
