# FlatmatesRh OBJ export
# @layer: GEO
# @craft: Group06
# @cell: 3_4
o Group06_GEO_3_4
v 6 8 5.0257984440804648E-09
v 8 8 5.0257984440804648E-09
v 8 10 5.0257984440804648E-09
v 7 8 5.0257984440804648E-09
v 8 9 5.0257984440804648E-09
v 7 10 5.0257984440804648E-09
v 6 10 5.0257984440804648E-09
v 6 9 5.0257984440804648E-09
v 6 8 1
v 8 10 1
v 7 8 1
v 8 8 1
v 8 9 1
v 7 10 1
v 6 10 1
v 6 9 1
v 6 8 5.0257984440804648E-09
v 6 8 1
v 8 8 5.0257984440804648E-09
v 7 8 5.0257984440804648E-09
v 8 8 1
v 7 8 1
v 8 8 5.0257984440804648E-09
v 8 8 1
v 8 10 5.0257984440804648E-09
v 8 9 5.0257984440804648E-09
v 8 10 1
v 8 9 1
v 6 10 5.0257984440804648E-09
v 6 10 1
v 6 8 5.0257984440804648E-09
v 6 9 5.0257984440804648E-09
v 6 8 1
v 6 9 1
v 8 10 5.0257984440804648E-09
v 8 10 1
v 6 10 5.0257984440804648E-09
v 6 10 1
v 7 10 5.0257984440804648E-09
v 7 10 1
f 8 4 1
f 8 7 6
f 5 4 8
f 8 6 5
f 5 6 3
f 2 4 5
f 16 9 11
f 16 14 15
f 13 16 11
f 16 13 14
f 13 10 14
f 12 13 11
f 18 17 20 22
f 19 21 22 20
f 24 23 26 28
f 25 27 28 26
f 30 29 32 34
f 31 33 34 32
f 36 35 39 40
f 37 38 40 39
