# FlatmatesRh OBJ export
# @layer: GEO
# @craft: Group06
# @cell: 4_0
o Group06_GEO_4_0
v 8 0 0
v 8 2 0
v 10 0 0
v 10 2 0
v 9 0 0
v 10 1 0
v 9 2 0
v 8 1 0
v 8 0 1
v 10 0 1
v 10 2 1
v 9 0 1
v 10 1 1
v 9 2 1
v 8 2 1
v 8 1 1
v 8 0 0
v 10 0 0
v 10 0 1
v 9 0 0
v 8 0 1
v 9 0 1
v 10 0 0
v 10 2 0
v 10 2 1
v 10 0 1
v 10 1 0
v 10 1 1
v 10 2 0
v 8 2 0
v 8 2 1
v 10 2 1
v 9 2 0
v 9 2 1
v 8 2 0
v 8 0 0
v 8 0 1
v 8 2 1
v 8 1 0
v 8 1 1
f 8 5 1
f 8 2 7
f 6 5 8
f 8 7 6
f 6 7 4
f 3 5 6
f 16 9 12
f 16 14 15
f 14 16 12
f 12 13 14
f 13 11 14
f 10 13 12
f 21 17 20 22
f 18 19 22 20
f 26 23 27 28
f 24 25 28 27
f 32 29 33 34
f 30 31 34 33
f 38 35 39 40
f 36 37 40 39
