# FlatmatesRh OBJ export
# @layer: GEO
# @craft: Group06
# @cell: 4_1
o Group06_GEO_4_1
v 8 2 1.2564496110201162E-09
v 8 4 1.2564496110201162E-09
v 10 2 1.2564496110201162E-09
v 10 4 1.2564496110201162E-09
v 9 2 1.2564496110201162E-09
v 10 3 1.2564496110201162E-09
v 9 4 1.2564496110201162E-09
v 8 3 1.2564496110201162E-09
v 8 2 1
v 8 4 1
v 10 4 1
v 9 2 1
v 10 2 1
v 10 3 1
v 9 4 1
v 8 3 1
v 8 2 1.2564496110201162E-09
v 8 2 1
v 10 2 1.2564496110201162E-09
v 9 2 1.2564496110201162E-09
v 10 2 1
v 9 2 1
v 10 4 1.2564496110201162E-09
v 10 4 1
v 8 4 1.2564496110201162E-09
v 9 4 1.2564496110201162E-09
v 8 4 1
v 9 4 1
v 8 4 1.2564496110201162E-09
v 8 4 1
v 8 2 1.2564496110201162E-09
v 8 3 1.2564496110201162E-09
v 8 2 1
v 8 3 1
v 10 2 1.2564496110201162E-09
v 10 2 1
v 10 4 1.2564496110201162E-09
v 10 4 1
v 10 3 1.2564496110201162E-09
v 10 3 1
f 8 5 1
f 8 2 7
f 6 5 8
f 8 7 6
f 6 7 4
f 3 5 6
f 16 9 12
f 16 15 10
f 14 16 12
f 16 14 15
f 14 11 15
f 13 14 12
f 18 17 20 22
f 19 21 22 20
f 24 23 26 28
f 25 27 28 26
f 30 29 32 34
f 31 33 34 32
f 36 35 39 40
f 37 38 40 39
