# FlatmatesRh OBJ export
# @layer: GEO
# @craft: Group06
# @cell: 4_2
o Group06_GEO_4_2
v 8 4 2.5128992220402324E-09
v 10 4 2.5128992220402324E-09
v 10 6 2.5128992220402324E-09
v 9 4 2.5128992220402324E-09
v 10 5 2.5128992220402324E-09
v 9 6 2.5128992220402324E-09
v 8 6 2.5128992220402324E-09
v 8 5 2.5128992220402324E-09
v 10 4 1
v 10 6 1
v 8 4 1
v 9 4 1
v 10 5 1
v 9 6 1
v 8 6 1
v 8 5 1
v 8 4 2.5128992220402324E-09
v 10 4 2.5128992220402324E-09
v 10 4 1
v 9 4 2.5128992220402324E-09
v 8 4 1
v 9 4 1
v 10 6 2.5128992220402324E-09
v 8 6 2.5128992220402324E-09
v 8 6 1
v 10 6 1
v 9 6 2.5128992220402324E-09
v 9 6 1
v 8 6 2.5128992220402324E-09
v 8 4 2.5128992220402324E-09
v 8 4 1
v 8 6 1
v 8 5 2.5128992220402324E-09
v 8 5 1
v 10 4 2.5128992220402324E-09
v 10 4 1
v 10 6 2.5128992220402324E-09
v 10 6 1
v 10 5 2.5128992220402324E-09
v 10 5 1
f 8 4 1
f 8 7 6
f 5 4 8
f 8 6 5
f 5 6 3
f 2 4 5
f 16 11 12
f 16 14 15
f 14 16 12
f 12 13 14
f 13 10 14
f 9 13 12
f 21 17 20 22
f 18 19 22 20
f 26 23 27 28
f 24 25 28 27
f 32 29 33 34
f 30 31 34 33
f 36 35 39 40
f 37 38 40 39
