# FlatmatesRh OBJ export
# @layer: GEO
# @craft: Group06
# @cell: 4_3
o Group06_GEO_4_3
v 8 6 3.7693488330603486E-09
v 8 8 3.7693488330603486E-09
v 10 8 3.7693488330603486E-09
v 9 6 3.7693488330603486E-09
v 10 6 3.7693488330603486E-09
v 10 7 3.7693488330603486E-09
v 9 8 3.7693488330603486E-09
v 8 7 3.7693488330603486E-09
v 8 6 1
v 8 8 1
v 10 6 1
v 10 8 1
v 9 6 1
v 10 7 1
v 9 8 1
v 8 7 1
v 8 6 3.7693488330603486E-09
v 10 6 3.7693488330603486E-09
v 10 6 1
v 9 6 3.7693488330603486E-09
v 8 6 1
v 9 6 1
v 10 8 3.7693488330603486E-09
v 8 8 3.7693488330603486E-09
v 8 8 1
v 10 8 1
v 9 8 3.7693488330603486E-09
v 9 8 1
v 8 8 3.7693488330603486E-09
v 8 6 3.7693488330603486E-09
v 8 6 1
v 8 8 1
v 8 7 3.7693488330603486E-09
v 8 7 1
v 10 6 3.7693488330603486E-09
v 10 6 1
v 10 8 3.7693488330603486E-09
v 10 8 1
v 10 7 3.7693488330603486E-09
v 10 7 1
f 8 4 1
f 8 2 7
f 7 4 8
f 4 7 6
f 6 7 3
f 5 4 6
f 16 9 13
f 16 15 10
f 15 16 13
f 13 14 15
f 14 12 15
f 11 14 13
f 21 17 20 22
f 18 19 22 20
f 26 23 27 28
f 24 25 28 27
f 32 29 33 34
f 30 31 34 33
f 36 35 39 40
f 37 38 40 39
