# FlatmatesRh OBJ export
# @layer: GEO
# @craft: Group06
# @cell: 4_4
o Group06_GEO_4_4
v 8 8 5.0257984440804648E-09
v 8 10 5.0257984440804648E-09
v 10 8 5.0257984440804648E-09
v 10 10 5.0257984440804648E-09
v 9 8 5.0257984440804648E-09
v 10 9 5.0257984440804648E-09
v 9 10 5.0257984440804648E-09
v 8 9 5.0257984440804648E-09
v 8 8 1
v 8 10 1
v 10 8 1
v 10 10 1
v 9 8 1
v 10 9 1
v 9 10 1
v 8 9 1
v 8 8 5.0257984440804648E-09
v 8 8 1
v 10 8 5.0257984440804648E-09
v 9 8 5.0257984440804648E-09
v 10 8 1
v 9 8 1
v 10 8 5.0257984440804648E-09
v 10 8 1
v 10 10 5.0257984440804648E-09
v 10 10 1
v 10 9 5.0257984440804648E-09
v 10 9 1
v 10 10 5.0257984440804648E-09
v 10 10 1
v 8 10 5.0257984440804648E-09
v 8 10 1
v 9 10 5.0257984440804648E-09
v 9 10 1
v 8 10 5.0257984440804648E-09
v 8 10 1
v 8 8 5.0257984440804648E-09
v 8 9 5.0257984440804648E-09
v 8 8 1
v 8 9 1
f 8 5 1
f 8 2 7
f 6 5 8
f 8 7 6
f 6 7 4
f 3 5 6
f 16 9 13
f 16 15 10
f 14 16 13
f 16 14 15
f 14 12 15
f 11 14 13
f 18 17 20 22
f 19 21 22 20
f 24 23 27 28
f 25 26 28 27
f 30 29 33 34
f 31 32 34 33
f 36 35 38 40
f 37 39 40 38
