# FlatmatesRh OBJ export
# @layer: GEO
# @craft: Group05
# @cell: 0_0
o Group05_GEO_0_0
v 0 0 0
v 0 2 0
v 2 0 0
v 2 2 0
v 1 0 0
v 2 1 0
v 1 2 0
v 0 1 0
v 0 0 2
v 0 2 2
v 2 0 2
v 2 2 2
v 1 0 2
v 2 1 2
v 1 2 2
v 0 1 2
v 0 0 0
v 0 0 2
v 2 0 0
v 2 0 2
v 1 0 0
v 2 0 1
v 0 0 1
v 1 0 2
v 2 0 0
v 2 0 2
v 2 2 0
v 2 2 2
v 2 0 1
v 2 1 0
v 2 2 1
v 2 1 2
v 2 2 0
v 2 2 2
v 0 2 0
v 2 2 1
v 1 2 0
v 0 2 1
v 0 2 2
v 1 2 2
v 0 2 0
v 0 2 2
v 0 0 0
v 0 0 2
v 0 0 1
v 0 2 1
v 0 1 0
v 0 1 2
f 8 5 1
f 8 2 7
f 6 5 8
f 8 7 6
f 6 7 4
f 3 5 6
f 16 9 13
f 16 15 10
f 14 16 13
f 16 14 15
f 14 12 15
f 11 14 13
f 23 17 21
f 23 24 18
f 24 23 21
f 21 22 24
f 22 20 24
f 19 22 21
f 29 25 30
f 29 32 26
f 32 29 30
f 30 31 32
f 31 28 32
f 27 31 30
f 36 33 37
f 36 40 34
f 38 36 37
f 36 38 40
f 38 39 40
f 35 38 37
f 46 41 47
f 46 48 42
f 48 46 47
f 47 45 48
f 45 44 48
f 43 45 47
