# FlatmatesRh OBJ export
# @layer: GEO
# @craft: Group05
# @cell: 0_1
o Group05_GEO_0_1
v 0 2 1.2564496110201162E-09
v 0 4 1.2564496110201162E-09
v 2 2 1.2564496110201162E-09
v 2 4 1.2564496110201162E-09
v 1 2 1.2564496110201162E-09
v 2 3 1.2564496110201162E-09
v 1 4 1.2564496110201162E-09
v 0 3 1.2564496110201162E-09
v 0 2 2
v 0 4 2
v 2 2 2
v 2 4 2
v 1 2 2
v 2 3 2
v 1 4 2
v 0 3 2
v 0 2 1.2564496110201162E-09
v 2 2 1.2564496110201162E-09
v 2 2 2
v 1 2 1.2564496110201162E-09
v 2 2 1
v 0 2 2
v 0 2 1
v 1 2 2
v 2 2 1.2564496110201162E-09
v 2 2 2
v 2 4 1.2564496110201162E-09
v 2 4 2
v 2 2 1
v 2 3 1.2564496110201162E-09
v 2 4 1
v 2 3 2
v 2 4 1.2564496110201162E-09
v 2 4 2
v 0 4 1.2564496110201162E-09
v 0 4 2
v 2 4 1
v 1 4 1.2564496110201162E-09
v 0 4 1
v 1 4 2
v 0 4 1.2564496110201162E-09
v 0 4 2
v 0 2 1.2564496110201162E-09
v 0 2 2
v 0 2 1
v 0 4 1
v 0 3 1.2564496110201162E-09
v 0 3 2
f 8 5 1
f 8 2 7
f 6 5 8
f 8 7 6
f 6 7 4
f 3 5 6
f 16 9 13
f 16 15 10
f 14 16 13
f 16 14 15
f 14 12 15
f 11 14 13
f 23 17 20
f 23 24 22
f 24 23 20
f 20 21 24
f 21 19 24
f 18 21 20
f 29 25 30
f 29 32 26
f 32 29 30
f 30 31 32
f 31 28 32
f 27 31 30
f 37 33 38
f 37 40 34
f 40 37 38
f 38 39 40
f 39 36 40
f 35 39 38
f 46 41 47
f 46 48 42
f 48 46 47
f 47 45 48
f 45 44 48
f 43 45 47
