# FlatmatesRh OBJ export
# @layer: GEO
# @craft: Group05
# @cell: 0_3
o Group05_GEO_0_3
v 0 6 3.7693488330603486E-09
v 0 6 2
v 2 6 3.7693488330603486E-09
v 2 6 2
v 1 6 3.7693488330603486E-09
v 2 6 1
v 0 6 1
v 1 6 2
v 2 6 3.7693488330603486E-09
v 2 6 2
v 2 8 3.7693488330603486E-09
v 2 8 2
v 2 6 1
v 2 7 3.7693488330603486E-09
v 2 8 1
v 2 7 2
v 2 8 3.7693488330603486E-09
v 2 8 2
v 0 8 3.7693488330603486E-09
v 2 8 1
v 1 8 3.7693488330603486E-09
v 0 8 1
v 0 8 2
v 1 8 2
v 0 8 3.7693488330603486E-09
v 0 8 2
v 0 6 3.7693488330603486E-09
v 0 6 2
v 0 6 1
v 0 8 1
v 0 7 3.7693488330603486E-09
v 0 7 2
v 0 8 2
v 0 6 2
v 2 8 2
v 2 6 2
v 1 6 2
v 2 7 2
v 1 8 2
v 0 7 2
v 0 8 3.7693488330603486E-09
v 0 6 3.7693488330603486E-09
v 2 8 3.7693488330603486E-09
v 2 6 3.7693488330603486E-09
v 1 6 3.7693488330603486E-09
v 2 7 3.7693488330603486E-09
v 1 8 3.7693488330603486E-09
v 0 7 3.7693488330603486E-09
f 7 1 5
f 7 8 2
f 8 7 5
f 5 6 8
f 6 4 8
f 3 6 5
f 13 9 14
f 13 16 10
f 16 13 14
f 14 15 16
f 15 12 16
f 11 15 14
f 20 17 21
f 20 24 18
f 24 20 21
f 24 21 22 23
f 19 22 21
f 30 25 31
f 30 32 26
f 32 30 31
f 31 29 32
f 29 28 32
f 27 29 31
f 40 39 33
f 40 34 37
f 38 39 40
f 40 37 38
f 38 37 36
f 35 39 38
f 48 41 47
f 48 45 42
f 46 48 47
f 48 46 45
f 46 44 45
f 43 46 47
