# FlatmatesRh OBJ export
# @layer: GEO
# @craft: Group05
# @cell: 0_4
o Group05_GEO_0_4
v 0 8 5.0257984440804648E-09
v 2 8 5.0257984440804648E-09
v 2 8 2
v 1 8 5.0257984440804648E-09
v 2 8 1
v 0 8 2
v 0 8 1
v 1 8 2
v 2 8 5.0257984440804648E-09
v 2 8 2
v 2 10 5.0257984440804648E-09
v 2 10 2
v 2 8 1
v 2 9 5.0257984440804648E-09
v 2 10 1
v 2 9 2
v 2 10 5.0257984440804648E-09
v 2 10 2
v 0 10 5.0257984440804648E-09
v 0 10 2
v 2 10 1
v 1 10 5.0257984440804648E-09
v 0 10 1
v 1 10 2
v 0 10 5.0257984440804648E-09
v 0 10 2
v 0 8 5.0257984440804648E-09
v 0 8 2
v 0 8 1
v 0 10 1
v 0 9 5.0257984440804648E-09
v 0 9 2
v 0 10 2
v 0 8 2
v 2 10 2
v 2 8 2
v 1 8 2
v 2 9 2
v 1 10 2
v 0 9 2
v 0 10 5.0257984440804648E-09
v 0 8 5.0257984440804648E-09
v 2 10 5.0257984440804648E-09
v 2 8 5.0257984440804648E-09
v 1 8 5.0257984440804648E-09
v 2 9 5.0257984440804648E-09
v 1 10 5.0257984440804648E-09
v 0 9 5.0257984440804648E-09
f 7 1 4
f 7 8 6
f 8 7 4
f 4 5 8
f 5 3 8
f 2 5 4
f 13 9 14
f 13 16 10
f 16 13 14
f 14 15 16
f 15 12 16
f 11 15 14
f 21 17 22
f 21 24 18
f 24 21 22
f 22 23 24
f 23 20 24
f 19 23 22
f 30 25 31
f 30 32 26
f 32 30 31
f 31 29 32
f 29 28 32
f 27 29 31
f 40 39 33
f 40 34 37
f 38 39 40
f 40 37 38
f 38 37 36
f 35 39 38
f 48 41 47
f 48 45 42
f 46 48 47
f 48 46 45
f 46 44 45
f 43 46 47
