# FlatmatesRh OBJ export
# @layer: GEO
# @craft: Group05
# @cell: 1_0
o Group05_GEO_1_0
v 2 2 0
v 2 2 2
v 2 0 0
v 2 0 2
v 2 0 1
v 2 2 1
v 2 1 0
v 2 1 2
v 2 0 0
v 2 2 0
v 4 0 0
v 4 2 0
v 3 0 0
v 4 1 0
v 3 2 0
v 2 1 0
v 2 0 2
v 2 2 2
v 4 0 2
v 4 2 2
v 3 0 2
v 4 1 2
v 3 2 2
v 2 1 2
v 2 0 0
v 2 0 2
v 4 0 0
v 4 0 2
v 3 0 0
v 4 0 1
v 2 0 1
v 3 0 2
v 4 0 0
v 4 0 2
v 4 2 0
v 4 2 2
v 4 0 1
v 4 1 0
v 4 2 1
v 4 1 2
v 4 2 0
v 4 2 2
v 2 2 0
v 2 2 2
v 4 2 1
v 3 2 0
v 2 2 1
v 3 2 2
f 6 1 7
f 6 8 2
f 8 6 7
f 7 5 8
f 5 4 8
f 3 5 7
f 16 13 9
f 16 10 15
f 14 13 16
f 16 15 14
f 14 15 12
f 11 13 14
f 24 17 21
f 24 23 18
f 22 24 21
f 24 22 23
f 22 20 23
f 19 22 21
f 31 25 29
f 31 32 26
f 32 31 29
f 29 30 32
f 30 28 32
f 27 30 29
f 37 33 38
f 37 40 34
f 40 37 38
f 38 39 40
f 39 36 40
f 35 39 38
f 45 41 46
f 45 48 42
f 48 45 46
f 46 47 48
f 47 44 48
f 43 47 46
