# FlatmatesRh OBJ export
# @layer: GEO
# @craft: Group05
# @cell: 1_4
o Group05_GEO_1_4
v 2 8 5.0257984440804648E-09
v 2 8 2
v 4 8 5.0257984440804648E-09
v 4 8 2
v 3 8 5.0257984440804648E-09
v 4 8 1
v 2 8 1
v 3 8 2
v 4 8 5.0257984440804648E-09
v 4 8 2
v 4 10 5.0257984440804648E-09
v 4 10 2
v 4 8 1
v 4 9 5.0257984440804648E-09
v 4 10 1
v 4 9 2
v 4 10 5.0257984440804648E-09
v 4 10 2
v 2 10 5.0257984440804648E-09
v 2 10 2
v 4 10 1
v 3 10 5.0257984440804648E-09
v 2 10 1
v 3 10 2
v 2 8 5.0257984440804648E-09
v 2 10 5.0257984440804648E-09
v 4 8 5.0257984440804648E-09
v 4 10 5.0257984440804648E-09
v 3 8 5.0257984440804648E-09
v 4 9 5.0257984440804648E-09
v 3 10 5.0257984440804648E-09
v 2 9 5.0257984440804648E-09
v 2 10 2
v 2 8 2
v 4 10 2
v 4 8 2
v 3 8 2
v 4 9 2
v 3 10 2
v 2 9 2
v 2 10 5.0257984440804648E-09
v 2 10 2
v 2 8 5.0257984440804648E-09
v 2 8 2
v 2 8 1
v 2 10 1
v 2 9 5.0257984440804648E-09
v 2 9 2
f 7 1 5
f 7 8 2
f 8 7 5
f 5 6 8
f 6 4 8
f 3 6 5
f 13 9 14
f 13 16 10
f 16 13 14
f 14 15 16
f 15 12 16
f 11 15 14
f 21 17 22
f 21 24 18
f 24 21 22
f 22 23 24
f 23 20 24
f 19 23 22
f 32 29 25
f 32 26 31
f 30 29 32
f 32 31 30
f 30 31 28
f 27 29 30
f 40 39 33
f 40 34 37
f 38 39 40
f 40 37 38
f 38 37 36
f 35 39 38
f 46 41 47
f 46 48 42
f 48 46 47
f 47 45 48
f 45 44 48
f 43 45 47
