# FlatmatesRh OBJ export
# @layer: GEO
# @craft: Group05
# @cell: 3_0
o Group05_GEO_3_0
v 6 0 0
v 6 0 2
v 8 0 0
v 8 0 2
v 7 0 0
v 8 0 1
v 6 0 1
v 7 0 2
v 8 2 0
v 8 2 2
v 6 2 0
v 6 2 2
v 8 2 1
v 7 2 0
v 6 2 1
v 7 2 2
v 6 2 0
v 6 2 2
v 6 0 0
v 6 0 2
v 6 0 1
v 6 2 1
v 6 1 0
v 6 1 2
v 6 0 0
v 6 2 0
v 8 0 0
v 8 2 0
v 7 0 0
v 8 1 0
v 7 2 0
v 6 1 0
v 8 0 2
v 8 2 2
v 6 0 2
v 6 2 2
v 7 0 2
v 8 1 2
v 7 2 2
v 6 1 2
v 8 0 0
v 8 0 2
v 8 2 0
v 8 2 2
v 8 0 1
v 8 1 0
v 8 2 1
v 8 1 2
f 7 1 5
f 7 8 2
f 8 7 5
f 5 6 8
f 6 4 8
f 3 6 5
f 13 9 14
f 13 16 10
f 16 13 14
f 14 15 16
f 15 12 16
f 11 15 14
f 22 17 23
f 22 24 18
f 24 22 23
f 23 21 24
f 21 20 24
f 19 21 23
f 32 29 25
f 32 26 31
f 30 29 32
f 32 31 30
f 30 31 28
f 27 29 30
f 38 37 33
f 38 34 39
f 40 37 38
f 38 39 40
f 40 39 36
f 35 37 40
f 45 41 46
f 45 48 42
f 48 45 46
f 46 47 48
f 47 44 48
f 43 47 46
