# FlatmatesRh OBJ export
# @layer: GEO
# @craft: Group05
# @cell: 3_4
o Group05_GEO_3_4
v 8 8 5.0257984440804648E-09
v 8 8 2
v 8 10 5.0257984440804648E-09
v 8 10 2
v 8 8 1
v 8 9 5.0257984440804648E-09
v 8 10 1
v 8 9 2
v 6 8 5.0257984440804648E-09
v 6 10 5.0257984440804648E-09
v 8 8 5.0257984440804648E-09
v 8 10 5.0257984440804648E-09
v 7 8 5.0257984440804648E-09
v 8 9 5.0257984440804648E-09
v 7 10 5.0257984440804648E-09
v 6 9 5.0257984440804648E-09
v 8 10 2
v 8 8 2
v 6 10 2
v 6 8 2
v 7 8 2
v 8 9 2
v 7 10 2
v 6 9 2
v 6 8 5.0257984440804648E-09
v 6 8 2
v 8 8 5.0257984440804648E-09
v 8 8 2
v 7 8 5.0257984440804648E-09
v 8 8 1
v 6 8 1
v 7 8 2
v 8 10 5.0257984440804648E-09
v 8 10 2
v 6 10 5.0257984440804648E-09
v 6 10 2
v 8 10 1
v 7 10 5.0257984440804648E-09
v 6 10 1
v 7 10 2
v 6 10 5.0257984440804648E-09
v 6 10 2
v 6 8 5.0257984440804648E-09
v 6 8 2
v 6 8 1
v 6 10 1
v 6 9 5.0257984440804648E-09
v 6 9 2
f 5 1 6
f 5 8 2
f 8 5 6
f 6 7 8
f 7 4 8
f 3 7 6
f 16 13 9
f 16 10 15
f 14 13 16
f 16 15 14
f 14 15 12
f 11 13 14
f 22 17 23
f 22 21 18
f 24 22 23
f 22 24 21
f 24 20 21
f 19 24 23
f 31 25 29
f 31 32 26
f 32 31 29
f 29 30 32
f 30 28 32
f 27 30 29
f 37 33 38
f 37 40 34
f 40 37 38
f 38 39 40
f 39 36 40
f 35 39 38
f 46 41 47
f 46 48 42
f 48 46 47
f 47 45 48
f 45 44 48
f 43 45 47
