# FlatmatesRh OBJ export
# @layer: GEO
# @craft: Group05
# @cell: 4_0
o Group05_GEO_4_0
v 8 0 0
v 8 0 2
v 10 0 0
v 10 0 2
v 9 0 0
v 10 0 1
v 8 0 1
v 9 0 2
v 10 0 0
v 10 0 2
v 10 2 0
v 10 2 2
v 10 0 1
v 10 1 0
v 10 2 1
v 10 1 2
v 10 2 0
v 10 2 2
v 8 2 0
v 10 2 1
v 9 2 0
v 8 2 1
v 8 2 2
v 9 2 2
v 8 2 0
v 8 2 2
v 8 0 0
v 8 0 2
v 8 0 1
v 8 2 1
v 8 1 0
v 8 1 2
v 10 0 2
v 10 2 2
v 8 0 2
v 8 2 2
v 9 0 2
v 10 1 2
v 9 2 2
v 8 1 2
v 10 0 0
v 10 2 0
v 8 0 0
v 8 2 0
v 9 0 0
v 10 1 0
v 9 2 0
v 8 1 0
f 7 1 5
f 7 8 2
f 8 7 5
f 5 6 8
f 6 4 8
f 3 6 5
f 13 9 14
f 13 16 10
f 16 13 14
f 14 15 16
f 15 12 16
f 11 15 14
f 20 17 21
f 20 24 18
f 22 20 21
f 20 22 24
f 22 23 24
f 19 22 21
f 30 25 31
f 30 32 26
f 32 30 31
f 31 29 32
f 29 28 32
f 27 29 31
f 38 37 33
f 38 34 39
f 40 37 38
f 38 39 40
f 40 39 36
f 35 37 40
f 46 41 45
f 46 47 42
f 48 46 45
f 46 48 47
f 48 44 47
f 43 48 45
