# FlatmatesRh OBJ export
# @layer: GEO
# @craft: Group05
# @cell: 4_1
o Group05_GEO_4_1
v 8 2 1.2564496110201162E-09
v 10 2 1.2564496110201162E-09
v 10 2 2
v 9 2 1.2564496110201162E-09
v 10 2 1
v 8 2 2
v 8 2 1
v 9 2 2
v 10 2 1.2564496110201162E-09
v 10 2 2
v 10 4 1.2564496110201162E-09
v 10 4 2
v 10 2 1
v 10 3 1.2564496110201162E-09
v 10 4 1
v 10 3 2
v 10 4 1.2564496110201162E-09
v 10 4 2
v 8 4 1.2564496110201162E-09
v 8 4 2
v 10 4 1
v 9 4 1.2564496110201162E-09
v 8 4 1
v 9 4 2
v 8 4 1.2564496110201162E-09
v 8 4 2
v 8 2 1.2564496110201162E-09
v 8 2 2
v 8 2 1
v 8 4 1
v 8 3 1.2564496110201162E-09
v 8 3 2
v 10 2 2
v 10 4 2
v 8 2 2
v 8 4 2
v 9 2 2
v 10 3 2
v 9 4 2
v 8 3 2
v 10 2 1.2564496110201162E-09
v 10 4 1.2564496110201162E-09
v 8 2 1.2564496110201162E-09
v 8 4 1.2564496110201162E-09
v 9 2 1.2564496110201162E-09
v 10 3 1.2564496110201162E-09
v 9 4 1.2564496110201162E-09
v 8 3 1.2564496110201162E-09
f 7 1 4
f 7 8 6
f 8 7 4
f 4 5 8
f 5 3 8
f 2 5 4
f 13 9 14
f 13 16 10
f 16 13 14
f 14 15 16
f 15 12 16
f 11 15 14
f 21 17 22
f 21 24 18
f 24 21 22
f 22 23 24
f 23 20 24
f 19 23 22
f 30 25 31
f 30 32 26
f 32 30 31
f 31 29 32
f 29 28 32
f 27 29 31
f 38 37 33
f 38 34 39
f 40 37 38
f 38 39 40
f 40 39 36
f 35 37 40
f 46 41 45
f 46 47 42
f 48 46 45
f 46 48 47
f 48 44 47
f 43 48 45
