# FlatmatesRh OBJ export
# @layer: GEO
# @craft: Group05
# @cell: 4_3
o Group05_GEO_4_3
v 10 8 3.7693488330603486E-09
v 10 6 3.7693488330603486E-09
v 8 8 3.7693488330603486E-09
v 8 6 3.7693488330603486E-09
v 9 6 3.7693488330603486E-09
v 10 7 3.7693488330603486E-09
v 9 8 3.7693488330603486E-09
v 8 7 3.7693488330603486E-09
v 10 8 2
v 10 6 2
v 8 8 2
v 8 6 2
v 9 6 2
v 10 7 2
v 9 8 2
v 8 7 2
v 8 6 3.7693488330603486E-09
v 8 6 2
v 10 6 3.7693488330603486E-09
v 10 6 2
v 9 6 3.7693488330603486E-09
v 10 6 1
v 8 6 1
v 9 6 2
v 10 6 3.7693488330603486E-09
v 10 6 2
v 10 8 3.7693488330603486E-09
v 10 8 2
v 10 6 1
v 10 7 3.7693488330603486E-09
v 10 8 1
v 10 7 2
v 10 8 3.7693488330603486E-09
v 10 8 2
v 8 8 3.7693488330603486E-09
v 10 8 1
v 9 8 3.7693488330603486E-09
v 8 8 1
v 8 8 2
v 9 8 2
v 8 8 3.7693488330603486E-09
v 8 8 2
v 8 6 3.7693488330603486E-09
v 8 6 2
v 8 6 1
v 8 8 1
v 8 7 3.7693488330603486E-09
v 8 7 2
f 6 7 1
f 6 2 5
f 8 7 6
f 6 5 8
f 8 5 4
f 3 7 8
f 14 9 15
f 14 13 10
f 16 14 15
f 14 16 13
f 16 12 13
f 11 16 15
f 23 17 21
f 23 24 18
f 24 23 21
f 21 22 24
f 22 20 24
f 19 22 21
f 29 25 30
f 29 32 26
f 32 29 30
f 30 31 32
f 31 28 32
f 27 31 30
f 36 33 37
f 36 40 34
f 40 36 37
f 40 37 38 39
f 35 38 37
f 46 41 47
f 46 48 42
f 48 46 47
f 47 45 48
f 45 44 48
f 43 45 47
