# FlatmatesRh OBJ export
# @layer: GEO
# @craft: Group04
# @cell: 0_0
o Group04_GEO_0_0
v 0 0 0
v 0 2 0
v 2 0 0
v 1 0 0
v 2 1 0
v 2 2 0
v 1 2 0
v 0 1 0
v 0 0 5
v 0 2 5
v 2 0 5
v 1 0 5
v 2 1 5
v 2 2 5
v 1 2 5
v 0 1 5
v 0 0 0
v 0 0 5
v 2 0 0
v 2 0 5
v 1 0 0
v 2 0 2.5
v 1 0 5
v 0 0 2.5
v 2 0 0
v 2 0 5
v 2 2 0
v 2 2 5
v 2 0 2.5
v 2 1 0
v 2 2 2.5
v 2 1 5
v 2 2 0
v 2 2 5
v 0 2 0
v 0 2 5
v 2 2 2.5
v 1 2 0
v 0 2 2.5
v 1 2 5
v 0 2 0
v 0 2 5
v 0 0 0
v 0 0 5
v 0 0 2.5
v 0 2 2.5
v 0 1 0
v 0 1 5
f 8 4 1
f 8 2 7
f 5 4 8
f 8 7 5
f 5 7 6
f 3 4 5
f 16 9 12
f 16 15 10
f 13 16 12
f 16 13 15
f 13 14 15
f 11 13 12
f 24 17 21
f 24 23 18
f 22 24 21
f 24 22 23
f 22 20 23
f 19 22 21
f 29 25 30
f 29 32 26
f 31 29 30
f 29 31 32
f 31 28 32
f 27 31 30
f 37 39 36 40
f 37 40 34
f 38 37 33
f 39 38 35
f 38 39 37
f 46 41 47
f 46 48 42
f 45 46 47
f 46 45 48
f 45 44 48
f 43 45 47
