# FlatmatesRh OBJ export
# @layer: GEO
# @craft: Group04
# @cell: 1_0
o Group04_GEO_1_0
v 2 2 0
v 4 2 0
v 2 0 0
v 3 0 0
v 4 0 0
v 4 1 0
v 3 2 0
v 2 1 0
v 2 2 5
v 4 2 5
v 2 0 5
v 3 0 5
v 4 0 5
v 4 1 5
v 3 2 5
v 2 1 5
v 4 0 0
v 4 0 5
v 4 2 0
v 4 2 5
v 4 0 2.5
v 4 1 0
v 4 2 2.5
v 4 1 5
v 2 2 0
v 2 2 5
v 2 0 0
v 2 0 5
v 2 0 2.5
v 2 2 2.5
v 2 1 0
v 2 1 5
v 2 0 5
v 4 0 0
v 4 0 5
v 2 0 0
v 3 0 0
v 4 0 2.5
v 3 0 5
v 2 0 2.5
v 4 2 0
v 2 2 0
v 2 2 5
v 4 2 5
v 4 2 2.5
v 3 2 0
v 2 2 2.5
v 3 2 5
f 8 7 2 6
f 8 1 7
f 4 3 8
f 6 5 4
f 4 8 6
f 16 14 10 15
f 16 15 9
f 12 16 11
f 14 12 13
f 12 14 16
f 21 17 22
f 21 24 18
f 23 21 22
f 21 23 24
f 23 20 24
f 19 23 22
f 30 25 31
f 30 32 26
f 29 30 31
f 30 29 32
f 29 28 32
f 27 29 31
f 40 36 37
f 40 39 33
f 39 40 37
f 37 38 39
f 38 35 39
f 34 38 37
f 45 41 46
f 45 48 44
f 47 45 46
f 45 47 48
f 47 43 48
f 42 47 46
