# FlatmatesRh OBJ export
# @layer: GEO
# @craft: Group04
# @cell: 2_0
o Group04_GEO_2_0
v 4 0 0
v 6 2 0
v 5 0 0
v 6 0 0
v 6 1 0
v 5 2 0
v 4 2 0
v 4 1 0
v 4 0 5
v 6 2 5
v 5 0 5
v 6 0 5
v 6 1 5
v 5 2 5
v 4 2 5
v 4 1 5
v 6 0 0
v 6 0 5
v 6 2 0
v 6 2 5
v 6 0 2.5
v 6 1 0
v 6 2 2.5
v 6 1 5
v 4 2 0
v 4 2 5
v 4 0 0
v 4 0 5
v 4 0 2.5
v 4 2 2.5
v 4 1 0
v 4 1 5
v 4 0 0
v 4 0 5
v 6 0 0
v 6 0 5
v 5 0 0
v 6 0 2.5
v 5 0 5
v 4 0 2.5
v 6 2 0
v 4 2 5
v 6 2 5
v 6 2 2.5
v 5 2 0
v 4 2 2.5
v 5 2 5
v 4 2 0
f 8 3 1
f 8 7 6
f 5 3 8
f 8 6 5
f 5 6 2
f 4 3 5
f 16 9 11
f 16 14 15
f 13 16 11
f 16 13 14
f 13 10 14
f 12 13 11
f 21 17 22
f 21 24 18
f 23 21 22
f 21 23 24
f 23 20 24
f 19 23 22
f 30 25 31
f 30 32 26
f 29 30 31
f 30 29 32
f 29 28 32
f 27 29 31
f 40 33 37
f 40 39 34
f 38 40 37
f 40 38 39
f 38 36 39
f 35 38 37
f 44 41 45
f 44 47 43
f 46 44 45
f 44 46 47
f 46 42 47
f 48 46 45
