# FlatmatesRh OBJ export
# @layer: GEO
# @craft: Group04
# @cell: 3_0
o Group04_GEO_3_0
v 8 0 0
v 8 0 5
v 8 2 0
v 8 2 5
v 8 0 2.5
v 8 1 0
v 8 2 2.5
v 8 1 5
v 6 0 0
v 8 0 0
v 7 0 0
v 8 1 0
v 8 2 0
v 7 2 0
v 6 2 0
v 6 1 0
v 6 0 5
v 8 0 5
v 7 0 5
v 8 1 5
v 8 2 5
v 7 2 5
v 6 2 5
v 6 1 5
v 8 2 0
v 8 2 5
v 6 2 0
v 6 2 5
v 8 2 2.5
v 7 2 0
v 6 2 2.5
v 7 2 5
v 6 2 0
v 6 2 5
v 6 0 0
v 6 0 5
v 6 0 2.5
v 6 2 2.5
v 6 1 0
v 6 1 5
v 6 0 0
v 6 0 5
v 8 0 0
v 8 0 5
v 7 0 0
v 8 0 2.5
v 6 0 2.5
v 7 0 5
f 5 1 6
f 5 8 2
f 7 5 6
f 5 7 8
f 7 4 8
f 3 7 6
f 12 16 14
f 16 15 14
f 11 9 16
f 12 10 11
f 12 14 13
f 11 16 12
f 20 22 24
f 24 22 23
f 19 24 17
f 20 19 18
f 20 21 22
f 19 20 24
f 29 25 30
f 29 32 26
f 31 29 30
f 29 31 32
f 31 28 32
f 27 31 30
f 38 33 39
f 38 40 34
f 37 38 39
f 38 37 40
f 37 36 40
f 35 37 39
f 47 41 45
f 47 48 42
f 48 47 45
f 45 46 48
f 46 44 48
f 43 46 45
