# FlatmatesRh OBJ export
# @layer: GEO
# @craft: Group04
# @cell: 4_0
o Group04_GEO_4_0
v 10 0 5
v 8 0 5
v 10 2 5
v 9 0 5
v 10 1 5
v 9 2 5
v 8 2 5
v 8 1 5
v 10 0 0
v 8 0 0
v 10 2 0
v 9 0 0
v 10 1 0
v 9 2 0
v 8 2 0
v 8 1 0
v 8 0 0
v 8 0 5
v 10 0 0
v 10 0 5
v 9 0 0
v 10 0 2.5
v 9 0 5
v 8 0 2.5
v 10 0 0
v 10 0 5
v 10 2 0
v 10 2 5
v 10 0 2.5
v 10 1 0
v 10 2 2.5
v 10 1 5
v 10 2 0
v 10 2 5
v 8 2 0
v 8 2 5
v 10 2 2.5
v 9 2 0
v 8 2 2.5
v 9 2 5
v 8 2 0
v 8 2 5
v 8 0 0
v 8 0 5
v 8 0 2.5
v 8 2 2.5
v 8 1 0
v 8 1 5
f 4 1 5
f 4 8 2
f 6 4 5
f 4 6 8
f 6 7 8
f 3 6 5
f 12 13 9
f 12 10 16
f 14 13 12
f 12 16 14
f 14 16 15
f 11 13 14
f 24 17 21
f 24 23 18
f 22 24 21
f 24 22 23
f 22 20 23
f 19 22 21
f 29 25 30
f 29 32 26
f 31 29 30
f 29 31 32
f 31 28 32
f 27 31 30
f 37 33 38
f 37 40 34
f 39 37 38
f 37 39 40
f 39 36 40
f 35 39 38
f 46 41 47
f 46 48 42
f 45 46 47
f 46 45 48
f 45 44 48
f 43 45 47
