# FlatmatesRh OBJ export
# @layer: GEO
# @craft: Group04
# @cell: 4_1
o Group04_GEO_4_1
v 8 2 5
v 8 4 5
v 9 2 5
v 10 2 5
v 10 3 5
v 10 4 5
v 9 4 5
v 8 3 5
v 8 2 1.2564496110201162E-09
v 8 4 1.2564496110201162E-09
v 9 2 1.2564496110201162E-09
v 10 2 1.2564496110201162E-09
v 10 3 1.2564496110201162E-09
v 10 4 1.2564496110201162E-09
v 9 4 1.2564496110201162E-09
v 8 3 1.2564496110201162E-09
v 8 2 1.2564496110201162E-09
v 10 2 1.2564496110201162E-09
v 10 2 5
v 9 2 1.2564496110201162E-09
v 10 2 2.5
v 8 2 5
v 8 2 2.5
v 9 2 5
v 10 4 1.2564496110201162E-09
v 8 4 1.2564496110201162E-09
v 8 4 5
v 10 4 5
v 10 4 2.5
v 9 4 1.2564496110201162E-09
v 8 4 2.5
v 9 4 5
v 8 4 1.2564496110201162E-09
v 8 2 1.2564496110201162E-09
v 8 2 5
v 8 2 2.5
v 8 4 5
v 8 4 2.5
v 8 3 1.2564496110201162E-09
v 8 3 5
v 10 2 5
v 10 4 1.2564496110201162E-09
v 10 4 5
v 10 2 2.5
v 10 2 1.2564496110201162E-09
v 10 3 1.2564496110201162E-09
v 10 3 5
v 10 4 2.5
f 5 8 3
f 3 8 1
f 5 3 4
f 7 5 6
f 7 2 8
f 5 7 8
f 13 11 16
f 11 9 16
f 13 12 11
f 15 14 13
f 15 16 10
f 13 16 15
f 23 17 20
f 23 24 22
f 24 23 20
f 24 20 18 21
f 21 19 24
f 29 25 30
f 29 32 28
f 32 29 30
f 32 30 26 31
f 31 27 32
f 38 33 39
f 38 40 37
f 40 38 39
f 40 39 34 36
f 36 35 40
f 46 47 44
f 44 47 41
f 46 44 45
f 48 46 42
f 48 43 47
f 46 48 47
