# FlatmatesRh OBJ export
# @layer: GEO
# @craft: Group04
# @cell: 4_2
o Group04_GEO_4_2
v 10 4 5
v 10 6 5
v 8 4 5
v 9 4 5
v 10 5 5
v 9 6 5
v 8 6 5
v 8 5 5
v 10 4 2.5128992220402324E-09
v 10 6 2.5128992220402324E-09
v 8 4 2.5128992220402324E-09
v 9 4 2.5128992220402324E-09
v 10 5 2.5128992220402324E-09
v 9 6 2.5128992220402324E-09
v 8 6 2.5128992220402324E-09
v 8 5 2.5128992220402324E-09
v 8 4 2.5128992220402324E-09
v 8 4 5
v 10 4 2.5128992220402324E-09
v 9 4 2.5128992220402324E-09
v 10 4 2.5
v 8 4 2.5
v 10 4 5
v 9 4 5
v 10 6 2.5128992220402324E-09
v 10 6 5
v 8 6 2.5128992220402324E-09
v 10 6 2.5
v 9 6 2.5128992220402324E-09
v 8 6 2.5
v 8 6 5
v 9 6 5
v 10 4 2.5128992220402324E-09
v 10 4 5
v 10 6 2.5128992220402324E-09
v 10 6 5
v 10 4 2.5
v 10 5 2.5128992220402324E-09
v 10 5 5
v 10 6 2.5
v 8 6 2.5128992220402324E-09
v 8 6 5
v 8 4 2.5128992220402324E-09
v 8 4 5
v 8 4 2.5
v 8 6 2.5
v 8 5 2.5128992220402324E-09
v 8 5 5
f 4 1 5
f 4 8 3
f 6 4 5
f 4 6 8
f 6 7 8
f 2 6 5
f 12 13 9
f 12 11 16
f 14 13 12
f 12 16 14
f 14 16 15
f 10 13 14
f 22 17 20
f 22 24 18
f 24 22 20
f 24 20 21 23
f 19 21 20
f 28 25 29
f 28 32 26
f 32 28 29
f 32 29 30 31
f 27 30 29
f 37 33 38
f 37 39 34
f 39 37 38
f 39 38 35 40
f 40 36 39
f 46 41 47
f 46 48 42
f 48 46 47
f 48 47 43 45
f 45 44 48
