# FlatmatesRh OBJ export
# @layer: GEO
# @craft: Group04
# @cell: 4_3
o Group04_GEO_4_3
v 8 6 5
v 10 8 5
v 8 8 5
v 9 6 5
v 10 6 5
v 10 7 5
v 9 8 5
v 8 7 5
v 8 6 3.7693488330603486E-09
v 10 8 3.7693488330603486E-09
v 8 8 3.7693488330603486E-09
v 9 6 3.7693488330603486E-09
v 10 6 3.7693488330603486E-09
v 10 7 3.7693488330603486E-09
v 9 8 3.7693488330603486E-09
v 8 7 3.7693488330603486E-09
v 8 6 3.7693488330603486E-09
v 8 6 5
v 10 6 3.7693488330603486E-09
v 10 6 5
v 9 6 3.7693488330603486E-09
v 10 6 2.5
v 9 6 5
v 8 6 2.5
v 10 8 3.7693488330603486E-09
v 10 8 5
v 8 8 3.7693488330603486E-09
v 8 8 5
v 10 8 2.5
v 9 8 3.7693488330603486E-09
v 8 8 2.5
v 9 8 5
v 10 6 3.7693488330603486E-09
v 10 6 5
v 10 8 3.7693488330603486E-09
v 10 8 5
v 10 6 2.5
v 10 7 3.7693488330603486E-09
v 10 7 5
v 10 8 2.5
v 8 8 3.7693488330603486E-09
v 8 6 3.7693488330603486E-09
v 8 6 5
v 8 6 2.5
v 8 8 5
v 8 8 2.5
v 8 7 3.7693488330603486E-09
v 8 7 5
f 6 8 4
f 4 8 1
f 6 4 5
f 7 6 2
f 7 3 8
f 6 7 8
f 14 12 16
f 12 9 16
f 14 13 12
f 15 10 14
f 15 16 11
f 14 16 15
f 24 17 21
f 24 23 18
f 23 24 21
f 21 22 23
f 22 20 23
f 19 22 21
f 29 25 30
f 29 32 26
f 32 29 30
f 30 31 32
f 31 28 32
f 27 31 30
f 37 33 38
f 37 39 34
f 40 37 38
f 37 40 39
f 40 36 39
f 35 40 38
f 46 41 47
f 46 48 45
f 48 46 47
f 48 47 42 44
f 44 43 48
