# FlatmatesRh OBJ export
# @layer: GEO
# @craft: Group04
# @cell: 4_4
o Group04_GEO_4_4
v 10 8 5
v 8 8 5
v 10 10 5
v 8 10 5
v 9 8 5
v 10 9 5
v 9 10 5
v 8 9 5
v 10 8 5.0257984440804648E-09
v 8 8 5.0257984440804648E-09
v 10 10 5.0257984440804648E-09
v 8 10 5.0257984440804648E-09
v 9 8 5.0257984440804648E-09
v 10 9 5.0257984440804648E-09
v 9 10 5.0257984440804648E-09
v 8 9 5.0257984440804648E-09
v 8 8 5.0257984440804648E-09
v 10 8 5.0257984440804648E-09
v 10 8 5
v 9 8 5.0257984440804648E-09
v 10 8 2.5
v 8 8 5
v 8 8 2.5
v 9 8 5
v 10 8 5.0257984440804648E-09
v 10 10 5.0257984440804648E-09
v 10 10 5
v 10 8 5
v 10 8 2.5
v 10 9 5.0257984440804648E-09
v 10 10 2.5
v 10 9 5
v 10 10 5.0257984440804648E-09
v 8 10 5.0257984440804648E-09
v 8 10 5
v 10 10 5
v 10 10 2.5
v 9 10 5.0257984440804648E-09
v 8 10 2.5
v 9 10 5
v 8 10 5.0257984440804648E-09
v 8 8 5.0257984440804648E-09
v 8 8 5
v 8 8 2.5
v 8 10 5
v 8 10 2.5
v 8 9 5.0257984440804648E-09
v 8 9 5
f 5 1 6
f 5 8 2
f 7 5 6
f 5 7 8
f 7 4 8
f 3 7 6
f 13 14 9
f 13 10 16
f 15 14 13
f 13 16 15
f 15 16 12
f 11 14 15
f 23 17 20
f 23 24 22
f 24 23 20
f 20 21 24
f 21 19 24
f 18 21 20
f 29 25 30
f 29 32 28
f 32 29 30
f 30 31 32
f 31 27 32
f 26 31 30
f 37 33 38
f 37 40 36
f 40 37 38
f 38 39 40
f 39 35 40
f 34 39 38
f 46 41 47
f 46 48 45
f 48 46 47
f 47 44 48
f 44 43 48
f 42 44 47
