# FlatmatesRh OBJ export
# @craft: craft_Nightstand
o s4_p0_i1_f5
v -6.380483 -12.6430712 20.8609543
v -6.380483 -8.0327425 20.8609543
v -2.47024035 -12.6430712 20.8609543
v -2.47024035 -8.0327425 20.8609543
f 4 2 1 3
o s4_p0_i1_f4
v -6.380483 -12.6430712 18.1254482
v -6.380483 -8.0327425 18.1254482
v -2.47024035 -12.6430712 18.1254482
v -2.47024035 -8.0327425 18.1254482
f 8 7 5 6
o s4_p0_i1_f3
v -6.380483 -8.0327425 18.1254482
v -6.380483 -8.0327425 20.8609543
v -6.380483 -12.6430712 18.1254482
v -6.380483 -12.6430712 20.8609543
f 12 10 9 11
o s4_p0_i1_f2
v -2.47024035 -8.0327425 18.1254482
v -2.47024035 -8.0327425 20.8609543
v -6.380483 -8.0327425 18.1254482
v -6.380483 -8.0327425 20.8609543
f 16 14 13 15
o s4_p0_i1_f1
v -2.47024035 -12.6430712 18.1254482
v -2.47024035 -12.6430712 20.8609543
v -2.47024035 -8.0327425 18.1254482
v -2.47024035 -8.0327425 20.8609543
f 20 18 17 19
o s4_p0_i1_f0
v -6.380483 -12.6430712 18.1254482
v -6.380483 -12.6430712 20.8609543
v -2.47024035 -12.6430712 18.1254482
v -2.47024035 -12.6430712 20.8609543
f 24 22 21 23
o s3_p1_i0_f4
v -9.101621 1.78437924 18.1254482
v 9.771562 1.78437924 18.1254482
v -9.101621 -16.3150578 18.1254482
v 9.771562 -16.3150578 18.1254482
f 28 26 25 27
o s3_p1_i0_f3
v 9.771562 1.78437924 16.5870819
v 9.771562 1.78437924 18.1254482
v 3.48050117 1.78437924 16.5870819
v 3.48050117 1.78437924 18.1254482
v -2.81055975 1.78437924 16.5870819
v -2.81055975 1.78437924 18.1254482
v -9.101621 1.78437924 16.5870819
v -9.101621 1.78437924 18.1254482
f 32 30 29 31
f 34 32 31 33
f 36 34 33 35
o s3_p1_i0_f2
v 9.771562 -16.3150578 16.5870819
v 9.771562 -16.3150578 18.1254482
v 9.771562 -7.265339 16.5870819
v 9.771562 -7.265339 18.1254482
v 9.771562 1.78437924 16.5870819
v 9.771562 1.78437924 18.1254482
f 40 38 37 39
f 42 40 39 41
o s3_p1_i0_f1
v -9.101621 -16.3150578 16.5870819
v -9.101621 -16.3150578 18.1254482
v -2.81055975 -16.3150578 16.5870819
v -2.81055975 -16.3150578 18.1254482
v 3.48050117 -16.3150578 16.5870819
v 3.48050117 -16.3150578 18.1254482
v 9.771562 -16.3150578 16.5870819
v 9.771562 -16.3150578 18.1254482
f 46 44 43 45
f 48 46 45 47
f 50 48 47 49
o s3_p1_i0_f0
v -9.101621 1.78437924 16.5870819
v -9.101621 1.78437924 18.1254482
v -9.101621 -7.265339 16.5870819
v -9.101621 -7.265339 18.1254482
v -9.101621 -16.3150578 16.5870819
v -9.101621 -16.3150578 18.1254482
f 54 52 51 53
f 56 54 53 55
o s2_p2_i0_f5
v -8.546741 1.25224841 18.08022
v 9.216682 1.25224841 18.08022
v -8.546741 -15.7829256 18.08022
v 9.216682 -15.7829256 18.08022
f 60 58 57 59
o s2_p2_i0_f4
v -8.546741 1.25224841 16.63231
v -6.77039862 1.25224841 16.63231
v -4.994056 1.25224841 16.63231
v -3.21771383 1.25224841 16.63231
v -1.44137156 1.25224841 16.63231
v 0.334970742 1.25224841 16.63231
v 2.111313 1.25224841 16.63231
v 3.8876555 1.25224841 16.63231
v 5.66399765 1.25224841 16.63231
v 7.44034 1.25224841 16.63231
v 9.216682 1.25224841 16.63231
v -8.546741 -0.45126906 16.63231
v -3.21771383 -0.45126906 16.63231
v -1.44137156 -0.45126906 16.63231
v 0.334970742 -0.45126906 16.63231
v 2.111313 -0.45126906 16.63231
v 3.8876555 -0.45126906 16.63231
v 9.216682 -0.45126906 16.63231
v -8.546741 -2.15478659 16.63231
v -3.21771383 -2.15478659 16.63231
v -1.44137156 -2.15478659 16.63231
v 0.334970742 -2.15478659 16.63231
v 2.111313 -2.15478659 16.63231
v 3.8876555 -2.15478659 16.63231
v 9.216682 -2.15478659 16.63231
v -8.546741 -3.858304 16.63231
v -6.77039862 -3.858304 16.63231
v -4.994056 -3.858304 16.63231
v -3.21771383 -3.858304 16.63231
v -1.44137156 -3.858304 16.63231
v 0.334970742 -3.858304 16.63231
v 2.111313 -3.858304 16.63231
v 3.8876555 -3.858304 16.63231
v 5.66399765 -3.858304 16.63231
v 7.44034 -3.858304 16.63231
v 9.216682 -3.858304 16.63231
v -8.546741 -5.56182146 16.63231
v -6.77039862 -5.56182146 16.63231
v -4.994056 -5.56182146 16.63231
v -3.21771383 -5.56182146 16.63231
v -1.44137156 -5.56182146 16.63231
v 0.334970742 -5.56182146 16.63231
v 2.111313 -5.56182146 16.63231
v 3.8876555 -5.56182146 16.63231
v 5.66399765 -5.56182146 16.63231
v 7.44034 -5.56182146 16.63231
v 9.216682 -5.56182146 16.63231
v -8.546741 -7.265339 16.63231
v -6.77039862 -7.265339 16.63231
v -4.994056 -7.265339 16.63231
v -3.21771383 -7.265339 16.63231
v -1.44137156 -7.265339 16.63231
v 0.334970742 -7.265339 16.63231
v 2.111313 -7.265339 16.63231
v 3.8876555 -7.265339 16.63231
v 5.66399765 -7.265339 16.63231
v 7.44034 -7.265339 16.63231
v 9.216682 -7.265339 16.63231
v -8.546741 -8.968856 16.63231
v -6.77039862 -8.968856 16.63231
v -4.994056 -8.968856 16.63231
v -3.21771383 -8.968856 16.63231
v -1.44137156 -8.968856 16.63231
v 0.334970742 -8.968856 16.63231
v 2.111313 -8.968856 16.63231
v 3.8876555 -8.968856 16.63231
v 5.66399765 -8.968856 16.63231
v 7.44034 -8.968856 16.63231
v 9.216682 -8.968856 16.63231
v -8.546741 -10.6723738 16.63231
v -6.77039862 -10.6723738 16.63231
v -4.994056 -10.6723738 16.63231
v -3.21771383 -10.6723738 16.63231
v -1.44137156 -10.6723738 16.63231
v 0.334970742 -10.6723738 16.63231
v 2.111313 -10.6723738 16.63231
v 3.8876555 -10.6723738 16.63231
v 5.66399765 -10.6723738 16.63231
v 7.44034 -10.6723738 16.63231
v 9.216682 -10.6723738 16.63231
v -8.546741 -12.3758907 16.63231
v -3.21771383 -12.3758907 16.63231
v -1.44137156 -12.3758907 16.63231
v 0.334970742 -12.3758907 16.63231
v 2.111313 -12.3758907 16.63231
v 3.8876555 -12.3758907 16.63231
v 9.216682 -12.3758907 16.63231
v -8.546741 -14.0794086 16.63231
v -3.21771383 -14.0794086 16.63231
v -1.44137156 -14.0794086 16.63231
v 0.334970742 -14.0794086 16.63231
v 2.111313 -14.0794086 16.63231
v 3.8876555 -14.0794086 16.63231
v 9.216682 -14.0794086 16.63231
v -8.546741 -15.7829256 16.63231
v -6.77039862 -15.7829256 16.63231
v -4.994056 -15.7829256 16.63231
v -3.21771383 -15.7829256 16.63231
v -1.44137156 -15.7829256 16.63231
v 0.334970742 -15.7829256 16.63231
v 2.111313 -15.7829256 16.63231
v 3.8876555 -15.7829256 16.63231
v 5.66399765 -15.7829256 16.63231
v 7.44034 -15.7829256 16.63231
v 9.216682 -15.7829256 16.63231
v -6.716798 -3.41581225 16.63231
v -6.716798 -2.44476557 16.63231
v -6.716798 -1.473719 16.63231
v -6.716798 -0.5026724 16.63231
v -5.706143 -0.5026724 16.63231
v -4.69548845 -0.5026724 16.63231
v -3.68483353 -0.5026724 16.63231
v -3.68483353 -1.473719 16.63231
v -3.68483353 -2.44476557 16.63231
v -3.68483353 -3.41581225 16.63231
v -4.69548845 -3.41581225 16.63231
v -5.706143 -3.41581225 16.63231
v -6.716798 -11.1148653 16.63231
v -5.706143 -11.1148653 16.63231
v -4.69548845 -11.1148653 16.63231
v -3.68483353 -11.1148653 16.63231
v -3.68483353 -12.0859118 16.63231
v -3.68483353 -13.0569592 16.63231
v -3.68483353 -14.0280056 16.63231
v -4.69548845 -14.0280056 16.63231
v -5.706143 -14.0280056 16.63231
v -6.716798 -14.0280056 16.63231
v -6.716798 -13.0569592 16.63231
v -6.716798 -12.0859118 16.63231
v 4.354775 -0.5026724 16.63231
v 5.36543 -0.5026724 16.63231
v 6.37608433 -0.5026724 16.63231
v 7.38673925 -0.5026724 16.63231
v 7.38673925 -1.473719 16.63231
v 7.38673925 -2.44476557 16.63231
v 7.38673925 -3.41581225 16.63231
v 6.37608433 -3.41581225 16.63231
v 5.36543 -3.41581225 16.63231
v 4.354775 -3.41581225 16.63231
v 4.354775 -2.44476557 16.63231
v 4.354775 -1.473719 16.63231
v 4.354775 -11.1148653 16.63231
v 5.36543 -11.1148653 16.63231
v 6.37608433 -11.1148653 16.63231
v 7.38673925 -11.1148653 16.63231
v 7.38673925 -12.0859118 16.63231
v 7.38673925 -13.0569592 16.63231
v 7.38673925 -14.0280056 16.63231
v 6.37608433 -14.0280056 16.63231
v 5.36543 -14.0280056 16.63231
v 4.354775 -14.0280056 16.63231
v 4.354775 -13.0569592 16.63231
v 4.354775 -12.0859118 16.63231
v -4.994056 -0.45126906 16.63231
v -6.77039862 -2.15478659 16.63231
v 7.44034 -0.45126906 16.63231
v 7.44034 -2.15478659 16.63231
v -6.77039862 -14.0794086 16.63231
v -4.994056 -14.0794086 16.63231
v 7.44034 -14.0794086 16.63231
f 62 72 61
f 74 73 64 65
f 75 74 65 66
f 76 75 66 67
f 77 76 67 68
f 78 70 71
f 81 80 73 74
f 82 81 74 75
f 83 82 75 76
f 84 83 76 77
f 90 89 80 81
f 91 90 81 82
f 92 91 82 83
f 93 92 83 84
f 98 97 86 87
f 99 98 87 88
f 100 99 88 89
f 101 100 89 90
f 102 101 90 91
f 103 102 91 92
f 104 103 92 93
f 105 104 93 94
f 106 105 94 95
f 107 106 95 96
f 109 108 97 98
f 110 109 98 99
f 111 110 99 100
f 112 111 100 101
f 113 112 101 102
f 114 113 102 103
f 115 114 103 104
f 116 115 104 105
f 117 116 105 106
f 118 117 106 107
f 120 119 108 109
f 121 120 109 110
f 122 121 110 111
f 123 122 111 112
f 124 123 112 113
f 125 124 113 114
f 126 125 114 115
f 127 126 115 116
f 128 127 116 117
f 129 128 117 118
f 131 130 119 120
f 132 131 120 121
f 133 132 121 122
f 134 133 122 123
f 135 134 123 124
f 136 135 124 125
f 137 136 125 126
f 138 137 126 127
f 139 138 127 128
f 140 139 128 129
f 143 142 133 134
f 144 143 134 135
f 145 144 135 136
f 146 145 136 137
f 150 149 142 143
f 151 150 143 144
f 152 151 144 145
f 153 152 145 146
f 148 156 155
f 159 158 149 150
f 160 159 150 151
f 161 160 151 152
f 162 161 152 153
f 164 154 165
f 63 170 169 62
f 72 62 169
f 72 169 168
f 168 79 72
f 214 170 63
f 214 63 64 73
f 171 214 73 172
f 170 214 171
f 73 173 172
f 80 173 73
f 167 215 168
f 215 87 86 79
f 166 87 215 167
f 168 215 79
f 177 87 166
f 173 80 174
f 174 80 89 175
f 175 89 88 176
f 177 176 88
f 88 87 177
f 69 77 68
f 191 190 77
f 77 190 201
f 192 191 216
f 201 84 77
f 216 191 77
f 78 216 70
f 70 216 69
f 194 216 78
f 216 194 193
f 216 193 192
f 69 216 77
f 85 194 78
f 199 93 84 200
f 198 94 93 199
f 195 217 95 196
f 195 194 217
f 194 85 217
f 94 197 196 95
f 85 96 95 217
f 197 94 198
f 84 201 200
f 130 131 141
f 218 148 141
f 179 178 131
f 189 131 178
f 132 179 131
f 133 181 180 132
f 179 132 180
f 181 133 142 182
f 182 142 183
f 131 189 188 218
f 218 188 187
f 218 187 186
f 185 219 186
f 218 156 148
f 186 156 218
f 141 131 218
f 157 156 186
f 184 149 219 185
f 149 184 183
f 149 158 157 219
f 186 219 157
f 142 149 183
f 138 203 202 137
f 137 202 213 146
f 204 203 138
f 139 206 205
f 140 147 139
f 139 205 204
f 139 204 138
f 206 220 207
f 212 146 213
f 153 212 211
f 210 153 211
f 163 220 164
f 162 153 163
f 153 146 212
f 153 210 209 220
f 147 220 139
f 220 206 139
f 154 220 147
f 220 209 208
f 220 154 164
f 208 207 220
f 163 153 220
o s2_p2_i0_f3
v 9.216682 1.25224841 16.63231
v 9.216682 1.25224841 18.08022
v 3.29554129 1.25224841 16.63231
v 3.29554129 1.25224841 18.08022
v -2.62559986 1.25224841 16.63231
v -2.62559986 1.25224841 18.08022
v -8.546741 1.25224841 16.63231
v -8.546741 1.25224841 18.08022
f 224 222 221 223
f 226 224 223 225
f 228 226 225 227
o s2_p2_i0_f2
v 9.216682 -15.7829256 16.63231
v 9.216682 -15.7829256 18.08022
v 9.216682 -7.265339 16.63231
v 9.216682 -7.265339 18.08022
v 9.216682 1.25224841 16.63231
v 9.216682 1.25224841 18.08022
f 232 230 229 231
f 234 232 231 233
o s2_p2_i0_f1
v -8.546741 -15.7829256 16.63231
v -8.546741 -15.7829256 18.08022
v -2.62559986 -15.7829256 16.63231
v -2.62559986 -15.7829256 18.08022
v 3.29554129 -15.7829256 16.63231
v 3.29554129 -15.7829256 18.08022
v 9.216682 -15.7829256 16.63231
v 9.216682 -15.7829256 18.08022
f 238 236 235 237
f 240 238 237 239
f 242 240 239 241
o s2_p2_i0_f0
v -8.546741 1.25224841 16.63231
v -8.546741 1.25224841 18.08022
v -8.546741 -7.265339 16.63231
v -8.546741 -7.265339 18.08022
v -8.546741 -15.7829256 16.63231
v -8.546741 -15.7829256 18.08022
f 246 244 243 245
f 248 246 245 247
o s1_p3_i0_f4
v 4.354775 -14.0280056 0
v 4.354775 -11.1148653 0
v 7.38673925 -14.0280056 0
v 7.38673925 -11.1148653 0
f 252 251 249 250
o s1_p3_i0_f3
v 4.354775 -11.1148653 1.42108547E-14
v 4.354775 -11.1148653 16.63231
v 4.354775 -14.0280056 0
v 4.354775 -14.0280056 16.63231
f 256 254 253 255
o s1_p3_i0_f2
v 7.38673925 -11.1148653 1.42108547E-14
v 7.38673925 -11.1148653 16.63231
v 4.354775 -11.1148653 1.42108547E-14
v 4.354775 -11.1148653 16.63231
f 260 258 257 259
o s1_p3_i0_f1
v 7.38673925 -14.0280056 0
v 7.38673925 -14.0280056 16.63231
v 7.38673925 -11.1148653 0
v 7.38673925 -11.1148653 16.63231
f 264 262 261 263
o s1_p3_i0_f0
v 4.354775 -14.0280056 0
v 4.354775 -14.0280056 16.63231
v 7.38673925 -14.0280056 0
v 7.38673925 -14.0280056 16.63231
f 268 266 265 267
o s1_p4_i0_f4
v -6.716798 -14.0280056 -1.42108547E-14
v -6.716798 -11.1148653 -1.42108547E-14
v -3.68483353 -14.0280056 -1.42108547E-14
v -3.68483353 -11.1148653 -1.42108547E-14
f 272 271 269 270
o s1_p4_i0_f3
v -6.716798 -11.1148653 -1.42108547E-14
v -6.716798 -11.1148653 16.63231
v -6.716798 -14.0280056 -1.42108547E-14
v -6.716798 -14.0280056 16.63231
f 276 274 273 275
o s1_p4_i0_f2
v -3.68483353 -11.1148653 -1.42108547E-14
v -3.68483353 -11.1148653 16.63231
v -6.716798 -11.1148653 -1.42108547E-14
v -6.716798 -11.1148653 16.63231
f 280 278 277 279
o s1_p4_i0_f1
v -3.68483353 -14.0280056 -1.42108547E-14
v -3.68483353 -14.0280056 16.63231
v -3.68483353 -11.1148653 -7.10542736E-15
v -3.68483353 -11.1148653 16.63231
f 284 282 281 283
o s1_p4_i0_f0
v -6.716798 -14.0280056 -1.42108547E-14
v -6.716798 -14.0280056 16.63231
v -3.68483353 -14.0280056 -1.42108547E-14
v -3.68483353 -14.0280056 16.63231
f 288 286 285 287
o s1_p5_i0_f4
v 4.354775 -3.41581225 7.10542736E-15
v 4.354775 -0.5026724 7.10542736E-15
v 7.38673925 -3.41581225 7.10542736E-15
v 7.38673925 -0.5026724 7.10542736E-15
f 292 291 289 290
o s1_p5_i0_f3
v 4.354775 -0.5026724 7.10542736E-15
v 4.354775 -0.5026724 16.63231
v 4.354775 -3.41581225 7.10542736E-15
v 4.354775 -3.41581225 16.63231
f 296 294 293 295
o s1_p5_i0_f2
v 7.38673925 -0.5026724 1.42108547E-14
v 7.38673925 -0.5026724 16.63231
v 4.354775 -0.5026724 7.10542736E-15
v 4.354775 -0.5026724 16.63231
f 300 298 297 299
o s1_p5_i0_f1
v 7.38673925 -3.41581225 7.10542736E-15
v 7.38673925 -3.41581225 16.63231
v 7.38673925 -0.5026724 7.10542736E-15
v 7.38673925 -0.5026724 16.63231
f 304 302 301 303
o s1_p5_i0_f0
v 4.354775 -3.41581225 7.10542736E-15
v 4.354775 -3.41581225 16.63231
v 7.38673925 -3.41581225 7.10542736E-15
v 7.38673925 -3.41581225 16.63231
f 308 306 305 307
o s1_p6_i0_f4
v -6.716798 -3.41581225 0
v -6.716798 -0.5026724 0
v -3.68483353 -3.41581225 0
v -3.68483353 -0.5026724 0
f 312 311 309 310
o s1_p6_i0_f3
v -6.716798 -0.5026724 0
v -6.716798 -0.5026724 16.63231
v -6.716798 -3.41581225 0
v -6.716798 -3.41581225 16.63231
f 316 314 313 315
o s1_p6_i0_f2
v -3.68483353 -0.5026724 0
v -3.68483353 -0.5026724 16.63231
v -6.716798 -0.5026724 0
v -6.716798 -0.5026724 16.63231
f 320 318 317 319
o s1_p6_i0_f1
v -3.68483353 -3.41581225 0
v -3.68483353 -3.41581225 16.63231
v -3.68483353 -0.5026724 0
v -3.68483353 -0.5026724 16.63231
f 324 322 321 323
o s1_p6_i0_f0
v -6.716798 -3.41581225 0
v -6.716798 -3.41581225 16.63231
v -3.68483353 -3.41581225 0
v -3.68483353 -3.41581225 16.63231
f 328 326 325 327
