# FlatmatesRh OBJ export
# @layer: A
# @craft: Group09
# @cell: 4_0
o Group09_A_4_0
v 10 0 0
v 10 1 0
v 10 1 8.0000000000878924
v 10 0 8.0000000000878924
v 10 0 5.333333492366946
v 10 0 2.6666667462274196
v 10 0.5 0
v 10 0.5 8.0000000000878924
v 10 1 2.6666667462274196
v 10 1 5.333333492366946
v 9 0 0
v 9 1 8.7893026190499768E-11
v 10 0 0
v 10 1 0
v 10 0.5 0
v 9.5 1 4.3946513095249884E-11
v 9 0.5 4.3946513095249884E-11
v 9.5 0 0
v 10 1 0
v 10 1 8.0000000000878924
v 9 1 8.7893026190499768E-11
v 9 1 8.0000000000878924
v 9 1 2.6666667462274196
v 9 1 5.333333492366946
v 9.5 1 8.0000000000878924
v 10 1 5.333333492366946
v 10 1 2.6666667462274196
v 9.5 1 4.3946513095249884E-11
v 9 1 8.7893026190499768E-11
v 9 1 8.0000000000878924
v 9 0 0
v 9 0 8.0000000000878924
v 9 0.5 8.0000000000878924
v 9 1 5.333333492366946
v 9 1 2.6666667462274196
v 9 0 2.6666667462274196
v 9 0 5.333333492366946
v 9 0.5 4.3946513095249884E-11
v 9 0 8.0000000000878924
v 9 1 8.0000000000878924
v 10 0 8.0000000000878924
v 10 1 8.0000000000878924
v 9 0.5 8.0000000000878924
v 9.5 1 8.0000000000878924
v 9.5 0 8.0000000000878924
v 10 0.5 8.0000000000878924
v 9 0 0
v 9 0 8.0000000000878924
v 10 0 0
v 10 0 8.0000000000878924
v 10 0 2.6666667462274196
v 10 0 5.333333492366946
v 9.5 0 8.0000000000878924
v 9 0 5.333333492366946
v 9 0 2.6666667462274196
v 9.5 0 0
f 6 1 7
f 5 6 9 10
f 5 8 4
f 7 9 6
f 3 8 10
f 10 8 5
f 2 9 7
f 17 18 11
f 17 12 16
f 15 18 17
f 17 16 15
f 15 16 14
f 13 18 15
f 27 19 28
f 26 27 23 24
f 26 25 20
f 28 23 27
f 22 25 24
f 24 25 26
f 21 23 28
f 35 29 38
f 34 35 36 37
f 34 33 30
f 38 36 35
f 32 33 37
f 37 33 34
f 31 36 38
f 43 39 45
f 43 44 40
f 46 43 45
f 43 46 44
f 46 42 44
f 41 46 45
f 55 47 56
f 54 55 51 52
f 54 53 48
f 56 51 55
f 50 53 52
f 52 53 54
f 49 51 56
