# FlatmatesRh OBJ export
# @layer: A
# @craft: Group09
# @cell: 4_4
o Group09_A_4_4
v 9 9 8.7893026190499768E-11
v 9 10 5.02579866612507E-09
v 10 9 5.02579866612507E-09
v 10 10 5.02579866612507E-09
v 9.5 10 5.02579866612507E-09
v 9 9.5 2.5568458461577848E-09
v 9.5 9 2.5568458461577848E-09
v 10 9.5 5.02579866612507E-09
v 9 10 5.02579866612507E-09
v 9 10 8.0000000000878924
v 9 9 8.7893026190499768E-11
v 9 9 8.0000000000878924
v 9 9.5 2.5568458461577848E-09
v 9 9 2.6666667462274196
v 9 9 5.333333492366946
v 9 9.5 8.0000000000878924
v 9 10 5.333333492366946
v 9 10 2.6666667462274196
v 9 9 8.7893026190499768E-11
v 9 9 8.0000000000878924
v 10 9 5.02579866612507E-09
v 10 9 8.0000000000878924
v 9 9 5.333333492366946
v 9 9 2.6666667462274196
v 9.5 9 2.5568458461577848E-09
v 9.5 9 8.0000000000878924
v 10 9 2.6666667462274196
v 10 9 5.333333492366946
v 9 9 8.0000000000878924
v 9 10 8.0000000000878924
v 10 9 8.0000000000878924
v 10 10 8.0000000000878924
v 9.5 9 8.0000000000878924
v 9 9.5 8.0000000000878924
v 10 9.5 8.0000000000878924
v 9.5 10 8.0000000000878924
v 10 9 5.02579866612507E-09
v 10 9 8.0000000000878924
v 10 10 5.02579866612507E-09
v 10 10 8.0000000000878924
v 10 10 2.6666667462274196
v 10 10 5.333333492366946
v 10 9 5.333333492366946
v 10 9 2.6666667462274196
v 10 9.5 8.0000000000878924
v 10 9.5 5.02579866612507E-09
v 10 10 5.02579866612507E-09
v 9 10 5.02579866612507E-09
v 9 10 8.0000000000878924
v 10 10 8.0000000000878924
v 10 10 5.333333492366946
v 10 10 2.6666667462274196
v 9.5 10 5.02579866612507E-09
v 9 10 2.6666667462274196
v 9 10 5.333333492366946
v 9.5 10 8.0000000000878924
f 6 7 1
f 6 2 5
f 8 7 6
f 6 5 8
f 8 5 4
f 3 7 8
f 18 9 13
f 17 18 14 15
f 17 16 10
f 13 14 18
f 12 16 15
f 15 16 17
f 11 14 13
f 24 19 25
f 23 24 27 28
f 23 26 20
f 25 27 24
f 22 26 28
f 28 26 23
f 21 27 25
f 34 29 33
f 34 36 30
f 35 34 33
f 34 35 36
f 35 32 36
f 31 35 33
f 44 37 46
f 43 44 41 42
f 43 45 38
f 46 41 44
f 40 45 42
f 42 45 43
f 39 41 46
f 52 47 53
f 51 52 54 55
f 51 56 50
f 53 54 52
f 49 56 55
f 55 56 51
f 48 54 53
