# FlatmatesRh OBJ export
# @layer: GEO
# @craft: Group01
# @cell: 0_0
o Group01_GEO_0_0
v 2 0 9.5
v 2 2 8.75
v 2 0 8.75
v 2 1 8.75
v 2 2 9.5
v 2 1 9.5
v 0 0 0
v 0 2 0
v 1 0 0
v 1 2 4.3946530442484644E-11
v 0 1 0
v 1 1 2.1973265221242322E-11
v 1 0 8
v 2 2 8.75
v 1 2 8
v 1 1 8
v 2 0 8.75
v 2 1 8.75
v 2 0 9.5
v 2 2 9.5
v 0 0 8
v 0 2 8
v 2 1 9.5
v 1 2 8.75
v 0 1 8
v 1 0 8.75
v 1 0 0
v 1 0 8
v 1 2 4.3946530442484644E-11
v 1 2 8
v 1 1 8
v 1 1 2.1973265221242322E-11
v 1 0 4
v 1 2 4
v 0 0 0
v 2 0 9.5
v 1 0 0
v 0 0 8
v 0 0 4
v 1 0 8
v 2 0 8.75
v 1 0 4
v 1 0 8.75
v 2 2 9.5
v 0 2 0
v 0 2 4
v 0 2 8
v 2 2 8.75
v 1 2 8
v 1 2 4.3946530442484644E-11
v 1 2 8.75
v 1 2 4
v 0 2 0
v 0 2 8
v 0 0 0
v 0 0 8
v 0 0 4
v 0 2 4
v 0 1 0
v 0 1 8
f 1 3 4 6
f 2 5 6 4
f 11 12 9 7
f 8 10 12 11
f 16 18 17 13
f 15 14 18 16
f 23 26 19
f 23 20 24
f 24 26 23
f 24 25 21 26
f 25 24 22
f 33 27 32
f 33 31 28
f 31 33 32
f 31 32 34 30
f 29 34 32
f 39 35 37 42
f 38 39 42 40
f 36 43 41
f 40 41 43
f 38 40 43
f 52 50 45 46
f 48 51 44
f 46 47 49 52
f 51 49 47
f 48 49 51
f 58 53 59
f 58 60 54
f 60 58 59
f 59 57 60
f 57 56 60
f 55 57 59
