# FlatmatesRh OBJ export
# @layer: GEO
# @craft: Group01
# @cell: 0_1
o Group01_GEO_0_1
v 0 2 1.2564496110201162E-09
v 2 2 9.5
v 1 2 6.7217137411645922E-10
v 0 2 8
v 0 2 4
v 1 2 8
v 2 2 8.75
v 1 2 8.75
v 1 2 4
v 2 2 8.75
v 2 2 9.5
v 2 3 8.75
v 2 4 9.5
v 2 3 9.5
v 2 4 8.75
v 1 4 8
v 2 2 8.75
v 1 2 8
v 2 3 8.75
v 2 4 8.75
v 1 3 8
v 2 2 9.5
v 2 4 9.5
v 0 2 8
v 1 2 8.75
v 2 3 9.5
v 0 4 8
v 1 4 8.75
v 0 3 8
v 1 2 6.7217137411645922E-10
v 1 2 8
v 1 4 6.7217137411645922E-10
v 1 4 8
v 1 2 4
v 1 4 4
v 1 3 8
v 1 3 6.7217137411645922E-10
v 0 2 1.2564496110201162E-09
v 0 4 1.2564496110201162E-09
v 1 2 6.7217137411645922E-10
v 1 4 6.7217137411645922E-10
v 0 3 1.2564496110201162E-09
v 1 3 6.7217137411645922E-10
v 2 4 9.5
v 0 4 1.2564496110201162E-09
v 0 4 4
v 0 4 8
v 2 4 8.75
v 1 4 8
v 1 4 6.7217137411645922E-10
v 1 4 8.75
v 1 4 4
v 0 4 1.2564496110201162E-09
v 0 4 8
v 0 2 1.2564496110201162E-09
v 0 2 8
v 0 2 4
v 0 4 4
v 0 3 1.2564496110201162E-09
v 0 3 8
f 5 1 3 9
f 4 5 9 6
f 2 8 7
f 6 7 8
f 4 6 8
f 10 12 14 11
f 13 14 12 15
f 21 19 17 18
f 16 20 19 21
f 26 25 22
f 26 23 28
f 28 25 26
f 28 27 29 25
f 24 25 29
f 34 30 37
f 34 36 31
f 36 34 37
f 36 37 32 35
f 35 33 36
f 42 43 40 38
f 39 41 43 42
f 52 50 45 46
f 48 51 44
f 49 52 46 47
f 51 49 47
f 48 49 51
f 58 53 59
f 58 60 54
f 60 58 59
f 60 59 55 57
f 57 56 60
