# FlatmatesRh OBJ export
# @layer: GEO
# @craft: Group01
# @cell: 0_2
o Group01_GEO_0_2
v 0 4 2.5128992220402324E-09
v 2 4 9.5
v 1 4 1.3003962351376686E-09
v 0 4 8
v 0 4 4
v 1 4 8
v 2 4 8.75
v 1 4 8.75
v 1 4 4
v 2 4 8.75
v 2 4 9.5
v 2 5 8.75
v 2 6 9.5
v 2 5 9.5
v 2 6 8.75
v 1 4 8
v 2 4 8.75
v 2 5 8.75
v 2 6 8.75
v 1 6 8
v 1 5 8
v 2 6 9.5
v 2 4 9.5
v 1 4 8.75
v 2 5 9.5
v 0 6 8
v 1 6 8.75
v 0 4 8
v 0 5 8
v 1 4 1.3003962351376686E-09
v 1 4 8
v 1 6 1.3003962351376686E-09
v 1 6 8
v 1 4 4
v 1 6 4
v 1 5 8
v 1 5 1.3003962351376686E-09
v 0 4 2.5128992220402324E-09
v 0 6 2.5128992220402324E-09
v 1 4 1.3003962351376686E-09
v 1 6 1.3003962351376686E-09
v 0 5 2.5128992220402324E-09
v 1 5 1.3003962351376686E-09
v 2 6 9.5
v 0 6 2.5128992220402324E-09
v 0 6 4
v 0 6 8
v 2 6 8.75
v 1 6 8
v 1 6 1.3003962351376686E-09
v 1 6 8.75
v 1 6 4
v 0 6 2.5128992220402324E-09
v 0 6 8
v 0 4 2.5128992220402324E-09
v 0 4 8
v 0 4 4
v 0 6 4
v 0 5 2.5128992220402324E-09
v 0 5 8
f 5 1 3 9
f 4 5 9 6
f 2 8 7
f 6 7 8
f 4 6 8
f 14 11 10 12
f 12 15 13 14
f 21 18 17 16
f 20 19 18 21
f 25 24 23
f 25 22 27
f 27 24 25
f 24 27 29
f 29 27 26
f 28 24 29
f 34 30 37
f 34 36 31
f 36 34 37
f 36 37 32 35
f 35 33 36
f 42 43 40 38
f 39 41 43 42
f 52 50 45 46
f 48 51 44
f 49 52 46 47
f 51 49 47
f 48 49 51
f 58 53 59
f 58 60 54
f 60 58 59
f 60 59 55 57
f 57 56 60
