# FlatmatesRh OBJ export
# @layer: GEO
# @craft: Group01
# @cell: 0_3
o Group01_GEO_0_3
v 0 6 3.7693488330603486E-09
v 2 6 9.5
v 1 6 1.9286210406477267E-09
v 0 6 8
v 0 6 4
v 1 6 8
v 2 6 8.75
v 1 6 8.75
v 1 6 4
v 2 6 8.75
v 2 6 9.5
v 2 8 8.75
v 2 7 8.75
v 2 8 9.5
v 2 7 9.5
v 1 8 8
v 2 6 8.75
v 2 8 8.75
v 1 6 8
v 2 7 8.75
v 1 7 8
v 2 6 9.5
v 2 8 9.5
v 0 8 8
v 1 6 8.75
v 2 7 9.5
v 1 8 8.75
v 0 6 8
v 0 7 8
v 1 6 1.9286210406477267E-09
v 1 6 8
v 1 8 1.9286210406477267E-09
v 1 8 8
v 1 6 4
v 1 8 4
v 1 7 8
v 1 7 1.9286210406477267E-09
v 0 6 3.7693488330603486E-09
v 1 6 1.9286210406477267E-09
v 1 8 1.9286210406477267E-09
v 0 8 3.7693488330603486E-09
v 0 7 3.7693488330603486E-09
v 1 7 1.9286210406477267E-09
v 2 8 9.5
v 0 8 3.7693488330603486E-09
v 0 8 4
v 0 8 8
v 2 8 8.75
v 1 8 8
v 1 8 1.9286210406477267E-09
v 1 8 8.75
v 1 8 4
v 0 8 3.7693488330603486E-09
v 0 8 8
v 0 6 3.7693488330603486E-09
v 0 6 8
v 0 6 4
v 0 8 4
v 0 7 3.7693488330603486E-09
v 0 7 8
f 5 1 3 9
f 4 5 9 6
f 2 8 7
f 6 7 8
f 4 6 8
f 11 10 13 15
f 12 14 15 13
f 21 20 17 19
f 16 18 20 21
f 26 25 22
f 26 23 27
f 29 25 26
f 26 27 29
f 29 27 24
f 28 25 29
f 34 30 37
f 34 36 31
f 36 34 37
f 36 37 32 35
f 35 33 36
f 42 43 39 38
f 41 40 43 42
f 49 51 48
f 48 51 44
f 46 52 45
f 50 45 52
f 47 49 46
f 52 46 49
f 51 49 47
f 58 53 59
f 58 60 54
f 60 58 59
f 59 57 60
f 57 56 60
f 55 57 59
