# FlatmatesRh OBJ export
# @layer: GEO
# @craft: Group01
# @cell: 0_4
o Group01_GEO_0_4
v 0 8 5.0257984440804648E-09
v 2 8 9.5
v 1 8 2.5568458461577848E-09
v 0 8 8
v 0 8 4
v 1 8 8
v 2 8 8.75
v 1 8 8.75
v 1 8 4
v 2 8 8.75
v 2 10 9.5
v 2 9 8.75
v 2 9 9.5
v 2 8 9.5
v 2 10 8.75
v 0 8 5.0257984440804648E-09
v 0 10 5.0257984440804648E-09
v 1 8 2.5568458461577848E-09
v 1 10 5.0257984440804648E-09
v 0 9 5.0257984440804648E-09
v 1 9 3.79132236716373E-09
v 1 8 8
v 1 10 8
v 2 10 8.75
v 2 8 8.75
v 2 9 8.75
v 1 9 8
v 2 8 9.5
v 2 10 9.5
v 0 8 8
v 0 10 8
v 1 8 8.75
v 2 9 9.5
v 0 9 8
v 1 10 8.75
v 1 8 2.5568458461577848E-09
v 1 8 8
v 1 10 5.0257984440804648E-09
v 1 10 8
v 1 8 4
v 1 10 4
v 1 9 8
v 1 9 3.79132236716373E-09
v 2 10 9.5
v 0 10 5.0257984440804648E-09
v 0 10 4
v 0 10 8
v 2 10 8.75
v 1 10 8
v 1 10 5.0257984440804648E-09
v 1 10 4
v 1 10 8.75
v 0 10 5.0257984440804648E-09
v 0 8 5.0257984440804648E-09
v 0 8 8
v 0 8 4
v 0 10 8
v 0 10 4
v 0 9 5.0257984440804648E-09
v 0 9 8
f 9 6 5
f 8 4 6
f 5 6 4
f 9 5 1
f 1 3 9
f 2 8 7
f 7 8 6
f 14 10 12 13
f 15 11 13 12
f 20 21 18 16
f 17 19 21 20
f 27 26 25 22
f 23 24 26 27
f 34 33 35
f 33 29 35
f 32 28 33
f 34 30 32
f 34 35 31
f 32 33 34
f 40 36 43
f 40 42 37
f 42 40 43
f 42 43 38 41
f 41 39 42
f 51 50 45 46
f 48 52 44
f 49 51 46 47
f 52 49 47
f 48 49 52
f 58 53 59
f 58 60 57
f 60 58 59
f 59 56 60
f 56 55 60
f 54 56 59
