# FlatmatesRh OBJ export
# @layer: GEO
# @craft: Group01
# @cell: 1_0
o Group01_GEO_1_0
v 2 0 8.75
v 4 0 11
v 4 0 10.25
v 2 0 9.5
v 3 0 9.5
v 3 0 10.25
v 4 2 10.25
v 4 2 11
v 4 0 10.25
v 4 1 10.25
v 4 1 11
v 4 0 11
v 4 2 11
v 2 2 8.75
v 4 2 10.25
v 3 2 9.5
v 2 2 9.5
v 3 2 10.25
v 2 2 9.5
v 2 0 8.75
v 2 2 8.75
v 2 1 8.75
v 2 0 9.5
v 2 1 9.5
v 2 0 8.75
v 4 0 10.25
v 4 1 10.25
v 4 2 10.25
v 3 2 9.5
v 2 2 8.75
v 2 1 8.75
v 3 0 9.5
v 4 0 11
v 2 0 9.5
v 4 2 11
v 4 1 11
v 2 2 9.5
v 3 2 10.25
v 2 1 9.5
v 3 0 10.25
f 6 4 5
f 1 5 4
f 6 3 2
f 5 3 6
f 12 9 10 11
f 7 8 11 10
f 18 13 15
f 16 18 15
f 18 16 17
f 14 17 16
f 21 22 24 19
f 23 24 22 20
f 31 32 25
f 31 30 29
f 29 32 31
f 32 29 27
f 27 29 28
f 26 32 27
f 39 36 38
f 36 35 38
f 40 33 36
f 39 34 40
f 39 38 37
f 40 36 39
