# FlatmatesRh OBJ export
# @layer: GEO
# @craft: Group01
# @cell: 1_1
o Group01_GEO_1_1
v 2 2 8.75
v 4 2 11
v 3 2 9.5
v 4 2 10.25
v 3 2 10.25
v 2 2 9.5
v 4 2 10.25
v 4 4 10.25
v 4 4 11
v 4 3 10.25
v 4 3 11
v 4 2 11
v 4 4 11
v 2 4 8.75
v 4 4 10.25
v 3 4 9.5
v 2 4 9.5
v 3 4 10.25
v 2 4 8.75
v 2 4 9.5
v 2 2 9.5
v 2 3 8.75
v 2 3 9.5
v 2 2 8.75
v 2 4 8.75
v 2 2 8.75
v 3 2 9.5
v 4 2 10.25
v 4 3 10.25
v 4 4 10.25
v 3 4 9.5
v 2 3 8.75
v 2 4 9.5
v 4 2 11
v 3 2 10.25
v 4 4 11
v 4 3 11
v 3 4 10.25
v 2 2 9.5
v 2 3 9.5
f 6 1 3
f 5 6 3
f 2 5 4
f 3 4 5
f 7 10 11 12
f 9 11 10 8
f 18 13 15
f 16 18 15
f 18 16 17
f 14 17 16
f 20 19 22 23
f 24 21 23 22
f 32 27 26
f 32 25 31
f 29 27 32
f 32 31 29
f 29 31 30
f 28 27 29
f 40 37 38
f 37 36 38
f 35 34 37
f 40 39 35
f 40 38 33
f 35 37 40
