# FlatmatesRh OBJ export
# @layer: GEO
# @craft: Group01
# @cell: 1_2
o Group01_GEO_1_2
v 2 4 8.75
v 4 4 11
v 3 4 9.5
v 4 4 10.25
v 3 4 10.25
v 2 4 9.5
v 4 4 10.25
v 4 6 10.25
v 4 6 11
v 4 5 10.25
v 4 5 11
v 4 4 11
v 4 6 11
v 2 6 8.75
v 4 6 10.25
v 3 6 9.5
v 2 6 9.5
v 3 6 10.25
v 2 6 8.75
v 2 6 9.5
v 2 5 8.75
v 2 4 9.5
v 2 5 9.5
v 2 4 8.75
v 2 6 8.75
v 4 4 10.25
v 2 4 8.75
v 3 4 9.5
v 4 5 10.25
v 4 6 10.25
v 3 6 9.5
v 2 5 8.75
v 2 4 9.5
v 4 4 11
v 3 4 10.25
v 4 6 11
v 4 5 11
v 2 6 9.5
v 3 6 10.25
v 2 5 9.5
f 6 1 3
f 5 6 3
f 2 5 4
f 3 4 5
f 7 10 11 12
f 9 11 10 8
f 18 13 15
f 16 18 15
f 18 16 17
f 14 17 16
f 19 21 23 20
f 22 23 21 24
f 29 32 31
f 32 25 31
f 28 27 32
f 29 26 28
f 29 31 30
f 28 32 29
f 35 37 39
f 37 36 39
f 35 34 37
f 40 33 35
f 40 39 38
f 35 39 40
