# FlatmatesRh OBJ export
# @layer: GEO
# @craft: Group01
# @cell: 1_3
o Group01_GEO_1_3
v 2 6 8.75
v 4 6 11
v 3 6 9.5
v 4 6 10.25
v 3 6 10.25
v 2 6 9.5
v 4 6 10.25
v 4 6 11
v 4 8 11
v 4 7 10.25
v 4 7 11
v 4 8 10.25
v 4 8 11
v 2 8 8.75
v 4 8 10.25
v 3 8 9.5
v 2 8 9.5
v 3 8 10.25
v 2 8 8.75
v 2 8 9.5
v 2 6 8.75
v 2 7 8.75
v 2 6 9.5
v 2 7 9.5
v 2 6 8.75
v 2 8 8.75
v 4 8 10.25
v 3 6 9.5
v 4 6 10.25
v 4 7 10.25
v 3 8 9.5
v 2 7 8.75
v 2 8 9.5
v 4 6 11
v 3 6 10.25
v 4 8 11
v 4 7 11
v 3 8 10.25
v 2 6 9.5
v 2 7 9.5
f 5 6 3
f 1 3 6
f 5 4 2
f 3 4 5
f 11 8 7 10
f 10 12 9 11
f 13 15 18
f 16 18 15
f 17 16 14
f 18 16 17
f 20 19 22 24
f 21 23 24 22
f 30 32 31
f 32 26 31
f 28 25 32
f 30 29 28
f 30 31 27
f 28 32 30
f 40 37 38
f 37 36 38
f 35 34 37
f 40 39 35
f 40 38 33
f 35 37 40
