# FlatmatesRh OBJ export
# @layer: GEO
# @craft: Group01
# @cell: 1_4
o Group01_GEO_1_4
v 2 8 8.75
v 4 8 11
v 3 8 9.5
v 4 8 10.25
v 3 8 10.25
v 2 8 9.5
v 4 8 10.25
v 4 8 11
v 4 10 11
v 4 9 10.25
v 4 9 11
v 4 10 10.25
v 2 10 8.75
v 2 10 9.5
v 2 8 9.5
v 2 9 8.75
v 2 9 9.5
v 2 8 8.75
v 2 8 8.75
v 4 10 10.25
v 3 8 9.5
v 4 8 10.25
v 4 9 10.25
v 2 10 8.75
v 2 9 8.75
v 3 10 9.5
v 4 8 11
v 4 10 11
v 2 10 9.5
v 3 8 10.25
v 4 9 11
v 2 8 9.5
v 2 9 9.5
v 3 10 10.25
v 4 10 11
v 2 10 8.75
v 4 10 10.25
v 2 10 9.5
v 3 10 9.5
v 3 10 10.25
f 5 6 3
f 1 3 6
f 5 4 2
f 3 4 5
f 8 7 10 11
f 12 9 11 10
f 14 13 16 17
f 18 15 17 16
f 25 21 19
f 25 24 26
f 26 21 25
f 21 26 23
f 23 26 20
f 22 21 23
f 31 30 27
f 31 28 34
f 33 30 31
f 31 34 33
f 33 34 29
f 32 30 33
f 40 35 37
f 39 40 37
f 40 39 38
f 36 38 39
