# FlatmatesRh OBJ export
# @layer: GEO
# @craft: Group01
# @cell: 2_1
o Group01_GEO_2_1
v 4 2 10.25
v 5 2 11
v 5 2 11.75
v 4 2 11
v 6 2 11
v 6 2 10.25
v 4 4 10.25
v 4 2 11
v 4 3 10.25
v 4 3 11
v 4 2 10.25
v 4 4 11
v 4 2 10.25
v 5 4 11
v 4 4 10.25
v 4 3 10.25
v 5 2 11
v 5 3 11
v 5 4 11.75
v 4 2 11
v 5 2 11.75
v 4 4 11
v 4 3 11
v 5 3 11.75
v 6 2 10.25
v 6 4 10.25
v 5 4 11
v 6 3 10.25
v 5 2 11
v 5 3 11
v 5 4 11.75
v 6 4 11
v 5 2 11.75
v 6 2 11
v 6 3 11
v 5 3 11.75
v 6 4 10.25
v 6 4 11
v 6 2 10.25
v 6 3 10.25
v 6 3 11
v 6 2 11
v 4 4 10.25
v 5 4 11
v 4 4 11
v 5 4 11.75
v 6 4 10.25
v 6 4 11
f 4 1 2
f 3 4 2
f 3 2 5
f 6 5 2
f 10 12 7 9
f 9 11 8 10
f 16 18 17 13
f 15 14 18 16
f 24 23 20 21
f 19 22 23 24
f 28 25 29 30
f 26 28 30 27
f 36 33 34 35
f 31 36 35 32
f 42 39 40 41
f 37 38 41 40
f 48 47 44
f 46 48 44
f 46 44 45
f 43 45 44
