# FlatmatesRh OBJ export
# @layer: GEO
# @craft: Group01
# @cell: 2_2
o Group01_GEO_2_2
v 6 4 10.25
v 4 4 10.25
v 5 4 11
v 5 4 11.75
v 4 4 11
v 6 4 11
v 4 6 10.25
v 4 6 11
v 4 4 10.25
v 4 4 11
v 4 5 10.25
v 4 5 11
v 4 4 10.25
v 5 4 11
v 5 6 11
v 4 6 10.25
v 4 5 10.25
v 5 5 11
v 5 4 11.75
v 5 6 11.75
v 4 6 11
v 4 4 11
v 4 5 11
v 5 5 11.75
v 5 4 11
v 6 4 10.25
v 6 6 10.25
v 6 5 10.25
v 5 6 11
v 5 5 11
v 5 6 11.75
v 6 4 11
v 5 4 11.75
v 6 5 11
v 6 6 11
v 5 5 11.75
v 6 4 11
v 6 6 10.25
v 6 6 11
v 6 4 10.25
v 6 5 10.25
v 6 5 11
v 6 6 10.25
v 4 6 10.25
v 5 6 11
v 4 6 11
v 5 6 11.75
v 6 6 11
f 5 2 3
f 4 5 3
f 4 3 6
f 1 6 3
f 12 8 7 11
f 11 9 10 12
f 17 18 14 13
f 16 15 18 17
f 24 23 22 19
f 20 21 23 24
f 28 26 25 30
f 27 28 30 29
f 36 33 32 34
f 31 36 34 35
f 42 37 40 41
f 41 38 39 42
f 48 43 45
f 47 48 45
f 47 45 46
f 44 46 45
