# FlatmatesRh OBJ export
# @layer: GEO
# @craft: Group01
# @cell: 2_4
o Group01_GEO_2_4
v 4 8 10.25
v 6 8 10.25
v 5 8 11
v 5 8 11.75
v 4 8 11
v 6 8 11
v 6 10 10.25
v 4 10 10.25
v 4 10 11
v 5 10 11.75
v 6 10 11
v 5 10 11
v 4 10 11
v 4 8 10.25
v 4 8 11
v 4 10 10.25
v 4 9 10.25
v 4 9 11
v 5 8 11
v 5 10 11
v 4 8 10.25
v 4 10 10.25
v 4 9 10.25
v 5 9 11
v 5 10 11.75
v 4 8 11
v 4 10 11
v 5 8 11.75
v 4 9 11
v 5 9 11.75
v 6 8 10.25
v 5 8 11
v 5 10 11
v 6 10 10.25
v 6 9 10.25
v 5 9 11
v 5 8 11.75
v 5 10 11.75
v 6 8 11
v 6 10 11
v 6 9 11
v 5 9 11.75
v 6 8 10.25
v 6 8 11
v 6 10 10.25
v 6 10 11
v 6 9 10.25
v 6 9 11
f 5 1 3
f 4 5 3
f 4 3 6
f 2 6 3
f 11 7 12
f 10 11 12
f 10 12 9
f 8 9 12
f 13 16 17 18
f 14 15 18 17
f 23 24 19 21
f 22 20 24 23
f 30 29 26 28
f 25 27 29 30
f 35 31 32 36
f 34 35 36 33
f 42 37 39 41
f 38 42 41 40
f 44 43 47 48
f 45 46 48 47
