# FlatmatesRh OBJ export
# @layer: GEO
# @craft: Group01
# @cell: 3_0
o Group01_GEO_3_0
v 8 0 8.75
v 8 2 8.75
v 6 0 10.25
v 6 2 10.25
v 8 1 8.75
v 7 2 9.5
v 6 1 10.25
v 7 0 9.5
v 6 0 11
v 8 0 9.5
v 8 2 9.5
v 8 1 9.5
v 7 2 10.25
v 6 2 11
v 6 1 11
v 7 0 10.25
v 6 0 11
v 8 0 8.75
v 8 0 9.5
v 6 0 10.25
v 7 0 9.5
v 7 0 10.25
v 8 0 9.5
v 8 2 8.75
v 8 0 8.75
v 8 1 8.75
v 8 2 9.5
v 8 1 9.5
v 8 2 8.75
v 6 2 11
v 7 2 9.5
v 6 2 10.25
v 7 2 10.25
v 8 2 9.5
v 6 2 10.25
v 6 0 11
v 6 1 10.25
v 6 1 11
v 6 0 10.25
v 6 2 11
f 5 1 8
f 5 6 2
f 7 5 8
f 5 7 6
f 7 4 6
f 3 7 8
f 16 13 15
f 15 13 14
f 16 15 9
f 12 16 10
f 12 11 13
f 16 12 13
f 22 17 20
f 21 22 20
f 22 21 19
f 18 19 21
f 23 25 26 28
f 24 27 28 26
f 34 29 31
f 33 34 31
f 30 33 32
f 31 32 33
f 40 35 37 38
f 39 36 38 37
