# FlatmatesRh OBJ export
# @layer: GEO
# @craft: Group01
# @cell: 3_1
o Group01_GEO_3_1
v 6 2 11
v 8 2 8.75
v 6 2 10.25
v 7 2 9.5
v 8 2 9.5
v 7 2 10.25
v 8 2 8.75
v 8 2 9.5
v 8 4 8.75
v 8 4 9.5
v 8 3 8.75
v 8 3 9.5
v 8 4 8.75
v 6 4 11
v 7 4 9.5
v 6 4 10.25
v 7 4 10.25
v 8 4 9.5
v 6 2 10.25
v 6 2 11
v 6 4 10.25
v 6 3 10.25
v 6 3 11
v 6 4 11
v 8 4 8.75
v 6 2 10.25
v 6 4 10.25
v 8 2 8.75
v 7 2 9.5
v 8 3 8.75
v 7 4 9.5
v 6 3 10.25
v 6 2 11
v 8 4 9.5
v 7 2 10.25
v 8 2 9.5
v 8 3 9.5
v 7 4 10.25
v 6 4 11
v 6 3 11
f 6 1 3
f 4 6 3
f 6 4 5
f 2 5 4
f 8 7 11 12
f 9 10 12 11
f 18 13 15
f 17 18 15
f 14 17 16
f 15 16 17
f 24 21 22 23
f 19 20 23 22
f 30 28 29
f 30 31 25
f 32 30 29
f 30 32 31
f 32 27 31
f 26 32 29
f 40 33 35
f 40 38 39
f 37 40 35
f 40 37 38
f 37 34 38
f 36 37 35
