# FlatmatesRh OBJ export
# @layer: GEO
# @craft: Group01
# @cell: 3_2
o Group01_GEO_3_2
v 6 4 11
v 8 4 8.75
v 6 4 10.25
v 7 4 9.5
v 8 4 9.5
v 7 4 10.25
v 8 4 9.5
v 8 6 8.75
v 8 4 8.75
v 8 5 8.75
v 8 6 9.5
v 8 5 9.5
v 8 6 8.75
v 6 6 11
v 7 6 9.5
v 6 6 10.25
v 7 6 10.25
v 8 6 9.5
v 6 6 11
v 6 4 10.25
v 6 4 11
v 6 6 10.25
v 6 5 10.25
v 6 5 11
v 6 6 10.25
v 8 4 8.75
v 7 4 9.5
v 8 6 8.75
v 8 5 8.75
v 7 6 9.5
v 6 4 10.25
v 6 5 10.25
v 6 4 11
v 8 6 9.5
v 7 4 10.25
v 8 4 9.5
v 8 5 9.5
v 7 6 10.25
v 6 6 11
v 6 5 11
f 1 3 6
f 4 6 3
f 5 4 2
f 6 4 5
f 9 10 12 7
f 11 12 10 8
f 17 18 15
f 13 15 18
f 17 16 14
f 15 16 17
f 22 23 24 19
f 21 24 23 20
f 29 26 27
f 29 30 28
f 30 29 27
f 30 27 32 25
f 31 32 27
f 40 33 35
f 40 38 39
f 37 40 35
f 40 37 38
f 37 34 38
f 36 37 35
