# FlatmatesRh OBJ export
# @layer: GEO
# @craft: Group01
# @cell: 3_3
o Group01_GEO_3_3
v 6 6 11
v 8 6 8.75
v 6 6 10.25
v 7 6 9.5
v 8 6 9.5
v 7 6 10.25
v 8 6 9.5
v 8 8 8.75
v 8 6 8.75
v 8 7 8.75
v 8 8 9.5
v 8 7 9.5
v 8 8 8.75
v 6 8 11
v 7 8 9.5
v 6 8 10.25
v 7 8 10.25
v 8 8 9.5
v 6 8 10.25
v 6 8 11
v 6 7 10.25
v 6 6 11
v 6 7 11
v 6 6 10.25
v 6 6 10.25
v 6 8 10.25
v 8 6 8.75
v 7 6 9.5
v 8 8 8.75
v 8 7 8.75
v 7 8 9.5
v 6 7 10.25
v 6 6 11
v 6 8 11
v 8 6 9.5
v 7 6 10.25
v 8 7 9.5
v 8 8 9.5
v 7 8 10.25
v 6 7 11
f 6 1 3
f 4 6 3
f 6 4 5
f 2 5 4
f 12 7 9 10
f 10 8 11 12
f 18 13 15
f 17 18 15
f 14 17 16
f 15 16 17
f 20 19 21 23
f 24 22 23 21
f 30 27 28
f 30 31 29
f 31 30 28
f 28 32 31
f 32 26 31
f 25 32 28
f 40 37 38 39
f 40 39 34
f 36 40 33
f 37 36 35
f 36 37 40
