# FlatmatesRh OBJ export
# @layer: GEO
# @craft: Group01
# @cell: 3_4
o Group01_GEO_3_4
v 8 10 8.75
v 6 10 11
v 8 10 9.5
v 6 10 10.25
v 7 10 9.5
v 7 10 10.25
v 8 8 8.75
v 6 10 10.25
v 7 8 9.5
v 8 10 8.75
v 8 9 8.75
v 6 8 10.25
v 6 9 10.25
v 7 10 9.5
v 6 8 11
v 6 10 11
v 8 8 9.5
v 8 10 9.5
v 7 8 10.25
v 8 9 9.5
v 6 9 11
v 7 10 10.25
v 6 8 11
v 8 8 8.75
v 6 8 10.25
v 7 8 9.5
v 8 8 9.5
v 7 8 10.25
v 8 8 8.75
v 8 10 9.5
v 8 9 8.75
v 8 9 9.5
v 8 8 9.5
v 8 10 8.75
v 6 10 11
v 6 8 10.25
v 6 10 10.25
v 6 9 10.25
v 6 8 11
v 6 9 11
f 6 3 5
f 1 5 3
f 6 4 2
f 5 4 6
f 11 7 9
f 11 14 10
f 13 11 9
f 11 13 14
f 13 8 14
f 12 13 9
f 19 22 21
f 21 22 16
f 19 21 15
f 20 19 17
f 20 18 22
f 19 20 22
f 28 23 25
f 26 28 25
f 28 26 27
f 24 27 26
f 33 29 31 32
f 34 30 32 31
f 35 37 38 40
f 36 39 40 38
