# FlatmatesRh OBJ export
# @layer: GEO
# @craft: Group01
# @cell: 4_0
o Group01_GEO_4_0
v 9 0 0
v 9 1 8.7893060884969287E-11
v 10 0 0
v 10 1 0
v 10 0.5 0
v 9.5 1 4.3946530442484644E-11
v 9 0.5 4.3946530442484644E-11
v 9.5 0 0
v 9 0 8
v 9 2 8
v 8 0 8.75
v 9 1 8
v 9 1.5 8
v 8 2 8.75
v 8 1 8.75
v 8 0 9.5
v 8 2 9.5
v 10 0 8
v 10 1 8
v 10 1.5 8
v 8 1 9.5
v 9 0 8.75
v 10 2 8
v 9 2 8.75
v 10 1 8
v 10 2 8
v 9 1 8
v 9 2 8
v 9.5 1 8
v 9 1.5 8
v 10 1.5 8
v 9.5 2 8
v 10 1 0
v 10 1 8
v 9 1 8.7893060884969287E-11
v 9 1 8
v 9 1 2.6666667461395264
v 9 1 5.3333334922790527
v 9.5 1 8
v 10 1 5.3333334922790527
v 10 1 2.6666667461395264
v 9.5 1 4.3946530442484644E-11
v 9 1 8.7893060884969287E-11
v 9 1 8
v 9 0 0
v 9 0 8
v 9 1 5.3333334922790527
v 9 1 2.6666667461395264
v 9 0 2.6666667461395264
v 9 0 5.3333334922790527
v 9 0.5 4.3946530442484644E-11
v 8 0 9.5
v 10 0 0
v 10 0 2.6666667461395264
v 10 0 5.3333334922790527
v 10 0 8
v 8 0 8.75
v 9 0 8
v 9 0 0
v 9 0 5.3333334922790527
v 9 0 2.6666667461395264
v 9.5 0 0
v 9.5 0 2.375
v 9.5 0 1.1875
v 9.25 0 2.375
v 9.25 0 1.1875
v 9.75 0 2.375
v 9.75 0 1.1875
v 9 0 8.75
v 10 0 0
v 10 0 8
v 10 1 0
v 10 1 8
v 10 0 5.3333334922790527
v 10 0 2.6666667461395264
v 10 0.5 0
v 10 1 2.6666667461395264
v 10 1 5.3333334922790527
v 10 2 8
v 8 2 9.5
v 9 2 8
v 8 2 8.75
v 9 2 8.75
v 9.5 2 8
v 8 2 8.75
v 8 0 9.5
v 8 1 8.75
v 8 1 9.5
v 8 0 8.75
v 8 2 9.5
f 7 8 1
f 7 2 6
f 5 8 7
f 7 6 5
f 5 6 4
f 3 8 5
f 12 9 11 15
f 15 13 12
f 15 14 13
f 14 10 13
f 21 16 22
f 21 24 17
f 24 21 22
f 24 22 19 20
f 23 24 20
f 18 19 22
f 31 25 29
f 31 32 26
f 30 31 29
f 31 30 32
f 30 28 32
f 27 30 29
f 41 33 42
f 40 41 37 38
f 40 39 34
f 42 37 41
f 36 39 38
f 38 39 40
f 35 37 42
f 51 48 43
f 44 47 50 46
f 47 48 49 50
f 49 51 45
f 49 48 51
f 63 65 66 64
f 67 63 64 68
f 61 59 66 65
f 66 59 62
f 60 61 65
f 69 52 57
f 58 60 55 56
f 58 56 69
f 57 58 69
f 65 63 60
f 68 64 62
f 53 54 67 68
f 62 53 68
f 55 63 67
f 67 54 55
f 63 55 60
f 62 64 66
f 76 75 70
f 71 74 78 73
f 74 75 77 78
f 77 76 72
f 77 75 76
f 83 79 84
f 83 84 81
f 80 83 82
f 81 82 83
f 88 90 85 87
f 87 89 86 88
