# FlatmatesRh OBJ export
# @layer: GEO
# @craft: Group01
# @cell: 4_1
o Group01_GEO_4_1
v 9 2 8
v 9 4 8
v 8 4 8.75
v 8 2 8.75
v 8 3 8.75
v 9 3 8
v 8 2 9.5
v 8 4 9.5
v 10 2 8
v 10 4 8
v 9 2 8.75
v 10 3 8
v 9 4 8.75
v 8 3 9.5
v 10 2 8
v 10 4 8
v 9 2 8
v 9 4 8
v 10 3 8
v 9 3 8
v 8 2 9.5
v 8 2 8.75
v 9 2 8
v 10 2 8
v 9 2 8.75
v 10 4 8
v 8 4 9.5
v 9 4 8
v 8 4 8.75
v 9 4 8.75
v 8 4 9.5
v 8 2 8.75
v 8 2 9.5
v 8 4 8.75
v 8 3 8.75
v 8 3 9.5
f 6 1 4 5
f 2 6 5 3
f 14 7 11
f 14 13 8
f 13 14 11
f 11 12 13
f 12 10 13
f 9 12 11
f 19 15 17 20
f 16 19 20 18
f 25 21 22
f 25 23 24
f 22 23 25
f 28 30 26
f 30 29 27
f 28 29 30
f 31 34 35 36
f 32 33 36 35
