# FlatmatesRh OBJ export
# @layer: GEO
# @craft: Group01
# @cell: 4_2
o Group01_GEO_4_2
v 8 4 8.75
v 9 4 8
v 8 6 8.75
v 8 5 8.75
v 9 6 8
v 9 5 8
v 10 4 8
v 8 4 9.5
v 9 4 8.75
v 10 5 8
v 10 6 8
v 9 6 8.75
v 8 6 9.5
v 8 5 9.5
v 10 4 8
v 10 6 8
v 9 4 8
v 9 6 8
v 10 5 8
v 9 5 8
v 8 4 9.5
v 10 4 8
v 8 4 8.75
v 9 4 8.75
v 9 4 8
v 8 6 9.5
v 9 6 8
v 8 6 8.75
v 9 6 8.75
v 10 6 8
v 8 4 8.75
v 8 4 9.5
v 8 6 8.75
v 8 5 8.75
v 8 5 9.5
v 8 6 9.5
f 6 2 1 4
f 5 6 4 3
f 14 8 9
f 14 12 13
f 12 14 9
f 9 10 12
f 10 11 12
f 7 10 9
f 19 15 17 20
f 16 19 20 18
f 24 21 23
f 22 24 25
f 23 25 24
f 29 30 27
f 26 29 28
f 27 28 29
f 35 36 33 34
f 34 31 32 35
