# FlatmatesRh OBJ export
# @layer: GEO
# @craft: Group01
# @cell: 4_3
o Group01_GEO_4_3
v 9 6 8
v 8 8 8.75
v 8 6 8.75
v 8 7 8.75
v 9 8 8
v 9 7 8
v 10 6 8
v 10 8 8
v 8 6 9.5
v 9 6 8.75
v 10 7 8
v 9 8 8.75
v 8 8 9.5
v 8 7 9.5
v 10 6 8
v 10 8 8
v 9 6 8
v 10 7 8
v 9 8 8
v 9 7 8
v 8 6 9.5
v 10 6 8
v 8 6 8.75
v 9 6 8.75
v 9 6 8
v 10 8 8
v 8 8 9.5
v 9 8 8
v 8 8 8.75
v 9 8 8.75
v 8 8 8.75
v 8 8 9.5
v 8 6 8.75
v 8 7 8.75
v 8 6 9.5
v 8 7 9.5
f 6 1 3 4
f 5 6 4 2
f 14 11 12 13
f 10 14 9
f 11 10 7
f 11 8 12
f 10 11 14
f 18 15 17 20
f 16 18 20 19
f 24 21 23
f 22 24 25
f 23 25 24
f 30 26 28
f 27 30 29
f 28 29 30
f 31 34 36 32
f 35 36 34 33
