# FlatmatesRh OBJ export
# @layer: GEO
# @craft: Group01
# @cell: 4_4
o Group01_GEO_4_4
v 9 9 8.7893060884969287E-11
v 9 10 5.0257984440804648E-09
v 10 9 5.0257984440804648E-09
v 10 10 5.0257984440804648E-09
v 9.5 10 5.0257984440804648E-09
v 9 9.5 2.5568458461577848E-09
v 9.5 9 2.5568458461577848E-09
v 10 9.5 5.0257984440804648E-09
v 9 10 8
v 8 10 8.75
v 9 9 8
v 9 8 8
v 8 8 8.75
v 8 9 8.75
v 9 8.5 8
v 8 8 9.5
v 8 10 9.5
v 10 8 8
v 10 10 8
v 9 8 8.75
v 10 8.5 8
v 10 9 8
v 9 10 8.75
v 8 9 9.5
v 10 9 8
v 9 8 8
v 9 9 8
v 9.5 9 8
v 10 8 8
v 9.5 8 8
v 10 8.5 8
v 9 8.5 8
v 9 10 5.0257984440804648E-09
v 9 10 8
v 9 9 8.7893060884969287E-11
v 9 9 8
v 9 9.5 2.5568458461577848E-09
v 9 9 2.6666667461395264
v 9 9 5.3333334922790527
v 9 10 5.3333334922790527
v 9 10 2.6666667461395264
v 9 9 8.7893060884969287E-11
v 9 9 8
v 10 9 5.0257984440804648E-09
v 10 9 8
v 9 9 5.3333334922790527
v 9 9 2.6666667461395264
v 9.5 9 2.5568458461577848E-09
v 9.5 9 8
v 10 9 2.6666667461395264
v 10 9 5.3333334922790527
v 8 8 9.5
v 10 8 8
v 8 8 8.75
v 9 8 8.75
v 9 8 8
v 9.5 8 8
v 10 9 5.0257984440804648E-09
v 10 9 8
v 10 10 5.0257984440804648E-09
v 10 10 8
v 10 10 2.6666667461395264
v 10 10 5.3333334922790527
v 10 9 5.3333334922790527
v 10 9 2.6666667461395264
v 10 9.5 5.0257984440804648E-09
v 10 10 5.0257984440804648E-09
v 8 10 9.5
v 10 10 8
v 10 10 5.3333334922790527
v 10 10 2.6666667461395264
v 9.5 10 5.0257984440804648E-09
v 9 10 5.0257984440804648E-09
v 9.5 10 2.375
v 9.5 10 1.1875
v 9.75 10 2.375
v 9.75 10 1.1875
v 9.25 10 2.375
v 9.25 10 1.1875
v 9 10 8
v 8 10 8.75
v 9 10 2.6666667461395264
v 9 10 5.3333334922790527
v 9 10 8.75
v 8 10 9.5
v 8 8 8.75
v 8 8 9.5
v 8 10 8.75
v 8 9 8.75
v 8 9 9.5
f 6 7 1
f 6 2 5
f 8 7 6
f 6 5 8
f 8 5 4
f 3 7 8
f 13 15 12
f 14 11 15
f 9 11 14 10
f 13 14 15
f 24 16 20
f 24 23 17
f 22 24 20
f 21 22 20
f 19 23 22
f 22 23 24
f 18 21 20
f 31 29 30
f 31 28 25
f 32 31 30
f 31 32 28
f 32 27 28
f 26 32 30
f 37 41 33
f 34 40 39 36
f 40 41 38 39
f 38 37 35
f 38 41 37
f 47 42 48
f 46 47 50 51
f 46 49 43
f 48 50 47
f 45 49 51
f 51 49 46
f 44 50 48
f 55 52 54
f 56 55 54
f 53 55 57
f 56 57 55
f 66 65 58
f 59 64 63 61
f 64 65 62 63
f 62 66 60
f 62 65 66
f 74 76 77 75
f 78 74 75 79
f 71 67 77 76
f 72 77 67
f 77 72 75
f 79 75 72
f 76 70 71
f 69 70 83 80
f 76 74 70
f 74 83 70
f 82 78 79
f 79 73 82
f 73 79 72
f 83 78 82
f 68 84 81
f 80 81 84
f 80 84 69
f 83 74 78
f 85 88 89 90
f 86 87 90 89
