# FlatmatesRh OBJ export
# @layer: Metal
# @craft: Group09
# @cell: 0_0
o Group09_Metal_0_0
v 0 0 8.0000000000878924
v 2 0 9.5000000000878924
v 1 0 8.0000000000878924
v 2 0 8.7500000000878924
v 1 0 8.7500000000878924
v 2 0 9.5000000000878924
v 2 2 8.7500000000878924
v 2 0 8.7500000000878924
v 2 1 8.7500000000878924
v 2 2 9.5000000000878924
v 2 1 9.5000000000878924
v 2 2 9.5000000000878924
v 0 2 8.0000000000878924
v 2 2 8.7500000000878924
v 1 2 8.0000000000878924
v 1 2 8.7500000000878924
v 1 0 8.0000000000878924
v 1 2 8.0000000000878924
v 2 0 8.7500000000878924
v 1 1 8.0000000000878924
v 2 1 8.7500000000878924
v 2 2 8.7500000000878924
v 2 0 9.5000000000878924
v 2 2 9.5000000000878924
v 0 0 8.0000000000878924
v 2 1 9.5000000000878924
v 0 2 8.0000000000878924
v 1 2 8.7500000000878924
v 0 1 8.0000000000878924
v 1 0 8.7500000000878924
v 0 0 8.0000000000878924
v 0 2 8.0000000000878924
v 1 0 8.0000000000878924
v 1 2 8.0000000000878924
v 1 1 8.0000000000878924
v 0 1 8.0000000000878924
f 5 1 3
f 2 5 4
f 3 4 5
f 6 8 9 11
f 7 10 11 9
f 16 12 14
f 16 15 13
f 14 15 16
f 20 21 19 17
f 18 22 21 20
f 26 30 23
f 26 24 28
f 29 30 26
f 26 28 29
f 29 28 27
f 25 30 29
f 36 35 33 31
f 32 34 35 36
