# FlatmatesRh OBJ export
# @layer: Metal
# @craft: Group09
# @cell: 0_1
o Group09_Metal_0_1
v 0 2 8.0000000000878924
v 2 2 9.5000000000878924
v 1 2 8.0000000000878924
v 2 2 8.7500000000878924
v 1 2 8.7500000000878924
v 2 2 8.7500000000878924
v 2 2 9.5000000000878924
v 2 4 9.5000000000878924
v 2 3 8.7500000000878924
v 2 3 9.5000000000878924
v 2 4 8.7500000000878924
v 2 4 9.5000000000878924
v 0 4 8.0000000000878924
v 2 4 8.7500000000878924
v 1 4 8.7500000000878924
v 1 4 8.0000000000878924
v 1 4 8.0000000000878924
v 2 2 8.7500000000878924
v 2 4 8.7500000000878924
v 1 2 8.0000000000878924
v 2 3 8.7500000000878924
v 1 3 8.0000000000878924
v 2 4 9.5000000000878924
v 0 2 8.0000000000878924
v 0 4 8.0000000000878924
v 2 2 9.5000000000878924
v 1 2 8.7500000000878924
v 2 3 9.5000000000878924
v 1 4 8.7500000000878924
v 0 3 8.0000000000878924
v 0 2 8.0000000000878924
v 0 4 8.0000000000878924
v 1 2 8.0000000000878924
v 1 4 8.0000000000878924
v 0 3 8.0000000000878924
v 1 3 8.0000000000878924
f 3 5 1
f 5 4 2
f 3 4 5
f 7 6 9 10
f 11 8 10 9
f 15 12 14
f 15 16 13
f 14 16 15
f 22 21 18 20
f 17 19 21 22
f 28 27 26
f 28 23 29
f 30 27 28
f 28 29 30
f 30 29 25
f 24 27 30
f 35 36 33 31
f 32 34 36 35
