# FlatmatesRh OBJ export
# @layer: Metal
# @craft: Group09
# @cell: 0_2
o Group09_Metal_0_2
v 0 4 8.0000000000878924
v 2 4 9.5000000000878924
v 1 4 8.0000000000878924
v 2 4 8.7500000000878924
v 1 4 8.7500000000878924
v 2 4 9.5000000000878924
v 2 6 8.7500000000878924
v 2 4 8.7500000000878924
v 2 5 8.7500000000878924
v 2 6 9.5000000000878924
v 2 5 9.5000000000878924
v 2 6 9.5000000000878924
v 2 6 8.7500000000878924
v 1 6 8.0000000000878924
v 0 6 8.0000000000878924
v 1 6 8.7500000000878924
v 1 6 8.0000000000878924
v 2 4 8.7500000000878924
v 1 4 8.0000000000878924
v 2 5 8.7500000000878924
v 2 6 8.7500000000878924
v 1 5 8.0000000000878924
v 2 4 9.5000000000878924
v 2 6 9.5000000000878924
v 0 4 8.0000000000878924
v 0 6 8.0000000000878924
v 1 4 8.7500000000878924
v 2 5 9.5000000000878924
v 1 6 8.7500000000878924
v 0 5 8.0000000000878924
v 0 4 8.0000000000878924
v 0 6 8.0000000000878924
v 1 4 8.0000000000878924
v 1 6 8.0000000000878924
v 0 5 8.0000000000878924
v 1 5 8.0000000000878924
f 5 1 3
f 2 5 4
f 3 4 5
f 6 8 9 11
f 7 10 11 9
f 16 12 13
f 16 14 15
f 13 14 16
f 22 20 18 19
f 17 21 20 22
f 28 27 23
f 28 24 29
f 30 27 28
f 28 29 30
f 30 29 26
f 25 27 30
f 35 36 33 31
f 32 34 36 35
