# FlatmatesRh OBJ export
# @layer: Metal
# @craft: Group09
# @cell: 0_3
o Group09_Metal_0_3
v 0 6 8.0000000000878924
v 2 6 9.5000000000878924
v 1 6 8.0000000000878924
v 2 6 8.7500000000878924
v 1 6 8.7500000000878924
v 2 6 8.7500000000878924
v 2 6 9.5000000000878924
v 2 8 8.7500000000878924
v 2 8 9.5000000000878924
v 2 7 8.7500000000878924
v 2 7 9.5000000000878924
v 2 8 9.5000000000878924
v 0 8 8.0000000000878924
v 2 8 8.7500000000878924
v 1 8 8.7500000000878924
v 1 8 8.0000000000878924
v 1 6 8.0000000000878924
v 1 8 8.0000000000878924
v 2 6 8.7500000000878924
v 2 7 8.7500000000878924
v 2 8 8.7500000000878924
v 1 7 8.0000000000878924
v 2 6 9.5000000000878924
v 0 8 8.0000000000878924
v 1 6 8.7500000000878924
v 2 8 9.5000000000878924
v 2 7 9.5000000000878924
v 1 8 8.7500000000878924
v 0 6 8.0000000000878924
v 0 7 8.0000000000878924
v 0 6 8.0000000000878924
v 0 8 8.0000000000878924
v 1 6 8.0000000000878924
v 1 8 8.0000000000878924
v 0 7 8.0000000000878924
v 1 7 8.0000000000878924
f 5 1 3
f 2 5 4
f 3 4 5
f 7 6 10 11
f 8 9 11 10
f 15 12 14
f 15 16 13
f 14 16 15
f 22 20 19 17
f 18 21 20 22
f 27 25 23
f 27 26 28
f 30 25 27
f 27 28 30
f 30 28 24
f 29 25 30
f 35 36 33 31
f 32 34 36 35
