# FlatmatesRh OBJ export
# @layer: Metal
# @craft: Group09
# @cell: 0_4
o Group09_Metal_0_4
v 0 8 8.0000000000878924
v 2 8 9.5000000000878924
v 1 8 8.0000000000878924
v 2 8 8.7500000000878924
v 1 8 8.7500000000878924
v 2 8 8.7500000000878924
v 2 10 9.5000000000878924
v 2 9 8.7500000000878924
v 2 9 9.5000000000878924
v 2 8 9.5000000000878924
v 2 10 8.7500000000878924
v 1 8 8.0000000000878924
v 1 10 8.0000000000878924
v 2 8 8.7500000000878924
v 2 10 8.7500000000878924
v 2 9 8.7500000000878924
v 1 9 8.0000000000878924
v 2 8 9.5000000000878924
v 2 10 9.5000000000878924
v 0 8 8.0000000000878924
v 0 10 8.0000000000878924
v 1 8 8.7500000000878924
v 2 9 9.5000000000878924
v 0 9 8.0000000000878924
v 1 10 8.7500000000878924
v 0 8 8.0000000000878924
v 0 10 8.0000000000878924
v 1 8 8.0000000000878924
v 1 10 8.0000000000878924
v 0 9 8.0000000000878924
v 1 9 8.0000000000878924
v 2 10 9.5000000000878924
v 0 10 8.0000000000878924
v 2 10 8.7500000000878924
v 1 10 8.0000000000878924
v 1 10 8.7500000000878924
f 5 1 3
f 2 5 4
f 3 4 5
f 10 6 8 9
f 11 7 9 8
f 17 16 14 12
f 13 15 16 17
f 23 22 18
f 23 19 25
f 24 22 23
f 23 25 24
f 24 25 21
f 20 22 24
f 30 31 28 26
f 27 29 31 30
f 36 32 34
f 36 35 33
f 34 35 36
