# FlatmatesRh OBJ export
# @layer: Metal
# @craft: Group09
# @cell: 1_0
o Group09_Metal_1_0
v 2 0 8.7500000000878924
v 4 0 11.000000000087892
v 4 0 10.250000000087892
v 2 0 9.5000000000878924
v 3 0 9.5000000000878924
v 3 0 10.250000000087892
v 4 2 10.250000000087892
v 4 2 11.000000000087892
v 4 0 10.250000000087892
v 4 1 10.250000000087892
v 4 1 11.000000000087892
v 4 0 11.000000000087892
v 4 2 11.000000000087892
v 2 2 8.7500000000878924
v 4 2 10.250000000087892
v 3 2 9.5000000000878924
v 2 2 9.5000000000878924
v 3 2 10.250000000087892
v 2 2 9.5000000000878924
v 2 0 8.7500000000878924
v 2 2 8.7500000000878924
v 2 1 8.7500000000878924
v 2 0 9.5000000000878924
v 2 1 9.5000000000878924
v 2 0 8.7500000000878924
v 2 2 8.7500000000878924
v 4 0 10.250000000087892
v 4 2 10.250000000087892
v 4 1 10.250000000087892
v 3 2 9.5000000000878924
v 2 1 8.7500000000878924
v 3 0 9.5000000000878924
v 2 0 9.5000000000878924
v 2 2 9.5000000000878924
v 4 2 11.000000000087892
v 4 1 11.000000000087892
v 3 2 10.250000000087892
v 2 1 9.5000000000878924
v 4 0 11.000000000087892
v 3 0 10.250000000087892
f 6 4 5
f 1 5 4
f 6 3 2
f 5 3 6
f 12 9 10 11
f 7 8 11 10
f 18 13 15
f 16 18 15
f 18 16 17
f 14 17 16
f 19 21 22 24
f 20 23 24 22
f 31 32 25
f 31 26 30
f 29 32 31
f 31 30 29
f 29 30 28
f 27 32 29
f 36 40 39
f 36 35 37
f 38 40 36
f 36 37 38
f 38 37 34
f 33 40 38
