# FlatmatesRh OBJ export
# @layer: Metal
# @craft: Group09
# @cell: 1_1
o Group09_Metal_1_1
v 2 2 8.7500000000878924
v 4 2 11.000000000087892
v 3 2 9.5000000000878924
v 4 2 10.250000000087892
v 3 2 10.250000000087892
v 2 2 9.5000000000878924
v 4 4 10.250000000087892
v 4 4 11.000000000087892
v 4 2 10.250000000087892
v 4 3 10.250000000087892
v 4 3 11.000000000087892
v 4 2 11.000000000087892
v 4 4 11.000000000087892
v 2 4 8.7500000000878924
v 4 4 10.250000000087892
v 3 4 9.5000000000878924
v 2 4 9.5000000000878924
v 3 4 10.250000000087892
v 2 4 8.7500000000878924
v 2 2 9.5000000000878924
v 2 3 8.7500000000878924
v 2 3 9.5000000000878924
v 2 2 8.7500000000878924
v 2 4 9.5000000000878924
v 2 2 8.7500000000878924
v 2 4 8.7500000000878924
v 4 2 10.250000000087892
v 4 4 10.250000000087892
v 3 2 9.5000000000878924
v 4 3 10.250000000087892
v 3 4 9.5000000000878924
v 2 3 8.7500000000878924
v 4 2 11.000000000087892
v 3 2 10.250000000087892
v 4 4 11.000000000087892
v 4 3 11.000000000087892
v 2 4 9.5000000000878924
v 3 4 10.250000000087892
v 2 2 9.5000000000878924
v 2 3 9.5000000000878924
f 5 6 3
f 1 3 6
f 5 4 2
f 3 4 5
f 12 9 10 11
f 7 8 11 10
f 18 13 15
f 16 18 15
f 18 16 17
f 14 17 16
f 24 19 21 22
f 23 20 22 21
f 30 32 31
f 32 26 31
f 29 25 32
f 30 27 29
f 30 31 28
f 29 32 30
f 36 34 33
f 36 35 38
f 40 34 36
f 36 38 40
f 40 38 37
f 39 34 40
