# FlatmatesRh OBJ export
# @layer: Metal
# @craft: Group09
# @cell: 1_2
o Group09_Metal_1_2
v 2 4 8.7500000000878924
v 4 4 11.000000000087892
v 3 4 9.5000000000878924
v 4 4 10.250000000087892
v 3 4 10.250000000087892
v 2 4 9.5000000000878924
v 4 4 10.250000000087892
v 4 4 11.000000000087892
v 4 6 10.250000000087892
v 4 6 11.000000000087892
v 4 5 10.250000000087892
v 4 5 11.000000000087892
v 4 6 11.000000000087892
v 2 6 8.7500000000878924
v 4 6 10.250000000087892
v 3 6 9.5000000000878924
v 2 6 9.5000000000878924
v 3 6 10.250000000087892
v 2 4 8.7500000000878924
v 2 4 9.5000000000878924
v 2 6 8.7500000000878924
v 2 5 8.7500000000878924
v 2 5 9.5000000000878924
v 2 6 9.5000000000878924
v 2 6 8.7500000000878924
v 2 4 8.7500000000878924
v 3 4 9.5000000000878924
v 4 4 10.250000000087892
v 4 5 10.250000000087892
v 4 6 10.250000000087892
v 3 6 9.5000000000878924
v 2 5 8.7500000000878924
v 2 4 9.5000000000878924
v 2 6 9.5000000000878924
v 4 4 11.000000000087892
v 3 4 10.250000000087892
v 4 6 11.000000000087892
v 4 5 11.000000000087892
v 3 6 10.250000000087892
v 2 5 9.5000000000878924
f 5 6 3
f 1 3 6
f 5 4 2
f 3 4 5
f 8 7 11 12
f 9 10 12 11
f 18 13 15
f 16 18 15
f 18 16 17
f 14 17 16
f 24 21 22 23
f 19 20 23 22
f 32 27 26
f 32 25 31
f 31 27 32
f 27 31 29
f 29 31 30
f 28 27 29
f 38 36 35
f 38 37 39
f 40 36 38
f 38 39 40
f 40 39 34
f 33 36 40
