# FlatmatesRh OBJ export
# @layer: Metal
# @craft: Group09
# @cell: 1_3
o Group09_Metal_1_3
v 2 6 8.7500000000878924
v 4 6 11.000000000087892
v 3 6 9.5000000000878924
v 4 6 10.250000000087892
v 3 6 10.250000000087892
v 2 6 9.5000000000878924
v 4 6 10.250000000087892
v 4 6 11.000000000087892
v 4 7 10.250000000087892
v 4 8 11.000000000087892
v 4 7 11.000000000087892
v 4 8 10.250000000087892
v 4 8 11.000000000087892
v 2 8 8.7500000000878924
v 4 8 10.250000000087892
v 3 8 9.5000000000878924
v 2 8 9.5000000000878924
v 3 8 10.250000000087892
v 2 8 8.7500000000878924
v 2 8 9.5000000000878924
v 2 6 8.7500000000878924
v 2 7 8.7500000000878924
v 2 6 9.5000000000878924
v 2 7 9.5000000000878924
v 2 8 8.7500000000878924
v 4 6 10.250000000087892
v 4 8 10.250000000087892
v 2 6 8.7500000000878924
v 3 6 9.5000000000878924
v 4 7 10.250000000087892
v 3 8 9.5000000000878924
v 2 7 8.7500000000878924
v 4 6 11.000000000087892
v 4 8 11.000000000087892
v 2 6 9.5000000000878924
v 3 6 10.250000000087892
v 4 7 11.000000000087892
v 2 8 9.5000000000878924
v 3 8 10.250000000087892
v 2 7 9.5000000000878924
f 5 6 3
f 1 3 6
f 5 4 2
f 3 4 5
f 8 7 9 11
f 12 10 11 9
f 18 13 15
f 16 18 15
f 18 16 17
f 14 17 16
f 20 19 22 24
f 21 23 24 22
f 32 29 28
f 32 25 31
f 30 29 32
f 32 31 30
f 30 31 27
f 26 29 30
f 37 36 33
f 37 34 39
f 40 36 37
f 37 39 40
f 40 39 38
f 35 36 40
