# FlatmatesRh OBJ export
# @layer: Metal
# @craft: Group09
# @cell: 1_4
o Group09_Metal_1_4
v 2 8 8.7500000000878924
v 4 8 11.000000000087892
v 3 8 9.5000000000878924
v 4 8 10.250000000087892
v 3 8 10.250000000087892
v 2 8 9.5000000000878924
v 4 8 10.250000000087892
v 4 8 11.000000000087892
v 4 10 10.250000000087892
v 4 10 11.000000000087892
v 4 9 10.250000000087892
v 4 9 11.000000000087892
v 2 10 8.7500000000878924
v 2 8 9.5000000000878924
v 2 9 8.7500000000878924
v 2 9 9.5000000000878924
v 2 8 8.7500000000878924
v 2 10 9.5000000000878924
v 2 8 8.7500000000878924
v 2 10 8.7500000000878924
v 4 8 10.250000000087892
v 4 10 10.250000000087892
v 3 8 9.5000000000878924
v 4 9 10.250000000087892
v 2 9 8.7500000000878924
v 3 10 9.5000000000878924
v 4 8 11.000000000087892
v 4 10 11.000000000087892
v 3 10 10.250000000087892
v 2 10 9.5000000000878924
v 3 8 10.250000000087892
v 4 9 11.000000000087892
v 2 8 9.5000000000878924
v 2 9 9.5000000000878924
v 4 10 11.000000000087892
v 2 10 8.7500000000878924
v 4 10 10.250000000087892
v 2 10 9.5000000000878924
v 3 10 9.5000000000878924
v 3 10 10.250000000087892
f 6 1 3
f 5 6 3
f 2 5 4
f 3 4 5
f 8 7 11 12
f 9 10 12 11
f 18 13 15 16
f 17 14 16 15
f 25 23 19
f 25 20 26
f 24 23 25
f 25 26 24
f 24 26 22
f 21 23 24
f 32 31 27
f 32 28 29
f 29 31 32
f 31 29 34
f 34 29 30
f 33 31 34
f 40 35 37
f 39 40 37
f 40 39 38
f 36 38 39
