# FlatmatesRh OBJ export
# @layer: Metal
# @craft: Group09
# @cell: 2_0
o Group09_Metal_2_0
v 4 0 10.250000000087892
v 4 0 11.000000000087892
v 4 2 10.250000000087892
v 4 1 10.250000000087892
v 4 1 11.000000000087892
v 4 2 11.000000000087892
v 4 0 10.250000000087892
v 5 0 11.000000000087892
v 5 2 11.000000000087892
v 5 1 11.000000000087892
v 4 2 10.250000000087892
v 4 1 10.250000000087892
v 5 0 11.750000000087892
v 5 2 11.750000000087892
v 4 0 11.000000000087892
v 5 1 11.750000000087892
v 4 2 11.000000000087892
v 4 1 11.000000000087892
v 6 0 10.250000000087892
v 5 0 11.000000000087892
v 5 2 11.000000000087892
v 5 1 11.000000000087892
v 6 2 10.250000000087892
v 6 1 10.250000000087892
v 5 0 11.750000000087892
v 5 2 11.750000000087892
v 6 0 11.000000000087892
v 5 1 11.750000000087892
v 6 1 11.000000000087892
v 6 2 11.000000000087892
v 6 0 10.250000000087892
v 5 0 11.750000000087892
v 4 0 11.000000000087892
v 6 0 11.000000000087892
v 4 0 10.250000000087892
v 5 0 11.000000000087892
v 6 2 10.250000000087892
v 6 2 11.000000000087892
v 6 0 10.250000000087892
v 6 1 10.250000000087892
v 6 1 11.000000000087892
v 6 0 11.000000000087892
v 4 2 10.250000000087892
v 5 2 11.000000000087892
v 4 2 11.000000000087892
v 5 2 11.750000000087892
v 6 2 10.250000000087892
v 6 2 11.000000000087892
f 6 3 4 5
f 1 2 5 4
f 12 10 8 7
f 11 9 10 12
f 16 18 15 13
f 14 17 18 16
f 24 19 20 22
f 23 24 22 21
f 28 25 27 29
f 26 28 29 30
f 33 35 36
f 32 33 36
f 32 36 34
f 31 34 36
f 42 39 40 41
f 37 38 41 40
f 48 47 44
f 46 48 44
f 46 44 45
f 43 45 44
