# FlatmatesRh OBJ export
# @layer: Metal
# @craft: Group09
# @cell: 2_1
o Group09_Metal_2_1
v 4 2 10.250000000087892
v 5 2 11.000000000087892
v 5 2 11.750000000087892
v 4 2 11.000000000087892
v 6 2 11.000000000087892
v 6 2 10.250000000087892
v 4 4 11.000000000087892
v 4 2 10.250000000087892
v 4 4 10.250000000087892
v 4 3 10.250000000087892
v 4 2 11.000000000087892
v 4 3 11.000000000087892
v 4 2 10.250000000087892
v 4 4 10.250000000087892
v 5 4 11.000000000087892
v 4 3 10.250000000087892
v 5 2 11.000000000087892
v 5 3 11.000000000087892
v 5 4 11.750000000087892
v 4 4 11.000000000087892
v 5 2 11.750000000087892
v 4 2 11.000000000087892
v 4 3 11.000000000087892
v 5 3 11.750000000087892
v 6 2 10.250000000087892
v 6 4 10.250000000087892
v 5 4 11.000000000087892
v 6 3 10.250000000087892
v 5 2 11.000000000087892
v 5 3 11.000000000087892
v 6 4 11.000000000087892
v 5 2 11.750000000087892
v 6 2 11.000000000087892
v 6 3 11.000000000087892
v 5 4 11.750000000087892
v 5 3 11.750000000087892
v 6 4 10.250000000087892
v 6 4 11.000000000087892
v 6 2 10.250000000087892
v 6 3 10.250000000087892
v 6 3 11.000000000087892
v 6 2 11.000000000087892
v 6 4 10.250000000087892
v 5 4 11.000000000087892
v 4 4 11.000000000087892
v 5 4 11.750000000087892
v 6 4 11.000000000087892
v 4 4 10.250000000087892
f 4 1 2
f 3 4 2
f 3 2 5
f 6 5 2
f 7 9 10 12
f 8 11 12 10
f 16 18 17 13
f 14 15 18 16
f 24 23 22 21
f 19 20 23 24
f 28 25 29 30
f 26 28 30 27
f 36 32 33 34
f 35 36 34 31
f 39 40 41 42
f 38 41 40 37
f 47 43 44
f 46 47 44
f 46 44 45
f 48 45 44
