# FlatmatesRh OBJ export
# @layer: Metal
# @craft: Group09
# @cell: 2_2
o Group09_Metal_2_2
v 4 4 10.250000000087892
v 6 4 10.250000000087892
v 5 4 11.000000000087892
v 5 4 11.750000000087892
v 4 4 11.000000000087892
v 6 4 11.000000000087892
v 4 6 10.250000000087892
v 4 6 11.000000000087892
v 4 4 10.250000000087892
v 4 4 11.000000000087892
v 4 5 10.250000000087892
v 4 5 11.000000000087892
v 4 4 10.250000000087892
v 5 4 11.000000000087892
v 5 6 11.000000000087892
v 4 6 10.250000000087892
v 4 5 10.250000000087892
v 5 5 11.000000000087892
v 5 4 11.750000000087892
v 5 6 11.750000000087892
v 4 6 11.000000000087892
v 4 4 11.000000000087892
v 4 5 11.000000000087892
v 5 5 11.750000000087892
v 6 4 10.250000000087892
v 5 4 11.000000000087892
v 5 6 11.000000000087892
v 6 6 10.250000000087892
v 6 5 10.250000000087892
v 5 5 11.000000000087892
v 5 4 11.750000000087892
v 5 6 11.750000000087892
v 6 4 11.000000000087892
v 6 5 11.000000000087892
v 6 6 11.000000000087892
v 5 5 11.750000000087892
v 6 4 10.250000000087892
v 6 4 11.000000000087892
v 6 6 10.250000000087892
v 6 6 11.000000000087892
v 6 5 10.250000000087892
v 6 5 11.000000000087892
v 6 6 10.250000000087892
v 4 6 10.250000000087892
v 5 6 11.000000000087892
v 4 6 11.000000000087892
v 5 6 11.750000000087892
v 6 6 11.000000000087892
f 4 5 3
f 1 3 5
f 6 3 2
f 4 3 6
f 8 7 11 12
f 9 10 12 11
f 17 18 14 13
f 16 15 18 17
f 24 23 22 19
f 20 21 23 24
f 29 25 26 30
f 28 29 30 27
f 36 31 33 34
f 32 36 34 35
f 38 37 41 42
f 39 40 42 41
f 48 43 45
f 47 48 45
f 47 45 46
f 44 46 45
