# FlatmatesRh OBJ export
# @layer: Metal
# @craft: Group09
# @cell: 2_3
o Group09_Metal_2_3
v 4 6 10.250000000087892
v 6 6 10.250000000087892
v 5 6 11.000000000087892
v 5 6 11.750000000087892
v 4 6 11.000000000087892
v 6 6 11.000000000087892
v 4 8 10.250000000087892
v 4 8 11.000000000087892
v 4 7 10.250000000087892
v 4 6 11.000000000087892
v 4 7 11.000000000087892
v 4 6 10.250000000087892
v 4 6 10.250000000087892
v 4 8 10.250000000087892
v 5 8 11.000000000087892
v 4 7 10.250000000087892
v 5 6 11.000000000087892
v 5 7 11.000000000087892
v 5 8 11.750000000087892
v 4 6 11.000000000087892
v 4 8 11.000000000087892
v 5 6 11.750000000087892
v 4 7 11.000000000087892
v 5 7 11.750000000087892
v 6 6 10.250000000087892
v 6 8 10.250000000087892
v 5 8 11.000000000087892
v 6 7 10.250000000087892
v 5 6 11.000000000087892
v 5 7 11.000000000087892
v 5 8 11.750000000087892
v 6 6 11.000000000087892
v 6 8 11.000000000087892
v 5 6 11.750000000087892
v 6 7 11.000000000087892
v 5 7 11.750000000087892
v 6 6 10.250000000087892
v 6 6 11.000000000087892
v 6 7 10.250000000087892
v 6 8 11.000000000087892
v 6 7 11.000000000087892
v 6 8 10.250000000087892
v 6 8 10.250000000087892
v 4 8 10.250000000087892
v 5 8 11.000000000087892
v 4 8 11.000000000087892
v 5 8 11.750000000087892
v 6 8 11.000000000087892
f 5 1 3
f 4 5 3
f 4 3 6
f 2 6 3
f 8 7 9 11
f 12 10 11 9
f 16 18 17 13
f 14 15 18 16
f 24 23 20 22
f 19 21 23 24
f 28 25 29 30
f 26 28 30 27
f 36 34 32 35
f 31 36 35 33
f 38 37 39 41
f 42 40 41 39
f 48 43 45
f 47 48 45
f 47 45 46
f 44 46 45
