# FlatmatesRh OBJ export
# @layer: Metal
# @craft: Group09
# @cell: 2_4
o Group09_Metal_2_4
v 4 8 10.250000000087892
v 6 8 10.250000000087892
v 5 8 11.000000000087892
v 5 8 11.750000000087892
v 4 8 11.000000000087892
v 6 8 11.000000000087892
v 6 10 10.250000000087892
v 4 10 10.250000000087892
v 4 10 11.000000000087892
v 5 10 11.750000000087892
v 6 10 11.000000000087892
v 5 10 11.000000000087892
v 4 10 11.000000000087892
v 4 8 10.250000000087892
v 4 8 11.000000000087892
v 4 10 10.250000000087892
v 4 9 10.250000000087892
v 4 9 11.000000000087892
v 4 8 10.250000000087892
v 4 10 10.250000000087892
v 5 8 11.000000000087892
v 5 10 11.000000000087892
v 4 9 10.250000000087892
v 5 9 11.000000000087892
v 5 10 11.750000000087892
v 4 8 11.000000000087892
v 4 10 11.000000000087892
v 5 8 11.750000000087892
v 4 9 11.000000000087892
v 5 9 11.750000000087892
v 6 8 10.250000000087892
v 6 10 10.250000000087892
v 5 8 11.000000000087892
v 5 10 11.000000000087892
v 6 9 10.250000000087892
v 5 9 11.000000000087892
v 5 10 11.750000000087892
v 6 8 11.000000000087892
v 6 10 11.000000000087892
v 5 8 11.750000000087892
v 6 9 11.000000000087892
v 5 9 11.750000000087892
v 6 8 10.250000000087892
v 6 8 11.000000000087892
v 6 10 10.250000000087892
v 6 10 11.000000000087892
v 6 9 10.250000000087892
v 6 9 11.000000000087892
f 5 1 3
f 4 5 3
f 4 3 6
f 2 6 3
f 11 7 12
f 10 11 12
f 10 12 9
f 8 9 12
f 13 16 17 18
f 14 15 18 17
f 23 24 21 19
f 20 22 24 23
f 30 29 26 28
f 25 27 29 30
f 35 31 33 36
f 32 35 36 34
f 42 40 38 41
f 37 42 41 39
f 44 43 47 48
f 45 46 48 47
