# FlatmatesRh OBJ export
# @layer: Metal
# @craft: Group09
# @cell: 3_0
o Group09_Metal_3_0
v 8 0 8.7500000000878924
v 8 2 8.7500000000878924
v 6 0 10.250000000087892
v 8 1 8.7500000000878924
v 6 2 10.250000000087892
v 7 2 9.5000000000878924
v 6 1 10.250000000087892
v 7 0 9.5000000000878924
v 6 0 11.000000000087892
v 7 0 10.250000000087892
v 8 0 9.5000000000878924
v 8 2 9.5000000000878924
v 8 1 9.5000000000878924
v 7 2 10.250000000087892
v 6 2 11.000000000087892
v 6 1 11.000000000087892
v 6 0 11.000000000087892
v 8 0 8.7500000000878924
v 8 0 9.5000000000878924
v 6 0 10.250000000087892
v 7 0 9.5000000000878924
v 7 0 10.250000000087892
v 8 0 9.5000000000878924
v 8 2 8.7500000000878924
v 8 0 8.7500000000878924
v 8 1 8.7500000000878924
v 8 2 9.5000000000878924
v 8 1 9.5000000000878924
v 8 2 8.7500000000878924
v 6 2 11.000000000087892
v 7 2 9.5000000000878924
v 6 2 10.250000000087892
v 7 2 10.250000000087892
v 8 2 9.5000000000878924
v 6 0 10.250000000087892
v 6 0 11.000000000087892
v 6 2 10.250000000087892
v 6 1 10.250000000087892
v 6 1 11.000000000087892
v 6 2 11.000000000087892
f 4 1 8
f 4 6 2
f 6 4 8
f 6 8 7 5
f 3 7 8
f 16 9 10
f 16 14 15
f 14 16 10
f 10 13 14
f 13 12 14
f 11 13 10
f 22 17 20
f 21 22 20
f 22 21 19
f 18 19 21
f 23 25 26 28
f 24 27 28 26
f 33 34 31
f 29 31 34
f 33 32 30
f 31 32 33
f 40 37 38 39
f 35 36 39 38
