# FlatmatesRh OBJ export
# @layer: Metal
# @craft: Group09
# @cell: 3_1
o Group09_Metal_3_1
v 6 2 11.000000000087892
v 8 2 8.7500000000878924
v 6 2 10.250000000087892
v 7 2 9.5000000000878924
v 8 2 9.5000000000878924
v 7 2 10.250000000087892
v 8 2 8.7500000000878924
v 8 2 9.5000000000878924
v 8 4 9.5000000000878924
v 8 3 8.7500000000878924
v 8 3 9.5000000000878924
v 8 4 8.7500000000878924
v 8 4 8.7500000000878924
v 6 4 11.000000000087892
v 7 4 9.5000000000878924
v 6 4 10.250000000087892
v 7 4 10.250000000087892
v 8 4 9.5000000000878924
v 6 2 10.250000000087892
v 6 2 11.000000000087892
v 6 4 10.250000000087892
v 6 3 10.250000000087892
v 6 3 11.000000000087892
v 6 4 11.000000000087892
v 8 2 8.7500000000878924
v 8 4 8.7500000000878924
v 6 2 10.250000000087892
v 6 4 10.250000000087892
v 7 2 9.5000000000878924
v 8 3 8.7500000000878924
v 7 4 9.5000000000878924
v 6 3 10.250000000087892
v 6 2 11.000000000087892
v 7 2 10.250000000087892
v 8 2 9.5000000000878924
v 8 3 9.5000000000878924
v 8 4 9.5000000000878924
v 7 4 10.250000000087892
v 6 4 11.000000000087892
v 6 3 11.000000000087892
f 6 1 3
f 4 6 3
f 6 4 5
f 2 5 4
f 8 7 10 11
f 12 9 11 10
f 17 18 15
f 13 15 18
f 17 16 14
f 15 16 17
f 23 24 21 22
f 22 19 20 23
f 30 25 29
f 30 31 26
f 32 30 29
f 30 32 31
f 32 28 31
f 27 32 29
f 40 33 34
f 40 38 39
f 36 40 34
f 40 36 38
f 36 37 38
f 35 36 34
