# FlatmatesRh OBJ export
# @layer: Metal
# @craft: Group09
# @cell: 3_2
o Group09_Metal_3_2
v 6 4 11.000000000087892
v 8 4 8.7500000000878924
v 6 4 10.250000000087892
v 7 4 9.5000000000878924
v 8 4 9.5000000000878924
v 7 4 10.250000000087892
v 8 4 9.5000000000878924
v 8 6 8.7500000000878924
v 8 4 8.7500000000878924
v 8 5 8.7500000000878924
v 8 6 9.5000000000878924
v 8 5 9.5000000000878924
v 8 6 8.7500000000878924
v 6 6 11.000000000087892
v 7 6 9.5000000000878924
v 6 6 10.250000000087892
v 7 6 10.250000000087892
v 8 6 9.5000000000878924
v 6 6 10.250000000087892
v 6 6 11.000000000087892
v 6 4 10.250000000087892
v 6 4 11.000000000087892
v 6 5 10.250000000087892
v 6 5 11.000000000087892
v 8 6 8.7500000000878924
v 8 4 8.7500000000878924
v 7 4 9.5000000000878924
v 8 5 8.7500000000878924
v 6 6 10.250000000087892
v 7 6 9.5000000000878924
v 6 4 10.250000000087892
v 6 5 10.250000000087892
v 8 4 9.5000000000878924
v 8 6 9.5000000000878924
v 6 4 11.000000000087892
v 7 4 10.250000000087892
v 8 5 9.5000000000878924
v 7 6 10.250000000087892
v 6 6 11.000000000087892
v 6 5 11.000000000087892
f 6 1 3
f 4 6 3
f 6 4 5
f 2 5 4
f 7 9 10 12
f 8 11 12 10
f 17 18 15
f 13 15 18
f 17 16 14
f 15 16 17
f 20 19 23 24
f 21 22 24 23
f 28 26 27
f 28 30 25
f 30 28 27
f 27 32 30
f 32 29 30
f 31 32 27
f 40 35 36
f 40 38 39
f 37 40 36
f 40 37 38
f 37 34 38
f 33 37 36
