# FlatmatesRh OBJ export
# @layer: Metal
# @craft: Group09
# @cell: 3_3
o Group09_Metal_3_3
v 6 6 11.000000000087892
v 8 6 8.7500000000878924
v 6 6 10.250000000087892
v 7 6 9.5000000000878924
v 8 6 9.5000000000878924
v 7 6 10.250000000087892
v 8 6 8.7500000000878924
v 8 6 9.5000000000878924
v 8 8 8.7500000000878924
v 8 7 8.7500000000878924
v 8 8 9.5000000000878924
v 8 7 9.5000000000878924
v 8 8 8.7500000000878924
v 6 8 11.000000000087892
v 7 8 9.5000000000878924
v 6 8 10.250000000087892
v 7 8 10.250000000087892
v 8 8 9.5000000000878924
v 6 8 10.250000000087892
v 6 8 11.000000000087892
v 6 7 10.250000000087892
v 6 6 11.000000000087892
v 6 7 11.000000000087892
v 6 6 10.250000000087892
v 6 6 10.250000000087892
v 6 8 10.250000000087892
v 8 6 8.7500000000878924
v 7 6 9.5000000000878924
v 8 8 8.7500000000878924
v 8 7 8.7500000000878924
v 7 8 9.5000000000878924
v 6 7 10.250000000087892
v 6 6 11.000000000087892
v 6 8 11.000000000087892
v 8 6 9.5000000000878924
v 8 8 9.5000000000878924
v 7 6 10.250000000087892
v 8 7 9.5000000000878924
v 7 8 10.250000000087892
v 6 7 11.000000000087892
f 6 1 3
f 4 6 3
f 6 4 5
f 2 5 4
f 8 7 10 12
f 9 11 12 10
f 17 18 15
f 13 15 18
f 17 16 14
f 15 16 17
f 20 19 21 23
f 24 22 23 21
f 30 27 28
f 30 31 29
f 31 30 28
f 28 32 31
f 32 26 31
f 25 32 28
f 40 33 37
f 40 39 34
f 38 40 37
f 40 38 39
f 38 36 39
f 35 38 37
