# FlatmatesRh OBJ export
# @layer: Metal
# @craft: Group09
# @cell: 3_4
o Group09_Metal_3_4
v 8 10 8.7500000000878924
v 6 10 11.000000000087892
v 8 10 9.5000000000878924
v 6 10 10.250000000087892
v 7 10 9.5000000000878924
v 7 10 10.250000000087892
v 8 8 8.7500000000878924
v 8 10 8.7500000000878924
v 6 8 10.250000000087892
v 6 10 10.250000000087892
v 7 8 9.5000000000878924
v 8 9 8.7500000000878924
v 6 9 10.250000000087892
v 7 10 9.5000000000878924
v 6 8 11.000000000087892
v 6 10 11.000000000087892
v 7 8 10.250000000087892
v 7 10 10.250000000087892
v 8 10 9.5000000000878924
v 8 8 9.5000000000878924
v 8 9 9.5000000000878924
v 6 9 11.000000000087892
v 6 8 11.000000000087892
v 8 8 8.7500000000878924
v 6 8 10.250000000087892
v 7 8 9.5000000000878924
v 8 8 9.5000000000878924
v 7 8 10.250000000087892
v 8 8 8.7500000000878924
v 8 10 9.5000000000878924
v 8 9 8.7500000000878924
v 8 9 9.5000000000878924
v 8 8 9.5000000000878924
v 8 10 8.7500000000878924
v 6 10 10.250000000087892
v 6 10 11.000000000087892
v 6 8 10.250000000087892
v 6 8 11.000000000087892
v 6 9 10.250000000087892
v 6 9 11.000000000087892
f 6 3 5
f 1 5 3
f 6 4 2
f 5 4 6
f 12 7 11
f 12 14 8
f 13 12 11
f 12 13 14
f 13 10 14
f 9 13 11
f 22 15 17
f 22 18 16
f 18 22 17
f 17 21 18
f 21 19 18
f 20 21 17
f 28 23 25
f 26 28 25
f 28 26 27
f 24 27 26
f 33 29 31 32
f 34 30 32 31
f 36 35 39 40
f 37 38 40 39
