# FlatmatesRh OBJ export
# @layer: Metal
# @craft: Group09
# @cell: 4_0
o Group09_Metal_4_0
v 9 0 8.0000000000878924
v 8 0 8.7500000000878924
v 8 2 8.7500000000878924
v 8 1 8.7500000000878924
v 9 2 8.0000000000878924
v 9 1 8.0000000000878924
v 8 0 9.5000000000878924
v 8 2 9.5000000000878924
v 10 0 8.0000000000878924
v 10 2 8.0000000000878924
v 9 2 8.7500000000878924
v 8 1 9.5000000000878924
v 9 0 8.7500000000878924
v 10 1 8.0000000000878924
v 9 0 8.0000000000878924
v 9 2 8.0000000000878924
v 10 0 8.0000000000878924
v 10 2 8.0000000000878924
v 9 1 8.0000000000878924
v 10 1 8.0000000000878924
v 8 0 9.5000000000878924
v 10 0 8.0000000000878924
v 8 0 8.7500000000878924
v 9 0 8.0000000000878924
v 9 0 8.7500000000878924
v 10 2 8.0000000000878924
v 8 2 9.5000000000878924
v 9 2 8.0000000000878924
v 8 2 8.7500000000878924
v 9 2 8.7500000000878924
v 8 2 9.5000000000878924
v 8 0 8.7500000000878924
v 8 2 8.7500000000878924
v 8 1 8.7500000000878924
v 8 0 9.5000000000878924
v 8 1 9.5000000000878924
f 6 1 2 4
f 5 6 4 3
f 12 7 13
f 12 11 8
f 14 12 13
f 12 14 11
f 14 10 11
f 9 14 13
f 19 20 17 15
f 16 18 20 19
f 25 21 23
f 25 24 22
f 23 24 25
f 30 26 28
f 27 30 29
f 28 29 30
f 31 33 34 36
f 32 35 36 34
