# FlatmatesRh OBJ export
# @layer: Metal
# @craft: Group09
# @cell: 4_1
o Group09_Metal_4_1
v 9 4 8.0000000000878924
v 8 2 8.7500000000878924
v 8 4 8.7500000000878924
v 9 2 8.0000000000878924
v 8 3 8.7500000000878924
v 9 3 8.0000000000878924
v 8 2 9.5000000000878924
v 8 4 9.5000000000878924
v 10 2 8.0000000000878924
v 10 4 8.0000000000878924
v 9 2 8.7500000000878924
v 10 3 8.0000000000878924
v 9 4 8.7500000000878924
v 8 3 9.5000000000878924
v 9 2 8.0000000000878924
v 9 4 8.0000000000878924
v 10 2 8.0000000000878924
v 10 4 8.0000000000878924
v 10 3 8.0000000000878924
v 9 3 8.0000000000878924
v 8 2 9.5000000000878924
v 8 2 8.7500000000878924
v 9 2 8.0000000000878924
v 10 2 8.0000000000878924
v 9 2 8.7500000000878924
v 10 4 8.0000000000878924
v 8 4 9.5000000000878924
v 9 4 8.0000000000878924
v 8 4 8.7500000000878924
v 9 4 8.7500000000878924
v 8 4 8.7500000000878924
v 8 4 9.5000000000878924
v 8 2 9.5000000000878924
v 8 3 8.7500000000878924
v 8 3 9.5000000000878924
v 8 2 8.7500000000878924
f 6 4 2 5
f 1 6 5 3
f 14 7 11
f 14 13 8
f 12 14 11
f 14 12 13
f 12 10 13
f 9 12 11
f 20 19 17 15
f 16 18 19 20
f 25 21 22
f 25 23 24
f 22 23 25
f 30 26 28
f 27 30 29
f 28 29 30
f 32 31 34 35
f 36 33 35 34
