# FlatmatesRh OBJ export
# @layer: Metal
# @craft: Group09
# @cell: 4_2
o Group09_Metal_4_2
v 8 4 8.7500000000878924
v 9 4 8.0000000000878924
v 8 6 8.7500000000878924
v 8 5 8.7500000000878924
v 9 6 8.0000000000878924
v 9 5 8.0000000000878924
v 8 4 9.5000000000878924
v 8 6 9.5000000000878924
v 10 4 8.0000000000878924
v 9 4 8.7500000000878924
v 10 5 8.0000000000878924
v 10 6 8.0000000000878924
v 9 6 8.7500000000878924
v 8 5 9.5000000000878924
v 9 4 8.0000000000878924
v 9 6 8.0000000000878924
v 10 4 8.0000000000878924
v 10 6 8.0000000000878924
v 10 5 8.0000000000878924
v 9 5 8.0000000000878924
v 8 4 9.5000000000878924
v 10 4 8.0000000000878924
v 8 4 8.7500000000878924
v 9 4 8.0000000000878924
v 9 4 8.7500000000878924
v 8 6 9.5000000000878924
v 9 6 8.0000000000878924
v 8 6 8.7500000000878924
v 9 6 8.7500000000878924
v 10 6 8.0000000000878924
v 8 4 8.7500000000878924
v 8 4 9.5000000000878924
v 8 6 8.7500000000878924
v 8 5 8.7500000000878924
v 8 5 9.5000000000878924
v 8 6 9.5000000000878924
f 6 2 1 4
f 5 6 4 3
f 14 7 10
f 14 13 8
f 11 14 10
f 14 11 13
f 11 12 13
f 9 11 10
f 20 19 17 15
f 16 18 19 20
f 25 21 23
f 25 24 22
f 23 24 25
f 29 30 27
f 26 29 28
f 27 28 29
f 36 33 34 35
f 31 32 35 34
