# FlatmatesRh OBJ export
# @layer: Metal
# @craft: Group09
# @cell: 4_3
o Group09_Metal_4_3
v 9 6 8.0000000000878924
v 8 8 8.7500000000878924
v 8 6 8.7500000000878924
v 8 7 8.7500000000878924
v 9 8 8.0000000000878924
v 9 7 8.0000000000878924
v 8 6 9.5000000000878924
v 8 8 9.5000000000878924
v 10 6 8.0000000000878924
v 10 8 8.0000000000878924
v 9 6 8.7500000000878924
v 10 7 8.0000000000878924
v 9 8 8.7500000000878924
v 8 7 9.5000000000878924
v 9 6 8.0000000000878924
v 9 8 8.0000000000878924
v 10 6 8.0000000000878924
v 10 8 8.0000000000878924
v 10 7 8.0000000000878924
v 9 7 8.0000000000878924
v 8 6 9.5000000000878924
v 10 6 8.0000000000878924
v 8 6 8.7500000000878924
v 9 6 8.7500000000878924
v 9 6 8.0000000000878924
v 10 8 8.0000000000878924
v 8 8 9.5000000000878924
v 9 8 8.0000000000878924
v 8 8 8.7500000000878924
v 9 8 8.7500000000878924
v 8 8 8.7500000000878924
v 8 8 9.5000000000878924
v 8 6 8.7500000000878924
v 8 7 8.7500000000878924
v 8 6 9.5000000000878924
v 8 7 9.5000000000878924
f 6 1 3 4
f 5 6 4 2
f 14 7 11
f 14 13 8
f 12 14 11
f 14 12 13
f 12 10 13
f 9 12 11
f 20 19 17 15
f 16 18 19 20
f 24 21 23
f 24 25 22
f 23 25 24
f 30 26 28
f 27 30 29
f 28 29 30
f 32 31 34 36
f 33 35 36 34
