# FlatmatesRh OBJ export
# @layer: Metal
# @craft: Group09
# @cell: 4_4
o Group09_Metal_4_4
v 10 10 8.0000000000878924
v 8 10 9.5000000000878924
v 9 10 8.0000000000878924
v 8 10 8.7500000000878924
v 9 10 8.7500000000878924
v 9 8 8.0000000000878924
v 9 10 8.0000000000878924
v 8 10 8.7500000000878924
v 8 8 8.7500000000878924
v 8 9 8.7500000000878924
v 9 9 8.0000000000878924
v 8 8 9.5000000000878924
v 8 10 9.5000000000878924
v 10 8 8.0000000000878924
v 10 10 8.0000000000878924
v 9 8 8.7500000000878924
v 8 9 9.5000000000878924
v 9 10 8.7500000000878924
v 10 9 8.0000000000878924
v 9 8 8.0000000000878924
v 9 10 8.0000000000878924
v 10 8 8.0000000000878924
v 10 10 8.0000000000878924
v 9 9 8.0000000000878924
v 10 9 8.0000000000878924
v 8 8 9.5000000000878924
v 10 8 8.0000000000878924
v 8 8 8.7500000000878924
v 9 8 8.7500000000878924
v 9 8 8.0000000000878924
v 8 10 8.7500000000878924
v 8 8 9.5000000000878924
v 8 9 8.7500000000878924
v 8 9 9.5000000000878924
v 8 8 8.7500000000878924
v 8 10 9.5000000000878924
f 5 1 3
f 2 5 4
f 3 4 5
f 11 6 9 10
f 7 11 10 8
f 17 12 16
f 17 18 13
f 19 17 16
f 17 19 18
f 19 15 18
f 14 19 16
f 24 25 22 20
f 21 23 25 24
f 29 26 28
f 29 30 27
f 28 30 29
f 36 31 33 34
f 35 32 34 33
