# FlatmatesRh OBJ export
# @layer: GEO
# @craft: Group08
# @cell: 0_1
o Group08_GEO_0_1
v 0 2 1.2564496110201162E-09
v 0 4 1.2564496110201162E-09
v 2 2 1.2564496110201162E-09
v 2 4 1.2564496110201162E-09
v 1 2 1.2564496110201162E-09
v 2 3 1.2564496110201162E-09
v 1 4 1.2564496110201162E-09
v 0 3 1.2564496110201162E-09
v 0 4 4
v 2 2 4
v 0 2 4
v 1 2 4
v 2 3 4
v 2 4 4
v 1 4 4
v 0 3 4
v 0 2 1.2564496110201162E-09
v 0 2 4
v 2 2 1.2564496110201162E-09
v 1 2 1.2564496110201162E-09
v 1 2 4
v 0 2 2
v 2 2 2
v 2 2 4
v 2 2 1.2564496110201162E-09
v 2 2 4
v 2 4 1.2564496110201162E-09
v 2 2 2
v 2 3 1.2564496110201162E-09
v 2 4 2
v 2 4 4
v 2 3 4
v 2 4 1.2564496110201162E-09
v 2 4 4
v 0 4 1.2564496110201162E-09
v 2 4 2
v 1 4 1.2564496110201162E-09
v 1 4 4
v 0 4 2
v 0 4 4
v 0 4 1.2564496110201162E-09
v 0 4 4
v 0 2 1.2564496110201162E-09
v 0 2 4
v 0 2 2
v 0 4 2
v 0 3 1.2564496110201162E-09
v 0 3 4
f 8 5 1
f 8 2 7
f 6 5 8
f 8 7 6
f 6 7 4
f 3 5 6
f 13 15 16
f 16 15 9
f 12 16 11
f 13 12 10
f 13 14 15
f 12 13 16
f 22 17 20
f 22 21 18
f 21 22 20
f 21 20 23 24
f 19 23 20
f 30 32 28
f 28 32 26
f 29 28 25
f 30 29 27
f 30 31 32
f 29 30 28
f 36 33 37
f 36 38 34
f 38 36 37
f 38 37 39 40
f 35 39 37
f 46 41 47
f 46 48 42
f 48 46 47
f 48 47 43 45
f 45 44 48
