# FlatmatesRh OBJ export
# @layer: GEO
# @craft: Group08
# @cell: 0_2
o Group08_GEO_0_2
v 0 4 2.5128992220402324E-09
v 0 6 2.5128992220402324E-09
v 2 4 2.5128992220402324E-09
v 2 6 2.5128992220402324E-09
v 1 4 2.5128992220402324E-09
v 2 5 2.5128992220402324E-09
v 1 6 2.5128992220402324E-09
v 0 5 2.5128992220402324E-09
v 0 6 4
v 2 4 4
v 0 4 4
v 1 4 4
v 2 5 4
v 2 6 4
v 1 6 4
v 0 5 4
v 0 4 2.5128992220402324E-09
v 2 4 2.5128992220402324E-09
v 2 4 4
v 1 4 2.5128992220402324E-09
v 2 4 2
v 0 4 4
v 0 4 2
v 1 4 4
v 2 4 2.5128992220402324E-09
v 2 6 2.5128992220402324E-09
v 2 6 4
v 2 4 4
v 2 4 2
v 2 5 2.5128992220402324E-09
v 2 6 2
v 2 5 4
v 2 6 2.5128992220402324E-09
v 0 6 2.5128992220402324E-09
v 0 6 4
v 2 6 4
v 2 6 2
v 1 6 2.5128992220402324E-09
v 0 6 2
v 1 6 4
v 0 6 2.5128992220402324E-09
v 0 6 4
v 0 4 2.5128992220402324E-09
v 0 4 4
v 0 4 2
v 0 6 2
v 0 5 2.5128992220402324E-09
v 0 5 4
f 8 5 1
f 8 2 7
f 6 5 8
f 8 7 6
f 6 7 4
f 3 5 6
f 13 15 16
f 16 15 9
f 12 16 11
f 13 12 10
f 13 14 15
f 12 13 16
f 23 17 20
f 23 24 22
f 24 23 20
f 20 21 24
f 21 19 24
f 18 21 20
f 29 25 30
f 29 32 28
f 32 29 30
f 30 31 32
f 31 27 32
f 26 31 30
f 37 33 38
f 37 40 36
f 40 37 38
f 38 39 40
f 39 35 40
f 34 39 38
f 46 41 47
f 46 48 42
f 48 46 47
f 48 47 43 45
f 45 44 48
