# FlatmatesRh OBJ export
# @layer: GEO
# @craft: Group08
# @cell: 0_3
o Group08_GEO_0_3
v 0 8 3.7693488330603486E-09
v 2 6 3.7693488330603486E-09
v 2 8 3.7693488330603486E-09
v 0 6 3.7693488330603486E-09
v 1 6 3.7693488330603486E-09
v 2 7 3.7693488330603486E-09
v 1 8 3.7693488330603486E-09
v 0 7 3.7693488330603486E-09
v 0 8 4
v 2 6 4
v 0 6 4
v 1 6 4
v 2 7 4
v 2 8 4
v 1 8 4
v 0 7 4
v 0 6 3.7693488330603486E-09
v 0 6 4
v 2 6 3.7693488330603486E-09
v 1 6 3.7693488330603486E-09
v 2 6 2
v 0 6 2
v 2 6 4
v 1 6 4
v 2 6 3.7693488330603486E-09
v 2 6 4
v 2 8 3.7693488330603486E-09
v 2 6 2
v 2 7 3.7693488330603486E-09
v 2 8 2
v 2 8 4
v 2 7 4
v 2 8 3.7693488330603486E-09
v 2 8 4
v 0 8 3.7693488330603486E-09
v 2 8 2
v 1 8 3.7693488330603486E-09
v 0 8 2
v 0 8 4
v 1 8 4
v 0 8 3.7693488330603486E-09
v 0 8 4
v 0 6 3.7693488330603486E-09
v 0 6 4
v 0 6 2
v 0 8 2
v 0 7 3.7693488330603486E-09
v 0 7 4
f 8 5 4
f 8 1 7
f 7 5 8
f 5 7 6
f 6 7 3
f 2 5 6
f 13 15 16
f 16 15 9
f 12 16 11
f 13 12 10
f 13 14 15
f 12 13 16
f 22 17 20
f 22 24 18
f 24 22 20
f 24 20 21 23
f 19 21 20
f 28 25 29
f 28 32 26
f 32 28 29
f 32 29 30 31
f 27 30 29
f 36 33 37
f 36 40 34
f 40 36 37
f 40 37 38 39
f 35 38 37
f 46 41 47
f 46 48 42
f 48 46 47
f 48 47 43 45
f 45 44 48
