# FlatmatesRh OBJ export
# @layer: GEO
# @craft: Group08
# @cell: 0_4
o Group08_GEO_0_4
v 0 8 5.0257984440804648E-09
v 0 10 5.0257984440804648E-09
v 2 8 5.0257984440804648E-09
v 2 10 5.0257984440804648E-09
v 1 8 5.0257984440804648E-09
v 2 9 5.0257984440804648E-09
v 1 10 5.0257984440804648E-09
v 0 9 5.0257984440804648E-09
v 0 8 4
v 0 10 4
v 2 10 4
v 1 8 4
v 2 8 4
v 2 9 4
v 1 10 4
v 0 9 4
v 0 8 5.0257984440804648E-09
v 0 8 4
v 2 8 5.0257984440804648E-09
v 2 8 4
v 1 8 5.0257984440804648E-09
v 2 8 2
v 1 8 4
v 0 8 2
v 2 8 5.0257984440804648E-09
v 2 10 5.0257984440804648E-09
v 2 10 4
v 2 8 4
v 2 8 2
v 2 9 5.0257984440804648E-09
v 2 10 2
v 2 9 4
v 2 10 5.0257984440804648E-09
v 2 10 4
v 0 10 5.0257984440804648E-09
v 0 10 4
v 2 10 2
v 1 10 5.0257984440804648E-09
v 1 10 4
v 0 10 2
v 0 10 5.0257984440804648E-09
v 0 10 4
v 0 8 5.0257984440804648E-09
v 0 8 4
v 0 8 2
v 0 10 2
v 0 9 5.0257984440804648E-09
v 0 9 4
f 8 5 1
f 8 2 7
f 6 5 8
f 8 7 6
f 6 7 4
f 3 5 6
f 16 9 12
f 16 15 10
f 14 16 12
f 16 14 15
f 14 11 15
f 13 14 12
f 24 17 21
f 24 23 18
f 23 24 21
f 21 22 23
f 22 20 23
f 19 22 21
f 29 25 30
f 29 32 28
f 32 29 30
f 30 31 32
f 31 27 32
f 26 31 30
f 37 33 38
f 37 39 34
f 39 37 38
f 39 38 35 40
f 40 36 39
f 46 41 47
f 46 48 42
f 48 46 47
f 48 47 43 45
f 45 44 48
