# FlatmatesRh OBJ export
# @layer: GEO
# @craft: Group08
# @cell: 2_1
o Group08_GEO_2_1
v 4 2 1.2564496110201162E-09
v 4 2 4
v 6 2 1.2564496110201162E-09
v 5 2 1.2564496110201162E-09
v 5 2 4
v 4 2 2
v 6 2 2
v 6 2 4
v 6 2 1.2564496110201162E-09
v 6 2 4
v 6 4 1.2564496110201162E-09
v 6 2 2
v 6 3 1.2564496110201162E-09
v 6 3 4
v 6 4 2
v 6 4 4
v 6 4 1.2564496110201162E-09
v 6 4 4
v 4 4 1.2564496110201162E-09
v 6 4 2
v 5 4 1.2564496110201162E-09
v 5 4 4
v 4 4 2
v 4 4 4
v 4 4 1.2564496110201162E-09
v 4 4 4
v 4 2 1.2564496110201162E-09
v 4 2 2
v 4 4 2
v 4 3 1.2564496110201162E-09
v 4 3 4
v 4 2 4
v 4 2 1.2564496110201162E-09
v 4 4 1.2564496110201162E-09
v 6 2 1.2564496110201162E-09
v 6 4 1.2564496110201162E-09
v 5 2 1.2564496110201162E-09
v 6 3 1.2564496110201162E-09
v 5 4 1.2564496110201162E-09
v 4 3 1.2564496110201162E-09
v 4 2 4
v 6 2 4
v 6 4 4
v 5 2 4
v 6 3 4
v 5 4 4
v 4 4 4
v 4 3 4
f 6 1 4
f 6 5 2
f 5 6 4
f 5 4 7 8
f 3 7 4
f 12 9 13
f 12 14 10
f 14 12 13
f 14 13 15 16
f 11 15 13
f 20 17 21
f 20 22 18
f 22 20 21
f 22 21 23 24
f 19 23 21
f 29 25 30
f 29 31 26
f 31 29 30
f 31 30 28 32
f 27 28 30
f 40 37 33
f 40 34 39
f 38 37 40
f 40 39 38
f 38 39 36
f 35 37 38
f 48 41 44
f 48 46 47
f 45 48 44
f 48 45 46
f 45 43 46
f 42 45 44
