# FlatmatesRh OBJ export
# @layer: GEO
# @craft: Group08
# @cell: 2_2
o Group08_GEO_2_2
v 4 4 2.5128992220402324E-09
v 6 4 2.5128992220402324E-09
v 6 4 4
v 5 4 2.5128992220402324E-09
v 6 4 2
v 4 4 4
v 4 4 2
v 5 4 4
v 6 4 2.5128992220402324E-09
v 6 6 2.5128992220402324E-09
v 6 6 4
v 6 4 4
v 6 4 2
v 6 5 2.5128992220402324E-09
v 6 6 2
v 6 5 4
v 6 6 2.5128992220402324E-09
v 4 6 2.5128992220402324E-09
v 4 6 4
v 6 6 4
v 6 6 2
v 5 6 2.5128992220402324E-09
v 4 6 2
v 5 6 4
v 4 6 2.5128992220402324E-09
v 4 4 2.5128992220402324E-09
v 4 4 4
v 4 4 2
v 4 6 4
v 4 6 2
v 4 5 2.5128992220402324E-09
v 4 5 4
v 4 4 2.5128992220402324E-09
v 4 6 2.5128992220402324E-09
v 6 4 2.5128992220402324E-09
v 6 6 2.5128992220402324E-09
v 5 4 2.5128992220402324E-09
v 6 5 2.5128992220402324E-09
v 5 6 2.5128992220402324E-09
v 4 5 2.5128992220402324E-09
v 4 4 4
v 4 6 4
v 6 4 4
v 6 6 4
v 5 4 4
v 6 5 4
v 5 6 4
v 4 5 4
f 7 1 4
f 7 8 6
f 8 7 4
f 4 5 8
f 5 3 8
f 2 5 4
f 13 9 14
f 13 16 12
f 16 13 14
f 14 15 16
f 15 11 16
f 10 15 14
f 21 17 22
f 21 24 20
f 24 21 22
f 22 23 24
f 23 19 24
f 18 23 22
f 30 25 31
f 30 32 29
f 32 30 31
f 31 28 32
f 28 27 32
f 26 28 31
f 40 37 33
f 40 34 39
f 38 37 40
f 40 39 38
f 38 39 36
f 35 37 38
f 48 41 45
f 48 47 42
f 46 48 45
f 48 46 47
f 46 44 47
f 43 46 45
