# FlatmatesRh OBJ export
# @layer: GEO
# @craft: Group08
# @cell: 2_4
o Group08_GEO_2_4
v 4 8 5.0257984440804648E-09
v 4 10 5.0257984440804648E-09
v 6 8 5.0257984440804648E-09
v 6 10 5.0257984440804648E-09
v 5 8 5.0257984440804648E-09
v 6 9 5.0257984440804648E-09
v 5 10 5.0257984440804648E-09
v 4 9 5.0257984440804648E-09
v 4 8 4
v 4 10 4
v 6 8 4
v 6 10 4
v 5 8 4
v 6 9 4
v 5 10 4
v 4 9 4
v 4 8 5.0257984440804648E-09
v 4 8 4
v 6 8 5.0257984440804648E-09
v 6 8 4
v 5 8 5.0257984440804648E-09
v 6 8 2
v 5 8 4
v 4 8 2
v 6 8 5.0257984440804648E-09
v 6 10 5.0257984440804648E-09
v 6 10 4
v 6 8 4
v 6 8 2
v 6 9 5.0257984440804648E-09
v 6 10 2
v 6 9 4
v 4 10 5.0257984440804648E-09
v 4 10 4
v 4 8 5.0257984440804648E-09
v 4 8 4
v 4 8 2
v 4 10 2
v 4 9 5.0257984440804648E-09
v 4 9 4
v 6 10 5.0257984440804648E-09
v 6 10 4
v 4 10 5.0257984440804648E-09
v 4 10 4
v 6 10 2
v 5 10 5.0257984440804648E-09
v 5 10 4
v 4 10 2
f 8 5 1
f 8 2 7
f 6 5 8
f 8 7 6
f 6 7 4
f 3 5 6
f 16 9 13
f 16 15 10
f 14 16 13
f 16 14 15
f 14 12 15
f 11 14 13
f 24 17 21
f 24 23 18
f 23 24 21
f 21 22 23
f 22 20 23
f 19 22 21
f 29 25 30
f 29 32 28
f 32 29 30
f 30 31 32
f 31 27 32
f 26 31 30
f 38 33 39
f 38 40 34
f 40 38 39
f 39 37 40
f 37 36 40
f 35 37 39
f 45 41 46
f 45 47 42
f 47 45 46
f 47 46 43 48
f 48 44 47
