# FlatmatesRh OBJ export
# @layer: GEO
# @craft: Group08
# @cell: 3_0
o Group08_GEO_3_0
v 6 0 0
v 6 2 0
v 8 0 0
v 8 2 0
v 7 0 0
v 8 1 0
v 7 2 0
v 6 1 0
v 6 0 4
v 6 2 4
v 8 0 4
v 8 2 4
v 7 0 4
v 8 1 4
v 7 2 4
v 6 1 4
v 8 0 0
v 8 0 4
v 8 2 0
v 8 0 2
v 8 1 0
v 8 2 2
v 8 2 4
v 8 1 4
v 8 2 0
v 8 2 4
v 6 2 0
v 8 2 2
v 7 2 0
v 6 2 2
v 6 2 4
v 7 2 4
v 6 2 0
v 6 2 4
v 6 0 0
v 6 0 2
v 6 2 2
v 6 1 0
v 6 0 4
v 6 1 4
v 6 0 0
v 6 0 4
v 8 0 0
v 8 0 4
v 7 0 0
v 8 0 2
v 7 0 4
v 6 0 2
f 8 5 1
f 8 2 7
f 6 5 8
f 8 7 6
f 6 7 4
f 3 5 6
f 16 9 13
f 16 15 10
f 15 16 13
f 13 14 15
f 14 12 15
f 11 14 13
f 20 17 21
f 20 24 18
f 24 20 21
f 24 21 22 23
f 19 22 21
f 28 25 29
f 28 32 26
f 32 28 29
f 32 29 30 31
f 27 30 29
f 37 33 38
f 37 40 34
f 40 37 38
f 40 38 36 39
f 35 36 38
f 48 41 45
f 48 47 42
f 46 48 45
f 48 46 47
f 46 44 47
f 43 46 45
