# FlatmatesRh OBJ export
# @layer: GEO
# @craft: Group08
# @cell: 3_1
o Group08_GEO_3_1
v 6 2 1.2564496110201162E-09
v 6 2 4
v 8 2 1.2564496110201162E-09
v 7 2 1.2564496110201162E-09
v 7 2 4
v 6 2 2
v 8 2 2
v 8 2 4
v 8 2 1.2564496110201162E-09
v 8 2 4
v 8 4 1.2564496110201162E-09
v 8 2 2
v 8 3 1.2564496110201162E-09
v 8 3 4
v 8 4 2
v 8 4 4
v 8 4 1.2564496110201162E-09
v 8 4 4
v 6 4 1.2564496110201162E-09
v 8 4 2
v 7 4 1.2564496110201162E-09
v 7 4 4
v 6 4 2
v 6 4 4
v 6 4 1.2564496110201162E-09
v 6 4 4
v 6 2 1.2564496110201162E-09
v 6 2 2
v 6 4 2
v 6 3 1.2564496110201162E-09
v 6 3 4
v 6 2 4
v 6 2 1.2564496110201162E-09
v 6 4 1.2564496110201162E-09
v 8 2 1.2564496110201162E-09
v 8 4 1.2564496110201162E-09
v 7 2 1.2564496110201162E-09
v 8 3 1.2564496110201162E-09
v 7 4 1.2564496110201162E-09
v 6 3 1.2564496110201162E-09
v 6 2 4
v 6 4 4
v 8 2 4
v 8 4 4
v 7 2 4
v 8 3 4
v 7 4 4
v 6 3 4
f 6 1 4
f 6 5 2
f 5 6 4
f 5 4 7 8
f 3 7 4
f 12 9 13
f 12 14 10
f 14 12 13
f 14 13 15 16
f 11 15 13
f 20 17 21
f 20 22 18
f 22 20 21
f 22 21 23 24
f 19 23 21
f 29 25 30
f 29 31 26
f 31 29 30
f 31 30 28 32
f 27 28 30
f 40 37 33
f 40 34 39
f 38 37 40
f 40 39 38
f 38 39 36
f 35 37 38
f 48 41 45
f 48 47 42
f 46 48 45
f 48 46 47
f 46 44 47
f 43 46 45
