# FlatmatesRh OBJ export
# @layer: GEO
# @craft: Group08
# @cell: 3_3
o Group08_GEO_3_3
v 6 6 3.7693488330603486E-09
v 6 6 4
v 8 6 3.7693488330603486E-09
v 7 6 3.7693488330603486E-09
v 8 6 2
v 6 6 2
v 8 6 4
v 7 6 4
v 8 6 3.7693488330603486E-09
v 8 6 4
v 8 8 3.7693488330603486E-09
v 8 6 2
v 8 7 3.7693488330603486E-09
v 8 8 2
v 8 8 4
v 8 7 4
v 8 8 3.7693488330603486E-09
v 8 8 4
v 6 8 3.7693488330603486E-09
v 8 8 2
v 7 8 3.7693488330603486E-09
v 6 8 2
v 6 8 4
v 7 8 4
v 6 8 3.7693488330603486E-09
v 6 8 4
v 6 6 3.7693488330603486E-09
v 6 6 2
v 6 8 2
v 6 7 3.7693488330603486E-09
v 6 6 4
v 6 7 4
v 6 6 3.7693488330603486E-09
v 6 8 3.7693488330603486E-09
v 8 6 3.7693488330603486E-09
v 8 8 3.7693488330603486E-09
v 7 6 3.7693488330603486E-09
v 8 7 3.7693488330603486E-09
v 7 8 3.7693488330603486E-09
v 6 7 3.7693488330603486E-09
v 6 6 4
v 7 6 4
v 8 6 4
v 8 7 4
v 8 8 4
v 7 8 4
v 6 8 4
v 6 7 4
f 6 1 4
f 6 8 2
f 8 6 4
f 8 4 5 7
f 3 5 4
f 12 9 13
f 12 16 10
f 16 12 13
f 16 13 14 15
f 11 14 13
f 20 17 21
f 20 24 18
f 24 20 21
f 24 21 22 23
f 19 22 21
f 29 25 30
f 29 32 26
f 32 29 30
f 32 30 28 31
f 27 28 30
f 40 37 33
f 40 34 39
f 39 37 40
f 37 39 38
f 38 39 36
f 35 37 38
f 48 41 42
f 48 46 47
f 46 48 42
f 42 44 46
f 44 45 46
f 43 44 42
