# FlatmatesRh OBJ export
# @layer: GEO
# @craft: Group08
# @cell: 3_4
o Group08_GEO_3_4
v 6 8 5.0257984440804648E-09
v 8 8 5.0257984440804648E-09
v 8 10 5.0257984440804648E-09
v 7 8 5.0257984440804648E-09
v 8 9 5.0257984440804648E-09
v 7 10 5.0257984440804648E-09
v 6 10 5.0257984440804648E-09
v 6 9 5.0257984440804648E-09
v 6 8 4
v 8 8 4
v 8 10 4
v 7 8 4
v 8 9 4
v 7 10 4
v 6 10 4
v 6 9 4
v 6 8 5.0257984440804648E-09
v 6 8 4
v 8 8 5.0257984440804648E-09
v 8 8 4
v 7 8 5.0257984440804648E-09
v 8 8 2
v 7 8 4
v 6 8 2
v 8 8 5.0257984440804648E-09
v 8 10 5.0257984440804648E-09
v 8 10 4
v 8 8 4
v 8 8 2
v 8 9 5.0257984440804648E-09
v 8 10 2
v 8 9 4
v 6 10 5.0257984440804648E-09
v 6 10 4
v 6 8 5.0257984440804648E-09
v 6 8 4
v 6 8 2
v 6 10 2
v 6 9 5.0257984440804648E-09
v 6 9 4
v 8 10 5.0257984440804648E-09
v 8 10 4
v 6 10 5.0257984440804648E-09
v 6 10 4
v 8 10 2
v 7 10 5.0257984440804648E-09
v 7 10 4
v 6 10 2
f 8 4 1
f 8 7 6
f 5 4 8
f 8 6 5
f 5 6 3
f 2 4 5
f 16 9 12
f 16 14 15
f 13 16 12
f 16 13 14
f 13 11 14
f 10 13 12
f 24 17 21
f 24 23 18
f 23 24 21
f 21 22 23
f 22 20 23
f 19 22 21
f 29 25 30
f 29 32 28
f 32 29 30
f 30 31 32
f 31 27 32
f 26 31 30
f 38 33 39
f 38 40 34
f 40 38 39
f 39 37 40
f 37 36 40
f 35 37 39
f 45 41 46
f 45 47 42
f 47 45 46
f 47 46 43 48
f 48 44 47
