# FlatmatesRh OBJ export
# @layer: GEO
# @craft: Group08
# @cell: 4_0
o Group08_GEO_4_0
v 8 0 0
v 8 2 0
v 10 0 0
v 10 2 0
v 9 0 0
v 10 1 0
v 9 2 0
v 8 1 0
v 8 0 4
v 10 0 4
v 10 2 4
v 9 0 4
v 10 1 4
v 9 2 4
v 8 2 4
v 8 1 4
v 8 0 0
v 8 0 4
v 10 0 0
v 9 0 0
v 8 0 2
v 10 0 2
v 10 0 4
v 9 0 4
v 10 0 0
v 10 0 4
v 10 2 0
v 10 0 2
v 10 1 0
v 10 2 2
v 10 2 4
v 10 1 4
v 10 2 0
v 10 2 4
v 8 2 0
v 10 2 2
v 9 2 0
v 8 2 2
v 8 2 4
v 9 2 4
v 8 2 0
v 8 2 4
v 8 0 0
v 8 0 2
v 8 2 2
v 8 1 0
v 8 0 4
v 8 1 4
f 8 5 1
f 8 2 7
f 6 5 8
f 8 7 6
f 6 7 4
f 3 5 6
f 16 9 12
f 16 14 15
f 14 16 12
f 12 13 14
f 13 11 14
f 10 13 12
f 21 17 20
f 21 24 18
f 24 21 20
f 24 20 22 23
f 19 22 20
f 28 25 29
f 28 32 26
f 32 28 29
f 32 29 30 31
f 27 30 29
f 36 33 37
f 36 40 34
f 40 36 37
f 40 37 38 39
f 35 38 37
f 45 41 46
f 45 48 42
f 48 45 46
f 48 46 44 47
f 43 44 46
