# FlatmatesRh OBJ export
# @layer: GEO
# @craft: Group08
# @cell: 4_1
o Group08_GEO_4_1
v 8 2 1.2564496110201162E-09
v 8 4 1.2564496110201162E-09
v 10 2 1.2564496110201162E-09
v 10 4 1.2564496110201162E-09
v 9 2 1.2564496110201162E-09
v 10 3 1.2564496110201162E-09
v 9 4 1.2564496110201162E-09
v 8 3 1.2564496110201162E-09
v 8 2 4
v 8 4 4
v 10 4 4
v 9 2 4
v 10 2 4
v 10 3 4
v 9 4 4
v 8 3 4
v 8 2 1.2564496110201162E-09
v 8 2 4
v 10 2 1.2564496110201162E-09
v 9 2 1.2564496110201162E-09
v 9 2 4
v 8 2 2
v 10 2 2
v 10 2 4
v 10 4 1.2564496110201162E-09
v 10 4 4
v 8 4 1.2564496110201162E-09
v 10 4 2
v 9 4 1.2564496110201162E-09
v 9 4 4
v 8 4 2
v 8 4 4
v 8 4 1.2564496110201162E-09
v 8 4 4
v 8 2 1.2564496110201162E-09
v 8 2 2
v 8 4 2
v 8 3 1.2564496110201162E-09
v 8 3 4
v 8 2 4
v 10 2 1.2564496110201162E-09
v 10 2 4
v 10 4 1.2564496110201162E-09
v 10 4 4
v 10 2 2
v 10 3 1.2564496110201162E-09
v 10 3 4
v 10 4 2
f 8 5 1
f 8 2 7
f 6 5 8
f 8 7 6
f 6 7 4
f 3 5 6
f 16 9 12
f 16 15 10
f 14 16 12
f 16 14 15
f 14 11 15
f 13 14 12
f 22 17 20
f 22 21 18
f 21 22 20
f 21 20 23 24
f 19 23 20
f 28 25 29
f 28 30 26
f 30 28 29
f 30 29 31 32
f 27 31 29
f 37 33 38
f 37 39 34
f 39 37 38
f 39 38 36 40
f 35 36 38
f 45 41 46
f 45 47 42
f 47 45 46
f 47 46 43 48
f 48 44 47
