# FlatmatesRh OBJ export
# @layer: GEO
# @craft: Group08
# @cell: 4_2
o Group08_GEO_4_2
v 8 4 2.5128992220402324E-09
v 10 4 2.5128992220402324E-09
v 10 6 2.5128992220402324E-09
v 9 4 2.5128992220402324E-09
v 10 5 2.5128992220402324E-09
v 9 6 2.5128992220402324E-09
v 8 6 2.5128992220402324E-09
v 8 5 2.5128992220402324E-09
v 8 4 4
v 8 6 4
v 10 4 4
v 10 6 4
v 9 4 4
v 10 5 4
v 9 6 4
v 8 5 4
v 8 4 2.5128992220402324E-09
v 10 4 2.5128992220402324E-09
v 10 4 4
v 9 4 2.5128992220402324E-09
v 10 4 2
v 8 4 4
v 8 4 2
v 9 4 4
v 10 6 2.5128992220402324E-09
v 8 6 2.5128992220402324E-09
v 8 6 4
v 10 6 4
v 10 6 2
v 9 6 2.5128992220402324E-09
v 8 6 2
v 9 6 4
v 8 6 2.5128992220402324E-09
v 8 4 2.5128992220402324E-09
v 8 4 4
v 8 4 2
v 8 6 4
v 8 6 2
v 8 5 2.5128992220402324E-09
v 8 5 4
v 10 4 2.5128992220402324E-09
v 10 4 4
v 10 6 2.5128992220402324E-09
v 10 6 4
v 10 4 2
v 10 5 2.5128992220402324E-09
v 10 5 4
v 10 6 2
f 8 4 1
f 8 7 6
f 5 4 8
f 8 6 5
f 5 6 3
f 2 4 5
f 16 9 13
f 16 15 10
f 14 16 13
f 16 14 15
f 14 12 15
f 11 14 13
f 23 17 20
f 23 24 22
f 24 23 20
f 20 21 24
f 21 19 24
f 18 21 20
f 29 25 30
f 29 32 28
f 32 29 30
f 30 31 32
f 31 27 32
f 26 31 30
f 38 33 39
f 38 40 37
f 40 38 39
f 39 36 40
f 36 35 40
f 34 36 39
f 45 41 46
f 45 47 42
f 47 45 46
f 47 46 43 48
f 48 44 47
