# FlatmatesRh OBJ export
# @layer: GEO
# @craft: Group08
# @cell: 4_3
o Group08_GEO_4_3
v 8 6 3.7693488330603486E-09
v 8 8 3.7693488330603486E-09
v 10 8 3.7693488330603486E-09
v 9 6 3.7693488330603486E-09
v 10 6 3.7693488330603486E-09
v 10 7 3.7693488330603486E-09
v 9 8 3.7693488330603486E-09
v 8 7 3.7693488330603486E-09
v 10 6 4
v 10 8 4
v 8 6 4
v 9 6 4
v 10 7 4
v 9 8 4
v 8 8 4
v 8 7 4
v 8 6 3.7693488330603486E-09
v 8 6 4
v 10 6 3.7693488330603486E-09
v 9 6 3.7693488330603486E-09
v 10 6 2
v 8 6 2
v 10 6 4
v 9 6 4
v 10 8 3.7693488330603486E-09
v 10 8 4
v 8 8 3.7693488330603486E-09
v 10 8 2
v 9 8 3.7693488330603486E-09
v 8 8 2
v 8 8 4
v 9 8 4
v 8 8 3.7693488330603486E-09
v 8 8 4
v 8 6 3.7693488330603486E-09
v 8 6 2
v 8 8 2
v 8 7 3.7693488330603486E-09
v 8 6 4
v 8 7 4
v 10 6 3.7693488330603486E-09
v 10 6 4
v 10 8 3.7693488330603486E-09
v 10 8 4
v 10 6 2
v 10 7 3.7693488330603486E-09
v 10 7 4
v 10 8 2
f 8 4 1
f 8 2 7
f 7 4 8
f 4 7 6
f 6 7 3
f 5 4 6
f 16 11 12
f 16 14 15
f 14 16 12
f 12 13 14
f 13 10 14
f 9 13 12
f 22 17 20
f 22 24 18
f 24 22 20
f 24 20 21 23
f 19 21 20
f 28 25 29
f 28 32 26
f 32 28 29
f 32 29 30 31
f 27 30 29
f 37 33 38
f 37 40 34
f 40 37 38
f 40 38 36 39
f 35 36 38
f 45 41 46
f 45 47 42
f 47 45 46
f 47 46 43 48
f 48 44 47
