# FlatmatesRh OBJ export
# @layer: GEO
# @craft: Group08
# @cell: 4_4
o Group08_GEO_4_4
v 8 8 5.0257984440804648E-09
v 8 10 5.0257984440804648E-09
v 10 8 5.0257984440804648E-09
v 10 10 5.0257984440804648E-09
v 9 8 5.0257984440804648E-09
v 10 9 5.0257984440804648E-09
v 9 10 5.0257984440804648E-09
v 8 9 5.0257984440804648E-09
v 8 8 4
v 8 10 4
v 10 8 4
v 10 10 4
v 9 8 4
v 10 9 4
v 9 10 4
v 8 9 4
v 8 8 5.0257984440804648E-09
v 10 8 5.0257984440804648E-09
v 10 8 4
v 9 8 5.0257984440804648E-09
v 10 8 2
v 8 8 4
v 8 8 2
v 9 8 4
v 10 8 5.0257984440804648E-09
v 10 8 4
v 10 10 5.0257984440804648E-09
v 10 10 4
v 10 8 2
v 10 9 5.0257984440804648E-09
v 10 9 4
v 10 10 2
v 10 10 5.0257984440804648E-09
v 10 10 4
v 8 10 5.0257984440804648E-09
v 8 10 4
v 10 10 2
v 9 10 5.0257984440804648E-09
v 9 10 4
v 8 10 2
v 8 10 5.0257984440804648E-09
v 8 10 4
v 8 8 5.0257984440804648E-09
v 8 8 4
v 8 8 2
v 8 10 2
v 8 9 5.0257984440804648E-09
v 8 9 4
f 8 5 1
f 8 2 7
f 6 5 8
f 8 7 6
f 6 7 4
f 3 5 6
f 16 9 13
f 16 15 10
f 14 16 13
f 16 14 15
f 14 12 15
f 11 14 13
f 23 17 20
f 23 24 22
f 24 23 20
f 20 21 24
f 21 19 24
f 18 21 20
f 29 25 30
f 29 31 26
f 31 29 30
f 31 30 27 32
f 32 28 31
f 37 33 38
f 37 39 34
f 39 37 38
f 39 38 35 40
f 40 36 39
f 46 41 47
f 46 48 42
f 48 46 47
f 47 45 48
f 45 44 48
f 43 45 47
