# FlatmatesRh OBJ export
# @layer: B
# @craft: Group09
# @cell: 0_0
o Group09_B_0_0
v 0 0 0
v 0 2 0
v 1 0 0
v 1 2 4.3946513095249884E-11
v 0 1 0
v 1 1 2.1973256547624942E-11
v 1 0 0
v 1 0 8.0000000000878924
v 1 2 4.3946513095249884E-11
v 1 2 8.0000000000878924
v 1 1 8.0000000000878924
v 1 1 2.1973256547624942E-11
v 1 0 5.333333492366946
v 1 0 2.6666667462274196
v 1 2 2.6666667462274196
v 1 2 5.333333492366946
v 0 0 8.0000000000878924
v 0 2 8.0000000000878924
v 1 0 8.0000000000878924
v 1 2 8.0000000000878924
v 1 1 8.0000000000878924
v 0 1 8.0000000000878924
v 0 0 0
v 0 0 8.0000000000878924
v 1 0 0
v 1 0 8.0000000000878924
v 0 0 5.333333492366946
v 0 0 2.6666667462274196
v 1 0 2.6666667462274196
v 1 0 5.333333492366946
v 1 2 8.0000000000878924
v 0 2 0
v 0 2 8.0000000000878924
v 0 2 2.6666667462274196
v 0 2 5.333333492366946
v 1 2 5.333333492366946
v 1 2 2.6666667462274196
v 1 2 4.3946513095249884E-11
v 0 2 0
v 0 2 8.0000000000878924
v 0 0 0
v 0 0 8.0000000000878924
v 0 0 2.6666667462274196
v 0 0 5.333333492366946
v 0 2 5.333333492366946
v 0 2 2.6666667462274196
v 0 1 0
v 0 1 8.0000000000878924
f 5 6 3 1
f 2 4 6 5
f 14 7 12
f 12 13 14
f 13 11 8
f 11 13 12
f 15 16 12
f 10 11 16
f 16 11 12
f 9 15 12
f 22 17 19 21
f 18 22 21 20
f 28 23 25 29
f 24 27 30 26
f 27 28 29 30
f 37 38 32 34
f 31 36 35 33
f 36 37 34 35
f 46 39 47
f 46 48 45
f 45 48 40
f 47 48 46
f 43 44 47
f 42 48 44
f 44 48 47
f 41 43 47
