# FlatmatesRh OBJ export
# @layer: B
# @craft: Group09
# @cell: 0_1
o Group09_B_0_1
v 1 2 6.72171318605308E-10
v 1 2 8.0000000000878924
v 1 4 6.72171318605308E-10
v 1 4 8.0000000000878924
v 1 2 5.333333492366946
v 1 2 2.6666667462274196
v 1 4 2.6666667462274196
v 1 4 5.333333492366946
v 1 3 8.0000000000878924
v 1 3 6.72171318605308E-10
v 0 2 1.2564496110201162E-09
v 0 4 1.2564496110201162E-09
v 1 2 6.72171318605308E-10
v 1 4 6.72171318605308E-10
v 0 3 1.2564496110201162E-09
v 1 3 6.72171318605308E-10
v 0 2 8.0000000000878924
v 0 4 8.0000000000878924
v 1 2 8.0000000000878924
v 1 4 8.0000000000878924
v 0 3 8.0000000000878924
v 1 3 8.0000000000878924
v 0 2 1.2564496110201162E-09
v 0 2 8.0000000000878924
v 1 2 8.0000000000878924
v 0 2 5.333333492366946
v 0 2 2.6666667462274196
v 1 2 6.72171318605308E-10
v 1 2 2.6666667462274196
v 1 2 5.333333492366946
v 1 4 6.72171318605308E-10
v 1 4 8.0000000000878924
v 0 4 1.2564496110201162E-09
v 0 4 2.6666667462274196
v 0 4 5.333333492366946
v 1 4 5.333333492366946
v 1 4 2.6666667462274196
v 0 4 8.0000000000878924
v 0 4 1.2564496110201162E-09
v 0 4 8.0000000000878924
v 0 2 1.2564496110201162E-09
v 0 2 8.0000000000878924
v 0 2 2.6666667462274196
v 0 2 5.333333492366946
v 0 4 5.333333492366946
v 0 4 2.6666667462274196
v 0 3 1.2564496110201162E-09
v 0 3 8.0000000000878924
f 6 1 10
f 6 9 5
f 5 9 2
f 10 9 6
f 9 10 7 8
f 4 9 8
f 3 7 10
f 15 16 13 11
f 12 14 16 15
f 21 17 19 22
f 18 21 22 20
f 27 23 28 29
f 24 26 30 25
f 26 27 29 30
f 37 31 33 34
f 32 36 35 38
f 36 37 34 35
f 46 39 47
f 46 48 45
f 45 48 40
f 47 48 46
f 48 47 43 44
f 42 48 44
f 41 43 47
