# FlatmatesRh OBJ export
# @layer: B
# @craft: Group09
# @cell: 0_2
o Group09_B_0_2
v 1 4 1.3003961241153661E-09
v 1 4 8.0000000000878924
v 1 6 1.3003961241153661E-09
v 1 6 8.0000000000878924
v 1 4 5.333333492366946
v 1 4 2.6666667462274196
v 1 6 2.6666667462274196
v 1 6 5.333333492366946
v 1 5 8.0000000000878924
v 1 5 1.3003961241153661E-09
v 0 4 2.5128992220402324E-09
v 0 6 2.5128992220402324E-09
v 1 4 1.3003961241153661E-09
v 1 6 1.3003961241153661E-09
v 0 5 2.5128992220402324E-09
v 1 5 1.3003961241153661E-09
v 0 4 8.0000000000878924
v 0 6 8.0000000000878924
v 1 4 8.0000000000878924
v 1 6 8.0000000000878924
v 0 5 8.0000000000878924
v 1 5 8.0000000000878924
v 0 4 2.5128992220402324E-09
v 0 4 8.0000000000878924
v 1 4 1.3003961241153661E-09
v 1 4 8.0000000000878924
v 0 4 5.333333492366946
v 0 4 2.6666667462274196
v 1 4 2.6666667462274196
v 1 4 5.333333492366946
v 1 6 1.3003961241153661E-09
v 0 6 2.5128992220402324E-09
v 0 6 8.0000000000878924
v 0 6 2.6666667462274196
v 0 6 5.333333492366946
v 1 6 8.0000000000878924
v 1 6 5.333333492366946
v 1 6 2.6666667462274196
v 0 6 2.5128992220402324E-09
v 0 6 8.0000000000878924
v 0 4 2.5128992220402324E-09
v 0 4 8.0000000000878924
v 0 4 2.6666667462274196
v 0 4 5.333333492366946
v 0 6 5.333333492366946
v 0 6 2.6666667462274196
v 0 5 2.5128992220402324E-09
v 0 5 8.0000000000878924
f 6 1 10
f 6 9 5
f 5 9 2
f 10 9 6
f 9 10 7 8
f 4 9 8
f 3 7 10
f 15 16 13 11
f 12 14 16 15
f 21 17 19 22
f 18 21 22 20
f 28 23 25 29
f 24 27 30 26
f 27 28 29 30
f 38 31 32 34
f 36 37 35 33
f 37 38 34 35
f 46 39 47
f 46 48 45
f 45 48 40
f 47 48 46
f 48 47 43 44
f 42 48 44
f 41 43 47
