# FlatmatesRh OBJ export
# @layer: B
# @craft: Group09
# @cell: 0_3
o Group09_B_0_3
v 1 6 1.9286210406477267E-09
v 1 6 8.0000000000878924
v 1 8 1.9286210406477267E-09
v 1 8 8.0000000000878924
v 1 6 5.333333492366946
v 1 6 2.6666667462274196
v 1 8 2.6666667462274196
v 1 8 5.333333492366946
v 1 7 8.0000000000878924
v 1 7 1.9286210406477267E-09
v 0 6 3.7693490551049535E-09
v 1 6 1.9286210406477267E-09
v 1 8 1.9286210406477267E-09
v 0 8 3.7693490551049535E-09
v 0 7 3.7693490551049535E-09
v 1 7 1.9286210406477267E-09
v 0 6 8.0000000000878924
v 0 8 8.0000000000878924
v 1 6 8.0000000000878924
v 1 8 8.0000000000878924
v 0 7 8.0000000000878924
v 1 7 8.0000000000878924
v 0 6 3.7693490551049535E-09
v 1 6 1.9286210406477267E-09
v 1 6 8.0000000000878924
v 0 6 8.0000000000878924
v 0 6 5.333333492366946
v 0 6 2.6666667462274196
v 1 6 2.6666667462274196
v 1 6 5.333333492366946
v 1 8 1.9286210406477267E-09
v 1 8 8.0000000000878924
v 0 8 3.7693490551049535E-09
v 0 8 2.6666667462274196
v 0 8 5.333333492366946
v 1 8 5.333333492366946
v 1 8 2.6666667462274196
v 0 8 8.0000000000878924
v 0 8 3.7693490551049535E-09
v 0 8 8.0000000000878924
v 0 6 3.7693490551049535E-09
v 0 6 8.0000000000878924
v 0 6 2.6666667462274196
v 0 6 5.333333492366946
v 0 8 5.333333492366946
v 0 8 2.6666667462274196
v 0 7 3.7693490551049535E-09
v 0 7 8.0000000000878924
f 6 1 10
f 6 9 5
f 5 9 2
f 10 9 6
f 9 10 7 8
f 4 9 8
f 3 7 10
f 15 16 12 11
f 14 13 16 15
f 21 17 19 22
f 18 21 22 20
f 28 23 24 29
f 26 27 30 25
f 27 28 29 30
f 37 31 33 34
f 32 36 35 38
f 36 37 34 35
f 46 39 47
f 46 48 45
f 45 48 40
f 47 48 46
f 47 43 48
f 42 48 44
f 43 44 48
f 41 43 47
