# FlatmatesRh OBJ export
# @layer: B
# @craft: Group09
# @cell: 0_4
o Group09_B_0_4
v 0 8 5.02579866612507E-09
v 0 10 5.02579866612507E-09
v 1 8 2.5568458461577848E-09
v 1 10 5.02579866612507E-09
v 0 9 5.02579866612507E-09
v 1 9 3.7913221451191248E-09
v 1 8 2.5568458461577848E-09
v 1 8 8.0000000000878924
v 1 10 5.02579866612507E-09
v 1 10 8.0000000000878924
v 1 8 5.333333492366946
v 1 8 2.6666667462274196
v 1 10 2.6666667462274196
v 1 10 5.333333492366946
v 1 9 8.0000000000878924
v 1 9 3.7913221451191248E-09
v 0 8 8.0000000000878924
v 0 10 8.0000000000878924
v 1 8 8.0000000000878924
v 1 10 8.0000000000878924
v 0 9 8.0000000000878924
v 1 9 8.0000000000878924
v 0 8 5.02579866612507E-09
v 1 8 2.5568458461577848E-09
v 1 8 8.0000000000878924
v 0 8 8.0000000000878924
v 0 8 5.333333492366946
v 0 8 2.6666667462274196
v 1 8 2.6666667462274196
v 1 8 5.333333492366946
v 1 10 5.02579866612507E-09
v 1 10 8.0000000000878924
v 0 10 5.02579866612507E-09
v 0 10 8.0000000000878924
v 0 10 2.6666667462274196
v 0 10 5.333333492366946
v 1 10 5.333333492366946
v 1 10 2.6666667462274196
v 0 10 5.02579866612507E-09
v 0 8 5.02579866612507E-09
v 0 8 8.0000000000878924
v 0 8 2.6666667462274196
v 0 8 5.333333492366946
v 0 10 8.0000000000878924
v 0 10 5.333333492366946
v 0 10 2.6666667462274196
v 0 9 5.02579866612507E-09
v 0 9 8.0000000000878924
f 5 6 3 1
f 2 4 6 5
f 12 7 16
f 12 15 11
f 11 15 8
f 16 15 12
f 15 16 13 14
f 10 15 14
f 9 13 16
f 21 17 19 22
f 18 21 22 20
f 28 23 24 29
f 26 27 30 25
f 27 28 29 30
f 38 31 33 35
f 32 37 36 34
f 37 38 35 36
f 46 39 47
f 46 48 45
f 45 48 44
f 47 48 46
f 42 43 47
f 41 48 43
f 43 48 47
f 40 42 47
