# FlatmatesRh OBJ export
# @craft: house_foo
# @cell: step_2
o house_foo_step_2_parts
v 2 2 3.2727272510528564
v 2 2 2.6181817054748535
v 2 2 1.9636363983154297
v 2 2 1.3090908527374268
v 2 2 0.65454542636871338
v 2 2 0
v 2.5999999046325684 2 3.9272727966308594
v 2.5999999046325684 2 3.2727272510528564
v 2.5999999046325684 2 2.6181817054748535
v 2.5999999046325684 2 1.9636363983154297
v 2.5999999046325684 2 1.3090908527374268
v 2.5999999046325684 2 0.65454542636871338
v 2.5999999046325684 2 0
v 3.2000000476837158 2 4.5818181037902832
v 3.2000000476837158 2 3.9272727966308594
v 3.2000000476837158 2 3.2727272510528564
v 3.2000000476837158 2 2.6181817054748535
v 3.2000000476837158 2 1.9636363983154297
v 3.2000000476837158 2 1.3090908527374268
v 3.2000000476837158 2 0.65454542636871338
v 3.2000000476837158 2 0
v 3.7999999523162842 2 4.5818181037902832
v 3.7999999523162842 2 3.9272727966308594
v 3.7999999523162842 2 3.2727272510528564
v 3.7999999523162842 2 2.6181817054748535
v 3.7999999523162842 2 0
v 4.4000000953674316 2 3.2727272510528564
v 4.4000000953674316 2 2.6181817054748535
v 4.4000000953674316 2 0
v 5 2 7.1999998092651367
v 5 2 3.2727272510528564
v 5 2 2.6181817054748535
v 5 2 1.9636363983154297
v 5 2 1.3090908527374268
v 5 2 0.65454542636871338
v 5 2 0
v 5.5999999046325684 2 5.236363410949707
v 5.5999999046325684 2 4.5818181037902832
v 5.5999999046325684 2 3.9272727966308594
v 5.5999999046325684 2 3.2727272510528564
v 5.5999999046325684 2 2.6181817054748535
v 5.5999999046325684 2 1.9636363983154297
v 5.5999999046325684 2 1.3090908527374268
v 5.5999999046325684 2 0.65454542636871338
v 5.5999999046325684 2 0
v 6.1999998092651367 2 5.236363410949707
v 6.1999998092651367 2 4.5818181037902832
v 6.1999998092651367 2 3.9272727966308594
v 6.1999998092651367 2 1.9636363983154297
v 6.1999998092651367 2 1.3090908527374268
v 6.1999998092651367 2 0.65454542636871338
v 6.1999998092651367 2 0
v 6.8000001907348633 2 4.5818181037902832
v 6.8000001907348633 2 3.9272727966308594
v 6.8000001907348633 2 1.9636363983154297
v 6.8000001907348633 2 1.3090908527374268
v 6.8000001907348633 2 0.65454542636871338
v 6.8000001907348633 2 0
v 7.4000000953674316 2 3.2727272510528564
v 7.4000000953674316 2 2.6181817054748535
v 7.4000000953674316 2 1.9636363983154297
v 7.4000000953674316 2 1.3090908527374268
v 7.4000000953674316 2 0.65454542636871338
v 7.4000000953674316 2 0
v 8 2 3.2727272510528564
v 8 2 2.6181817054748535
v 8 2 1.9636363983154297
v 8 2 1.3090908527374268
v 8 2 0.65454542636871338
v 8 2 0
v 2 2 3.5999999046325684
v 2.2999999523162842 2 3.9600000381469727
v 2.5999999046325684 2 4.320000171661377
v 2.9000000953674316 2 4.679999828338623
v 3.2000000476837158 2 5.0399999618530273
v 3.5 2 5.4000000953674316
v 3.7999999523162842 2 5.7600002288818359
v 4.0999999046325684 2 6.119999885559082
v 4.4000000953674316 2 6.4800000190734863
v 4.6999998092651367 2 6.8400001525878906
v 5.3000001907348633 2 6.8400001525878906
v 5.5999999046325684 2 6.4800000190734863
v 5.9000000953674316 2 6.119999885559082
v 6.1999998092651367 2 5.7600002288818359
v 6.5 2 5.4000000953674316
v 6.8000001907348633 2 5.0399999618530273
v 7.0999999046325684 2 4.679999828338623
v 7.4000000953674316 2 4.320000171661377
v 7.6999998092651367 2 3.9600000381469727
v 8 2 3.5999999046325684
v 4.0936980247497559 2 5.390141487121582
v 4.0936980247497559 2 4.9486703872680664
v 4.0936980247497559 2 4.5071992874145508
v 4.0936980247497559 2 4.0657281875610352
v 4.5118446350097656 2 4.0657281875610352
v 4.9299912452697754 2 4.0657281875610352
v 4.9299912452697754 2 4.5071992874145508
v 4.9299912452697754 2 4.9486703872680664
v 4.9299912452697754 2 5.390141487121582
v 4.5118446350097656 2 5.390141487121582
v 6.0207486152648926 2 3.4805424213409424
v 6.0207486152648926 2 3.03619647026062
v 6.0207486152648926 2 2.5918502807617188
v 6.0207486152648926 2 2.1475043296813965
v 6.3494067192077637 2 2.1475043296813965
v 6.678065299987793 2 2.1475043296813965
v 7.0067238807678223 2 2.1475043296813965
v 7.0067238807678223 2 2.5918502807617188
v 7.0067238807678223 2 3.03619647026062
v 7.0067238807678223 2 3.4805424213409424
v 6.678065299987793 2 3.4805424213409424
v 6.3494067192077637 2 3.4805424213409424
v 3.5497181415557861 2 0.20295736193656921
v 4.0136146545410156 2 0.20295736193656921
v 4.477510929107666 2 0.20295736193656921
v 4.477510929107666 2 0.65295737981796265
v 4.477510929107666 2 1.1029573678970337
v 4.477510929107666 2 1.5529574155807495
v 4.477510929107666 2 2.0029573440551758
v 4.0136146545410156 2 2.0029573440551758
v 3.5497181415557861 2 2.0029573440551758
v 3.5497181415557861 2 1.5529574155807495
v 3.5497181415557861 2 1.1029573678970337
v 3.5497181415557861 2 0.65295737981796265
v 5 2 5.8909091949462891
v 5 2 4.5818181037902832
v 5 2 3.9272727966308594
v 5 2 5.236363410949707
f 9 8 1 2
f 10 9 2 3
f 11 10 3 4
f 12 11 4 5
f 13 12 5 6
f 16 15 7 8
f 17 16 8 9
f 18 17 9 10
f 19 18 10 11
f 20 19 11 12
f 21 20 12 13
f 23 22 14 15
f 24 23 15 16
f 25 24 16 17
f 28 27 24 25
f 32 31 27 28
f 39 31 40
f 41 40 31 32
f 42 41 32 33
f 43 42 33 34
f 44 43 34 35
f 45 44 35 36
f 47 46 37 38
f 48 47 38 39
f 50 49 42 43
f 51 50 43 44
f 52 51 44 45
f 54 53 47 48
f 56 55 49 50
f 57 56 50 51
f 58 57 51 52
f 62 61 55 56
f 63 62 56 57
f 64 63 57 58
f 66 65 59 60
f 67 66 60 61
f 68 67 61 62
f 69 68 62 63
f 70 69 63 64
f 14 75 74
f 22 75 14
f 73 14 74
f 22 77 76
f 92 91 22
f 75 22 76
f 72 71 8
f 7 73 72
f 7 72 8
f 73 7 15
f 14 73 15
f 23 94 93 22
f 78 91 100
f 77 91 78
f 78 100 125
f 99 125 100
f 125 79 78
f 80 79 125
f 22 93 92
f 126 98 97
f 95 94 27
f 96 127 126 97
f 27 94 23
f 98 128 99
f 22 91 77
f 27 127 95
f 71 1 8
f 122 121 18
f 17 18 121
f 121 25 17
f 122 18 19
f 20 124 123 19
f 21 113 124 20
f 123 122 19
f 26 113 21
f 25 120 119 28
f 32 28 119
f 27 23 24
f 29 115 114 26
f 26 114 113
f 118 117 34
f 115 36 35 116
f 116 35 34 117
f 36 115 29
f 33 119 118
f 25 121 120
f 127 96 95
f 81 30 125
f 80 125 30
f 128 125 99
f 37 125 128
f 125 83 82
f 81 125 82
f 83 125 37
f 127 39 38 126
f 126 38 37 128
f 126 128 98
f 101 48 39
f 101 39 40
f 83 37 84
f 37 46 84
f 85 84 46
f 47 53 86 46
f 85 46 86
f 87 86 53
f 48 112 111 54
f 101 112 48
f 110 88 54
f 88 59 89
f 53 54 88
f 88 87 53
f 89 59 90
f 31 39 127
f 103 102 41
f 40 41 102
f 40 102 101
f 103 41 42 104
f 118 34 33
f 42 49 104
f 119 33 32
f 54 111 110
f 59 110 109
f 59 88 110
f 59 109 108 60
f 59 65 90
f 55 106 105 49
f 105 104 49
f 106 55 107
f 107 61 60 108
f 107 55 61
f 27 31 127
v 2.5520000457763672 8 3.9338181018829346
v 2.5520000457763672 8 3.2661817073822021
v 2.5520000457763672 8 2.5985455513000488
v 3.1640000343322754 8 4.6014547348022461
v 3.1640000343322754 8 3.9338181018829346
v 3.1640000343322754 8 3.2661817073822021
v 3.1640000343322754 8 2.5985455513000488
v 3.7760000228881836 8 5.2690911293029785
v 3.7760000228881836 8 4.6014547348022461
v 3.7760000228881836 8 3.9338181018829346
v 3.7760000228881836 8 3.2661817073822021
v 3.7760000228881836 8 2.5985455513000488
v 4.3880000114440918 8 5.9367270469665527
v 4.3880000114440918 8 5.2690911293029785
v 4.3880000114440918 8 4.6014547348022461
v 4.3880000114440918 8 3.9338181018829346
v 4.3880000114440918 8 3.2661817073822021
v 4.3880000114440918 8 2.5985455513000488
v 4.3880000114440918 8 1.9309090375900269
v 4.3880000114440918 8 1.263272762298584
v 4.3880000114440918 8 0.59563636779785156
v 5 8 5.9367270469665527
v 5 8 5.2690911293029785
v 5 8 4.6014547348022461
v 5 8 3.9338181018829346
v 5 8 3.2661817073822021
v 5 8 2.5985455513000488
v 5 8 1.9309090375900269
v 5 8 1.263272762298584
v 5 8 0.59563636779785156
v 5.6119999885559082 8 5.9367270469665527
v 5.6119999885559082 8 5.2690911293029785
v 5.6119999885559082 8 4.6014547348022461
v 5.6119999885559082 8 3.9338181018829346
v 5.6119999885559082 8 3.2661817073822021
v 5.6119999885559082 8 2.5985455513000488
v 5.6119999885559082 8 1.9309090375900269
v 5.6119999885559082 8 1.263272762298584
v 5.6119999885559082 8 0.59563636779785156
v 6.2239999771118164 8 5.2690911293029785
v 6.2239999771118164 8 4.6014547348022461
v 6.2239999771118164 8 3.9338181018829346
v 6.2239999771118164 8 3.2661817073822021
v 6.2239999771118164 8 2.5985455513000488
v 6.8359999656677246 8 4.6014547348022461
v 6.8359999656677246 8 3.9338181018829346
v 6.8359999656677246 8 3.2661817073822021
v 6.8359999656677246 8 2.5985455513000488
v 7.4479999542236328 8 3.9338181018829346
v 7.4479999542236328 8 3.2661817073822021
v 7.4479999542236328 8 2.5985455513000488
v 2 8 0
v 2 8 0.44999998807907104
v 2 8 0.89999997615814209
v 2 8 1.3500000238418579
v 2 8 1.7999999523162842
v 2 8 2.25
v 2 8 2.7000000476837158
v 2 8 3.1500000953674316
v 2 8 3.5999999046325684
v 2.2999999523162842 8 3.9600000381469727
v 2.5999999046325684 8 4.320000171661377
v 2.9000000953674316 8 4.679999828338623
v 3.2000000476837158 8 5.0399999618530273
v 3.5 8 5.4000000953674316
v 3.7999999523162842 8 5.7600002288818359
v 4.0999999046325684 8 6.119999885559082
v 4.4000000953674316 8 6.4800000190734863
v 4.6999998092651367 8 6.8400001525878906
v 5 8 7.1999998092651367
v 5.3000001907348633 8 6.8400001525878906
v 5.5999999046325684 8 6.4800000190734863
v 5.9000000953674316 8 6.119999885559082
v 6.1999998092651367 8 5.7600002288818359
v 6.5 8 5.4000000953674316
v 6.8000001907348633 8 5.0399999618530273
v 7.0999999046325684 8 4.679999828338623
v 7.4000000953674316 8 4.320000171661377
v 7.6999998092651367 8 3.9600000381469727
v 8 8 3.5999999046325684
v 8 8 3.1500000953674316
v 8 8 2.7000000476837158
v 8 8 2.25
v 8 8 1.7999999523162842
v 8 8 1.3500000238418579
v 8 8 0.89999997615814209
v 8 8 0.44999998807907104
v 8 8 0
v 7.5 8 0
v 7 8 0
v 6.5 8 0
v 6 8 0
v 5.5 8 0
v 5 8 0
v 4.5 8 0
v 4 8 0
v 3.5 8 0
v 3 8 0
v 2.5 8 0
v 6.7974882125854492 8 2.3955976963043213
v 6.3793420791625977 8 2.3955976963043213
v 5.9611954689025879 8 2.3955976963043213
v 5.9611954689025879 8 1.9541265964508057
v 5.9611954689025879 8 1.5126553773880005
v 5.9611954689025879 8 1.0711841583251953
v 6.3793420791625977 8 1.0711841583251953
v 6.7974882125854492 8 1.0711841583251953
v 6.7974882125854492 8 1.5126553773880005
v 6.7974882125854492 8 1.9541265964508057
v 3.2025115489959717 8 1.0711841583251953
v 3.6206581592559814 8 1.0711841583251953
v 4.0388045310974121 8 1.0711841583251953
v 4.0388045310974121 8 1.5126553773880005
v 4.0388045310974121 8 1.9541265964508057
v 4.0388045310974121 8 2.3955976963043213
v 3.6206581592559814 8 2.3955976963043213
v 3.2025115489959717 8 2.3955976963043213
v 3.2025115489959717 8 1.9541265964508057
v 3.2025115489959717 8 1.5126553773880005
v 3.1640000343322754 8 1.263272762298584
v 2.5520000457763672 8 1.263272762298584
v 3.1640000343322754 8 0.59563636779785156
v 2.5520000457763672 8 0.59563636779785156
v 3.7760000228881836 8 0.59563636779785156
v 7.4479999542236328 8 1.263272762298584
v 6.8359999656677246 8 0.59563636779785156
v 6.8359999656677246 8 1.263272762298584
v 7.4479999542236328 8 0.59563636779785156
f 134 130 129 133
f 135 131 130 134
f 138 133 132 137
f 139 134 133 138
f 140 135 134 139
f 143 137 136 142
f 144 138 137 143
f 145 139 138 144
f 146 140 139 145
f 151 142 141 150
f 152 143 142 151
f 153 144 143 152
f 154 145 144 153
f 155 146 145 154
f 156 147 146 155
f 157 148 147 156
f 158 149 148 157
f 160 151 150 159
f 161 152 151 160
f 162 153 152 161
f 163 154 153 162
f 164 155 154 163
f 165 156 155 164
f 166 157 156 165
f 167 158 157 166
f 169 161 160 168
f 170 162 161 169
f 171 163 162 170
f 172 164 163 171
f 174 170 169 173
f 175 171 170 174
f 176 172 171 175
f 178 175 174 177
f 179 176 175 178
f 129 189 190
f 190 133 129
f 130 189 129
f 132 191 192
f 190 191 132
f 132 133 190
f 130 187 188
f 186 187 130 131
f 189 130 188
f 246 135 245
f 131 185 186
f 192 137 132
f 194 136 193
f 141 194 195
f 197 150 196
f 196 150 141
f 195 196 141
f 141 142 194
f 244 245 135 140
f 137 192 136
f 243 244 140
f 142 136 194
f 146 243 140
f 136 192 193
f 246 247 248
f 184 185 131
f 249 183 184
f 135 248 249 131
f 131 249 184
f 250 248 238
f 251 249 248 250
f 182 183 249
f 251 181 182
f 227 180 181
f 251 250 226 227
f 249 251 182
f 226 250 225
f 181 251 227
f 135 246 248
f 238 248 247
f 241 242 147
f 242 243 146 147
f 147 148 241
f 148 240 241
f 250 252 225
f 252 250 238 239
f 240 252 239
f 224 225 252
f 252 149 223 224
f 148 149 240
f 149 158 222 223
f 240 149 252
f 199 150 198
f 200 150 199
f 198 150 197
f 159 150 200
f 202 159 201
f 200 201 159
f 202 160 159
f 230 164 172
f 165 164 230 231
f 230 172 229
f 172 176 229
f 168 204 169
f 168 160 202
f 203 168 202
f 169 204 173
f 205 173 204
f 173 206 174
f 207 177 206
f 174 206 177
f 205 206 173
f 178 177 207
f 179 178 209 210
f 253 179 211 212
f 208 209 178
f 178 207 208
f 228 229 176
f 168 203 204
f 210 211 179
f 232 166 165
f 231 232 165
f 228 176 237
f 233 166 232
f 254 219 220
f 221 222 158 167
f 167 233 234
f 234 254 167
f 254 220 167
f 221 167 220
f 167 166 233
f 236 237 255
f 253 256 254 255
f 255 235 236
f 255 237 176
f 212 213 253
f 255 176 179 253
f 213 214 253
f 254 256 217 218
f 254 235 255
f 219 254 218
f 256 215 217
f 215 216 217
f 214 215 256
f 256 253 214
f 234 235 254
o house_foo_step_2_appliques
