# FlatmatesRh OBJ export
# @craft: house_foo
# @cell: step_3
o house_foo_step_3_parts
v 5 8 7.1999998092651367
v 5 7.1428570747375488 7.1999998092651367
v 5 6.2857141494750977 7.1999998092651367
v 5 5.4285712242126465 7.1999998092651367
v 5 4.5714287757873535 7.1999998092651367
v 5 3.7142856121063232 7.1999998092651367
v 5 2.8571429252624512 7.1999998092651367
v 5 2 7.1999998092651367
v 4.5714287757873535 8 6.6857142448425293
v 4.5714287757873535 7.1428570747375488 6.6857142448425293
v 4.5714287757873535 6.2857141494750977 6.6857142448425293
v 4.5714287757873535 5.4285712242126465 6.6857142448425293
v 4.5714287757873535 4.5714287757873535 6.6857142448425293
v 4.5714287757873535 3.7142856121063232 6.6857142448425293
v 4.5714287757873535 2.8571429252624512 6.6857142448425293
v 4.5714287757873535 2 6.6857142448425293
v 4.1428570747375488 8 6.1714286804199219
v 4.1428570747375488 7.1428570747375488 6.1714286804199219
v 4.1428570747375488 6.2857141494750977 6.1714286804199219
v 4.1428570747375488 5.4285712242126465 6.1714286804199219
v 4.1428570747375488 4.5714287757873535 6.1714286804199219
v 4.1428570747375488 3.7142856121063232 6.1714286804199219
v 4.1428570747375488 2.8571429252624512 6.1714286804199219
v 4.1428570747375488 2 6.1714286804199219
v 3.7142856121063232 8 5.6571426391601563
v 3.7142856121063232 7.1428570747375488 5.6571426391601563
v 3.7142856121063232 6.2857141494750977 5.6571426391601563
v 3.7142856121063232 3.7142856121063232 5.6571426391601563
v 3.7142856121063232 2.8571429252624512 5.6571426391601563
v 3.7142856121063232 2 5.6571426391601563
v 3.2857143878936768 8 5.1428570747375488
v 3.2857143878936768 7.1428570747375488 5.1428570747375488
v 3.2857143878936768 6.2857141494750977 5.1428570747375488
v 3.2857143878936768 3.7142856121063232 5.1428570747375488
v 3.2857143878936768 2.8571429252624512 5.1428570747375488
v 3.2857143878936768 2 5.1428570747375488
v 2.8571429252624512 8 4.6285715103149414
v 2.8571429252624512 7.1428570747375488 4.6285715103149414
v 2.8571429252624512 6.2857141494750977 4.6285715103149414
v 2.8571429252624512 3.7142856121063232 4.6285715103149414
v 2.8571429252624512 2.8571429252624512 4.6285715103149414
v 2.8571429252624512 2 4.6285715103149414
v 2.4285714626312256 8 4.114285945892334
v 2.4285714626312256 7.1428570747375488 4.114285945892334
v 2.4285714626312256 6.2857141494750977 4.114285945892334
v 2.4285714626312256 5.4285712242126465 4.114285945892334
v 2.4285714626312256 4.5714287757873535 4.114285945892334
v 2.4285714626312256 3.7142856121063232 4.114285945892334
v 2.4285714626312256 2.8571429252624512 4.114285945892334
v 2.4285714626312256 2 4.114285945892334
v 2 8 3.5999999046325684
v 2 2 3.5999999046325684
v 2 7.6666665077209473 3.5999999046325684
v 2 7.3333334922790527 3.5999999046325684
v 2 7 3.5999999046325684
v 2 6.6666665077209473 3.5999999046325684
v 2 6.3333334922790527 3.5999999046325684
v 2 6 3.5999999046325684
v 2 5.6666665077209473 3.5999999046325684
v 2 5.3333334922790527 3.5999999046325684
v 2 5 3.5999999046325684
v 2 4.6666665077209473 3.5999999046325684
v 2 4.3333334922790527 3.5999999046325684
v 2 4 3.5999999046325684
v 2 3.6666667461395264 3.5999999046325684
v 2 3.3333332538604736 3.5999999046325684
v 2 3 3.5999999046325684
v 2 2.6666667461395264 3.5999999046325684
v 2 2.3333332538604736 3.5999999046325684
v 3.6652185916900635 4.4742536544799805 5.5982623100280762
v 3.2948496341705322 4.4742536544799805 5.1538195610046387
v 2.9244804382324219 4.4742536544799805 4.7093768119812012
v 3.6652185916900635 5.5257463455200195 5.5982623100280762
v 3.6652185916900635 5 5.5982623100280762
v 2.9244804382324219 5.5257463455200195 4.7093768119812012
v 3.2948496341705322 5.5257463455200195 5.1538195610046387
v 2.9244804382324219 5 4.7093768119812012
v 3.7142856121063232 4.5714287757873535 5.6571426391601563
v 2.8571429252624512 4.5714287757873535 4.6285715103149414
f 10 2 1 9
f 11 3 2 10
f 12 4 3 11
f 13 5 4 12
f 14 6 5 13
f 15 7 6 14
f 16 8 7 15
f 18 10 9 17
f 19 11 10 18
f 20 12 11 19
f 21 13 12 20
f 22 14 13 21
f 23 15 14 22
f 24 16 15 23
f 26 18 17 25
f 27 19 18 26
f 29 23 22 28
f 30 24 23 29
f 32 26 25 31
f 33 27 26 32
f 35 29 28 34
f 36 30 29 35
f 38 32 31 37
f 39 33 32 38
f 41 35 34 40
f 42 36 35 41
f 44 38 37 43
f 45 39 38 44
f 39 45 46
f 47 48 40
f 49 41 40 48
f 50 42 41 49
f 20 19 27
f 78 27 73 74
f 73 33 76
f 33 73 27
f 44 43 53 54
f 79 46 47
f 33 39 75 76
f 39 79 77 75
f 45 44 55 56
f 20 78 21
f 78 20 27
f 70 78 74
f 78 28 22 21
f 70 28 78
f 34 28 70
f 79 72 77
f 40 34 72
f 71 72 34
f 79 40 72
f 47 40 79
f 70 71 34
f 54 55 44
f 45 56 57
f 45 57 58
f 51 53 43
f 46 45 58 59
f 46 60 61
f 47 46 61
f 46 59 60
f 62 47 61
f 64 47 63
f 62 63 47
f 48 47 64
f 49 48 66 67
f 50 49 68 69
f 64 65 48
f 48 65 66
f 50 69 52
f 49 67 68
f 79 39 46
v 2 8 3.5999999046325684
v 2 2 3.5999999046325684
v 2 8 3.1500000953674316
v 2 7.5384616851806641 3.1500000953674316
v 2 7.07692289352417 3.1500000953674316
v 2 6.615384578704834 3.1500000953674316
v 2 6.153846263885498 3.1500000953674316
v 2 5.6923074722290039 3.1500000953674316
v 2 5.230769157409668 3.1500000953674316
v 2 4.769230842590332 3.1500000953674316
v 2 4.3076925277709961 3.1500000953674316
v 2 3.846153736114502 3.1500000953674316
v 2 3.384615421295166 3.1500000953674316
v 2 2.923076868057251 3.1500000953674316
v 2 2.461538553237915 3.1500000953674316
v 2 2 3.1500000953674316
v 2 8 2.7000000476837158
v 2 7.5384616851806641 2.7000000476837158
v 2 7.07692289352417 2.7000000476837158
v 2 6.615384578704834 2.7000000476837158
v 2 6.153846263885498 2.7000000476837158
v 2 5.6923074722290039 2.7000000476837158
v 2 5.230769157409668 2.7000000476837158
v 2 4.769230842590332 2.7000000476837158
v 2 4.3076925277709961 2.7000000476837158
v 2 3.846153736114502 2.7000000476837158
v 2 3.384615421295166 2.7000000476837158
v 2 2.923076868057251 2.7000000476837158
v 2 2.461538553237915 2.7000000476837158
v 2 2 2.7000000476837158
v 2 8 2.25
v 2 7.5384616851806641 2.25
v 2 7.07692289352417 2.25
v 2 5.6923074722290039 2.25
v 2 5.230769157409668 2.25
v 2 4.769230842590332 2.25
v 2 4.3076925277709961 2.25
v 2 2.923076868057251 2.25
v 2 2.461538553237915 2.25
v 2 2 2.25
v 2 8 1.7999999523162842
v 2 7.5384616851806641 1.7999999523162842
v 2 7.07692289352417 1.7999999523162842
v 2 5.6923074722290039 1.7999999523162842
v 2 5.230769157409668 1.7999999523162842
v 2 4.769230842590332 1.7999999523162842
v 2 4.3076925277709961 1.7999999523162842
v 2 2.923076868057251 1.7999999523162842
v 2 2.461538553237915 1.7999999523162842
v 2 2 1.7999999523162842
v 2 8 1.3500000238418579
v 2 7.5384616851806641 1.3500000238418579
v 2 7.07692289352417 1.3500000238418579
v 2 5.6923074722290039 1.3500000238418579
v 2 5.230769157409668 1.3500000238418579
v 2 4.769230842590332 1.3500000238418579
v 2 4.3076925277709961 1.3500000238418579
v 2 2.923076868057251 1.3500000238418579
v 2 2.461538553237915 1.3500000238418579
v 2 2 1.3500000238418579
v 2 8 0.89999997615814209
v 2 7.5384616851806641 0.89999997615814209
v 2 7.07692289352417 0.89999997615814209
v 2 6.615384578704834 0.89999997615814209
v 2 6.153846263885498 0.89999997615814209
v 2 5.6923074722290039 0.89999997615814209
v 2 5.230769157409668 0.89999997615814209
v 2 4.769230842590332 0.89999997615814209
v 2 4.3076925277709961 0.89999997615814209
v 2 3.846153736114502 0.89999997615814209
v 2 3.384615421295166 0.89999997615814209
v 2 2.923076868057251 0.89999997615814209
v 2 2.461538553237915 0.89999997615814209
v 2 2 0.89999997615814209
v 2 8 0.44999998807907104
v 2 7.5384616851806641 0.44999998807907104
v 2 7.07692289352417 0.44999998807907104
v 2 6.615384578704834 0.44999998807907104
v 2 6.153846263885498 0.44999998807907104
v 2 5.6923074722290039 0.44999998807907104
v 2 5.230769157409668 0.44999998807907104
v 2 4.769230842590332 0.44999998807907104
v 2 4.3076925277709961 0.44999998807907104
v 2 3.846153736114502 0.44999998807907104
v 2 3.384615421295166 0.44999998807907104
v 2 2.923076868057251 0.44999998807907104
v 2 2.461538553237915 0.44999998807907104
v 2 2 0.44999998807907104
v 2 8 0
v 2 7.5384616851806641 0
v 2 7.07692289352417 0
v 2 6.615384578704834 0
v 2 6.153846263885498 0
v 2 5.6923074722290039 0
v 2 5.230769157409668 0
v 2 4.769230842590332 0
v 2 4.3076925277709961 0
v 2 3.846153736114502 0
v 2 3.384615421295166 0
v 2 2.923076868057251 0
v 2 2.461538553237915 0
v 2 2 0
v 2 2.3333332538604736 3.5999999046325684
v 2 2.6666667461395264 3.5999999046325684
v 2 3 3.5999999046325684
v 2 3.3333332538604736 3.5999999046325684
v 2 3.6666667461395264 3.5999999046325684
v 2 4 3.5999999046325684
v 2 4.3333334922790527 3.5999999046325684
v 2 4.6666665077209473 3.5999999046325684
v 2 5 3.5999999046325684
v 2 5.3333334922790527 3.5999999046325684
v 2 5.6666665077209473 3.5999999046325684
v 2 6 3.5999999046325684
v 2 6.3333334922790527 3.5999999046325684
v 2 6.6666665077209473 3.5999999046325684
v 2 7 3.5999999046325684
v 2 7.3333334922790527 3.5999999046325684
v 2 7.6666665077209473 3.5999999046325684
v 2 4.0388045310974121 2.3955976963043213
v 2 3.760040283203125 2.3955976963043213
v 2 3.4812760353088379 2.3955976963043213
v 2 3.2025115489959717 2.3955976963043213
v 2 6.7974882125854492 2.3955976963043213
v 2 6.5187239646911621 2.3955976963043213
v 2 6.239959716796875 2.3955976963043213
v 2 5.9611954689025879 2.3955976963043213
v 2 3.2025115489959717 2.0644943714141846
v 2 3.2025115489959717 1.7333909273147583
v 2 3.2025115489959717 1.402287483215332
v 2 3.2025115489959717 1.0711841583251953
v 2 3.4812760353088379 1.0711841583251953
v 2 3.760040283203125 1.0711841583251953
v 2 4.0388045310974121 1.0711841583251953
v 2 4.0388045310974121 1.402287483215332
v 2 4.0388045310974121 1.7333909273147583
v 2 4.0388045310974121 2.0644943714141846
v 2 6.7974882125854492 1.0711841583251953
v 2 6.7974882125854492 1.402287483215332
v 2 6.7974882125854492 1.7333909273147583
v 2 6.7974882125854492 2.0644943714141846
v 2 5.9611954689025879 1.0711841583251953
v 2 6.239959716796875 1.0711841583251953
v 2 6.5187239646911621 1.0711841583251953
v 2 5.9611954689025879 2.0644943714141846
v 2 5.9611954689025879 1.7333909273147583
v 2 5.9611954689025879 1.402287483215332
f 97 83 82 96
f 98 84 83 97
f 99 85 84 98
f 100 86 85 99
f 101 87 86 100
f 102 88 87 101
f 103 89 88 102
f 104 90 89 103
f 105 91 90 104
f 106 92 91 105
f 107 93 92 106
f 108 94 93 107
f 109 95 94 108
f 111 97 96 110
f 112 98 97 111
f 114 102 101 113
f 115 103 102 114
f 116 104 103 115
f 118 108 107 117
f 119 109 108 118
f 121 111 110 120
f 122 112 111 121
f 124 114 113 123
f 125 115 114 124
f 126 116 115 125
f 128 118 117 127
f 129 119 118 128
f 131 121 120 130
f 132 122 121 131
f 134 124 123 133
f 135 125 124 134
f 136 126 125 135
f 138 128 127 137
f 139 129 128 138
f 141 131 130 140
f 142 132 131 141
f 146 134 133 145
f 147 135 134 146
f 148 136 135 147
f 152 138 137 151
f 153 139 138 152
f 155 141 140 154
f 156 142 141 155
f 157 143 142 156
f 158 144 143 157
f 159 145 144 158
f 160 146 145 159
f 161 147 146 160
f 162 148 147 161
f 163 149 148 162
f 164 150 149 163
f 165 151 150 164
f 166 152 151 165
f 167 153 152 166
f 169 155 154 168
f 170 156 155 169
f 171 157 156 170
f 172 158 157 171
f 173 159 158 172
f 174 160 159 173
f 175 161 160 174
f 176 162 161 175
f 177 163 162 176
f 178 164 163 177
f 179 165 164 178
f 180 166 165 179
f 181 167 166 180
f 198 80 82 83
f 197 198 83
f 84 196 197
f 195 196 84 85
f 195 85 194
f 192 193 86 87
f 191 192 87 88
f 86 193 194
f 197 83 84
f 99 98 203
f 98 112 203
f 204 99 203
f 206 101 100
f 204 205 100 99
f 194 85 86
f 190 89 189
f 187 188 90 91
f 188 189 89 90
f 91 186 187
f 88 190 191
f 186 92 185
f 184 185 92 93
f 183 94 182
f 81 182 94 95
f 93 183 184
f 190 88 89
f 104 199 105
f 183 93 94
f 106 202 107
f 106 105 200 201
f 186 91 92
f 205 206 100
f 112 122 219 220
f 218 219 122 132
f 224 113 206
f 199 104 116
f 123 224 225
f 133 123 225 226
f 113 224 123
f 112 220 203
f 132 142 217 218
f 223 217 143
f 142 143 217
f 143 144 222 223
f 221 133 226
f 145 221 144
f 222 144 221
f 133 221 145
f 105 199 200
f 215 216 126
f 116 216 199
f 126 136 214 215
f 216 116 126
f 117 202 207
f 107 202 117
f 106 201 202
f 127 207 208
f 137 127 208 209
f 117 207 127
f 213 214 136
f 148 213 136
f 212 213 149
f 148 149 213
f 211 212 149 150
f 210 137 209
f 151 210 150
f 211 150 210
f 137 210 151
f 206 113 101
v 8 2 3.5999999046325684
v 8 2.461538553237915 3.5999999046325684
v 8 2.923076868057251 3.5999999046325684
v 8 3.384615421295166 3.5999999046325684
v 8 3.846153736114502 3.5999999046325684
v 8 4.3076925277709961 3.5999999046325684
v 8 4.769230842590332 3.5999999046325684
v 8 5.230769157409668 3.5999999046325684
v 8 5.6923074722290039 3.5999999046325684
v 8 6.153846263885498 3.5999999046325684
v 8 6.615384578704834 3.5999999046325684
v 8 7.07692289352417 3.5999999046325684
v 8 7.5384616851806641 3.5999999046325684
v 8 8 3.5999999046325684
v 8 2 3.1500000953674316
v 8 2.461538553237915 3.1500000953674316
v 8 2.923076868057251 3.1500000953674316
v 8 3.384615421295166 3.1500000953674316
v 8 3.846153736114502 3.1500000953674316
v 8 4.3076925277709961 3.1500000953674316
v 8 4.769230842590332 3.1500000953674316
v 8 5.230769157409668 3.1500000953674316
v 8 5.6923074722290039 3.1500000953674316
v 8 6.153846263885498 3.1500000953674316
v 8 6.615384578704834 3.1500000953674316
v 8 7.07692289352417 3.1500000953674316
v 8 7.5384616851806641 3.1500000953674316
v 8 8 3.1500000953674316
v 8 2 2.7000000476837158
v 8 2.461538553237915 2.7000000476837158
v 8 2.923076868057251 2.7000000476837158
v 8 3.384615421295166 2.7000000476837158
v 8 3.846153736114502 2.7000000476837158
v 8 4.3076925277709961 2.7000000476837158
v 8 4.769230842590332 2.7000000476837158
v 8 5.230769157409668 2.7000000476837158
v 8 5.6923074722290039 2.7000000476837158
v 8 6.153846263885498 2.7000000476837158
v 8 6.615384578704834 2.7000000476837158
v 8 7.07692289352417 2.7000000476837158
v 8 7.5384616851806641 2.7000000476837158
v 8 8 2.7000000476837158
v 8 2 2.25
v 8 2.461538553237915 2.25
v 8 2.923076868057251 2.25
v 8 4.3076925277709961 2.25
v 8 4.769230842590332 2.25
v 8 5.230769157409668 2.25
v 8 5.6923074722290039 2.25
v 8 7.07692289352417 2.25
v 8 7.5384616851806641 2.25
v 8 8 2.25
v 8 2 1.7999999523162842
v 8 2.461538553237915 1.7999999523162842
v 8 2.923076868057251 1.7999999523162842
v 8 4.3076925277709961 1.7999999523162842
v 8 4.769230842590332 1.7999999523162842
v 8 5.230769157409668 1.7999999523162842
v 8 5.6923074722290039 1.7999999523162842
v 8 7.07692289352417 1.7999999523162842
v 8 7.5384616851806641 1.7999999523162842
v 8 8 1.7999999523162842
v 8 2 1.3500000238418579
v 8 2.461538553237915 1.3500000238418579
v 8 2.923076868057251 1.3500000238418579
v 8 4.3076925277709961 1.3500000238418579
v 8 4.769230842590332 1.3500000238418579
v 8 5.230769157409668 1.3500000238418579
v 8 5.6923074722290039 1.3500000238418579
v 8 7.07692289352417 1.3500000238418579
v 8 7.5384616851806641 1.3500000238418579
v 8 8 1.3500000238418579
v 8 2 0.89999997615814209
v 8 2.461538553237915 0.89999997615814209
v 8 2.923076868057251 0.89999997615814209
v 8 3.384615421295166 0.89999997615814209
v 8 3.846153736114502 0.89999997615814209
v 8 4.3076925277709961 0.89999997615814209
v 8 4.769230842590332 0.89999997615814209
v 8 5.230769157409668 0.89999997615814209
v 8 5.6923074722290039 0.89999997615814209
v 8 6.153846263885498 0.89999997615814209
v 8 6.615384578704834 0.89999997615814209
v 8 7.07692289352417 0.89999997615814209
v 8 7.5384616851806641 0.89999997615814209
v 8 8 0.89999997615814209
v 8 2 0.44999998807907104
v 8 2.461538553237915 0.44999998807907104
v 8 2.923076868057251 0.44999998807907104
v 8 3.384615421295166 0.44999998807907104
v 8 3.846153736114502 0.44999998807907104
v 8 4.3076925277709961 0.44999998807907104
v 8 4.769230842590332 0.44999998807907104
v 8 5.230769157409668 0.44999998807907104
v 8 5.6923074722290039 0.44999998807907104
v 8 6.153846263885498 0.44999998807907104
v 8 6.615384578704834 0.44999998807907104
v 8 7.07692289352417 0.44999998807907104
v 8 7.5384616851806641 0.44999998807907104
v 8 8 0.44999998807907104
v 8 2 0
v 8 2.461538553237915 0
v 8 2.923076868057251 0
v 8 3.384615421295166 0
v 8 3.846153736114502 0
v 8 4.3076925277709961 0
v 8 4.769230842590332 0
v 8 5.230769157409668 0
v 8 5.6923074722290039 0
v 8 6.153846263885498 0
v 8 6.615384578704834 0
v 8 7.07692289352417 0
v 8 7.5384616851806641 0
v 8 8 0
v 8 3.2025115489959717 2.3955976963043213
v 8 3.4812760353088379 2.3955976963043213
v 8 3.760040283203125 2.3955976963043213
v 8 4.0388045310974121 2.3955976963043213
v 8 4.0388045310974121 2.0644943714141846
v 8 4.0388045310974121 1.7333909273147583
v 8 4.0388045310974121 1.402287483215332
v 8 4.0388045310974121 1.0711841583251953
v 8 3.760040283203125 1.0711841583251953
v 8 3.4812760353088379 1.0711841583251953
v 8 3.2025115489959717 1.0711841583251953
v 8 3.2025115489959717 1.402287483215332
v 8 3.2025115489959717 1.7333909273147583
v 8 3.2025115489959717 2.0644943714141846
v 8 6.7974882125854492 2.3955976963043213
v 8 6.7974882125854492 2.0644943714141846
v 8 6.7974882125854492 1.7333909273147583
v 8 6.7974882125854492 1.402287483215332
v 8 6.7974882125854492 1.0711841583251953
v 8 6.5187239646911621 1.0711841583251953
v 8 6.239959716796875 1.0711841583251953
v 8 5.9611954689025879 1.0711841583251953
v 8 5.9611954689025879 1.402287483215332
v 8 5.9611954689025879 1.7333909273147583
v 8 5.9611954689025879 2.0644943714141846
v 8 5.9611954689025879 2.3955976963043213
v 8 6.239959716796875 2.3955976963043213
v 8 6.5187239646911621 2.3955976963043213
f 242 228 227 241
f 243 229 228 242
f 244 230 229 243
f 245 231 230 244
f 246 232 231 245
f 247 233 232 246
f 248 234 233 247
f 249 235 234 248
f 250 236 235 249
f 251 237 236 250
f 252 238 237 251
f 253 239 238 252
f 254 240 239 253
f 256 242 241 255
f 257 243 242 256
f 258 244 243 257
f 259 245 244 258
f 260 246 245 259
f 261 247 246 260
f 262 248 247 261
f 263 249 248 262
f 264 250 249 263
f 265 251 250 264
f 266 252 251 265
f 267 253 252 266
f 268 254 253 267
f 270 256 255 269
f 271 257 256 270
f 273 261 260 272
f 274 262 261 273
f 275 263 262 274
f 277 267 266 276
f 278 268 267 277
f 280 270 269 279
f 281 271 270 280
f 283 273 272 282
f 284 274 273 283
f 285 275 274 284
f 287 277 276 286
f 288 278 277 287
f 290 280 279 289
f 291 281 280 290
f 293 283 282 292
f 294 284 283 293
f 295 285 284 294
f 297 287 286 296
f 298 288 287 297
f 300 290 289 299
f 301 291 290 300
f 305 293 292 304
f 306 294 293 305
f 307 295 294 306
f 311 297 296 310
f 312 298 297 311
f 314 300 299 313
f 315 301 300 314
f 316 302 301 315
f 317 303 302 316
f 318 304 303 317
f 319 305 304 318
f 320 306 305 319
f 321 307 306 320
f 322 308 307 321
f 323 309 308 322
f 324 310 309 323
f 325 311 310 324
f 326 312 311 325
f 328 314 313 327
f 329 315 314 328
f 330 316 315 329
f 331 317 316 330
f 332 318 317 331
f 333 319 318 332
f 334 320 319 333
f 335 321 320 334
f 336 322 321 335
f 337 323 322 336
f 338 324 323 337
f 339 325 324 338
f 340 326 325 339
f 258 257 341
f 271 341 257
f 342 258 341
f 259 344 260
f 342 343 259 258
f 343 344 259
f 271 281 353 354
f 260 344 272
f 345 272 344
f 282 272 345 346
f 271 354 341
f 264 263 366
f 275 366 263
f 367 264 366
f 265 355 266
f 265 264 367 368
f 368 355 265
f 275 285 364 365
f 266 355 276
f 356 276 355
f 286 276 356 357
f 275 365 366
f 352 353 281 291
f 351 352 291
f 346 347 292 282
f 292 347 348
f 351 291 301
f 350 351 302
f 301 302 351
f 302 303 349 350
f 303 348 349
f 348 303 304
f 292 348 304
f 363 364 285 295
f 362 363 295
f 357 358 296 286
f 296 358 359
f 362 295 307
f 361 362 308
f 307 308 362
f 360 361 308 309
f 309 359 360
f 359 309 310
f 296 359 310
v 5 2 7.1999998092651367
v 5 8 7.1999998092651367
v 7.9913902282714844 2 3.6103317737579346
v 7.9913902282714844 8 3.6103317737579346
f 372 370 369 371
o house_foo_step_3_appliques
v 8.0989542007446289 6.7974882125854492 2.6983802318573
v 8.0989542007446289 5.9611954689025879 2.6983802318573
v 8.0989542007446289 6.7974882125854492 2.3955976963043213
v 8.0989542007446289 5.9611954689025879 2.3955976963043213
f 376 375 373 374
v 8.0989542007446289 4.0388045310974121 2.6983802318573
v 8.0989542007446289 3.2025115489959717 2.6983802318573
v 8.0989542007446289 4.0388045310974121 2.3955976963043213
v 8.0989542007446289 3.2025115489959717 2.3955976963043213
f 380 379 377 378
v 8.0989542007446289 8 0
v 8.0989542007446289 5 0
v 8.0989542007446289 2 0
v 8.0989542007446289 8 0.69056975841522217
v 8.0989542007446289 5 0.69056975841522217
v 8.0989542007446289 2 0.69056975841522217
f 385 382 381 384
f 386 383 382 385
v 1.901045560836792 6.7974882125854492 2.6983802318573
v 1.901045560836792 5.9611954689025879 2.6983802318573
v 1.901045560836792 6.7974882125854492 2.3955976963043213
v 1.901045560836792 5.9611954689025879 2.3955976963043213
f 390 388 387 389
v 1.901045560836792 4.0388045310974121 2.6983802318573
v 1.901045560836792 3.2025115489959717 2.6983802318573
v 1.901045560836792 4.0388045310974121 2.3955976963043213
v 1.901045560836792 3.2025115489959717 2.3955976963043213
f 394 392 391 393
v 1.901045560836792 8 0
v 1.901045560836792 5 0
v 1.901045560836792 2 0
v 1.901045560836792 8 0.69056975841522217
v 1.901045560836792 5 0.69056975841522217
v 1.901045560836792 2 0.69056975841522217
f 399 398 395 396
f 400 399 396 397
v 8.1979093551635742 8 -2.2204460492503131E-15
v 8.1979093551635742 6.5 -1.5543122344752192E-15
v 8.1979093551635742 5 -8.8817841970012523E-16
v 8.1979093551635742 3.5 -2.2204460492503131E-16
v 8.1979093551635742 2 4.4408920985006262E-16
v 8.1979093551635742 8 0.31880083680152893
v 8.1979093551635742 6.5 0.31880083680152893
v 8.1979093551635742 5 0.31880083680152893
v 8.1979093551635742 3.5 0.31880083680152893
v 8.1979093551635742 2 0.31880083680152893
f 407 402 401 406
f 408 403 402 407
f 409 404 403 408
f 410 405 404 409
v 1.8020910024642944 8 -2.2204460492503131E-15
v 1.8020910024642944 6.5 -1.5543122344752192E-15
v 1.8020910024642944 5 -8.8817841970012523E-16
v 1.8020910024642944 3.5 -2.2204460492503131E-16
v 1.8020910024642944 2 4.4408920985006262E-16
v 1.8020910024642944 8 0.31880083680152893
v 1.8020910024642944 6.5 0.31880083680152893
v 1.8020910024642944 5 0.31880083680152893
v 1.8020910024642944 3.5 0.31880083680152893
v 1.8020910024642944 2 0.31880083680152893
f 417 416 411 412
f 418 417 412 413
f 419 418 413 414
f 420 419 414 415
