# FlatmatesRh OBJ export
# @craft: house_foo
# @cell: step_4
o house_foo_step_4_parts
v 5 8.31424331665039 7.254061222076416
v 5 1.6857562065124512 7.254061222076416
v 4.5222711563110352 8.31424331665039 6.6807866096496582
v 4.5222711563110352 7.3673171997070313 6.6807866096496582
v 4.5222711563110352 6.4203901290893555 6.6807866096496582
v 4.5222711563110352 5.4734635353088379 6.6807866096496582
v 4.5222711563110352 4.5265364646911621 6.6807866096496582
v 4.5222711563110352 3.5796098709106445 6.6807866096496582
v 4.5222711563110352 2.6326830387115479 6.6807866096496582
v 4.5222711563110352 1.6857562065124512 6.6807866096496582
v 4.04454231262207 8.31424331665039 6.1075119972229
v 4.04454231262207 7.3673171997070313 6.1075119972229
v 4.04454231262207 6.4203901290893555 6.1075119972229
v 4.04454231262207 5.4734635353088379 6.1075119972229
v 4.04454231262207 4.5265364646911621 6.1075119972229
v 4.04454231262207 3.5796098709106445 6.1075119972229
v 4.04454231262207 2.6326830387115479 6.1075119972229
v 4.04454231262207 1.6857562065124512 6.1075119972229
v 3.5668134689331055 8.31424331665039 5.5342373847961426
v 3.5668134689331055 7.3673171997070313 5.5342373847961426
v 3.5668134689331055 6.4203901290893555 5.5342373847961426
v 3.5668134689331055 3.5796098709106445 5.5342373847961426
v 3.5668134689331055 2.6326830387115479 5.5342373847961426
v 3.5668134689331055 1.6857562065124512 5.5342373847961426
v 3.0890848636627197 8.31424331665039 4.960963249206543
v 3.0890848636627197 7.3673171997070313 4.960963249206543
v 3.0890848636627197 6.4203901290893555 4.960963249206543
v 3.0890848636627197 3.5796098709106445 4.960963249206543
v 3.0890848636627197 2.6326830387115479 4.960963249206543
v 3.0890848636627197 1.6857562065124512 4.960963249206543
v 2.6113560199737549 8.31424331665039 4.3876886367797852
v 2.6113560199737549 7.3673171997070313 4.3876886367797852
v 2.6113560199737549 6.4203901290893555 4.3876886367797852
v 2.6113560199737549 5.4734635353088379 4.3876886367797852
v 2.6113560199737549 4.5265364646911621 4.3876886367797852
v 2.6113560199737549 3.5796098709106445 4.3876886367797852
v 2.6113560199737549 2.6326830387115479 4.3876886367797852
v 2.6113560199737549 1.6857562065124512 4.3876886367797852
v 2.13362717628479 8.31424331665039 3.8144137859344482
v 2.13362717628479 7.3673171997070313 3.8144137859344482
v 2.13362717628479 6.4203901290893555 3.8144137859344482
v 2.13362717628479 5.4734635353088379 3.8144137859344482
v 2.13362717628479 4.5265364646911621 3.8144137859344482
v 2.13362717628479 3.5796098709106445 3.8144137859344482
v 2.13362717628479 2.6326830387115479 3.8144137859344482
v 2.13362717628479 1.6857562065124512 3.8144137859344482
v 1.6558983325958252 8.31424331665039 3.2411394119262695
v 1.6558983325958252 7.3673171997070313 3.2411394119262695
v 1.6558983325958252 6.4203901290893555 3.2411394119262695
v 1.6558983325958252 5.4734635353088379 3.2411394119262695
v 1.6558983325958252 4.5265364646911621 3.2411394119262695
v 1.6558983325958252 3.5796098709106445 3.2411394119262695
v 1.6558983325958252 2.6326830387115479 3.2411394119262695
v 1.6558983325958252 1.6857562065124512 3.2411394119262695
v 5 2.3486049175262451 7.254061222076416
v 5 3.0114538669586182 7.254061222076416
v 5 3.6743025779724121 7.254061222076416
v 5 4.337151050567627 7.254061222076416
v 5 5 7.254061222076416
v 5 5.662848949432373 7.254061222076416
v 5 6.3256974220275879 7.254061222076416
v 5 6.9885463714599609 7.254061222076416
v 5 7.6513948440551758 7.254061222076416
v 3.6652185916900635 4.4742536544799805 5.6523237228393555
v 3.2948496341705322 4.4742536544799805 5.207880973815918
v 2.9244804382324219 4.4742536544799805 4.7634377479553223
v 3.6652185916900635 5.5257463455200195 5.6523237228393555
v 3.6652185916900635 5 5.6523237228393555
v 2.9244804382324219 5.5257463455200195 4.7634377479553223
v 3.2948496341705322 5.5257463455200195 5.207880973815918
v 2.9244804382324219 5 4.7634377479553223
f 12 4 3 11
f 13 5 4 12
f 14 6 5 13
f 15 7 6 14
f 16 8 7 15
f 17 9 8 16
f 18 10 9 17
f 20 12 11 19
f 21 13 12 20
f 23 17 16 22
f 24 18 17 23
f 26 20 19 25
f 27 21 20 26
f 29 23 22 28
f 30 24 23 29
f 32 26 25 31
f 33 27 26 32
f 37 29 28 36
f 38 30 29 37
f 40 32 31 39
f 41 33 32 40
f 42 34 33 41
f 43 35 34 42
f 44 36 35 43
f 45 37 36 44
f 46 38 37 45
f 48 40 39 47
f 49 41 40 48
f 50 42 41 49
f 51 43 42 50
f 52 44 43 51
f 53 45 44 52
f 54 46 45 53
f 63 1 3 4
f 5 61 62
f 62 63 4
f 4 5 62
f 5 6 60 61
f 59 60 6
f 7 58 59
f 8 56 57
f 9 55 56
f 57 58 7 8
f 8 9 56
f 2 55 9 10
f 7 59 6
f 67 13 21
f 14 67 68
f 13 67 14
f 21 70 67
f 70 21 27
f 69 27 33
f 71 69 34
f 33 34 69
f 35 71 34
f 27 69 70
f 64 15 68
f 14 68 15
f 22 16 64
f 15 64 16
f 64 65 22
f 36 66 35
f 65 66 28
f 36 28 66
f 22 65 28
f 66 71 35
v 5 8.31424331665039 7.254061222076416
v 5 1.6857562065124512 7.254061222076416
v 8.3441019058227539 8.31424331665039 3.2411394119262695
v 8.3441019058227539 1.6857562065124512 3.2411394119262695
v 5 2.3486049175262451 7.254061222076416
v 5 3.0114538669586182 7.254061222076416
v 5 3.6743025779724121 7.254061222076416
v 5 4.337151050567627 7.254061222076416
v 5 5 7.254061222076416
v 5 5.662848949432373 7.254061222076416
v 5 6.3256974220275879 7.254061222076416
v 5 6.9885463714599609 7.254061222076416
v 5 7.6513948440551758 7.254061222076416
v 8.3441019058227539 5 3.2411394119262695
v 6.672050952911377 1.6857562065124512 5.2476000785827637
v 6.672050952911377 8.31424331665039 5.2476000785827637
v 6.672050952911377 5 5.2476000785827637
v 6.672050952911377 3.3428781032562256 5.2476000785827637
v 5.8360252380371094 1.6857562065124512 6.25083065032959
v 5.8360252380371094 5 6.25083065032959
v 5.8360252380371094 3.3428781032562256 6.25083065032959
v 6.672050952911377 6.6571216583251953 5.2476000785827637
v 5.8360252380371094 8.31424331665039 6.25083065032959
v 5.8360252380371094 6.6571216583251953 6.25083065032959
f 89 85 88
f 75 89 86
f 85 89 75
f 86 89 92 90
f 89 88 91 92
f 88 93 95 91
f 93 87 94 95
f 93 74 87
f 85 93 88
f 74 93 85
f 94 72 84
f 95 83 82
f 83 95 84
f 91 81 80
f 92 79 78
f 79 91 80
f 81 95 82
f 95 81 91
f 78 77 92
f 91 79 92
f 76 92 77
f 76 73 90
f 76 90 92
f 94 84 95
o house_foo_step_4_appliques
v 2.0098927021026611 2.1981301307678223 3.744035005569458
v 2.0098927021026611 1.7257562875747681 3.744035005569458
v 1.6430946588516235 2.1981301307678223 3.3038773536682129
v 1.6430946588516235 1.7257562875747681 3.3038773536682129
f 99 97 96 98
v 2.4279053211212158 2.1981301307678223 4.2456502914428711
v 2.4279053211212158 1.7257562875747681 4.2456502914428711
v 2.0611073970794678 2.1981301307678223 3.805492639541626
v 2.0611073970794678 1.7257562875747681 3.805492639541626
f 103 101 100 102
v 2.8459179401397705 2.1981301307678223 4.7472653388977051
v 2.8459179401397705 1.7257562875747681 4.7472653388977051
v 2.6625189781188965 2.1981301307678223 4.5271868705749512
v 2.6625189781188965 1.7257562875747681 4.5271868705749512
v 2.4791200160980225 2.1981301307678223 4.3071079254150391
v 2.4791200160980225 1.7257562875747681 4.3071079254150391
f 107 105 104 106
f 109 107 106 108
v 3.2639307975769043 2.1981301307678223 5.2488808631896973
v 3.2639307975769043 1.7257562875747681 5.2488808631896973
v 2.8971328735351563 2.1981301307678223 4.808722972869873
v 2.8971328735351563 1.7257562875747681 4.808722972869873
f 113 111 110 112
v 3.681943416595459 2.1981301307678223 5.7504959106445313
v 3.681943416595459 1.7257562875747681 5.7504959106445313
v 3.498544454574585 2.1981301307678223 5.5304169654846191
v 3.498544454574585 1.7257562875747681 5.5304169654846191
v 3.3151454925537109 2.1981301307678223 5.3103384971618652
v 3.3151454925537109 1.7257562875747681 5.3103384971618652
f 117 115 114 116
f 119 117 116 118
v 4.0999560356140137 2.1981301307678223 6.2521109580993652
v 4.0999560356140137 1.7257562875747681 6.2521109580993652
v 3.7331581115722656 2.1981301307678223 5.8119535446166992
v 3.7331581115722656 1.7257562875747681 5.8119535446166992
f 123 121 120 122
v 4.5179686546325684 2.1981301307678223 6.7537264823913574
v 4.5179686546325684 1.7257562875747681 6.7537264823913574
v 4.15117073059082 2.1981301307678223 6.3135690689086914
v 4.15117073059082 1.7257562875747681 6.3135690689086914
f 127 125 124 126
v 4.9359817504882813 2.1981301307678223 7.2553415298461914
v 4.9359817504882813 1.7257562875747681 7.2553415298461914
v 4.7525825500488281 2.1981301307678223 7.0352630615234375
v 4.7525825500488281 1.7257562875747681 7.0352630615234375
v 4.5691838264465332 2.1981301307678223 6.8151841163635254
v 4.5691838264465332 1.7257562875747681 6.8151841163635254
f 131 129 128 130
f 133 131 130 132
v 2.0098927021026611 2.7505042552948 3.744035005569458
v 2.0098927021026611 2.2781302928924561 3.744035005569458
v 1.6430946588516235 2.7505042552948 3.3038773536682129
v 1.6430946588516235 2.2781302928924561 3.3038773536682129
f 137 135 134 136
v 2.4279053211212158 2.7505042552948 4.2456502914428711
v 2.4279053211212158 2.2781302928924561 4.2456502914428711
v 2.0611073970794678 2.7505042552948 3.805492639541626
v 2.0611073970794678 2.2781302928924561 3.805492639541626
f 141 139 138 140
v 2.8459179401397705 2.7505042552948 4.7472653388977051
v 2.8459179401397705 2.2781302928924561 4.7472653388977051
v 2.6625189781188965 2.7505042552948 4.5271868705749512
v 2.6625189781188965 2.2781302928924561 4.5271868705749512
v 2.4791200160980225 2.7505042552948 4.3071079254150391
v 2.4791200160980225 2.2781302928924561 4.3071079254150391
f 145 143 142 144
f 147 145 144 146
v 3.2639307975769043 2.7505042552948 5.2488808631896973
v 3.2639307975769043 2.2781302928924561 5.2488808631896973
v 2.8971328735351563 2.7505042552948 4.808722972869873
v 2.8971328735351563 2.2781302928924561 4.808722972869873
f 151 149 148 150
v 3.681943416595459 2.7505042552948 5.7504959106445313
v 3.681943416595459 2.2781302928924561 5.7504959106445313
v 3.3151454925537109 2.7505042552948 5.3103384971618652
v 3.3151454925537109 2.2781302928924561 5.3103384971618652
f 155 153 152 154
v 4.0999560356140137 2.7505042552948 6.2521109580993652
v 4.0999560356140137 2.2781302928924561 6.2521109580993652
v 3.9165570735931396 2.7505042552948 6.0320324897766113
v 3.9165570735931396 2.2781302928924561 6.0320324897766113
v 3.7331581115722656 2.7505042552948 5.8119535446166992
v 3.7331581115722656 2.2781302928924561 5.8119535446166992
f 159 157 156 158
f 161 159 158 160
v 4.5179686546325684 2.7505042552948 6.7537264823913574
v 4.5179686546325684 2.2781302928924561 6.7537264823913574
v 4.15117073059082 2.7505042552948 6.3135690689086914
v 4.15117073059082 2.2781302928924561 6.3135690689086914
f 165 163 162 164
v 4.9359817504882813 2.7505042552948 7.2553415298461914
v 4.9359817504882813 2.2781302928924561 7.2553415298461914
v 4.5691838264465332 2.7505042552948 6.8151841163635254
v 4.5691838264465332 2.2781302928924561 6.8151841163635254
f 169 167 166 168
v 2.0098927021026611 3.3028781414031982 3.744035005569458
v 2.0098927021026611 2.8305041790008545 3.744035005569458
v 1.6430946588516235 3.3028781414031982 3.3038773536682129
v 1.6430946588516235 2.8305041790008545 3.3038773536682129
f 173 171 170 172
v 2.4279053211212158 3.3028781414031982 4.2456502914428711
v 2.4279053211212158 2.8305041790008545 4.2456502914428711
v 2.0611073970794678 3.3028781414031982 3.805492639541626
v 2.0611073970794678 2.8305041790008545 3.805492639541626
f 177 175 174 176
v 2.8459179401397705 3.3028781414031982 4.7472653388977051
v 2.8459179401397705 2.8305041790008545 4.7472653388977051
v 2.6625189781188965 3.3028781414031982 4.5271868705749512
v 2.6625189781188965 2.8305041790008545 4.5271868705749512
v 2.4791200160980225 3.3028781414031982 4.3071079254150391
v 2.4791200160980225 2.8305041790008545 4.3071079254150391
f 181 179 178 180
f 183 181 180 182
v 3.2639307975769043 3.3028781414031982 5.2488808631896973
v 3.2639307975769043 2.8305041790008545 5.2488808631896973
v 2.8971328735351563 3.3028781414031982 4.808722972869873
v 2.8971328735351563 2.8305041790008545 4.808722972869873
f 187 185 184 186
v 3.681943416595459 3.3028781414031982 5.7504959106445313
v 3.681943416595459 2.8305041790008545 5.7504959106445313
v 3.3151454925537109 3.3028781414031982 5.3103384971618652
v 3.3151454925537109 2.8305041790008545 5.3103384971618652
f 191 189 188 190
v 4.0999560356140137 3.3028781414031982 6.2521109580993652
v 4.0999560356140137 2.8305041790008545 6.2521109580993652
v 3.7331581115722656 3.3028781414031982 5.8119535446166992
v 3.7331581115722656 2.8305041790008545 5.8119535446166992
f 195 193 192 194
v 4.5179686546325684 3.3028781414031982 6.7537264823913574
v 4.5179686546325684 2.8305041790008545 6.7537264823913574
v 4.15117073059082 3.3028781414031982 6.3135690689086914
v 4.15117073059082 2.8305041790008545 6.3135690689086914
f 199 197 196 198
v 4.9359817504882813 3.3028781414031982 7.2553415298461914
v 4.9359817504882813 2.8305041790008545 7.2553415298461914
v 4.5691838264465332 3.3028781414031982 6.8151841163635254
v 4.5691838264465332 2.8305041790008545 6.8151841163635254
f 203 201 200 202
v 2.0098927021026611 3.8552520275115967 3.744035005569458
v 2.0098927021026611 3.3828780651092529 3.744035005569458
v 1.6430946588516235 3.8552520275115967 3.3038773536682129
v 1.6430946588516235 3.3828780651092529 3.3038773536682129
f 207 205 204 206
v 2.4279053211212158 3.8552520275115967 4.2456502914428711
v 2.4279053211212158 3.3828780651092529 4.2456502914428711
v 2.0611073970794678 3.8552520275115967 3.805492639541626
v 2.0611073970794678 3.3828780651092529 3.805492639541626
f 211 209 208 210
v 2.8459179401397705 3.8552520275115967 4.7472653388977051
v 2.8459179401397705 3.3828780651092529 4.7472653388977051
v 2.6625189781188965 3.8552520275115967 4.5271868705749512
v 2.6625189781188965 3.3828780651092529 4.5271868705749512
v 2.4791200160980225 3.8552520275115967 4.3071079254150391
v 2.4791200160980225 3.3828780651092529 4.3071079254150391
f 215 213 212 214
f 217 215 214 216
v 3.2639307975769043 3.8552520275115967 5.2488808631896973
v 3.2639307975769043 3.3828780651092529 5.2488808631896973
v 2.8971328735351563 3.8552520275115967 4.808722972869873
v 2.8971328735351563 3.3828780651092529 4.808722972869873
f 221 219 218 220
v 3.681943416595459 3.8552520275115967 5.7504959106445313
v 3.681943416595459 3.3828780651092529 5.7504959106445313
v 3.498544454574585 3.8552520275115967 5.5304169654846191
v 3.498544454574585 3.3828780651092529 5.5304169654846191
v 3.3151454925537109 3.8552520275115967 5.3103384971618652
v 3.3151454925537109 3.3828780651092529 5.3103384971618652
f 225 223 222 224
f 227 225 224 226
v 4.0999560356140137 3.8552520275115967 6.2521109580993652
v 4.0999560356140137 3.3828780651092529 6.2521109580993652
v 3.7331581115722656 3.8552520275115967 5.8119535446166992
v 3.7331581115722656 3.3828780651092529 5.8119535446166992
f 231 229 228 230
v 4.5179686546325684 3.8552520275115967 6.7537264823913574
v 4.5179686546325684 3.3828780651092529 6.7537264823913574
v 4.15117073059082 3.8552520275115967 6.3135690689086914
v 4.15117073059082 3.3828780651092529 6.3135690689086914
f 235 233 232 234
v 4.9359817504882813 3.8552520275115967 7.2553415298461914
v 4.9359817504882813 3.3828780651092529 7.2553415298461914
v 4.5691838264465332 3.8552520275115967 6.8151841163635254
v 4.5691838264465332 3.3828780651092529 6.8151841163635254
f 239 237 236 238
v 2.0098927021026611 4.4076261520385742 3.744035005569458
v 2.0098927021026611 3.9352521896362305 3.744035005569458
v 1.6430946588516235 4.4076261520385742 3.3038773536682129
v 1.6430946588516235 3.9352521896362305 3.3038773536682129
f 243 241 240 242
v 2.4279053211212158 4.4076261520385742 4.2456502914428711
v 2.4279053211212158 3.9352521896362305 4.2456502914428711
v 2.0611073970794678 4.4076261520385742 3.805492639541626
v 2.0611073970794678 3.9352521896362305 3.805492639541626
f 247 245 244 246
v 2.8459179401397705 4.4076261520385742 4.7472653388977051
v 2.8459179401397705 3.9352521896362305 4.7472653388977051
v 2.6625189781188965 4.4076261520385742 4.5271868705749512
v 2.6625189781188965 3.9352521896362305 4.5271868705749512
v 2.4791200160980225 4.4076261520385742 4.3071079254150391
v 2.4791200160980225 3.9352521896362305 4.3071079254150391
f 251 249 248 250
f 253 251 250 252
v 3.2639307975769043 4.4076261520385742 5.2488808631896973
v 3.2639307975769043 3.9352521896362305 5.2488808631896973
v 2.8971328735351563 4.4076261520385742 4.808722972869873
v 2.8971328735351563 3.9352521896362305 4.808722972869873
f 257 255 254 256
v 3.681943416595459 4.4076261520385742 5.7504959106445313
v 3.681943416595459 3.9352521896362305 5.7504959106445313
v 3.3151454925537109 4.4076261520385742 5.3103384971618652
v 3.3151454925537109 3.9352521896362305 5.3103384971618652
f 261 259 258 260
v 4.0999560356140137 4.4076261520385742 6.2521109580993652
v 4.0999560356140137 3.9352521896362305 6.2521109580993652
v 3.7331581115722656 4.4076261520385742 5.8119535446166992
v 3.7331581115722656 3.9352521896362305 5.8119535446166992
f 265 263 262 264
v 4.5179686546325684 4.4076261520385742 6.7537264823913574
v 4.5179686546325684 3.9352521896362305 6.7537264823913574
v 4.15117073059082 4.4076261520385742 6.3135690689086914
v 4.15117073059082 3.9352521896362305 6.3135690689086914
f 269 267 266 268
v 4.9359817504882813 4.4076261520385742 7.2553415298461914
v 4.9359817504882813 3.9352521896362305 7.2553415298461914
v 4.5691838264465332 4.4076261520385742 6.8151841163635254
v 4.5691838264465332 3.9352521896362305 6.8151841163635254
f 273 271 270 272
v 2.0098927021026611 4.9600000381469727 3.744035005569458
v 2.0098927021026611 4.4876260757446289 3.744035005569458
v 1.6430946588516235 4.9600000381469727 3.3038773536682129
v 1.6430946588516235 4.4876260757446289 3.3038773536682129
f 277 275 274 276
v 2.4279053211212158 4.9600000381469727 4.2456502914428711
v 2.4279053211212158 4.4876260757446289 4.2456502914428711
v 2.0611073970794678 4.9600000381469727 3.805492639541626
v 2.0611073970794678 4.4876260757446289 3.805492639541626
f 281 279 278 280
v 2.8459179401397705 4.9600000381469727 4.7472653388977051
v 2.8459179401397705 4.4876260757446289 4.7472653388977051
v 2.6625189781188965 4.9600000381469727 4.5271868705749512
v 2.6625189781188965 4.4876260757446289 4.5271868705749512
v 2.4791200160980225 4.9600000381469727 4.3071079254150391
v 2.4791200160980225 4.4876260757446289 4.3071079254150391
f 285 283 282 284
f 287 285 284 286
v 4.0999560356140137 4.9600000381469727 6.2521109580993652
v 4.0999560356140137 4.4876260757446289 6.2521109580993652
v 3.7331581115722656 4.9600000381469727 5.8119535446166992
v 3.7331581115722656 4.4876260757446289 5.8119535446166992
f 291 289 288 290
v 4.5179686546325684 4.9600000381469727 6.7537264823913574
v 4.5179686546325684 4.4876260757446289 6.7537264823913574
v 4.15117073059082 4.9600000381469727 6.3135690689086914
v 4.15117073059082 4.4876260757446289 6.3135690689086914
f 295 293 292 294
v 4.9359817504882813 4.9600000381469727 7.2553415298461914
v 4.9359817504882813 4.4876260757446289 7.2553415298461914
v 4.5691838264465332 4.9600000381469727 6.8151841163635254
v 4.5691838264465332 4.4876260757446289 6.8151841163635254
f 299 297 296 298
v 2.0098927021026611 5.5123739242553711 3.744035005569458
v 2.0098927021026611 5.0399999618530273 3.744035005569458
v 1.6430946588516235 5.5123739242553711 3.3038773536682129
v 1.6430946588516235 5.0399999618530273 3.3038773536682129
f 303 301 300 302
v 2.4279053211212158 5.5123739242553711 4.2456502914428711
v 2.4279053211212158 5.0399999618530273 4.2456502914428711
v 2.0611073970794678 5.5123739242553711 3.805492639541626
v 2.0611073970794678 5.0399999618530273 3.805492639541626
f 307 305 304 306
v 2.8459179401397705 5.5123739242553711 4.7472653388977051
v 2.8459179401397705 5.0399999618530273 4.7472653388977051
v 2.4791200160980225 5.5123739242553711 4.3071079254150391
v 2.4791200160980225 5.0399999618530273 4.3071079254150391
f 311 309 308 310
v 4.0999560356140137 5.5123739242553711 6.2521109580993652
v 4.0999560356140137 5.0399999618530273 6.2521109580993652
v 3.9165570735931396 5.5123739242553711 6.0320324897766113
v 3.9165570735931396 5.0399999618530273 6.0320324897766113
v 3.7331581115722656 5.5123739242553711 5.8119535446166992
v 3.7331581115722656 5.0399999618530273 5.8119535446166992
f 315 313 312 314
f 317 315 314 316
v 4.5179686546325684 5.5123739242553711 6.7537264823913574
v 4.5179686546325684 5.0399999618530273 6.7537264823913574
v 4.15117073059082 5.5123739242553711 6.3135690689086914
v 4.15117073059082 5.0399999618530273 6.3135690689086914
f 321 319 318 320
v 4.9359817504882813 5.5123739242553711 7.2553415298461914
v 4.9359817504882813 5.0399999618530273 7.2553415298461914
v 4.7525825500488281 5.5123739242553711 7.0352630615234375
v 4.7525825500488281 5.0399999618530273 7.0352630615234375
v 4.5691838264465332 5.5123739242553711 6.8151841163635254
v 4.5691838264465332 5.0399999618530273 6.8151841163635254
f 325 323 322 324
f 327 325 324 326
v 2.0098927021026611 6.0647478103637695 3.744035005569458
v 2.0098927021026611 5.5923738479614258 3.744035005569458
v 1.6430946588516235 6.0647478103637695 3.3038773536682129
v 1.6430946588516235 5.5923738479614258 3.3038773536682129
f 331 329 328 330
v 2.4279053211212158 6.0647478103637695 4.2456502914428711
v 2.4279053211212158 5.5923738479614258 4.2456502914428711
v 2.0611073970794678 6.0647478103637695 3.805492639541626
v 2.0611073970794678 5.5923738479614258 3.805492639541626
f 335 333 332 334
v 2.8459179401397705 6.0647478103637695 4.7472653388977051
v 2.8459179401397705 5.5923738479614258 4.7472653388977051
v 2.6625189781188965 6.0647478103637695 4.5271868705749512
v 2.6625189781188965 5.5923738479614258 4.5271868705749512
v 2.4791200160980225 6.0647478103637695 4.3071079254150391
v 2.4791200160980225 5.5923738479614258 4.3071079254150391
f 339 337 336 338
f 341 339 338 340
v 3.2639307975769043 6.0647478103637695 5.2488808631896973
v 3.2639307975769043 5.5923738479614258 5.2488808631896973
v 3.0805318355560303 6.0647478103637695 5.0288019180297852
v 3.0805318355560303 5.5923738479614258 5.0288019180297852
v 2.8971328735351563 6.0647478103637695 4.808722972869873
v 2.8971328735351563 5.5923738479614258 4.808722972869873
f 345 343 342 344
f 347 345 344 346
v 3.681943416595459 6.0647478103637695 5.7504959106445313
v 3.681943416595459 5.5923738479614258 5.7504959106445313
v 3.3151454925537109 6.0647478103637695 5.3103384971618652
v 3.3151454925537109 5.5923738479614258 5.3103384971618652
f 351 349 348 350
v 4.0999560356140137 6.0647478103637695 6.2521109580993652
v 4.0999560356140137 5.5923738479614258 6.2521109580993652
v 3.7331581115722656 6.0647478103637695 5.8119535446166992
v 3.7331581115722656 5.5923738479614258 5.8119535446166992
f 355 353 352 354
v 4.5179686546325684 6.0647478103637695 6.7537264823913574
v 4.5179686546325684 5.5923738479614258 6.7537264823913574
v 4.15117073059082 6.0647478103637695 6.3135690689086914
v 4.15117073059082 5.5923738479614258 6.3135690689086914
f 359 357 356 358
v 4.9359817504882813 6.0647478103637695 7.2553415298461914
v 4.9359817504882813 5.5923738479614258 7.2553415298461914
v 4.5691838264465332 6.0647478103637695 6.8151841163635254
v 4.5691838264465332 5.5923738479614258 6.8151841163635254
f 363 361 360 362
v 2.0098927021026611 6.617121696472168 3.744035005569458
v 2.0098927021026611 6.1447477340698242 3.744035005569458
v 1.6430946588516235 6.617121696472168 3.3038773536682129
v 1.6430946588516235 6.1447477340698242 3.3038773536682129
f 367 365 364 366
v 2.4279053211212158 6.617121696472168 4.2456502914428711
v 2.4279053211212158 6.1447477340698242 4.2456502914428711
v 2.0611073970794678 6.617121696472168 3.805492639541626
v 2.0611073970794678 6.1447477340698242 3.805492639541626
f 371 369 368 370
v 2.8459179401397705 6.617121696472168 4.7472653388977051
v 2.8459179401397705 6.1447477340698242 4.7472653388977051
v 2.6625189781188965 6.617121696472168 4.5271868705749512
v 2.6625189781188965 6.1447477340698242 4.5271868705749512
v 2.4791200160980225 6.617121696472168 4.3071079254150391
v 2.4791200160980225 6.1447477340698242 4.3071079254150391
f 375 373 372 374
f 377 375 374 376
v 3.2639307975769043 6.617121696472168 5.2488808631896973
v 3.2639307975769043 6.1447477340698242 5.2488808631896973
v 2.8971328735351563 6.617121696472168 4.808722972869873
v 2.8971328735351563 6.1447477340698242 4.808722972869873
f 381 379 378 380
v 3.681943416595459 6.617121696472168 5.7504959106445313
v 3.681943416595459 6.1447477340698242 5.7504959106445313
v 3.498544454574585 6.617121696472168 5.5304169654846191
v 3.498544454574585 6.1447477340698242 5.5304169654846191
v 3.3151454925537109 6.617121696472168 5.3103384971618652
v 3.3151454925537109 6.1447477340698242 5.3103384971618652
f 385 383 382 384
f 387 385 384 386
v 4.0999560356140137 6.617121696472168 6.2521109580993652
v 4.0999560356140137 6.1447477340698242 6.2521109580993652
v 3.7331581115722656 6.617121696472168 5.8119535446166992
v 3.7331581115722656 6.1447477340698242 5.8119535446166992
f 391 389 388 390
v 4.5179686546325684 6.617121696472168 6.7537264823913574
v 4.5179686546325684 6.1447477340698242 6.7537264823913574
v 4.15117073059082 6.617121696472168 6.3135690689086914
v 4.15117073059082 6.1447477340698242 6.3135690689086914
f 395 393 392 394
v 4.9359817504882813 6.617121696472168 7.2553415298461914
v 4.9359817504882813 6.1447477340698242 7.2553415298461914
v 4.5691838264465332 6.617121696472168 6.8151841163635254
v 4.5691838264465332 6.1447477340698242 6.8151841163635254
f 399 397 396 398
v 2.0098927021026611 7.1694960594177246 3.744035005569458
v 2.0098927021026611 6.6971220970153809 3.744035005569458
v 1.8264936208724976 7.1694960594177246 3.5239560604095459
v 1.8264936208724976 6.6971220970153809 3.5239560604095459
v 1.6430946588516235 7.1694960594177246 3.3038773536682129
v 1.6430946588516235 6.6971220970153809 3.3038773536682129
f 403 401 400 402
f 405 403 402 404
v 2.4279053211212158 7.1694960594177246 4.2456502914428711
v 2.4279053211212158 6.6971220970153809 4.2456502914428711
v 2.0611073970794678 7.1694960594177246 3.805492639541626
v 2.0611073970794678 6.6971220970153809 3.805492639541626
f 409 407 406 408
v 2.8459179401397705 7.1694960594177246 4.7472653388977051
v 2.8459179401397705 6.6971220970153809 4.7472653388977051
v 2.4791200160980225 7.1694960594177246 4.3071079254150391
v 2.4791200160980225 6.6971220970153809 4.3071079254150391
f 413 411 410 412
v 3.2639307975769043 7.1694960594177246 5.2488808631896973
v 3.2639307975769043 6.6971220970153809 5.2488808631896973
v 2.8971328735351563 7.1694960594177246 4.808722972869873
v 2.8971328735351563 6.6971220970153809 4.808722972869873
f 417 415 414 416
v 3.681943416595459 7.1694960594177246 5.7504959106445313
v 3.681943416595459 6.6971220970153809 5.7504959106445313
v 3.3151454925537109 7.1694960594177246 5.3103384971618652
v 3.3151454925537109 6.6971220970153809 5.3103384971618652
f 421 419 418 420
v 4.0999560356140137 7.1694960594177246 6.2521109580993652
v 4.0999560356140137 6.6971220970153809 6.2521109580993652
v 3.7331581115722656 7.1694960594177246 5.8119535446166992
v 3.7331581115722656 6.6971220970153809 5.8119535446166992
f 425 423 422 424
v 4.5179686546325684 7.1694960594177246 6.7537264823913574
v 4.5179686546325684 6.6971220970153809 6.7537264823913574
v 4.15117073059082 7.1694960594177246 6.3135690689086914
v 4.15117073059082 6.6971220970153809 6.3135690689086914
f 429 427 426 428
v 4.9359817504882813 7.1694960594177246 7.2553415298461914
v 4.9359817504882813 6.6971220970153809 7.2553415298461914
v 4.5691838264465332 7.1694960594177246 6.8151841163635254
v 4.5691838264465332 6.6971220970153809 6.8151841163635254
f 433 431 430 432
v 2.0098927021026611 7.721869945526123 3.744035005569458
v 2.0098927021026611 7.2494959831237793 3.744035005569458
v 1.6430946588516235 7.721869945526123 3.3038773536682129
v 1.6430946588516235 7.2494959831237793 3.3038773536682129
f 437 435 434 436
v 2.4279053211212158 7.721869945526123 4.2456502914428711
v 2.4279053211212158 7.2494959831237793 4.2456502914428711
v 2.0611073970794678 7.721869945526123 3.805492639541626
v 2.0611073970794678 7.2494959831237793 3.805492639541626
f 441 439 438 440
v 2.8459179401397705 7.721869945526123 4.7472653388977051
v 2.8459179401397705 7.2494959831237793 4.7472653388977051
v 2.4791200160980225 7.721869945526123 4.3071079254150391
v 2.4791200160980225 7.2494959831237793 4.3071079254150391
f 445 443 442 444
v 3.2639307975769043 7.721869945526123 5.2488808631896973
v 3.2639307975769043 7.2494959831237793 5.2488808631896973
v 2.8971328735351563 7.721869945526123 4.808722972869873
v 2.8971328735351563 7.2494959831237793 4.808722972869873
f 449 447 446 448
v 3.681943416595459 7.721869945526123 5.7504959106445313
v 3.681943416595459 7.2494959831237793 5.7504959106445313
v 3.498544454574585 7.721869945526123 5.5304169654846191
v 3.498544454574585 7.2494959831237793 5.5304169654846191
v 3.3151454925537109 7.721869945526123 5.3103384971618652
v 3.3151454925537109 7.2494959831237793 5.3103384971618652
f 453 451 450 452
f 455 453 452 454
v 4.0999560356140137 7.721869945526123 6.2521109580993652
v 4.0999560356140137 7.2494959831237793 6.2521109580993652
v 3.9165570735931396 7.721869945526123 6.0320324897766113
v 3.9165570735931396 7.2494959831237793 6.0320324897766113
v 3.7331581115722656 7.721869945526123 5.8119535446166992
v 3.7331581115722656 7.2494959831237793 5.8119535446166992
f 459 457 456 458
f 461 459 458 460
v 4.5179686546325684 7.721869945526123 6.7537264823913574
v 4.5179686546325684 7.2494959831237793 6.7537264823913574
v 4.15117073059082 7.721869945526123 6.3135690689086914
v 4.15117073059082 7.2494959831237793 6.3135690689086914
f 465 463 462 464
v 4.9359817504882813 7.721869945526123 7.2553415298461914
v 4.9359817504882813 7.2494959831237793 7.2553415298461914
v 4.5691838264465332 7.721869945526123 6.8151841163635254
v 4.5691838264465332 7.2494959831237793 6.8151841163635254
f 469 467 466 468
v 2.0098927021026611 8.2742433547973633 3.744035005569458
v 2.0098927021026611 7.8018698692321777 3.744035005569458
v 1.6430946588516235 8.2742433547973633 3.3038773536682129
v 1.6430946588516235 7.8018698692321777 3.3038773536682129
f 473 471 470 472
v 2.4279053211212158 8.2742433547973633 4.2456502914428711
v 2.4279053211212158 7.8018698692321777 4.2456502914428711
v 2.2445063591003418 8.2742433547973633 4.025571346282959
v 2.2445063591003418 7.8018698692321777 4.025571346282959
v 2.0611073970794678 8.2742433547973633 3.805492639541626
v 2.0611073970794678 7.8018698692321777 3.805492639541626
f 477 475 474 476
f 479 477 476 478
v 2.8459179401397705 8.2742433547973633 4.7472653388977051
v 2.8459179401397705 7.8018698692321777 4.7472653388977051
v 2.4791200160980225 8.2742433547973633 4.3071079254150391
v 2.4791200160980225 7.8018698692321777 4.3071079254150391
f 483 481 480 482
v 3.2639307975769043 8.2742433547973633 5.2488808631896973
v 3.2639307975769043 7.8018698692321777 5.2488808631896973
v 2.8971328735351563 8.2742433547973633 4.808722972869873
v 2.8971328735351563 7.8018698692321777 4.808722972869873
f 487 485 484 486
v 3.681943416595459 8.2742433547973633 5.7504959106445313
v 3.681943416595459 7.8018698692321777 5.7504959106445313
v 3.3151454925537109 8.2742433547973633 5.3103384971618652
v 3.3151454925537109 7.8018698692321777 5.3103384971618652
f 491 489 488 490
v 4.0999560356140137 8.2742433547973633 6.2521109580993652
v 4.0999560356140137 7.8018698692321777 6.2521109580993652
v 3.7331581115722656 8.2742433547973633 5.8119535446166992
v 3.7331581115722656 7.8018698692321777 5.8119535446166992
f 495 493 492 494
v 4.5179686546325684 8.2742433547973633 6.7537264823913574
v 4.5179686546325684 7.8018698692321777 6.7537264823913574
v 4.15117073059082 8.2742433547973633 6.3135690689086914
v 4.15117073059082 7.8018698692321777 6.3135690689086914
f 499 497 496 498
v 4.9359817504882813 8.2742433547973633 7.2553415298461914
v 4.9359817504882813 7.8018698692321777 7.2553415298461914
v 4.5691838264465332 8.2742433547973633 6.8151841163635254
v 4.5691838264465332 7.8018698692321777 6.8151841163635254
f 503 501 500 502
v 7.990107536315918 2.1981301307678223 3.744035005569458
v 7.990107536315918 1.7257562875747681 3.744035005569458
v 8.3569049835205078 2.1981301307678223 3.3038773536682129
v 8.3569049835205078 1.7257562875747681 3.3038773536682129
f 507 506 504 505
v 7.5720944404602051 2.1981301307678223 4.2456502914428711
v 7.5720944404602051 1.7257562875747681 4.2456502914428711
v 7.9388928413391113 2.1981301307678223 3.805492639541626
v 7.9388928413391113 1.7257562875747681 3.805492639541626
f 511 510 508 509
v 7.15408182144165 2.1981301307678223 4.7472653388977051
v 7.15408182144165 1.7257562875747681 4.7472653388977051
v 7.5208797454833984 2.1981301307678223 4.3071079254150391
v 7.5208797454833984 1.7257562875747681 4.3071079254150391
f 515 514 512 513
v 6.7360692024230957 2.1981301307678223 5.2488808631896973
v 6.7360692024230957 1.7257562875747681 5.2488808631896973
v 7.1028671264648438 2.1981301307678223 4.808722972869873
v 7.1028671264648438 1.7257562875747681 4.808722972869873
f 519 518 516 517
v 6.318056583404541 2.1981301307678223 5.7504959106445313
v 6.318056583404541 1.7257562875747681 5.7504959106445313
v 6.6848545074462891 2.1981301307678223 5.3103384971618652
v 6.6848545074462891 1.7257562875747681 5.3103384971618652
f 523 522 520 521
v 5.9000439643859863 2.1981301307678223 6.2521109580993652
v 5.9000439643859863 1.7257562875747681 6.2521109580993652
v 6.2668418884277344 2.1981301307678223 5.8119535446166992
v 6.2668418884277344 1.7257562875747681 5.8119535446166992
f 527 526 524 525
v 5.4820313453674316 2.1981301307678223 6.7537264823913574
v 5.4820313453674316 1.7257562875747681 6.7537264823913574
v 5.84882926940918 2.1981301307678223 6.3135690689086914
v 5.84882926940918 1.7257562875747681 6.3135690689086914
f 531 530 528 529
v 5.0640182495117188 2.1981301307678223 7.2553415298461914
v 5.0640182495117188 1.7257562875747681 7.2553415298461914
v 5.2474174499511719 2.1981301307678223 7.0352630615234375
v 5.2474174499511719 1.7257562875747681 7.0352630615234375
v 5.4308161735534668 2.1981301307678223 6.8151841163635254
v 5.4308161735534668 1.7257562875747681 6.8151841163635254
f 535 534 532 533
f 537 536 534 535
v 7.990107536315918 2.7505042552948 3.744035005569458
v 7.990107536315918 2.2781302928924561 3.744035005569458
v 8.1735067367553711 2.7505042552948 3.5239560604095459
v 8.1735067367553711 2.2781302928924561 3.5239560604095459
v 8.3569049835205078 2.7505042552948 3.3038773536682129
v 8.3569049835205078 2.2781302928924561 3.3038773536682129
f 541 540 538 539
f 543 542 540 541
v 7.5720944404602051 2.7505042552948 4.2456502914428711
v 7.5720944404602051 2.2781302928924561 4.2456502914428711
v 7.9388928413391113 2.7505042552948 3.805492639541626
v 7.9388928413391113 2.2781302928924561 3.805492639541626
f 547 546 544 545
v 7.15408182144165 2.7505042552948 4.7472653388977051
v 7.15408182144165 2.2781302928924561 4.7472653388977051
v 7.5208797454833984 2.7505042552948 4.3071079254150391
v 7.5208797454833984 2.2781302928924561 4.3071079254150391
f 551 550 548 549
v 6.7360692024230957 2.7505042552948 5.2488808631896973
v 6.7360692024230957 2.2781302928924561 5.2488808631896973
v 7.1028671264648438 2.7505042552948 4.808722972869873
v 7.1028671264648438 2.2781302928924561 4.808722972869873
f 555 554 552 553
v 6.318056583404541 2.7505042552948 5.7504959106445313
v 6.318056583404541 2.2781302928924561 5.7504959106445313
v 6.6848545074462891 2.7505042552948 5.3103384971618652
v 6.6848545074462891 2.2781302928924561 5.3103384971618652
f 559 558 556 557
v 5.9000439643859863 2.7505042552948 6.2521109580993652
v 5.9000439643859863 2.2781302928924561 6.2521109580993652
v 6.0834426879882813 2.7505042552948 6.0320324897766113
v 6.0834426879882813 2.2781302928924561 6.0320324897766113
v 6.2668418884277344 2.7505042552948 5.8119535446166992
v 6.2668418884277344 2.2781302928924561 5.8119535446166992
f 563 562 560 561
f 565 564 562 563
v 5.4820313453674316 2.7505042552948 6.7537264823913574
v 5.4820313453674316 2.2781302928924561 6.7537264823913574
v 5.84882926940918 2.7505042552948 6.3135690689086914
v 5.84882926940918 2.2781302928924561 6.3135690689086914
f 569 568 566 567
v 5.0640182495117188 2.7505042552948 7.2553415298461914
v 5.0640182495117188 2.2781302928924561 7.2553415298461914
v 5.4308161735534668 2.7505042552948 6.8151841163635254
v 5.4308161735534668 2.2781302928924561 6.8151841163635254
f 573 572 570 571
v 7.990107536315918 3.3028781414031982 3.744035005569458
v 7.990107536315918 2.8305041790008545 3.744035005569458
v 8.3569049835205078 3.3028781414031982 3.3038773536682129
v 8.3569049835205078 2.8305041790008545 3.3038773536682129
f 577 576 574 575
v 7.5720944404602051 3.3028781414031982 4.2456502914428711
v 7.5720944404602051 2.8305041790008545 4.2456502914428711
v 7.9388928413391113 3.3028781414031982 3.805492639541626
v 7.9388928413391113 2.8305041790008545 3.805492639541626
f 581 580 578 579
v 7.15408182144165 3.3028781414031982 4.7472653388977051
v 7.15408182144165 2.8305041790008545 4.7472653388977051
v 7.5208797454833984 3.3028781414031982 4.3071079254150391
v 7.5208797454833984 2.8305041790008545 4.3071079254150391
f 585 584 582 583
v 6.7360692024230957 3.3028781414031982 5.2488808631896973
v 6.7360692024230957 2.8305041790008545 5.2488808631896973
v 7.1028671264648438 3.3028781414031982 4.808722972869873
v 7.1028671264648438 2.8305041790008545 4.808722972869873
f 589 588 586 587
v 6.318056583404541 3.3028781414031982 5.7504959106445313
v 6.318056583404541 2.8305041790008545 5.7504959106445313
v 6.6848545074462891 3.3028781414031982 5.3103384971618652
v 6.6848545074462891 2.8305041790008545 5.3103384971618652
f 593 592 590 591
v 5.9000439643859863 3.3028781414031982 6.2521109580993652
v 5.9000439643859863 2.8305041790008545 6.2521109580993652
v 6.2668418884277344 3.3028781414031982 5.8119535446166992
v 6.2668418884277344 2.8305041790008545 5.8119535446166992
f 597 596 594 595
v 5.4820313453674316 3.3028781414031982 6.7537264823913574
v 5.4820313453674316 2.8305041790008545 6.7537264823913574
v 5.84882926940918 3.3028781414031982 6.3135690689086914
v 5.84882926940918 2.8305041790008545 6.3135690689086914
f 601 600 598 599
v 5.0640182495117188 3.3028781414031982 7.2553415298461914
v 5.0640182495117188 2.8305041790008545 7.2553415298461914
v 5.4308161735534668 3.3028781414031982 6.8151841163635254
v 5.4308161735534668 2.8305041790008545 6.8151841163635254
f 605 604 602 603
v 7.990107536315918 3.8552520275115967 3.744035005569458
v 7.990107536315918 3.3828780651092529 3.744035005569458
v 8.1735067367553711 3.8552520275115967 3.5239560604095459
v 8.1735067367553711 3.3828780651092529 3.5239560604095459
v 8.3569049835205078 3.8552520275115967 3.3038773536682129
v 8.3569049835205078 3.3828780651092529 3.3038773536682129
f 609 608 606 607
f 611 610 608 609
v 7.5720944404602051 3.8552520275115967 4.2456502914428711
v 7.5720944404602051 3.3828780651092529 4.2456502914428711
v 7.9388928413391113 3.8552520275115967 3.805492639541626
v 7.9388928413391113 3.3828780651092529 3.805492639541626
f 615 614 612 613
v 7.15408182144165 3.8552520275115967 4.7472653388977051
v 7.15408182144165 3.3828780651092529 4.7472653388977051
v 7.5208797454833984 3.8552520275115967 4.3071079254150391
v 7.5208797454833984 3.3828780651092529 4.3071079254150391
f 619 618 616 617
v 6.7360692024230957 3.8552520275115967 5.2488808631896973
v 6.7360692024230957 3.3828780651092529 5.2488808631896973
v 7.1028671264648438 3.8552520275115967 4.808722972869873
v 7.1028671264648438 3.3828780651092529 4.808722972869873
f 623 622 620 621
v 6.318056583404541 3.8552520275115967 5.7504959106445313
v 6.318056583404541 3.3828780651092529 5.7504959106445313
v 6.6848545074462891 3.8552520275115967 5.3103384971618652
v 6.6848545074462891 3.3828780651092529 5.3103384971618652
f 627 626 624 625
v 5.9000439643859863 3.8552520275115967 6.2521109580993652
v 5.9000439643859863 3.3828780651092529 6.2521109580993652
v 6.2668418884277344 3.8552520275115967 5.8119535446166992
v 6.2668418884277344 3.3828780651092529 5.8119535446166992
f 631 630 628 629
v 5.4820313453674316 3.8552520275115967 6.7537264823913574
v 5.4820313453674316 3.3828780651092529 6.7537264823913574
v 5.84882926940918 3.8552520275115967 6.3135690689086914
v 5.84882926940918 3.3828780651092529 6.3135690689086914
f 635 634 632 633
v 5.0640182495117188 3.8552520275115967 7.2553415298461914
v 5.0640182495117188 3.3828780651092529 7.2553415298461914
v 5.4308161735534668 3.8552520275115967 6.8151841163635254
v 5.4308161735534668 3.3828780651092529 6.8151841163635254
f 639 638 636 637
v 7.990107536315918 4.4076261520385742 3.744035005569458
v 7.990107536315918 3.9352521896362305 3.744035005569458
v 8.1735067367553711 4.4076261520385742 3.5239560604095459
v 8.1735067367553711 3.9352521896362305 3.5239560604095459
v 8.3569049835205078 4.4076261520385742 3.3038773536682129
v 8.3569049835205078 3.9352521896362305 3.3038773536682129
f 643 642 640 641
f 645 644 642 643
v 7.5720944404602051 4.4076261520385742 4.2456502914428711
v 7.5720944404602051 3.9352521896362305 4.2456502914428711
v 7.9388928413391113 4.4076261520385742 3.805492639541626
v 7.9388928413391113 3.9352521896362305 3.805492639541626
f 649 648 646 647
v 7.15408182144165 4.4076261520385742 4.7472653388977051
v 7.15408182144165 3.9352521896362305 4.7472653388977051
v 7.5208797454833984 4.4076261520385742 4.3071079254150391
v 7.5208797454833984 3.9352521896362305 4.3071079254150391
f 653 652 650 651
v 6.7360692024230957 4.4076261520385742 5.2488808631896973
v 6.7360692024230957 3.9352521896362305 5.2488808631896973
v 7.1028671264648438 4.4076261520385742 4.808722972869873
v 7.1028671264648438 3.9352521896362305 4.808722972869873
f 657 656 654 655
v 6.318056583404541 4.4076261520385742 5.7504959106445313
v 6.318056583404541 3.9352521896362305 5.7504959106445313
v 6.6848545074462891 4.4076261520385742 5.3103384971618652
v 6.6848545074462891 3.9352521896362305 5.3103384971618652
f 661 660 658 659
v 5.9000439643859863 4.4076261520385742 6.2521109580993652
v 5.9000439643859863 3.9352521896362305 6.2521109580993652
v 6.2668418884277344 4.4076261520385742 5.8119535446166992
v 6.2668418884277344 3.9352521896362305 5.8119535446166992
f 665 664 662 663
v 5.4820313453674316 4.4076261520385742 6.7537264823913574
v 5.4820313453674316 3.9352521896362305 6.7537264823913574
v 5.84882926940918 4.4076261520385742 6.3135690689086914
v 5.84882926940918 3.9352521896362305 6.3135690689086914
f 669 668 666 667
v 5.0640182495117188 4.4076261520385742 7.2553415298461914
v 5.0640182495117188 3.9352521896362305 7.2553415298461914
v 5.4308161735534668 4.4076261520385742 6.8151841163635254
v 5.4308161735534668 3.9352521896362305 6.8151841163635254
f 673 672 670 671
v 7.990107536315918 4.9600000381469727 3.744035005569458
v 7.990107536315918 4.4876260757446289 3.744035005569458
v 8.3569049835205078 4.9600000381469727 3.3038773536682129
v 8.3569049835205078 4.4876260757446289 3.3038773536682129
f 677 676 674 675
v 7.5720944404602051 4.9600000381469727 4.2456502914428711
v 7.5720944404602051 4.4876260757446289 4.2456502914428711
v 7.9388928413391113 4.9600000381469727 3.805492639541626
v 7.9388928413391113 4.4876260757446289 3.805492639541626
f 681 680 678 679
v 7.15408182144165 4.9600000381469727 4.7472653388977051
v 7.15408182144165 4.4876260757446289 4.7472653388977051
v 7.5208797454833984 4.9600000381469727 4.3071079254150391
v 7.5208797454833984 4.4876260757446289 4.3071079254150391
f 685 684 682 683
v 6.7360692024230957 4.9600000381469727 5.2488808631896973
v 6.7360692024230957 4.4876260757446289 5.2488808631896973
v 7.1028671264648438 4.9600000381469727 4.808722972869873
v 7.1028671264648438 4.4876260757446289 4.808722972869873
f 689 688 686 687
v 6.318056583404541 4.9600000381469727 5.7504959106445313
v 6.318056583404541 4.4876260757446289 5.7504959106445313
v 6.6848545074462891 4.9600000381469727 5.3103384971618652
v 6.6848545074462891 4.4876260757446289 5.3103384971618652
f 693 692 690 691
v 5.9000439643859863 4.9600000381469727 6.2521109580993652
v 5.9000439643859863 4.4876260757446289 6.2521109580993652
v 6.2668418884277344 4.9600000381469727 5.8119535446166992
v 6.2668418884277344 4.4876260757446289 5.8119535446166992
f 697 696 694 695
v 5.4820313453674316 4.9600000381469727 6.7537264823913574
v 5.4820313453674316 4.4876260757446289 6.7537264823913574
v 5.84882926940918 4.9600000381469727 6.3135690689086914
v 5.84882926940918 4.4876260757446289 6.3135690689086914
f 701 700 698 699
v 5.0640182495117188 4.9600000381469727 7.2553415298461914
v 5.0640182495117188 4.4876260757446289 7.2553415298461914
v 5.4308161735534668 4.9600000381469727 6.8151841163635254
v 5.4308161735534668 4.4876260757446289 6.8151841163635254
f 705 704 702 703
v 7.990107536315918 5.5123739242553711 3.744035005569458
v 7.990107536315918 5.0399999618530273 3.744035005569458
v 8.3569049835205078 5.5123739242553711 3.3038773536682129
v 8.3569049835205078 5.0399999618530273 3.3038773536682129
f 709 708 706 707
v 7.5720944404602051 5.5123739242553711 4.2456502914428711
v 7.5720944404602051 5.0399999618530273 4.2456502914428711
v 7.9388928413391113 5.5123739242553711 3.805492639541626
v 7.9388928413391113 5.0399999618530273 3.805492639541626
f 713 712 710 711
v 7.15408182144165 5.5123739242553711 4.7472653388977051
v 7.15408182144165 5.0399999618530273 4.7472653388977051
v 7.5208797454833984 5.5123739242553711 4.3071079254150391
v 7.5208797454833984 5.0399999618530273 4.3071079254150391
f 717 716 714 715
v 6.7360692024230957 5.5123739242553711 5.2488808631896973
v 6.7360692024230957 5.0399999618530273 5.2488808631896973
v 7.1028671264648438 5.5123739242553711 4.808722972869873
v 7.1028671264648438 5.0399999618530273 4.808722972869873
f 721 720 718 719
v 6.318056583404541 5.5123739242553711 5.7504959106445313
v 6.318056583404541 5.0399999618530273 5.7504959106445313
v 6.6848545074462891 5.5123739242553711 5.3103384971618652
v 6.6848545074462891 5.0399999618530273 5.3103384971618652
f 725 724 722 723
v 5.9000439643859863 5.5123739242553711 6.2521109580993652
v 5.9000439643859863 5.0399999618530273 6.2521109580993652
v 6.2668418884277344 5.5123739242553711 5.8119535446166992
v 6.2668418884277344 5.0399999618530273 5.8119535446166992
f 729 728 726 727
v 5.4820313453674316 5.5123739242553711 6.7537264823913574
v 5.4820313453674316 5.0399999618530273 6.7537264823913574
v 5.84882926940918 5.5123739242553711 6.3135690689086914
v 5.84882926940918 5.0399999618530273 6.3135690689086914
f 733 732 730 731
v 5.0640182495117188 5.5123739242553711 7.2553415298461914
v 5.0640182495117188 5.0399999618530273 7.2553415298461914
v 5.2474174499511719 5.5123739242553711 7.0352630615234375
v 5.2474174499511719 5.0399999618530273 7.0352630615234375
v 5.4308161735534668 5.5123739242553711 6.8151841163635254
v 5.4308161735534668 5.0399999618530273 6.8151841163635254
f 737 736 734 735
f 739 738 736 737
v 7.990107536315918 6.0647478103637695 3.744035005569458
v 7.990107536315918 5.5923738479614258 3.744035005569458
v 8.3569049835205078 6.0647478103637695 3.3038773536682129
v 8.3569049835205078 5.5923738479614258 3.3038773536682129
f 743 742 740 741
v 7.5720944404602051 6.0647478103637695 4.2456502914428711
v 7.5720944404602051 5.5923738479614258 4.2456502914428711
v 7.9388928413391113 6.0647478103637695 3.805492639541626
v 7.9388928413391113 5.5923738479614258 3.805492639541626
f 747 746 744 745
v 7.15408182144165 6.0647478103637695 4.7472653388977051
v 7.15408182144165 5.5923738479614258 4.7472653388977051
v 7.5208797454833984 6.0647478103637695 4.3071079254150391
v 7.5208797454833984 5.5923738479614258 4.3071079254150391
f 751 750 748 749
v 6.7360692024230957 6.0647478103637695 5.2488808631896973
v 6.7360692024230957 5.5923738479614258 5.2488808631896973
v 7.1028671264648438 6.0647478103637695 4.808722972869873
v 7.1028671264648438 5.5923738479614258 4.808722972869873
f 755 754 752 753
v 6.318056583404541 6.0647478103637695 5.7504959106445313
v 6.318056583404541 5.5923738479614258 5.7504959106445313
v 6.6848545074462891 6.0647478103637695 5.3103384971618652
v 6.6848545074462891 5.5923738479614258 5.3103384971618652
f 759 758 756 757
v 5.9000439643859863 6.0647478103637695 6.2521109580993652
v 5.9000439643859863 5.5923738479614258 6.2521109580993652
v 6.2668418884277344 6.0647478103637695 5.8119535446166992
v 6.2668418884277344 5.5923738479614258 5.8119535446166992
f 763 762 760 761
v 5.4820313453674316 6.0647478103637695 6.7537264823913574
v 5.4820313453674316 5.5923738479614258 6.7537264823913574
v 5.84882926940918 6.0647478103637695 6.3135690689086914
v 5.84882926940918 5.5923738479614258 6.3135690689086914
f 767 766 764 765
v 5.0640182495117188 6.0647478103637695 7.2553415298461914
v 5.0640182495117188 5.5923738479614258 7.2553415298461914
v 5.4308161735534668 6.0647478103637695 6.8151841163635254
v 5.4308161735534668 5.5923738479614258 6.8151841163635254
f 771 770 768 769
v 7.990107536315918 6.617121696472168 3.744035005569458
v 7.990107536315918 6.1447477340698242 3.744035005569458
v 8.1735067367553711 6.617121696472168 3.5239560604095459
v 8.1735067367553711 6.1447477340698242 3.5239560604095459
v 8.3569049835205078 6.617121696472168 3.3038773536682129
v 8.3569049835205078 6.1447477340698242 3.3038773536682129
f 775 774 772 773
f 777 776 774 775
v 7.5720944404602051 6.617121696472168 4.2456502914428711
v 7.5720944404602051 6.1447477340698242 4.2456502914428711
v 7.9388928413391113 6.617121696472168 3.805492639541626
v 7.9388928413391113 6.1447477340698242 3.805492639541626
f 781 780 778 779
v 7.15408182144165 6.617121696472168 4.7472653388977051
v 7.15408182144165 6.1447477340698242 4.7472653388977051
v 7.5208797454833984 6.617121696472168 4.3071079254150391
v 7.5208797454833984 6.1447477340698242 4.3071079254150391
f 785 784 782 783
v 6.7360692024230957 6.617121696472168 5.2488808631896973
v 6.7360692024230957 6.1447477340698242 5.2488808631896973
v 7.1028671264648438 6.617121696472168 4.808722972869873
v 7.1028671264648438 6.1447477340698242 4.808722972869873
f 789 788 786 787
v 6.318056583404541 6.617121696472168 5.7504959106445313
v 6.318056583404541 6.1447477340698242 5.7504959106445313
v 6.6848545074462891 6.617121696472168 5.3103384971618652
v 6.6848545074462891 6.1447477340698242 5.3103384971618652
f 793 792 790 791
v 5.9000439643859863 6.617121696472168 6.2521109580993652
v 5.9000439643859863 6.1447477340698242 6.2521109580993652
v 6.2668418884277344 6.617121696472168 5.8119535446166992
v 6.2668418884277344 6.1447477340698242 5.8119535446166992
f 797 796 794 795
v 5.4820313453674316 6.617121696472168 6.7537264823913574
v 5.4820313453674316 6.1447477340698242 6.7537264823913574
v 5.84882926940918 6.617121696472168 6.3135690689086914
v 5.84882926940918 6.1447477340698242 6.3135690689086914
f 801 800 798 799
v 5.0640182495117188 6.617121696472168 7.2553415298461914
v 5.0640182495117188 6.1447477340698242 7.2553415298461914
v 5.4308161735534668 6.617121696472168 6.8151841163635254
v 5.4308161735534668 6.1447477340698242 6.8151841163635254
f 805 804 802 803
v 7.990107536315918 7.1694960594177246 3.744035005569458
v 7.990107536315918 6.6971220970153809 3.744035005569458
v 8.3569049835205078 7.1694960594177246 3.3038773536682129
v 8.3569049835205078 6.6971220970153809 3.3038773536682129
f 809 808 806 807
v 7.5720944404602051 7.1694960594177246 4.2456502914428711
v 7.5720944404602051 6.6971220970153809 4.2456502914428711
v 7.9388928413391113 7.1694960594177246 3.805492639541626
v 7.9388928413391113 6.6971220970153809 3.805492639541626
f 813 812 810 811
v 7.15408182144165 7.1694960594177246 4.7472653388977051
v 7.15408182144165 6.6971220970153809 4.7472653388977051
v 7.3374810218811035 7.1694960594177246 4.5271868705749512
v 7.3374810218811035 6.6971220970153809 4.5271868705749512
v 7.5208797454833984 7.1694960594177246 4.3071079254150391
v 7.5208797454833984 6.6971220970153809 4.3071079254150391
f 817 816 814 815
f 819 818 816 817
v 6.7360692024230957 7.1694960594177246 5.2488808631896973
v 6.7360692024230957 6.6971220970153809 5.2488808631896973
v 7.1028671264648438 7.1694960594177246 4.808722972869873
v 7.1028671264648438 6.6971220970153809 4.808722972869873
f 823 822 820 821
v 6.318056583404541 7.1694960594177246 5.7504959106445313
v 6.318056583404541 6.6971220970153809 5.7504959106445313
v 6.6848545074462891 7.1694960594177246 5.3103384971618652
v 6.6848545074462891 6.6971220970153809 5.3103384971618652
f 827 826 824 825
v 5.9000439643859863 7.1694960594177246 6.2521109580993652
v 5.9000439643859863 6.6971220970153809 6.2521109580993652
v 6.2668418884277344 7.1694960594177246 5.8119535446166992
v 6.2668418884277344 6.6971220970153809 5.8119535446166992
f 831 830 828 829
v 5.4820313453674316 7.1694960594177246 6.7537264823913574
v 5.4820313453674316 6.6971220970153809 6.7537264823913574
v 5.84882926940918 7.1694960594177246 6.3135690689086914
v 5.84882926940918 6.6971220970153809 6.3135690689086914
f 835 834 832 833
v 5.0640182495117188 7.1694960594177246 7.2553415298461914
v 5.0640182495117188 6.6971220970153809 7.2553415298461914
v 5.4308161735534668 7.1694960594177246 6.8151841163635254
v 5.4308161735534668 6.6971220970153809 6.8151841163635254
f 839 838 836 837
v 7.990107536315918 7.721869945526123 3.744035005569458
v 7.990107536315918 7.2494959831237793 3.744035005569458
v 8.3569049835205078 7.721869945526123 3.3038773536682129
v 8.3569049835205078 7.2494959831237793 3.3038773536682129
f 843 842 840 841
v 7.5720944404602051 7.721869945526123 4.2456502914428711
v 7.5720944404602051 7.2494959831237793 4.2456502914428711
v 7.9388928413391113 7.721869945526123 3.805492639541626
v 7.9388928413391113 7.2494959831237793 3.805492639541626
f 847 846 844 845
v 7.15408182144165 7.721869945526123 4.7472653388977051
v 7.15408182144165 7.2494959831237793 4.7472653388977051
v 7.5208797454833984 7.721869945526123 4.3071079254150391
v 7.5208797454833984 7.2494959831237793 4.3071079254150391
f 851 850 848 849
v 6.7360692024230957 7.721869945526123 5.2488808631896973
v 6.7360692024230957 7.2494959831237793 5.2488808631896973
v 7.1028671264648438 7.721869945526123 4.808722972869873
v 7.1028671264648438 7.2494959831237793 4.808722972869873
f 855 854 852 853
v 6.318056583404541 7.721869945526123 5.7504959106445313
v 6.318056583404541 7.2494959831237793 5.7504959106445313
v 6.5014553070068359 7.721869945526123 5.5304169654846191
v 6.5014553070068359 7.2494959831237793 5.5304169654846191
v 6.6848545074462891 7.721869945526123 5.3103384971618652
v 6.6848545074462891 7.2494959831237793 5.3103384971618652
f 859 858 856 857
f 861 860 858 859
v 5.9000439643859863 7.721869945526123 6.2521109580993652
v 5.9000439643859863 7.2494959831237793 6.2521109580993652
v 6.0834426879882813 7.721869945526123 6.0320324897766113
v 6.0834426879882813 7.2494959831237793 6.0320324897766113
v 6.2668418884277344 7.721869945526123 5.8119535446166992
v 6.2668418884277344 7.2494959831237793 5.8119535446166992
f 865 864 862 863
f 867 866 864 865
v 5.4820313453674316 7.721869945526123 6.7537264823913574
v 5.4820313453674316 7.2494959831237793 6.7537264823913574
v 5.84882926940918 7.721869945526123 6.3135690689086914
v 5.84882926940918 7.2494959831237793 6.3135690689086914
f 871 870 868 869
v 5.0640182495117188 7.721869945526123 7.2553415298461914
v 5.0640182495117188 7.2494959831237793 7.2553415298461914
v 5.4308161735534668 7.721869945526123 6.8151841163635254
v 5.4308161735534668 7.2494959831237793 6.8151841163635254
f 875 874 872 873
v 7.990107536315918 8.2742433547973633 3.744035005569458
v 7.990107536315918 7.8018698692321777 3.744035005569458
v 8.3569049835205078 8.2742433547973633 3.3038773536682129
v 8.3569049835205078 7.8018698692321777 3.3038773536682129
f 879 878 876 877
v 7.5720944404602051 8.2742433547973633 4.2456502914428711
v 7.5720944404602051 7.8018698692321777 4.2456502914428711
v 7.9388928413391113 8.2742433547973633 3.805492639541626
v 7.9388928413391113 7.8018698692321777 3.805492639541626
f 883 882 880 881
v 7.15408182144165 8.2742433547973633 4.7472653388977051
v 7.15408182144165 7.8018698692321777 4.7472653388977051
v 7.5208797454833984 8.2742433547973633 4.3071079254150391
v 7.5208797454833984 7.8018698692321777 4.3071079254150391
f 887 886 884 885
v 6.7360692024230957 8.2742433547973633 5.2488808631896973
v 6.7360692024230957 7.8018698692321777 5.2488808631896973
v 7.1028671264648438 8.2742433547973633 4.808722972869873
v 7.1028671264648438 7.8018698692321777 4.808722972869873
f 891 890 888 889
v 6.318056583404541 8.2742433547973633 5.7504959106445313
v 6.318056583404541 7.8018698692321777 5.7504959106445313
v 6.6848545074462891 8.2742433547973633 5.3103384971618652
v 6.6848545074462891 7.8018698692321777 5.3103384971618652
f 895 894 892 893
v 5.9000439643859863 8.2742433547973633 6.2521109580993652
v 5.9000439643859863 7.8018698692321777 6.2521109580993652
v 6.2668418884277344 8.2742433547973633 5.8119535446166992
v 6.2668418884277344 7.8018698692321777 5.8119535446166992
f 899 898 896 897
v 5.4820313453674316 8.2742433547973633 6.7537264823913574
v 5.4820313453674316 7.8018698692321777 6.7537264823913574
v 5.84882926940918 8.2742433547973633 6.3135690689086914
v 5.84882926940918 7.8018698692321777 6.3135690689086914
f 903 902 900 901
v 5.0640182495117188 8.2742433547973633 7.2553415298461914
v 5.0640182495117188 7.8018698692321777 7.2553415298461914
v 5.4308161735534668 8.2742433547973633 6.8151841163635254
v 5.4308161735534668 7.8018698692321777 6.8151841163635254
f 907 906 904 905
