# FlatmatesRh OBJ export
# @craft: house_foo
# @cell: step_7
o house_foo_step_7_parts
v 6.5 5 1.2999999523162842
v 8 5 1.2999999523162842
v 6.5 2 1.2999999523162842
v 8 2 1.2999999523162842
v 6.5 3.5 1.2999999523162842
v 6.5 2.75 1.2999999523162842
v 7.25 2 1.2999999523162842
v 8 3.5 1.2999999523162842
v 7.25 5 1.2999999523162842
v 7.25 3.5 1.2999999523162842
v 6.5 4.25 1.2999999523162842
f 4 8 10 7
f 8 2 9 10
f 9 1 11
f 5 10 11
f 9 11 10
f 7 6 3
f 6 7 10
f 5 6 10
v 5 3.5 2.3833334445953369
v 5 3.5 2.5999999046325684
v 5 2.75 2.5999999046325684
v 5 2 2.3833334445953369
v 5 2 2.5999999046325684
v 5 3 2.3833334445953369
v 5 2.5 2.3833334445953369
f 12 13 14 17
f 18 14 16 15
f 17 14 18
v 6.5 3.5 1.2999999523162842
v 6.25 3.5 1.2999999523162842
v 6.5 2 1.2999999523162842
v 6.25 2 1.2999999523162842
v 6.5 2.75 1.2999999523162842
v 6.25 2.5 1.2999999523162842
v 6.25 3 1.2999999523162842
v 6.375 2 1.2999999523162842
f 19 20 25 23
f 25 26 23
f 25 24 26
f 26 24 22
f 21 23 26
v 6.25 3.5 1.5166666507720947
v 6 3.5 1.5166666507720947
v 6.25 2 1.5166666507720947
v 6 2 1.5166666507720947
v 6.25 3 1.5166666507720947
v 6.25 2.5 1.5166666507720947
v 6 2.5 1.5166666507720947
v 6 3 1.5166666507720947
f 31 27 28 34
f 34 33 32 31
f 29 32 33 30
v 6 3.5 1.7333333492279053
v 5.75 3.5 1.7333333492279053
v 6 2 1.7333333492279053
v 5.75 2 1.7333333492279053
v 6 3 1.7333333492279053
v 6 2.5 1.7333333492279053
v 5.75 2.5 1.7333333492279053
v 5.75 3 1.7333333492279053
f 39 35 36 42
f 42 41 40 39
f 37 40 41 38
v 5.75 3.5 1.9500000476837158
v 5.5 3.5 1.9500000476837158
v 5.75 2 1.9500000476837158
v 5.5 2 1.9500000476837158
v 5.75 3 1.9500000476837158
v 5.75 2.5 1.9500000476837158
v 5.5 2.5 1.9500000476837158
v 5.5 3 1.9500000476837158
f 47 43 44 50
f 50 49 48 47
f 45 48 49 46
v 5.5 3.5 2.1666667461395264
v 5.25 3.5 2.1666667461395264
v 5.5 2 2.1666667461395264
v 5.25 2 2.1666667461395264
v 5.5 3 2.1666667461395264
v 5.5 2.5 2.1666667461395264
v 5.25 2.5 2.1666667461395264
v 5.25 3 2.1666667461395264
f 55 51 52 58
f 58 57 56 55
f 53 56 57 54
v 5.25 3.5 2.3833334445953369
v 5 3.5 2.3833334445953369
v 5.25 2 2.3833334445953369
v 5 2 2.3833334445953369
v 5 2.5 2.3833334445953369
v 5 3 2.3833334445953369
v 5.25 3 2.3833334445953369
v 5.25 2.5 2.3833334445953369
f 65 59 60 64
f 64 63 66 65
f 61 66 63 62
v 6.25 3.5 1.2999999523162842
v 6.25 3.5 1.5166666507720947
v 6.25 2 1.2999999523162842
v 6.25 2 1.5166666507720947
v 6.25 3 1.2999999523162842
v 6.25 2.5 1.2999999523162842
v 6.25 2.5 1.5166666507720947
v 6.25 3 1.5166666507720947
f 71 67 68 74
f 74 73 72 71
f 69 72 73 70
v 6 3.5 1.5166666507720947
v 6 3.5 1.7333333492279053
v 6 2 1.5166666507720947
v 6 2 1.7333333492279053
v 6 3 1.5166666507720947
v 6 2.5 1.5166666507720947
v 6 2.5 1.7333333492279053
v 6 3 1.7333333492279053
f 79 75 76 82
f 82 81 80 79
f 77 80 81 78
v 5.75 3.5 1.7333333492279053
v 5.75 3.5 1.9500000476837158
v 5.75 2 1.7333333492279053
v 5.75 2 1.9500000476837158
v 5.75 3 1.7333333492279053
v 5.75 2.5 1.7333333492279053
v 5.75 2.5 1.9500000476837158
v 5.75 3 1.9500000476837158
f 87 83 84 90
f 90 89 88 87
f 85 88 89 86
v 5.5 3.5 1.9500000476837158
v 5.5 3.5 2.1666667461395264
v 5.5 2 1.9500000476837158
v 5.5 2 2.1666667461395264
v 5.5 3 1.9500000476837158
v 5.5 2.5 1.9500000476837158
v 5.5 2.5 2.1666667461395264
v 5.5 3 2.1666667461395264
f 95 91 92 98
f 98 97 96 95
f 93 96 97 94
v 5.25 3.5 2.1666667461395264
v 5.25 3.5 2.3833334445953369
v 5.25 2 2.1666667461395264
v 5.25 2 2.3833334445953369
v 5.25 3 2.1666667461395264
v 5.25 2.5 2.1666667461395264
v 5.25 2.5 2.3833334445953369
v 5.25 3 2.3833334445953369
f 99 100 106 103
f 103 106 105 104
f 101 104 105 102
v 6.5 3.5 1.2999999523162842
v 6.25 3.5 1.2999999523162842
v 6.5 5 1.2999999523162842
v 6.25 5 1.2999999523162842
v 6.375 5 1.2999999523162842
v 6.5 4.25 1.2999999523162842
v 6.25 4.5 1.2999999523162842
v 6.25 4 1.2999999523162842
f 107 112 114 108
f 114 112 111
f 114 111 113
f 111 110 113
f 109 111 112
v 6.25 3.5 1.0833333730697632
v 6 3.5 1.0833333730697632
v 6.25 5 1.0833333730697632
v 6 5 1.0833333730697632
v 6.25 4 1.0833333730697632
v 6.25 4.5 1.0833333730697632
v 6 4.5 1.0833333730697632
v 6 4 1.0833333730697632
f 115 119 122 116
f 119 120 121 122
f 117 118 121 120
v 6 3.5 0.86666667461395264
v 5.75 3.5 0.86666667461395264
v 6 5 0.86666667461395264
v 5.75 5 0.86666667461395264
v 6 4 0.86666667461395264
v 6 4.5 0.86666667461395264
v 5.75 4.5 0.86666667461395264
v 5.75 4 0.86666667461395264
f 127 130 124 123
f 130 127 128 129
f 125 126 129 128
v 5.75 3.5 0.64999997615814209
v 5.5 3.5 0.64999997615814209
v 5.75 5 0.64999997615814209
v 5.5 5 0.64999997615814209
v 5.75 4 0.64999997615814209
v 5.75 4.5 0.64999997615814209
v 5.5 4.5 0.64999997615814209
v 5.5 4 0.64999997615814209
f 135 138 132 131
f 138 135 136 137
f 133 134 137 136
v 5.5 3.5 0.43333333730697632
v 5.25 3.5 0.43333333730697632
v 5.5 5 0.43333333730697632
v 5.25 5 0.43333333730697632
v 5.5 4 0.43333333730697632
v 5.5 4.5 0.43333333730697632
v 5.25 4.5 0.43333333730697632
v 5.25 4 0.43333333730697632
f 143 146 140 139
f 146 143 144 145
f 141 142 145 144
v 5.25 3.5 0.21666666865348816
v 5 3.5 0.21666666865348816
v 5.25 5 0.21666666865348816
v 5 5 0.21666666865348816
v 5.25 4 0.21666666865348816
v 5.25 4.5 0.21666666865348816
v 5 4.5 0.21666666865348816
v 5 4 0.21666666865348816
f 151 154 148 147
f 154 151 152 153
f 149 150 153 152
v 6.25 3.5 1.2999999523162842
v 6.25 3.5 1.0833333730697632
v 6.25 5 1.2999999523162842
v 6.25 5 1.0833333730697632
v 6.25 4 1.2999999523162842
v 6.25 4.5 1.2999999523162842
v 6.25 4.5 1.0833333730697632
v 6.25 4 1.0833333730697632
f 159 162 156 155
f 162 159 160 161
f 157 158 161 160
v 6 3.5 1.0833333730697632
v 6 3.5 0.86666667461395264
v 6 5 1.0833333730697632
v 6 5 0.86666667461395264
v 6 4 1.0833333730697632
v 6 4.5 1.0833333730697632
v 6 4.5 0.86666667461395264
v 6 4 0.86666667461395264
f 167 170 164 163
f 170 167 168 169
f 165 166 169 168
v 5.75 3.5 0.86666667461395264
v 5.75 3.5 0.64999997615814209
v 5.75 5 0.86666667461395264
v 5.75 5 0.64999997615814209
v 5.75 4 0.86666667461395264
v 5.75 4.5 0.86666667461395264
v 5.75 4.5 0.64999997615814209
v 5.75 4 0.64999997615814209
f 171 175 178 172
f 177 178 175 176
f 173 174 177 176
v 5.5 3.5 0.64999997615814209
v 5.5 3.5 0.43333333730697632
v 5.5 5 0.64999997615814209
v 5.5 5 0.43333333730697632
v 5.5 4 0.64999997615814209
v 5.5 4.5 0.64999997615814209
v 5.5 4.5 0.43333333730697632
v 5.5 4 0.43333333730697632
f 183 186 180 179
f 186 183 184 185
f 181 182 185 184
v 5.25 3.5 0.43333333730697632
v 5.25 3.5 0.21666666865348816
v 5.25 5 0.43333333730697632
v 5.25 5 0.21666666865348816
v 5.25 4 0.43333333730697632
v 5.25 4.5 0.43333333730697632
v 5.25 4.5 0.21666666865348816
v 5.25 4 0.21666666865348816
f 191 194 188 187
f 194 191 192 193
f 189 190 193 192
v 5 3.5 0.21666666865348816
v 5 3.5 4.4408920985006262E-16
v 5 4.25 4.4408920985006262E-16
v 5 5 0.21666666865348816
v 5 5 4.4408920985006262E-16
v 5 4 0.21666666865348816
v 5 4.5 0.21666666865348816
f 196 195 200
f 197 196 200
f 201 198 199 197
f 200 201 197
o house_foo_step_7_appliques
