# FlatmatesRh OBJ export
# @craft: house_foo
# @cell: step_8
o house_foo_step_8_parts
v 2.9244804382324219 4.4742536544799805 4.7634377479553223
v 2.9244804382324219 4.4742536544799805 7.254061222076416
v 3.6652185916900635 4.4742536544799805 7.254061222076416
v 3.6652185916900635 4.4742536544799805 5.6523237228393555
v 3.6652185916900635 4.4742536544799805 6.4531922340393066
v 2.9244804382324219 4.4742536544799805 6.0087494850158691
f 4 6 1
f 2 6 5 3
f 6 4 5
v 3.6652185916900635 4.4742536544799805 5.6523237228393555
v 3.6652185916900635 4.4742536544799805 7.254061222076416
v 3.6652185916900635 5.5257463455200195 5.6523237228393555
v 3.6652185916900635 5.5257463455200195 7.254061222076416
v 3.6652185916900635 4.4742536544799805 6.4531922340393066
v 3.6652185916900635 5.5257463455200195 6.4531922340393066
f 11 7 9 12
f 8 11 12 10
v 3.6652185916900635 5.5257463455200195 7.254061222076416
v 2.9244804382324219 5.5257463455200195 4.7634377479553223
v 2.9244804382324219 5.5257463455200195 7.254061222076416
v 3.6652185916900635 5.5257463455200195 5.6523237228393555
v 3.6652185916900635 5.5257463455200195 6.4531922340393066
v 2.9244804382324219 5.5257463455200195 6.0087494850158691
f 18 17 16
f 15 13 17
f 16 14 18
f 17 18 15
v 2.9244804382324219 5.5257463455200195 7.254061222076416
v 2.9244804382324219 4.4742536544799805 4.7634377479553223
v 2.9244804382324219 4.4742536544799805 7.254061222076416
v 2.9244804382324219 5.5257463455200195 4.7634377479553223
v 2.9244804382324219 4.4742536544799805 6.0087494850158691
v 2.9244804382324219 5.5257463455200195 6.0087494850158691
f 24 22 20 23
f 19 24 23 21
o house_foo_step_8_appliques
