# FlatmatesRh OBJ export
o Group03_2_2
v 4 4 2.5128992220402324E-09
v 4 6 2.5128992220402324E-09
v 6 4 2.5128992220402324E-09
v 6 6 2.5128992220402324E-09
v 5 4 2.5128992220402324E-09
v 6 5 2.5128992220402324E-09
v 5 6 2.5128992220402324E-09
v 4 5 2.5128992220402324E-09
v 4 4 9
v 4 6 9
v 6 4 9
v 6 6 9
v 5 4 9
v 6 5 9
v 5 6 9
v 4 5 9
v 4 4 2.5128992220402324E-09
v 6 4 2.5128992220402324E-09
v 6 4 9
v 5 4 2.5128992220402324E-09
v 6 4 4.5
v 5 4 4.5
v 5 4 2.25
v 4.5 4 4.5
v 4.5 4 2.25
v 5.5 4 4.5
v 5.5 4 2.25
v 4 4 9
v 4 4 4.5
v 5 4 9
v 5 4 6.75
v 5.5 4 6.75
v 4.5 4 6.75
v 6 4 2.5128992220402324E-09
v 6 6 2.5128992220402324E-09
v 6 6 9
v 6 4 9
v 6 4 4.5
v 6 5 2.5128992220402324E-09
v 6 6 4.5
v 6 5 4.5
v 6 5 2.25
v 6 4.5 4.5
v 6 4.5 2.25
v 6 5.5 4.5
v 6 5.5 2.25
v 6 5 9
v 6 5 6.75
v 6 5.5 6.75
v 6 4.5 6.75
v 6 6 2.5128992220402324E-09
v 4 6 2.5128992220402324E-09
v 4 6 9
v 6 6 9
v 6 6 4.5
v 5 6 2.5128992220402324E-09
v 4 6 4.5
v 5 6 4.5
v 5 6 2.25
v 5.5 6 4.5
v 5.5 6 2.25
v 4.5 6 4.5
v 4.5 6 2.25
v 5 6 9
v 5 6 6.75
v 4.5 6 6.75
v 5.5 6 6.75
v 4 6 2.5128992220402324E-09
v 4 4 2.5128992220402324E-09
v 4 4 9
v 4 4 4.5
v 4 6 9
v 4 6 4.5
v 4 5 2.5128992220402324E-09
v 4 5 4.5
v 4 5 2.25
v 4 5.5 4.5
v 4 5.5 2.25
v 4 4.5 4.5
v 4 4.5 2.25
v 4 5 9
v 4 5 6.75
v 4 4.5 6.75
v 4 5.5 6.75
f 8 5 1
f 8 2 7
f 6 5 8
f 8 7 6
f 6 7 4
f 3 5 6
f 16 9 13
f 16 15 10
f 14 16 13
f 16 14 15
f 14 12 15
f 11 14 13
f 32 31 22 26
f 31 33 24 22
f 22 24 25 23
f 26 22 23 27
f 29 17 25
f 20 25 17
f 25 20 23
f 27 23 20
f 33 28 29
f 29 24 33
f 24 29 25
f 30 28 33
f 21 26 27
f 27 18 21
f 18 27 20
f 32 26 21
f 33 31 30
f 32 30 31
f 30 32 19
f 21 19 32
f 49 48 41 45
f 48 50 43 41
f 41 43 44 42
f 45 41 42 46
f 38 34 44
f 39 44 34
f 44 39 42
f 46 42 39
f 50 37 38
f 38 43 50
f 43 38 44
f 47 37 50
f 40 45 46
f 46 35 40
f 35 46 39
f 49 45 40
f 50 48 47
f 49 47 48
f 47 49 36
f 40 36 49
f 66 65 58 62
f 65 67 60 58
f 58 60 61 59
f 62 58 59 63
f 55 51 61
f 56 61 51
f 61 56 59
f 63 59 56
f 67 54 55
f 55 60 67
f 60 55 61
f 64 54 67
f 57 62 63
f 63 52 57
f 52 63 56
f 66 62 57
f 67 65 64
f 66 64 65
f 64 66 53
f 57 53 66
f 83 82 75 79
f 82 84 77 75
f 75 77 78 76
f 79 75 76 80
f 73 68 78
f 74 78 68
f 78 74 76
f 80 76 74
f 84 72 73
f 73 77 84
f 77 73 78
f 81 72 84
f 71 79 80
f 80 69 71
f 69 80 74
f 83 79 71
f 84 82 81
f 83 81 82
f 81 83 70
f 71 70 83
