# FlatmatesRh OBJ export
# @layer: GEO
# @craft: Group02
# @cell: 0_0
o Group02_GEO_0_0
v 0 0 0
v 0 0 9
v 1 0 0
v 2 0 9
v 1 0 9
v 1 0 8
v 2 0 8
v 1 0 4
v 0 0 8
v 0 0 4
v 0 0 0
v 0 2 0
v 1 0 0
v 1 2 0
v 0 1 0
v 1 1 0
v 0 0 9
v 2 2 9
v 1 0 9
v 2 0 9
v 2 1 9
v 1 2 9
v 0 2 9
v 0 1 9
v 1 0 0
v 1 0 8
v 1 2 0
v 1 2 8
v 1 1 8
v 1 0 4
v 1 1 0
v 1 2 4
v 1 0 8
v 2 0 8
v 1 2 8
v 1 1 8
v 2 1 8
v 2 2 8
v 2 0 8
v 2 0 9
v 2 2 9
v 2 1 9
v 2 1 8
v 2 2 8
v 2 2 9
v 0 2 0
v 0 2 9
v 1 2 9
v 1 2 0
v 1 2 8
v 1 2 4
v 2 2 8
v 0 2 4
v 0 2 8
v 0 2 0
v 0 2 9
v 0 0 0
v 0 1 0
v 0 1 4.5
v 0 1 2.25
v 0 1.5 4.5
v 0 1.5 2.25
v 0 0.5 4.5
v 0 0.5 2.25
v 0 0 9
v 0 1 9
v 0 1 6.75
v 0 0.5 6.75
v 0 1.5 6.75
v 0 0 4
v 0 0 8
v 0 2 8
v 0 2 4
f 10 1 3 8
f 9 10 8 6
f 2 9 6 5
f 7 4 5 6
f 15 16 13 11
f 12 14 16 15
f 24 17 19
f 24 22 23
f 21 24 19
f 24 21 22
f 21 18 22
f 20 21 19
f 30 25 31
f 30 29 26
f 29 30 31
f 29 31 32 28
f 27 32 31
f 36 37 34 33
f 35 38 37 36
f 40 39 43 42
f 44 41 42 43
f 46 51 49
f 48 45 52 50
f 51 53 50
f 47 50 54
f 53 54 50
f 48 50 47
f 46 53 51
f 68 67 59 63
f 67 69 61 59
f 59 61 62 60
f 63 59 60 64
f 73 55 62
f 58 62 55
f 62 58 60
f 64 60 58
f 72 73 61 69
f 56 72 69
f 66 56 69
f 61 73 62
f 70 63 64
f 64 57 70
f 57 64 58
f 68 63 70
f 69 67 66
f 68 66 67
f 65 68 71
f 70 71 68
f 66 68 65
