# FlatmatesRh OBJ export
# @layer: GEO
# @craft: Group02
# @cell: 0_1
o Group02_GEO_0_1
v 0 4 9
v 2 2 9
v 0 2 9
v 1 2 9
v 2 3 9
v 2 4 9
v 1 4 9
v 0 3 9
v 1 2 6.282248055100581E-10
v 1 2 8
v 1 4 6.282248055100581E-10
v 1 4 8
v 1 2 4
v 1 4 4
v 1 3 6.282248055100581E-10
v 1 3 8
v 0 2 1.2564496110201162E-09
v 0 4 1.2564496110201162E-09
v 1 2 6.282248055100581E-10
v 1 4 6.282248055100581E-10
v 0 3 1.2564496110201162E-09
v 1 3 6.282248055100581E-10
v 1 2 8
v 1 4 8
v 2 2 8
v 2 3 8
v 2 4 8
v 1 3 8
v 0 2 1.2564496110201162E-09
v 0 2 9
v 1 2 6.282248055100581E-10
v 0 2 8
v 0 2 4
v 2 2 9
v 1 2 9
v 1 2 4
v 1 2 8
v 2 2 8
v 2 2 9
v 2 4 8
v 2 4 9
v 2 3 9
v 2 2 8
v 2 3 8
v 2 4 9
v 0 4 1.2564496110201162E-09
v 0 4 9
v 0 4 4
v 0 4 8
v 1 4 9
v 1 4 6.282248055100581E-10
v 1 4 8
v 1 4 4
v 2 4 8
v 0 4 9
v 0 2 8
v 0 2 9
v 0 4 8
v 0 3 8
v 0 3 9
v 0 4 1.2564496110201162E-09
v 0 4 8
v 0 2 1.2564496110201162E-09
v 0 2 8
v 0 2 4
v 0 4 4
v 0 3 1.2564496110201162E-09
v 0 3 8
f 8 3 4
f 8 7 1
f 5 8 4
f 8 5 7
f 5 6 7
f 2 5 4
f 13 9 15
f 13 16 10
f 16 13 15
f 16 15 11 14
f 14 12 16
f 21 22 19 17
f 18 20 22 21
f 28 26 25 23
f 24 27 26 28
f 36 37 33
f 30 32 37
f 33 37 32
f 35 30 37
f 36 33 29
f 29 31 36
f 34 35 38
f 38 35 37
f 42 39 43 44
f 44 40 41 42
f 53 51 46 48
f 45 54 52 50
f 52 53 48 49
f 50 52 49 47
f 55 58 59 60
f 56 57 60 59
f 66 61 67
f 66 68 62
f 68 66 67
f 68 67 63 65
f 65 64 68
