# FlatmatesRh OBJ export
# @layer: GEO
# @craft: Group02
# @cell: 0_2
o Group02_GEO_0_2
v 0 4 9
v 0 6 9
v 2 4 9
v 1 4 9
v 2 5 9
v 2 6 9
v 1 6 9
v 0 5 9
v 1 4 1.2564496110201162E-09
v 1 4 8
v 1 6 1.2564496110201162E-09
v 1 6 8
v 1 4 4
v 1 6 4
v 1 5 1.2564496110201162E-09
v 1 5 8
v 0 4 2.5128992220402324E-09
v 0 6 2.5128992220402324E-09
v 1 4 1.2564496110201162E-09
v 1 6 1.2564496110201162E-09
v 0 5 2.5128992220402324E-09
v 1 5 1.2564496110201162E-09
v 1 4 8
v 1 6 8
v 2 4 8
v 2 5 8
v 2 6 8
v 1 5 8
v 0 4 2.5128992220402324E-09
v 2 4 9
v 1 4 1.2564496110201162E-09
v 0 4 8
v 0 4 4
v 1 4 9
v 1 4 4
v 1 4 8
v 2 4 8
v 0 4 9
v 2 4 8
v 2 6 9
v 2 5 9
v 2 5 8
v 2 4 9
v 2 6 8
v 0 6 2.5128992220402324E-09
v 0 6 9
v 0 6 4
v 0 6 8
v 1 6 9
v 1 6 1.2564496110201162E-09
v 1 6 6.75
v 0.5 6 4.5
v 0.5 6 6.75
v 1 6 8
v 1 6 4
v 2 6 8
v 2 6 9
v 1 6 2.25
v 0.5 6 2.25
v 0 6 8
v 0 4 8
v 0 4 9
v 0 5 8
v 0 5 9
v 0 6 9
v 0 6 2.5128992220402324E-09
v 0 6 8
v 0 4 2.5128992220402324E-09
v 0 4 8
v 0 4 4
v 0 6 4
v 0 5 2.5128992220402324E-09
v 0 5 8
f 8 5 7 2
f 4 8 1
f 5 4 3
f 5 6 7
f 4 5 8
f 13 9 15
f 13 16 10
f 16 13 15
f 16 15 11 14
f 14 12 16
f 21 22 19 17
f 18 20 22 21
f 28 26 25 23
f 24 27 26 28
f 33 29 31 35
f 32 33 35 36
f 38 32 36 34
f 37 30 34 36
f 43 39 42 41
f 44 40 41 42
f 52 53 51
f 58 59 52
f 59 58 50
f 52 51 55
f 54 57 56
f 53 54 51
f 49 57 54
f 47 52 59
f 59 45 47
f 45 59 50
f 53 52 47
f 46 49 53
f 53 49 54
f 53 48 46
f 48 53 47
f 52 55 58
f 65 60 63 64
f 61 62 64 63
f 71 66 72
f 71 73 67
f 73 71 72
f 73 72 68 70
f 70 69 73
