# FlatmatesRh OBJ export
# @layer: GEO
# @craft: Group02
# @cell: 0_3
o Group02_GEO_0_3
v 0 8 9
v 2 6 9
v 2 8 9
v 0 6 9
v 1 6 9
v 2 7 9
v 1 8 9
v 0 7 9
v 1 6 1.8846744165301743E-09
v 1 6 8
v 1 8 1.8846744165301743E-09
v 1 8 8
v 1 6 4
v 1 8 4
v 1 7 1.8846744165301743E-09
v 1 7 8
v 0 6 3.7693488330603486E-09
v 1 6 1.8846744165301743E-09
v 1 8 1.8846744165301743E-09
v 0 8 3.7693488330603486E-09
v 0 7 3.7693488330603486E-09
v 1 7 1.8846744165301743E-09
v 1 8 8
v 2 6 8
v 2 8 8
v 1 6 8
v 2 7 8
v 1 7 8
v 0 6 3.7693488330603486E-09
v 0 6 9
v 1 6 1.8846744165301743E-09
v 0 6 8
v 0 6 4
v 2 6 9
v 1 6 9
v 1 6 4
v 1 6 8
v 2 6 8
v 2 6 8
v 2 6 9
v 2 8 9
v 2 7 9
v 2 7 8
v 2 8 8
v 2 8 9
v 0 8 3.7693488330603486E-09
v 0 8 4
v 0 8 8
v 0 8 9
v 1 8 9
v 1 8 1.8846744165301743E-09
v 1 8 8
v 1 8 4
v 2 8 8
v 0 8 8
v 0 8 9
v 0 7 8
v 0 6 9
v 0 7 9
v 0 6 8
v 0 8 3.7693488330603486E-09
v 0 8 8
v 0 6 3.7693488330603486E-09
v 0 6 8
v 0 6 4
v 0 8 4
v 0 7 3.7693488330603486E-09
v 0 7 8
f 6 7 8
f 8 7 1
f 5 8 4
f 6 5 2
f 6 3 7
f 5 6 8
f 13 9 15
f 13 16 10
f 14 13 15 11
f 13 14 12 16
f 21 22 18 17
f 20 19 22 21
f 28 27 24 26
f 23 25 27 28
f 36 33 29
f 33 37 32
f 32 35 30
f 29 31 36
f 34 35 37
f 37 35 32
f 38 34 37
f 36 37 33
f 40 39 43 42
f 44 41 42 43
f 53 51 46 47
f 45 54 52 50
f 52 53 47 48
f 50 52 48 49
f 56 55 57 59
f 60 58 59 57
f 66 61 67
f 66 68 62
f 68 66 67
f 67 65 68
f 65 64 68
f 63 65 67
