# FlatmatesRh OBJ export
# @layer: GEO
# @craft: Group02
# @cell: 0_4
o Group02_GEO_0_4
v 0 8 5.0257984440804648E-09
v 0 10 5.0257984440804648E-09
v 1 8 2.5128992220402324E-09
v 1 10 5.0257984440804648E-09
v 0 9 5.0257984440804648E-09
v 1 9 3.7693488330603486E-09
v 0 8 9
v 0 10 9
v 2 10 9
v 1 8 9
v 2 8 9
v 2 9 9
v 1 10 9
v 0 9 9
v 1 8 2.5128992220402324E-09
v 1 8 8
v 1 10 5.0257984440804648E-09
v 1 10 8
v 1 8 4
v 1 10 4
v 1 9 3.7693488330603486E-09
v 1 9 8
v 1 10 8
v 2 8 8
v 1 8 8
v 2 9 8
v 2 10 8
v 1 9 8
v 0 8 5.0257984440804648E-09
v 0 8 9
v 2 8 9
v 1 8 9
v 1 8 2.5128992220402324E-09
v 1 8 4
v 1 8 8
v 2 8 8
v 0 8 8
v 0 8 4
v 2 8 8
v 2 8 9
v 2 10 9
v 2 9 9
v 2 9 8
v 2 10 8
v 2 10 9
v 0 10 5.0257984440804648E-09
v 0 10 9
v 1 10 9
v 1 10 5.0257984440804648E-09
v 2 10 8
v 1 10 8
v 1 10 4
v 0 10 4
v 0 10 8
v 0 10 5.0257984440804648E-09
v 0 10 9
v 0 8 5.0257984440804648E-09
v 0 8 9
v 0 9 5.0257984440804648E-09
v 0 9 9
v 0 9 4.5
v 0 9 2.25
v 0 9.5 4.5
v 0 9.5 2.25
v 0 8.5 4.5
v 0 8.5 2.25
v 0 9 6.75
v 0 8.5 6.75
v 0 9.5 6.75
v 0 8 4
v 0 8 8
v 0 10 8
v 0 10 4
f 5 6 3 1
f 2 4 6 5
f 14 7 10
f 14 13 8
f 12 14 10
f 14 12 13
f 12 9 13
f 11 12 10
f 19 15 21
f 19 22 16
f 22 19 21
f 22 21 17 20
f 20 18 22
f 28 26 24 25
f 23 27 26 28
f 38 29 33 34
f 37 38 34 35
f 30 37 35 32
f 32 35 36 31
f 40 39 43 42
f 44 41 42 43
f 52 49 46 53
f 45 50 51 48
f 51 52 53 54
f 48 51 54 47
f 68 67 61 65
f 67 69 63 61
f 61 63 64 62
f 65 61 62 66
f 73 55 64
f 59 64 55
f 64 59 62
f 66 62 59
f 72 73 63 69
f 56 72 69
f 60 56 69
f 63 73 64
f 70 65 66
f 66 57 70
f 57 66 59
f 68 65 70
f 69 67 60
f 68 60 67
f 58 68 71
f 70 71 68
f 60 68 58
