# FlatmatesRh OBJ export
# @layer: GEO
# @craft: Group02
# @cell: 1_0
o Group02_GEO_1_0
v 2 0 9
v 4 0 9
v 3 0 9
v 4 1 9
v 4 2 9
v 3 2 9
v 2 2 9
v 2 1 9
v 2 2 8
v 4 0 8
v 4 2 8
v 2 0 8
v 3 0 8
v 4 1 8
v 3 2 8
v 2 1 8
v 2 0 8
v 2 0 9
v 4 0 9
v 3 0 9
v 3 0 8
v 4 0 8
v 4 0 8
v 4 0 9
v 4 2 9
v 4 1 9
v 4 1 8
v 4 2 8
v 4 2 8
v 4 2 9
v 2 2 9
v 3 2 9
v 3 2 8
v 2 2 8
v 2 2 8
v 2 2 9
v 2 0 9
v 2 1 9
v 2 1 8
v 2 0 8
f 8 1 3
f 8 6 7
f 4 8 3
f 8 4 6
f 4 5 6
f 2 4 3
f 16 13 12
f 16 9 15
f 15 13 16
f 13 15 14
f 14 15 11
f 10 13 14
f 18 17 21 20
f 22 19 20 21
f 24 23 27 26
f 28 25 26 27
f 30 29 33 32
f 34 31 32 33
f 36 35 39 38
f 40 37 38 39
