# FlatmatesRh OBJ export
# @layer: GEO
# @craft: Group02
# @cell: 1_1
o Group02_GEO_1_1
v 2 2 9
v 4 2 8
v 4 2 9
v 3 2 9
v 2 2 8
v 3 2 8
v 4 2 9
v 4 4 8
v 4 4 9
v 4 3 9
v 4 2 8
v 4 3 8
v 4 4 9
v 2 4 8
v 2 4 9
v 3 4 9
v 4 4 8
v 3 4 8
v 2 4 9
v 2 2 8
v 2 2 9
v 2 3 9
v 2 4 8
v 2 3 8
v 2 2 9
v 3 2 9
v 4 2 9
v 4 3 9
v 4 4 9
v 3 4 9
v 2 4 9
v 2 3 9
v 2 2 8
v 4 4 8
v 3 2 8
v 4 2 8
v 4 3 8
v 3 4 8
v 2 4 8
v 2 3 8
f 1 5 6 4
f 2 3 4 6
f 11 12 10 7
f 9 10 12 8
f 13 17 18 16
f 14 15 16 18
f 23 24 22 19
f 21 22 24 20
f 32 25 26
f 32 30 31
f 30 32 26
f 26 28 30
f 28 29 30
f 27 28 26
f 40 35 33
f 40 39 38
f 38 35 40
f 35 38 37
f 37 38 34
f 36 35 37
