# FlatmatesRh OBJ export
# @layer: GEO
# @craft: Group02
# @cell: 1_4
o Group02_GEO_1_4
v 2 8 9
v 4 8 9
v 4 10 9
v 3 8 9
v 4 9 9
v 3 10 9
v 2 10 9
v 2 9 9
v 2 10 8
v 4 10 8
v 2 8 8
v 3 8 8
v 4 8 8
v 4 9 8
v 3 10 8
v 2 9 8
v 2 8 8
v 2 8 9
v 4 8 9
v 3 8 9
v 3 8 8
v 4 8 8
v 4 8 8
v 4 8 9
v 4 10 9
v 4 9 9
v 4 9 8
v 4 10 8
v 4 10 9
v 2 10 8
v 2 10 9
v 3 10 9
v 4 10 8
v 3 10 8
v 2 10 9
v 2 8 8
v 2 8 9
v 2 9 9
v 2 10 8
v 2 9 8
f 8 1 4
f 8 6 7
f 5 8 4
f 8 5 6
f 5 3 6
f 2 5 4
f 14 16 15
f 16 9 15
f 12 11 16
f 14 13 12
f 14 15 10
f 12 16 14
f 18 17 21 20
f 22 19 20 21
f 24 23 27 26
f 28 25 26 27
f 29 33 34 32
f 30 31 32 34
f 35 39 40 38
f 36 37 38 40
