# FlatmatesRh OBJ export
# @layer: GEO
# @craft: Group02
# @cell: 2_0
o Group02_GEO_2_0
v 4 2 9
v 6 0 9
v 4 0 9
v 5 0 9
v 6 1 9
v 6 2 9
v 5 2 9
v 4 1 9
v 4 0 8
v 4 2 8
v 6 0 8
v 6 2 8
v 5 0 8
v 6 1 8
v 5 2 8
v 4 1 8
v 4 0 8
v 4 0 9
v 6 0 9
v 5 0 9
v 5 0 8
v 6 0 8
v 6 0 8
v 6 0 9
v 6 2 9
v 6 1 9
v 6 1 8
v 6 2 8
v 6 2 8
v 6 2 9
v 4 2 9
v 5 2 9
v 5 2 8
v 4 2 8
v 4 2 8
v 4 2 9
v 4 0 9
v 4 1 9
v 4 1 8
v 4 0 8
f 8 3 4
f 8 7 1
f 5 8 4
f 8 5 7
f 5 6 7
f 2 5 4
f 16 13 9
f 16 10 15
f 15 13 16
f 13 15 14
f 14 15 12
f 11 13 14
f 18 17 21 20
f 22 19 20 21
f 24 23 27 26
f 28 25 26 27
f 30 29 33 32
f 34 31 32 33
f 36 35 39 38
f 40 37 38 39
