# FlatmatesRh OBJ export
# @layer: GEO
# @craft: Group02
# @cell: 2_1
o Group02_GEO_2_1
v 4 2 9
v 6 2 8
v 6 2 9
v 5 2 9
v 4 2 8
v 5 2 8
v 6 2 9
v 6 4 8
v 6 4 9
v 6 3 9
v 6 2 8
v 6 3 8
v 6 4 9
v 4 4 8
v 4 4 9
v 5 4 9
v 6 4 8
v 5 4 8
v 4 4 9
v 4 2 8
v 4 2 9
v 4 3 9
v 4 4 8
v 4 3 8
v 4 4 9
v 6 2 9
v 4 2 9
v 5 2 9
v 6 3 9
v 6 4 9
v 5 4 9
v 4 3 9
v 6 2 8
v 6 4 8
v 4 2 8
v 5 2 8
v 6 3 8
v 5 4 8
v 4 4 8
v 4 3 8
f 1 5 6 4
f 2 3 4 6
f 7 11 12 10
f 8 9 10 12
f 13 17 18 16
f 14 15 16 18
f 22 19 23 24
f 24 20 21 22
f 32 27 28
f 32 31 25
f 29 32 28
f 32 29 31
f 29 30 31
f 26 29 28
f 40 36 35
f 40 39 38
f 37 36 40
f 40 38 37
f 37 38 34
f 33 36 37
