# FlatmatesRh OBJ export
# @layer: GEO
# @craft: Group02
# @cell: 2_2
o Group02_GEO_2_2
v 4 4 8
v 6 4 9
v 5 4 9
v 5 4 8
v 6 4 8
v 4 4 9
v 6 4 8
v 6 6 9
v 6 5 9
v 6 5 8
v 6 4 9
v 6 6 8
v 6 6 8
v 4 6 9
v 5 6 9
v 5 6 8
v 6 6 9
v 4 6 8
v 4 6 8
v 4 4 9
v 4 5 9
v 4 5 8
v 4 4 8
v 4 6 9
v 4 4 9
v 4 6 9
v 6 4 9
v 6 6 9
v 5 4 9
v 6 5 9
v 5 6 9
v 4 5 9
v 4 4 8
v 4 6 8
v 6 4 8
v 6 6 8
v 5 4 8
v 6 5 8
v 5 6 8
v 4 5 8
f 6 1 4 3
f 5 2 3 4
f 11 7 10 9
f 12 8 9 10
f 17 13 16 15
f 18 14 15 16
f 24 19 22 21
f 23 20 21 22
f 32 25 29
f 32 31 26
f 30 32 29
f 32 30 31
f 30 28 31
f 27 30 29
f 40 37 33
f 40 34 39
f 38 37 40
f 40 39 38
f 38 39 36
f 35 37 38
