# FlatmatesRh OBJ export
# @layer: GEO
# @craft: Group02
# @cell: 2_3
o Group02_GEO_2_3
v 4 6 8
v 4 6 9
v 6 6 9
v 5 6 9
v 5 6 8
v 6 6 8
v 6 6 8
v 6 6 9
v 6 8 9
v 6 7 9
v 6 7 8
v 6 8 8
v 6 8 8
v 6 8 9
v 4 8 9
v 5 8 9
v 5 8 8
v 4 8 8
v 4 8 8
v 4 8 9
v 4 6 9
v 4 7 9
v 4 7 8
v 4 6 8
v 4 6 9
v 4 8 9
v 5 6 9
v 6 6 9
v 6 7 9
v 6 8 9
v 5 8 9
v 4 7 9
v 4 6 8
v 4 8 8
v 6 6 8
v 6 8 8
v 5 6 8
v 6 7 8
v 5 8 8
v 4 7 8
f 2 1 5 4
f 6 3 4 5
f 8 7 11 10
f 12 9 10 11
f 14 13 17 16
f 18 15 16 17
f 20 19 23 22
f 24 21 22 23
f 32 25 27
f 32 31 26
f 31 32 27
f 27 29 31
f 29 30 31
f 28 29 27
f 40 37 33
f 40 34 39
f 39 37 40
f 37 39 38
f 38 39 36
f 35 37 38
