# FlatmatesRh OBJ export
# @layer: GEO
# @craft: Group02
# @cell: 2_4
o Group02_GEO_2_4
v 4 8 9
v 4 10 9
v 6 8 9
v 5 8 9
v 6 9 9
v 6 10 9
v 5 10 9
v 4 9 9
v 4 10 8
v 6 10 8
v 4 8 8
v 5 8 8
v 6 8 8
v 6 9 8
v 5 10 8
v 4 9 8
v 4 8 8
v 4 8 9
v 6 8 9
v 5 8 9
v 5 8 8
v 6 8 8
v 6 8 8
v 6 8 9
v 6 10 9
v 6 9 9
v 6 9 8
v 6 10 8
v 6 10 9
v 4 10 8
v 4 10 9
v 5 10 9
v 6 10 8
v 5 10 8
v 4 10 9
v 4 8 8
v 4 8 9
v 4 9 9
v 4 10 8
v 4 9 8
f 8 1 4
f 8 7 2
f 7 8 4
f 4 5 7
f 5 6 7
f 3 5 4
f 16 12 11
f 16 9 15
f 14 13 12 16
f 16 15 14
f 14 15 10
f 18 17 21 20
f 22 19 20 21
f 24 23 27 26
f 28 25 26 27
f 29 33 34 32
f 30 31 32 34
f 35 39 40 38
f 36 37 38 40
