# FlatmatesRh OBJ export
# @layer: GEO
# @craft: Group02
# @cell: 3_1
o Group02_GEO_3_1
v 6 2 9
v 8 2 8
v 8 2 9
v 7 2 9
v 6 2 8
v 7 2 8
v 8 2 9
v 8 4 8
v 8 4 9
v 8 3 9
v 8 2 8
v 8 3 8
v 8 4 9
v 6 4 8
v 6 4 9
v 7 4 9
v 8 4 8
v 7 4 8
v 6 4 9
v 6 2 8
v 6 2 9
v 6 3 9
v 6 4 8
v 6 3 8
v 6 2 9
v 6 4 9
v 8 2 9
v 8 4 9
v 7 2 9
v 8 3 9
v 7 4 9
v 6 3 9
v 6 2 8
v 6 4 8
v 8 2 8
v 8 4 8
v 7 2 8
v 8 3 8
v 7 4 8
v 6 3 8
f 1 5 6 4
f 2 3 4 6
f 7 11 12 10
f 8 9 10 12
f 13 17 18 16
f 14 15 16 18
f 19 23 24 22
f 20 21 22 24
f 32 25 29
f 32 31 26
f 30 32 29
f 32 30 31
f 30 28 31
f 27 30 29
f 40 37 33
f 40 34 39
f 38 37 40
f 40 39 38
f 38 39 36
f 35 37 38
