# FlatmatesRh OBJ export
# @layer: GEO
# @craft: Group02
# @cell: 3_4
o Group02_GEO_3_4
v 6 10 9
v 6 8 9
v 7 8 9
v 8 8 9
v 8 9 9
v 8 10 9
v 7 10 9
v 6 9 9
v 6 8 8
v 8 10 8
v 7 8 8
v 8 8 8
v 8 9 8
v 7 10 8
v 6 10 8
v 6 9 8
v 6 8 8
v 6 8 9
v 8 8 9
v 7 8 9
v 7 8 8
v 8 8 8
v 8 8 8
v 8 8 9
v 8 10 9
v 8 9 9
v 8 9 8
v 8 10 8
v 8 10 9
v 6 10 8
v 6 10 9
v 7 10 9
v 8 10 8
v 7 10 8
v 6 10 9
v 6 8 8
v 6 8 9
v 6 9 9
v 6 10 8
v 6 9 8
f 8 2 3
f 8 7 1
f 7 8 3
f 3 5 7
f 5 6 7
f 4 5 3
f 16 11 9
f 16 15 14
f 13 11 16
f 16 14 13
f 13 14 10
f 12 11 13
f 18 17 21 20
f 22 19 20 21
f 24 23 27 26
f 28 25 26 27
f 29 33 34 32
f 30 31 32 34
f 35 39 40 38
f 36 37 38 40
