# FlatmatesRh OBJ export
# @layer: GEO
# @craft: Group02
# @cell: 4_0
o Group02_GEO_4_0
v 9 0 0
v 9 1 0
v 10 0 0
v 10 1 0
v 10 0.5 0
v 9.5 1 0
v 9 0.5 0
v 9.5 0 0
v 8 0 9
v 10 0 9
v 10 2 9
v 9 0 9
v 10 1 9
v 9 2 9
v 8 2 9
v 8 1 9
v 10 1 0
v 10 1 8
v 9 1 0
v 9 1 8
v 9 1 2.6666667461395264
v 9 1 5.3333334922790527
v 10 1 5.3333334922790527
v 10 1 2.6666667461395264
v 9.5 1 0
v 9 1 0
v 9 1 8
v 9 0 0
v 9 0 8
v 9 1 5.3333334922790527
v 9 1 2.6666667461395264
v 9 0 2.6666667461395264
v 9 0 5.3333334922790527
v 9 0.5 0
v 8 0 8
v 10 2 8
v 9 1 8
v 10 1 8
v 9 0 8
v 9 2 8
v 8 2 8
v 8 1 8
v 8 0 9
v 10 0 0
v 10 0 9
v 9 0 9
v 9 0 0
v 8 0 8
v 9 0 8
v 9 0 5.3333334922790527
v 9 0 2.6666667461395264
v 9.5 0 0
v 9.5 0 2.25
v 9.5 0 1.125
v 9.25 0 2.25
v 9.25 0 1.125
v 9.75 0 2.25
v 9.75 0 1.125
v 10 0 4
v 10 0 8
v 10 0 0
v 10 0 9
v 10 0.5 0
v 10 1 0
v 10 0.5 2.25
v 10 0.5 1.125
v 10 0.25 2.25
v 10 0.25 1.125
v 10 0.75 2.25
v 10 0.75 1.125
v 10 2 9
v 10 1 9
v 10 1 8
v 10 2 8
v 10 1 2.6666667461395264
v 10 1 5.3333334922790527
v 10 0 8
v 10 0 4
v 10 2 8
v 10 2 9
v 8 2 9
v 9 2 9
v 9 2 8
v 8 2 8
v 8 2 8
v 8 2 9
v 8 0 9
v 8 1 9
v 8 1 8
v 8 0 8
f 7 8 1
f 7 2 6
f 5 8 7
f 7 6 5
f 5 6 4
f 3 8 5
f 16 9 12
f 16 14 15
f 14 16 12
f 12 13 14
f 13 11 14
f 10 13 12
f 25 24 17
f 18 23 22 20
f 23 24 21 22
f 21 25 19
f 21 24 25
f 34 31 26
f 27 30 33 29
f 30 31 32 33
f 32 34 28
f 32 31 34
f 42 37 39 35
f 41 40 37 42
f 38 37 40 36
f 53 55 56 54
f 57 53 54 58
f 51 47 56 55
f 56 47 52
f 50 51 55
f 43 48 49 46
f 49 50 59 60
f 46 49 60 45
f 55 53 50
f 58 54 52
f 57 58 44
f 52 44 58
f 59 53 57
f 59 57 44
f 59 50 53
f 52 54 56
f 65 67 68 66
f 69 65 66 70
f 67 61 68
f 63 68 61
f 68 63 66
f 70 66 63
f 77 78 76 73
f 62 77 73 72
f 67 65 78
f 78 65 76
f 67 78 61
f 75 69 70
f 70 64 75
f 64 70 63
f 76 69 75
f 74 71 72 73
f 76 65 69
f 80 79 83 82
f 84 81 82 83
f 86 85 89 88
f 90 87 88 89
