# FlatmatesRh OBJ export
# @layer: GEO
# @craft: Group02
# @cell: 4_1
o Group02_GEO_4_1
v 8 2 9
v 8 4 9
v 10 4 9
v 9 2 9
v 10 2 9
v 10 3 9
v 9 4 9
v 8 3 9
v 8 2 8
v 8 4 8
v 10 4 8
v 9 2 8
v 10 2 8
v 10 3 8
v 9 4 8
v 8 3 8
v 8 2 9
v 10 2 8
v 10 2 9
v 9 2 9
v 8 2 8
v 9 2 8
v 10 2 9
v 10 4 8
v 10 4 9
v 10 3 9
v 10 2 8
v 10 3 8
v 10 4 9
v 8 4 8
v 8 4 9
v 9 4 9
v 10 4 8
v 9 4 8
v 8 4 9
v 8 2 8
v 8 2 9
v 8 3 9
v 8 4 8
v 8 3 8
f 8 1 4
f 8 7 2
f 6 8 4
f 8 6 7
f 6 3 7
f 5 6 4
f 16 12 9
f 16 10 15
f 14 12 16
f 16 15 14
f 14 15 11
f 13 12 14
f 17 21 22 20
f 18 19 20 22
f 23 27 28 26
f 24 25 26 28
f 29 33 34 32
f 30 31 32 34
f 35 39 40 38
f 36 37 38 40
