# FlatmatesRh OBJ export
# @layer: GEO
# @craft: Group02
# @cell: 4_2
o Group02_GEO_4_2
v 8 6 9
v 10 4 9
v 10 6 9
v 8 4 9
v 9 4 9
v 10 5 9
v 9 6 9
v 8 5 9
v 8 4 8
v 8 6 8
v 10 4 8
v 10 6 8
v 9 4 8
v 10 5 8
v 9 6 8
v 8 5 8
v 10 4 8
v 10 4 9
v 9 4 9
v 8 4 8
v 9 4 8
v 8 4 9
v 10 4 8
v 10 6 8
v 10 6 9
v 10 5 9
v 10 5 8
v 10 4 9
v 10 6 8
v 8 6 9
v 9 6 9
v 9 6 8
v 10 6 9
v 8 6 8
v 8 6 8
v 8 4 9
v 8 5 9
v 8 5 8
v 8 4 8
v 8 6 9
f 8 4 5
f 8 7 1
f 6 8 5
f 8 6 7
f 6 3 7
f 2 6 5
f 16 13 9
f 16 10 15
f 14 13 16
f 16 15 14
f 14 15 12
f 11 13 14
f 22 20 21 19
f 17 18 19 21
f 28 23 27 26
f 24 25 26 27
f 33 29 32 31
f 34 30 31 32
f 40 35 38 37
f 39 36 37 38
