# FlatmatesRh OBJ export
# @layer: GEO
# @craft: Group02
# @cell: 4_3
o Group02_GEO_4_3
v 8 6 9
v 10 8 9
v 9 6 9
v 10 6 9
v 10 7 9
v 9 8 9
v 8 8 9
v 8 7 9
v 8 6 8
v 8 8 8
v 10 6 8
v 10 8 8
v 9 6 8
v 10 7 8
v 9 8 8
v 8 7 8
v 8 6 8
v 8 6 9
v 10 6 9
v 9 6 9
v 9 6 8
v 10 6 8
v 10 6 8
v 10 6 9
v 10 8 9
v 10 7 9
v 10 7 8
v 10 8 8
v 10 8 8
v 10 8 9
v 8 8 9
v 9 8 9
v 9 8 8
v 8 8 8
v 8 8 8
v 8 8 9
v 8 6 9
v 8 7 9
v 8 7 8
v 8 6 8
f 8 1 3
f 8 6 7
f 5 8 3
f 8 5 6
f 5 2 6
f 4 5 3
f 16 13 9
f 16 10 15
f 15 13 16
f 13 15 14
f 14 15 12
f 11 13 14
f 18 17 21 20
f 22 19 20 21
f 24 23 27 26
f 28 25 26 27
f 30 29 33 32
f 34 31 32 33
f 36 35 39 38
f 40 37 38 39
