# FlatmatesRh OBJ export
# @layer: GEO
# @craft: Group02
# @cell: 4_4
o Group02_GEO_4_4
v 9 9 0
v 9 10 5.0257984440804648E-09
v 10 9 5.0257984440804648E-09
v 10 10 5.0257984440804648E-09
v 9.5 10 5.0257984440804648E-09
v 9 9.5 2.5128992220402324E-09
v 9.5 9 2.5128992220402324E-09
v 10 9.5 5.0257984440804648E-09
v 8 10 9
v 10 8 9
v 10 10 9
v 8 8 9
v 9 8 9
v 10 9 9
v 9 10 9
v 8 9 9
v 9 10 5.0257984440804648E-09
v 9 10 8
v 9 9 0
v 9 9 8
v 9 9.5 2.5128992220402324E-09
v 9 9 2.6666667461395264
v 9 9 5.3333334922790527
v 9 10 5.3333334922790527
v 9 10 2.6666667461395264
v 9 9 0
v 9 9 8
v 10 9 5.0257984440804648E-09
v 10 9 8
v 9 9 5.3333334922790527
v 9 9 2.6666667461395264
v 9.5 9 2.5128992220402324E-09
v 10 9 2.6666667461395264
v 10 9 5.3333334922790527
v 8 8 8
v 9 9 8
v 9 10 8
v 10 9 8
v 9 8 8
v 10 8 8
v 8 10 8
v 8 9 8
v 8 8 8
v 8 8 9
v 10 8 9
v 9 8 9
v 9 8 8
v 10 8 8
v 10 8 9
v 10 10 5.0257984440804648E-09
v 10 10 9
v 10 9 9
v 10 9 5.0257984440804648E-09
v 10 8 8
v 10 9 8
v 10 9 5.3333334922790527
v 10 9 2.6666667461395264
v 10 9.5 5.0257984440804648E-09
v 10 9.5 2.25
v 10 9.5 1.125
v 10 9.25 2.25
v 10 9.25 1.125
v 10 9.75 2.25
v 10 9.75 1.125
v 10 10 4
v 10 10 8
v 10 10 5.0257984440804648E-09
v 10 10 9
v 8 10 9
v 9.5 10 5.0257984440804648E-09
v 9 10 9
v 9 10 5.0257984440804648E-09
v 9.5 10 2.25
v 9.5 10 1.125
v 9.75 10 2.25
v 9.75 10 1.125
v 9.25 10 2.25
v 9.25 10 1.125
v 9 10 8
v 8 10 8
v 9 10 2.6666667461395264
v 9 10 5.3333334922790527
v 10 10 8
v 10 10 4
v 8 10 9
v 8 8 8
v 8 8 9
v 8 9 9
v 8 10 8
v 8 9 8
f 6 7 1
f 6 2 5
f 8 7 6
f 6 5 8
f 8 5 4
f 3 7 8
f 16 12 13
f 16 15 9
f 14 16 13
f 16 14 15
f 14 11 15
f 10 14 13
f 21 25 17
f 18 24 23 20
f 24 25 22 23
f 22 21 19
f 22 25 21
f 32 31 26
f 27 30 34 29
f 30 31 33 34
f 33 32 28
f 33 31 32
f 42 36 39 35
f 41 37 36 42
f 40 39 36 38
f 44 43 47 46
f 48 45 46 47
f 59 61 62 60
f 63 59 60 64
f 57 53 62 61
f 62 53 58
f 56 57 61
f 49 54 55 52
f 56 66 55
f 52 55 66 51
f 61 59 56
f 62 58 60
f 64 60 58
f 63 64 50
f 58 50 64
f 65 59 63
f 65 66 56
f 65 63 50
f 65 56 59
f 73 75 76 74
f 77 73 74 78
f 75 67 76
f 70 76 67
f 76 70 74
f 78 74 70
f 83 84 82 79
f 68 83 79 71
f 75 73 84
f 84 73 82
f 75 84 67
f 81 77 78
f 78 72 81
f 72 78 70
f 82 77 81
f 80 69 71 79
f 82 73 77
f 85 89 90 88
f 86 87 88 90
